G04 #@! TF.GenerationSoftware,KiCad,Pcbnew,(5.1.7)-1*
G04 #@! TF.CreationDate,2021-05-24T20:06:32+02:00*
G04 #@! TF.ProjectId,dcdcdc,64636463-6463-42e6-9b69-6361645f7063,rev?*
G04 #@! TF.SameCoordinates,Original*
G04 #@! TF.FileFunction,Profile,NP*
%FSLAX46Y46*%
G04 Gerber Fmt 4.6, Leading zero omitted, Abs format (unit mm)*
G04 Created by KiCad (PCBNEW (5.1.7)-1) date 2021-05-24 20:06:32*
%MOMM*%
%LPD*%
G01*
G04 APERTURE LIST*
G04 #@! TA.AperFunction,Profile*
%ADD10C,0.050000*%
G04 #@! TD*
G04 #@! TA.AperFunction,Profile*
%ADD11C,0.100000*%
G04 #@! TD*
G04 APERTURE END LIST*
D10*
X0Y-57800000D02*
X0Y0D01*
X49000000Y-57800000D02*
X0Y-57800000D01*
X49000000Y0D02*
X49000000Y-57800000D01*
X0Y0D02*
X49000000Y0D01*
D11*
X1174000Y-55880000D02*
X1874000Y-55880000D01*
X1874000Y-55380000D02*
X1174000Y-55380000D01*
X1174000Y-47240000D02*
X1874000Y-47240000D01*
X1874000Y-46740000D02*
X1174000Y-46740000D01*
X4974000Y-55880000D02*
X5674000Y-55880000D01*
X5674000Y-55380000D02*
X4974000Y-55380000D01*
X4974000Y-47240000D02*
X5674000Y-47240000D01*
X5674000Y-46740000D02*
X4974000Y-46740000D01*
X4974000Y-46740000D02*
G75*
G03*
X4724000Y-46990000I0J-250000D01*
G01*
X4724000Y-46990000D02*
G75*
G03*
X4974000Y-47240000I250000J0D01*
G01*
X5674000Y-47240000D02*
G75*
G03*
X5924000Y-46990000I0J250000D01*
G01*
X5924000Y-46990000D02*
G75*
G03*
X5674000Y-46740000I-250000J0D01*
G01*
X4974000Y-55380000D02*
G75*
G03*
X4724000Y-55630000I0J-250000D01*
G01*
X4724000Y-55630000D02*
G75*
G03*
X4974000Y-55880000I250000J0D01*
G01*
X5674000Y-55880000D02*
G75*
G03*
X5924000Y-55630000I0J250000D01*
G01*
X5924000Y-55630000D02*
G75*
G03*
X5674000Y-55380000I-250000J0D01*
G01*
X1174000Y-46740000D02*
G75*
G03*
X924000Y-46990000I0J-250000D01*
G01*
X924000Y-46990000D02*
G75*
G03*
X1174000Y-47240000I250000J0D01*
G01*
X1874000Y-47240000D02*
G75*
G03*
X2124000Y-46990000I0J250000D01*
G01*
X2124000Y-46990000D02*
G75*
G03*
X1874000Y-46740000I-250000J0D01*
G01*
X1174000Y-55380000D02*
G75*
G03*
X924000Y-55630000I0J-250000D01*
G01*
X924000Y-55630000D02*
G75*
G03*
X1174000Y-55880000I250000J0D01*
G01*
X1874000Y-55880000D02*
G75*
G03*
X2124000Y-55630000I0J250000D01*
G01*
X2124000Y-55630000D02*
G75*
G03*
X1874000Y-55380000I-250000J0D01*
G01*
M02*
