G04 #@! TF.GenerationSoftware,KiCad,Pcbnew,(5.1.7)-1*
G04 #@! TF.CreationDate,2021-05-24T20:06:32+02:00*
G04 #@! TF.ProjectId,dcdcdc,64636463-6463-42e6-9b69-6361645f7063,rev?*
G04 #@! TF.SameCoordinates,Original*
G04 #@! TF.FileFunction,Soldermask,Top*
G04 #@! TF.FilePolarity,Negative*
%FSLAX46Y46*%
G04 Gerber Fmt 4.6, Leading zero omitted, Abs format (unit mm)*
G04 Created by KiCad (PCBNEW (5.1.7)-1) date 2021-05-24 20:06:32*
%MOMM*%
%LPD*%
G01*
G04 APERTURE LIST*
%ADD10C,0.150000*%
%ADD11C,0.010000*%
%ADD12C,1.502000*%
%ADD13C,1.302000*%
%ADD14C,1.702000*%
%ADD15C,0.602000*%
%ADD16C,3.302000*%
%ADD17O,1.702000X1.402000*%
%ADD18C,1.405000*%
%ADD19C,2.102000*%
%ADD20C,2.100980*%
%ADD21C,0.100000*%
G04 APERTURE END LIST*
D10*
X25529071Y-53152142D02*
X24243357Y-55080714D01*
X25814785Y-53723571D02*
X26386214Y-53723571D01*
X26029071Y-53223571D02*
X26029071Y-54509285D01*
X26100500Y-54652142D01*
X26243357Y-54723571D01*
X26386214Y-54723571D01*
X27529071Y-54723571D02*
X27529071Y-53223571D01*
X27529071Y-54652142D02*
X27386214Y-54723571D01*
X27100500Y-54723571D01*
X26957642Y-54652142D01*
X26886214Y-54580714D01*
X26814785Y-54437857D01*
X26814785Y-54009285D01*
X26886214Y-53866428D01*
X26957642Y-53795000D01*
X27100500Y-53723571D01*
X27386214Y-53723571D01*
X27529071Y-53795000D01*
X28886214Y-54652142D02*
X28743357Y-54723571D01*
X28457642Y-54723571D01*
X28314785Y-54652142D01*
X28243357Y-54580714D01*
X28171928Y-54437857D01*
X28171928Y-54009285D01*
X28243357Y-53866428D01*
X28314785Y-53795000D01*
X28457642Y-53723571D01*
X28743357Y-53723571D01*
X28886214Y-53795000D01*
X29314785Y-53723571D02*
X29886214Y-53723571D01*
X29529071Y-53223571D02*
X29529071Y-54509285D01*
X29600500Y-54652142D01*
X29743357Y-54723571D01*
X29886214Y-54723571D01*
X31029071Y-54723571D02*
X31029071Y-53223571D01*
X31029071Y-54652142D02*
X30886214Y-54723571D01*
X30600500Y-54723571D01*
X30457642Y-54652142D01*
X30386214Y-54580714D01*
X30314785Y-54437857D01*
X30314785Y-54009285D01*
X30386214Y-53866428D01*
X30457642Y-53795000D01*
X30600500Y-53723571D01*
X30886214Y-53723571D01*
X31029071Y-53795000D01*
X32386214Y-54652142D02*
X32243357Y-54723571D01*
X31957642Y-54723571D01*
X31814785Y-54652142D01*
X31743357Y-54580714D01*
X31671928Y-54437857D01*
X31671928Y-54009285D01*
X31743357Y-53866428D01*
X31814785Y-53795000D01*
X31957642Y-53723571D01*
X32243357Y-53723571D01*
X32386214Y-53795000D01*
X32814785Y-53723571D02*
X33386214Y-53723571D01*
X33029071Y-53223571D02*
X33029071Y-54509285D01*
X33100500Y-54652142D01*
X33243357Y-54723571D01*
X33386214Y-54723571D01*
X34529071Y-54723571D02*
X34529071Y-53223571D01*
X34529071Y-54652142D02*
X34386214Y-54723571D01*
X34100500Y-54723571D01*
X33957642Y-54652142D01*
X33886214Y-54580714D01*
X33814785Y-54437857D01*
X33814785Y-54009285D01*
X33886214Y-53866428D01*
X33957642Y-53795000D01*
X34100500Y-53723571D01*
X34386214Y-53723571D01*
X34529071Y-53795000D01*
X35886214Y-54652142D02*
X35743357Y-54723571D01*
X35457642Y-54723571D01*
X35314785Y-54652142D01*
X35243357Y-54580714D01*
X35171928Y-54437857D01*
X35171928Y-54009285D01*
X35243357Y-53866428D01*
X35314785Y-53795000D01*
X35457642Y-53723571D01*
X35743357Y-53723571D01*
X35886214Y-53795000D01*
X24457642Y-57123571D02*
X24457642Y-56123571D01*
X24457642Y-56266428D02*
X24529071Y-56195000D01*
X24671928Y-56123571D01*
X24886214Y-56123571D01*
X25029071Y-56195000D01*
X25100500Y-56337857D01*
X25100500Y-57123571D01*
X25100500Y-56337857D02*
X25171928Y-56195000D01*
X25314785Y-56123571D01*
X25529071Y-56123571D01*
X25671928Y-56195000D01*
X25743357Y-56337857D01*
X25743357Y-57123571D01*
X27100500Y-57123571D02*
X27100500Y-56337857D01*
X27029071Y-56195000D01*
X26886214Y-56123571D01*
X26600500Y-56123571D01*
X26457642Y-56195000D01*
X27100500Y-57052142D02*
X26957642Y-57123571D01*
X26600500Y-57123571D01*
X26457642Y-57052142D01*
X26386214Y-56909285D01*
X26386214Y-56766428D01*
X26457642Y-56623571D01*
X26600500Y-56552142D01*
X26957642Y-56552142D01*
X27100500Y-56480714D01*
X27814785Y-57123571D02*
X27814785Y-56123571D01*
X27814785Y-55623571D02*
X27743357Y-55695000D01*
X27814785Y-55766428D01*
X27886214Y-55695000D01*
X27814785Y-55623571D01*
X27814785Y-55766428D01*
X29600500Y-55766428D02*
X29671928Y-55695000D01*
X29814785Y-55623571D01*
X30171928Y-55623571D01*
X30314785Y-55695000D01*
X30386214Y-55766428D01*
X30457642Y-55909285D01*
X30457642Y-56052142D01*
X30386214Y-56266428D01*
X29529071Y-57123571D01*
X30457642Y-57123571D01*
X31386214Y-55623571D02*
X31529071Y-55623571D01*
X31671928Y-55695000D01*
X31743357Y-55766428D01*
X31814785Y-55909285D01*
X31886214Y-56195000D01*
X31886214Y-56552142D01*
X31814785Y-56837857D01*
X31743357Y-56980714D01*
X31671928Y-57052142D01*
X31529071Y-57123571D01*
X31386214Y-57123571D01*
X31243357Y-57052142D01*
X31171928Y-56980714D01*
X31100500Y-56837857D01*
X31029071Y-56552142D01*
X31029071Y-56195000D01*
X31100500Y-55909285D01*
X31171928Y-55766428D01*
X31243357Y-55695000D01*
X31386214Y-55623571D01*
X32457642Y-55766428D02*
X32529071Y-55695000D01*
X32671928Y-55623571D01*
X33029071Y-55623571D01*
X33171928Y-55695000D01*
X33243357Y-55766428D01*
X33314785Y-55909285D01*
X33314785Y-56052142D01*
X33243357Y-56266428D01*
X32386214Y-57123571D01*
X33314785Y-57123571D01*
X34743357Y-57123571D02*
X33886214Y-57123571D01*
X34314785Y-57123571D02*
X34314785Y-55623571D01*
X34171928Y-55837857D01*
X34029071Y-55980714D01*
X33886214Y-56052142D01*
D11*
G36*
X1524000Y-55630000D02*
G01*
X1514000Y-55630000D01*
X1514000Y-56230000D01*
X1174000Y-56230000D01*
X1142598Y-56229178D01*
X1111283Y-56226713D01*
X1080139Y-56222613D01*
X1049253Y-56216889D01*
X1018709Y-56209555D01*
X988590Y-56200634D01*
X958979Y-56190148D01*
X929958Y-56178127D01*
X901606Y-56164604D01*
X874000Y-56149615D01*
X847217Y-56133202D01*
X821329Y-56115410D01*
X796408Y-56096288D01*
X772522Y-56075887D01*
X749736Y-56054264D01*
X728113Y-56031478D01*
X707712Y-56007592D01*
X688590Y-55982671D01*
X670798Y-55956783D01*
X654385Y-55930000D01*
X639396Y-55902394D01*
X625873Y-55874042D01*
X613852Y-55845021D01*
X603366Y-55815410D01*
X594445Y-55785291D01*
X587111Y-55754747D01*
X581387Y-55723861D01*
X577287Y-55692717D01*
X574822Y-55661402D01*
X574000Y-55630000D01*
X574822Y-55598598D01*
X577287Y-55567283D01*
X581387Y-55536139D01*
X587111Y-55505253D01*
X594445Y-55474709D01*
X603366Y-55444590D01*
X613852Y-55414979D01*
X625873Y-55385958D01*
X639396Y-55357606D01*
X654385Y-55330000D01*
X670798Y-55303217D01*
X688590Y-55277329D01*
X707712Y-55252408D01*
X728113Y-55228522D01*
X749736Y-55205736D01*
X772522Y-55184113D01*
X796408Y-55163712D01*
X821329Y-55144590D01*
X847217Y-55126798D01*
X874000Y-55110385D01*
X901606Y-55095396D01*
X929958Y-55081873D01*
X958979Y-55069852D01*
X988590Y-55059366D01*
X1018709Y-55050445D01*
X1049253Y-55043111D01*
X1080139Y-55037387D01*
X1111283Y-55033287D01*
X1142598Y-55030822D01*
X1174000Y-55030000D01*
X1874000Y-55030000D01*
X1905402Y-55030822D01*
X1936717Y-55033287D01*
X1967861Y-55037387D01*
X1998747Y-55043111D01*
X2029291Y-55050445D01*
X2059410Y-55059366D01*
X2089021Y-55069852D01*
X2118042Y-55081873D01*
X2146394Y-55095396D01*
X2174000Y-55110385D01*
X2200783Y-55126798D01*
X2226671Y-55144590D01*
X2251592Y-55163712D01*
X2275478Y-55184113D01*
X2298264Y-55205736D01*
X2319887Y-55228522D01*
X2340288Y-55252408D01*
X2359410Y-55277329D01*
X2377202Y-55303217D01*
X2393615Y-55330000D01*
X2408604Y-55357606D01*
X2422127Y-55385958D01*
X2434148Y-55414979D01*
X2444634Y-55444590D01*
X2453555Y-55474709D01*
X2460889Y-55505253D01*
X2466613Y-55536139D01*
X2470713Y-55567283D01*
X2473178Y-55598598D01*
X2474000Y-55630000D01*
X2473178Y-55661402D01*
X2470713Y-55692717D01*
X2466613Y-55723861D01*
X2460889Y-55754747D01*
X2453555Y-55785291D01*
X2444634Y-55815410D01*
X2434148Y-55845021D01*
X2422127Y-55874042D01*
X2408604Y-55902394D01*
X2393615Y-55930000D01*
X2377202Y-55956783D01*
X2359410Y-55982671D01*
X2340288Y-56007592D01*
X2319887Y-56031478D01*
X2298264Y-56054264D01*
X2275478Y-56075887D01*
X2251592Y-56096288D01*
X2226671Y-56115410D01*
X2200783Y-56133202D01*
X2174000Y-56149615D01*
X2146394Y-56164604D01*
X2118042Y-56178127D01*
X2089021Y-56190148D01*
X2059410Y-56200634D01*
X2029291Y-56209555D01*
X1998747Y-56216889D01*
X1967861Y-56222613D01*
X1936717Y-56226713D01*
X1905402Y-56229178D01*
X1874000Y-56230000D01*
X1524000Y-56230000D01*
X1524000Y-55630000D01*
G37*
X1524000Y-55630000D02*
X1514000Y-55630000D01*
X1514000Y-56230000D01*
X1174000Y-56230000D01*
X1142598Y-56229178D01*
X1111283Y-56226713D01*
X1080139Y-56222613D01*
X1049253Y-56216889D01*
X1018709Y-56209555D01*
X988590Y-56200634D01*
X958979Y-56190148D01*
X929958Y-56178127D01*
X901606Y-56164604D01*
X874000Y-56149615D01*
X847217Y-56133202D01*
X821329Y-56115410D01*
X796408Y-56096288D01*
X772522Y-56075887D01*
X749736Y-56054264D01*
X728113Y-56031478D01*
X707712Y-56007592D01*
X688590Y-55982671D01*
X670798Y-55956783D01*
X654385Y-55930000D01*
X639396Y-55902394D01*
X625873Y-55874042D01*
X613852Y-55845021D01*
X603366Y-55815410D01*
X594445Y-55785291D01*
X587111Y-55754747D01*
X581387Y-55723861D01*
X577287Y-55692717D01*
X574822Y-55661402D01*
X574000Y-55630000D01*
X574822Y-55598598D01*
X577287Y-55567283D01*
X581387Y-55536139D01*
X587111Y-55505253D01*
X594445Y-55474709D01*
X603366Y-55444590D01*
X613852Y-55414979D01*
X625873Y-55385958D01*
X639396Y-55357606D01*
X654385Y-55330000D01*
X670798Y-55303217D01*
X688590Y-55277329D01*
X707712Y-55252408D01*
X728113Y-55228522D01*
X749736Y-55205736D01*
X772522Y-55184113D01*
X796408Y-55163712D01*
X821329Y-55144590D01*
X847217Y-55126798D01*
X874000Y-55110385D01*
X901606Y-55095396D01*
X929958Y-55081873D01*
X958979Y-55069852D01*
X988590Y-55059366D01*
X1018709Y-55050445D01*
X1049253Y-55043111D01*
X1080139Y-55037387D01*
X1111283Y-55033287D01*
X1142598Y-55030822D01*
X1174000Y-55030000D01*
X1874000Y-55030000D01*
X1905402Y-55030822D01*
X1936717Y-55033287D01*
X1967861Y-55037387D01*
X1998747Y-55043111D01*
X2029291Y-55050445D01*
X2059410Y-55059366D01*
X2089021Y-55069852D01*
X2118042Y-55081873D01*
X2146394Y-55095396D01*
X2174000Y-55110385D01*
X2200783Y-55126798D01*
X2226671Y-55144590D01*
X2251592Y-55163712D01*
X2275478Y-55184113D01*
X2298264Y-55205736D01*
X2319887Y-55228522D01*
X2340288Y-55252408D01*
X2359410Y-55277329D01*
X2377202Y-55303217D01*
X2393615Y-55330000D01*
X2408604Y-55357606D01*
X2422127Y-55385958D01*
X2434148Y-55414979D01*
X2444634Y-55444590D01*
X2453555Y-55474709D01*
X2460889Y-55505253D01*
X2466613Y-55536139D01*
X2470713Y-55567283D01*
X2473178Y-55598598D01*
X2474000Y-55630000D01*
X2473178Y-55661402D01*
X2470713Y-55692717D01*
X2466613Y-55723861D01*
X2460889Y-55754747D01*
X2453555Y-55785291D01*
X2444634Y-55815410D01*
X2434148Y-55845021D01*
X2422127Y-55874042D01*
X2408604Y-55902394D01*
X2393615Y-55930000D01*
X2377202Y-55956783D01*
X2359410Y-55982671D01*
X2340288Y-56007592D01*
X2319887Y-56031478D01*
X2298264Y-56054264D01*
X2275478Y-56075887D01*
X2251592Y-56096288D01*
X2226671Y-56115410D01*
X2200783Y-56133202D01*
X2174000Y-56149615D01*
X2146394Y-56164604D01*
X2118042Y-56178127D01*
X2089021Y-56190148D01*
X2059410Y-56200634D01*
X2029291Y-56209555D01*
X1998747Y-56216889D01*
X1967861Y-56222613D01*
X1936717Y-56226713D01*
X1905402Y-56229178D01*
X1874000Y-56230000D01*
X1524000Y-56230000D01*
X1524000Y-55630000D01*
G36*
X1524000Y-46990000D02*
G01*
X1514000Y-46990000D01*
X1514000Y-47590000D01*
X1174000Y-47590000D01*
X1142598Y-47589178D01*
X1111283Y-47586713D01*
X1080139Y-47582613D01*
X1049253Y-47576889D01*
X1018709Y-47569555D01*
X988590Y-47560634D01*
X958979Y-47550148D01*
X929958Y-47538127D01*
X901606Y-47524604D01*
X874000Y-47509615D01*
X847217Y-47493202D01*
X821329Y-47475410D01*
X796408Y-47456288D01*
X772522Y-47435887D01*
X749736Y-47414264D01*
X728113Y-47391478D01*
X707712Y-47367592D01*
X688590Y-47342671D01*
X670798Y-47316783D01*
X654385Y-47290000D01*
X639396Y-47262394D01*
X625873Y-47234042D01*
X613852Y-47205021D01*
X603366Y-47175410D01*
X594445Y-47145291D01*
X587111Y-47114747D01*
X581387Y-47083861D01*
X577287Y-47052717D01*
X574822Y-47021402D01*
X574000Y-46990000D01*
X574822Y-46958598D01*
X577287Y-46927283D01*
X581387Y-46896139D01*
X587111Y-46865253D01*
X594445Y-46834709D01*
X603366Y-46804590D01*
X613852Y-46774979D01*
X625873Y-46745958D01*
X639396Y-46717606D01*
X654385Y-46690000D01*
X670798Y-46663217D01*
X688590Y-46637329D01*
X707712Y-46612408D01*
X728113Y-46588522D01*
X749736Y-46565736D01*
X772522Y-46544113D01*
X796408Y-46523712D01*
X821329Y-46504590D01*
X847217Y-46486798D01*
X874000Y-46470385D01*
X901606Y-46455396D01*
X929958Y-46441873D01*
X958979Y-46429852D01*
X988590Y-46419366D01*
X1018709Y-46410445D01*
X1049253Y-46403111D01*
X1080139Y-46397387D01*
X1111283Y-46393287D01*
X1142598Y-46390822D01*
X1174000Y-46390000D01*
X1874000Y-46390000D01*
X1905402Y-46390822D01*
X1936717Y-46393287D01*
X1967861Y-46397387D01*
X1998747Y-46403111D01*
X2029291Y-46410445D01*
X2059410Y-46419366D01*
X2089021Y-46429852D01*
X2118042Y-46441873D01*
X2146394Y-46455396D01*
X2174000Y-46470385D01*
X2200783Y-46486798D01*
X2226671Y-46504590D01*
X2251592Y-46523712D01*
X2275478Y-46544113D01*
X2298264Y-46565736D01*
X2319887Y-46588522D01*
X2340288Y-46612408D01*
X2359410Y-46637329D01*
X2377202Y-46663217D01*
X2393615Y-46690000D01*
X2408604Y-46717606D01*
X2422127Y-46745958D01*
X2434148Y-46774979D01*
X2444634Y-46804590D01*
X2453555Y-46834709D01*
X2460889Y-46865253D01*
X2466613Y-46896139D01*
X2470713Y-46927283D01*
X2473178Y-46958598D01*
X2474000Y-46990000D01*
X2473178Y-47021402D01*
X2470713Y-47052717D01*
X2466613Y-47083861D01*
X2460889Y-47114747D01*
X2453555Y-47145291D01*
X2444634Y-47175410D01*
X2434148Y-47205021D01*
X2422127Y-47234042D01*
X2408604Y-47262394D01*
X2393615Y-47290000D01*
X2377202Y-47316783D01*
X2359410Y-47342671D01*
X2340288Y-47367592D01*
X2319887Y-47391478D01*
X2298264Y-47414264D01*
X2275478Y-47435887D01*
X2251592Y-47456288D01*
X2226671Y-47475410D01*
X2200783Y-47493202D01*
X2174000Y-47509615D01*
X2146394Y-47524604D01*
X2118042Y-47538127D01*
X2089021Y-47550148D01*
X2059410Y-47560634D01*
X2029291Y-47569555D01*
X1998747Y-47576889D01*
X1967861Y-47582613D01*
X1936717Y-47586713D01*
X1905402Y-47589178D01*
X1874000Y-47590000D01*
X1524000Y-47590000D01*
X1524000Y-46990000D01*
G37*
X1524000Y-46990000D02*
X1514000Y-46990000D01*
X1514000Y-47590000D01*
X1174000Y-47590000D01*
X1142598Y-47589178D01*
X1111283Y-47586713D01*
X1080139Y-47582613D01*
X1049253Y-47576889D01*
X1018709Y-47569555D01*
X988590Y-47560634D01*
X958979Y-47550148D01*
X929958Y-47538127D01*
X901606Y-47524604D01*
X874000Y-47509615D01*
X847217Y-47493202D01*
X821329Y-47475410D01*
X796408Y-47456288D01*
X772522Y-47435887D01*
X749736Y-47414264D01*
X728113Y-47391478D01*
X707712Y-47367592D01*
X688590Y-47342671D01*
X670798Y-47316783D01*
X654385Y-47290000D01*
X639396Y-47262394D01*
X625873Y-47234042D01*
X613852Y-47205021D01*
X603366Y-47175410D01*
X594445Y-47145291D01*
X587111Y-47114747D01*
X581387Y-47083861D01*
X577287Y-47052717D01*
X574822Y-47021402D01*
X574000Y-46990000D01*
X574822Y-46958598D01*
X577287Y-46927283D01*
X581387Y-46896139D01*
X587111Y-46865253D01*
X594445Y-46834709D01*
X603366Y-46804590D01*
X613852Y-46774979D01*
X625873Y-46745958D01*
X639396Y-46717606D01*
X654385Y-46690000D01*
X670798Y-46663217D01*
X688590Y-46637329D01*
X707712Y-46612408D01*
X728113Y-46588522D01*
X749736Y-46565736D01*
X772522Y-46544113D01*
X796408Y-46523712D01*
X821329Y-46504590D01*
X847217Y-46486798D01*
X874000Y-46470385D01*
X901606Y-46455396D01*
X929958Y-46441873D01*
X958979Y-46429852D01*
X988590Y-46419366D01*
X1018709Y-46410445D01*
X1049253Y-46403111D01*
X1080139Y-46397387D01*
X1111283Y-46393287D01*
X1142598Y-46390822D01*
X1174000Y-46390000D01*
X1874000Y-46390000D01*
X1905402Y-46390822D01*
X1936717Y-46393287D01*
X1967861Y-46397387D01*
X1998747Y-46403111D01*
X2029291Y-46410445D01*
X2059410Y-46419366D01*
X2089021Y-46429852D01*
X2118042Y-46441873D01*
X2146394Y-46455396D01*
X2174000Y-46470385D01*
X2200783Y-46486798D01*
X2226671Y-46504590D01*
X2251592Y-46523712D01*
X2275478Y-46544113D01*
X2298264Y-46565736D01*
X2319887Y-46588522D01*
X2340288Y-46612408D01*
X2359410Y-46637329D01*
X2377202Y-46663217D01*
X2393615Y-46690000D01*
X2408604Y-46717606D01*
X2422127Y-46745958D01*
X2434148Y-46774979D01*
X2444634Y-46804590D01*
X2453555Y-46834709D01*
X2460889Y-46865253D01*
X2466613Y-46896139D01*
X2470713Y-46927283D01*
X2473178Y-46958598D01*
X2474000Y-46990000D01*
X2473178Y-47021402D01*
X2470713Y-47052717D01*
X2466613Y-47083861D01*
X2460889Y-47114747D01*
X2453555Y-47145291D01*
X2444634Y-47175410D01*
X2434148Y-47205021D01*
X2422127Y-47234042D01*
X2408604Y-47262394D01*
X2393615Y-47290000D01*
X2377202Y-47316783D01*
X2359410Y-47342671D01*
X2340288Y-47367592D01*
X2319887Y-47391478D01*
X2298264Y-47414264D01*
X2275478Y-47435887D01*
X2251592Y-47456288D01*
X2226671Y-47475410D01*
X2200783Y-47493202D01*
X2174000Y-47509615D01*
X2146394Y-47524604D01*
X2118042Y-47538127D01*
X2089021Y-47550148D01*
X2059410Y-47560634D01*
X2029291Y-47569555D01*
X1998747Y-47576889D01*
X1967861Y-47582613D01*
X1936717Y-47586713D01*
X1905402Y-47589178D01*
X1874000Y-47590000D01*
X1524000Y-47590000D01*
X1524000Y-46990000D01*
G36*
X5324000Y-55630000D02*
G01*
X5314000Y-55630000D01*
X5314000Y-56230000D01*
X4974000Y-56230000D01*
X4942598Y-56229178D01*
X4911283Y-56226713D01*
X4880139Y-56222613D01*
X4849253Y-56216889D01*
X4818709Y-56209555D01*
X4788590Y-56200634D01*
X4758979Y-56190148D01*
X4729958Y-56178127D01*
X4701606Y-56164604D01*
X4674000Y-56149615D01*
X4647217Y-56133202D01*
X4621329Y-56115410D01*
X4596408Y-56096288D01*
X4572522Y-56075887D01*
X4549736Y-56054264D01*
X4528113Y-56031478D01*
X4507712Y-56007592D01*
X4488590Y-55982671D01*
X4470798Y-55956783D01*
X4454385Y-55930000D01*
X4439396Y-55902394D01*
X4425873Y-55874042D01*
X4413852Y-55845021D01*
X4403366Y-55815410D01*
X4394445Y-55785291D01*
X4387111Y-55754747D01*
X4381387Y-55723861D01*
X4377287Y-55692717D01*
X4374822Y-55661402D01*
X4374000Y-55630000D01*
X4374822Y-55598598D01*
X4377287Y-55567283D01*
X4381387Y-55536139D01*
X4387111Y-55505253D01*
X4394445Y-55474709D01*
X4403366Y-55444590D01*
X4413852Y-55414979D01*
X4425873Y-55385958D01*
X4439396Y-55357606D01*
X4454385Y-55330000D01*
X4470798Y-55303217D01*
X4488590Y-55277329D01*
X4507712Y-55252408D01*
X4528113Y-55228522D01*
X4549736Y-55205736D01*
X4572522Y-55184113D01*
X4596408Y-55163712D01*
X4621329Y-55144590D01*
X4647217Y-55126798D01*
X4674000Y-55110385D01*
X4701606Y-55095396D01*
X4729958Y-55081873D01*
X4758979Y-55069852D01*
X4788590Y-55059366D01*
X4818709Y-55050445D01*
X4849253Y-55043111D01*
X4880139Y-55037387D01*
X4911283Y-55033287D01*
X4942598Y-55030822D01*
X4974000Y-55030000D01*
X5674000Y-55030000D01*
X5705402Y-55030822D01*
X5736717Y-55033287D01*
X5767861Y-55037387D01*
X5798747Y-55043111D01*
X5829291Y-55050445D01*
X5859410Y-55059366D01*
X5889021Y-55069852D01*
X5918042Y-55081873D01*
X5946394Y-55095396D01*
X5974000Y-55110385D01*
X6000783Y-55126798D01*
X6026671Y-55144590D01*
X6051592Y-55163712D01*
X6075478Y-55184113D01*
X6098264Y-55205736D01*
X6119887Y-55228522D01*
X6140288Y-55252408D01*
X6159410Y-55277329D01*
X6177202Y-55303217D01*
X6193615Y-55330000D01*
X6208604Y-55357606D01*
X6222127Y-55385958D01*
X6234148Y-55414979D01*
X6244634Y-55444590D01*
X6253555Y-55474709D01*
X6260889Y-55505253D01*
X6266613Y-55536139D01*
X6270713Y-55567283D01*
X6273178Y-55598598D01*
X6274000Y-55630000D01*
X6273178Y-55661402D01*
X6270713Y-55692717D01*
X6266613Y-55723861D01*
X6260889Y-55754747D01*
X6253555Y-55785291D01*
X6244634Y-55815410D01*
X6234148Y-55845021D01*
X6222127Y-55874042D01*
X6208604Y-55902394D01*
X6193615Y-55930000D01*
X6177202Y-55956783D01*
X6159410Y-55982671D01*
X6140288Y-56007592D01*
X6119887Y-56031478D01*
X6098264Y-56054264D01*
X6075478Y-56075887D01*
X6051592Y-56096288D01*
X6026671Y-56115410D01*
X6000783Y-56133202D01*
X5974000Y-56149615D01*
X5946394Y-56164604D01*
X5918042Y-56178127D01*
X5889021Y-56190148D01*
X5859410Y-56200634D01*
X5829291Y-56209555D01*
X5798747Y-56216889D01*
X5767861Y-56222613D01*
X5736717Y-56226713D01*
X5705402Y-56229178D01*
X5674000Y-56230000D01*
X5324000Y-56230000D01*
X5324000Y-55630000D01*
G37*
X5324000Y-55630000D02*
X5314000Y-55630000D01*
X5314000Y-56230000D01*
X4974000Y-56230000D01*
X4942598Y-56229178D01*
X4911283Y-56226713D01*
X4880139Y-56222613D01*
X4849253Y-56216889D01*
X4818709Y-56209555D01*
X4788590Y-56200634D01*
X4758979Y-56190148D01*
X4729958Y-56178127D01*
X4701606Y-56164604D01*
X4674000Y-56149615D01*
X4647217Y-56133202D01*
X4621329Y-56115410D01*
X4596408Y-56096288D01*
X4572522Y-56075887D01*
X4549736Y-56054264D01*
X4528113Y-56031478D01*
X4507712Y-56007592D01*
X4488590Y-55982671D01*
X4470798Y-55956783D01*
X4454385Y-55930000D01*
X4439396Y-55902394D01*
X4425873Y-55874042D01*
X4413852Y-55845021D01*
X4403366Y-55815410D01*
X4394445Y-55785291D01*
X4387111Y-55754747D01*
X4381387Y-55723861D01*
X4377287Y-55692717D01*
X4374822Y-55661402D01*
X4374000Y-55630000D01*
X4374822Y-55598598D01*
X4377287Y-55567283D01*
X4381387Y-55536139D01*
X4387111Y-55505253D01*
X4394445Y-55474709D01*
X4403366Y-55444590D01*
X4413852Y-55414979D01*
X4425873Y-55385958D01*
X4439396Y-55357606D01*
X4454385Y-55330000D01*
X4470798Y-55303217D01*
X4488590Y-55277329D01*
X4507712Y-55252408D01*
X4528113Y-55228522D01*
X4549736Y-55205736D01*
X4572522Y-55184113D01*
X4596408Y-55163712D01*
X4621329Y-55144590D01*
X4647217Y-55126798D01*
X4674000Y-55110385D01*
X4701606Y-55095396D01*
X4729958Y-55081873D01*
X4758979Y-55069852D01*
X4788590Y-55059366D01*
X4818709Y-55050445D01*
X4849253Y-55043111D01*
X4880139Y-55037387D01*
X4911283Y-55033287D01*
X4942598Y-55030822D01*
X4974000Y-55030000D01*
X5674000Y-55030000D01*
X5705402Y-55030822D01*
X5736717Y-55033287D01*
X5767861Y-55037387D01*
X5798747Y-55043111D01*
X5829291Y-55050445D01*
X5859410Y-55059366D01*
X5889021Y-55069852D01*
X5918042Y-55081873D01*
X5946394Y-55095396D01*
X5974000Y-55110385D01*
X6000783Y-55126798D01*
X6026671Y-55144590D01*
X6051592Y-55163712D01*
X6075478Y-55184113D01*
X6098264Y-55205736D01*
X6119887Y-55228522D01*
X6140288Y-55252408D01*
X6159410Y-55277329D01*
X6177202Y-55303217D01*
X6193615Y-55330000D01*
X6208604Y-55357606D01*
X6222127Y-55385958D01*
X6234148Y-55414979D01*
X6244634Y-55444590D01*
X6253555Y-55474709D01*
X6260889Y-55505253D01*
X6266613Y-55536139D01*
X6270713Y-55567283D01*
X6273178Y-55598598D01*
X6274000Y-55630000D01*
X6273178Y-55661402D01*
X6270713Y-55692717D01*
X6266613Y-55723861D01*
X6260889Y-55754747D01*
X6253555Y-55785291D01*
X6244634Y-55815410D01*
X6234148Y-55845021D01*
X6222127Y-55874042D01*
X6208604Y-55902394D01*
X6193615Y-55930000D01*
X6177202Y-55956783D01*
X6159410Y-55982671D01*
X6140288Y-56007592D01*
X6119887Y-56031478D01*
X6098264Y-56054264D01*
X6075478Y-56075887D01*
X6051592Y-56096288D01*
X6026671Y-56115410D01*
X6000783Y-56133202D01*
X5974000Y-56149615D01*
X5946394Y-56164604D01*
X5918042Y-56178127D01*
X5889021Y-56190148D01*
X5859410Y-56200634D01*
X5829291Y-56209555D01*
X5798747Y-56216889D01*
X5767861Y-56222613D01*
X5736717Y-56226713D01*
X5705402Y-56229178D01*
X5674000Y-56230000D01*
X5324000Y-56230000D01*
X5324000Y-55630000D01*
G36*
X5324000Y-46990000D02*
G01*
X5314000Y-46990000D01*
X5314000Y-47590000D01*
X4974000Y-47590000D01*
X4942598Y-47589178D01*
X4911283Y-47586713D01*
X4880139Y-47582613D01*
X4849253Y-47576889D01*
X4818709Y-47569555D01*
X4788590Y-47560634D01*
X4758979Y-47550148D01*
X4729958Y-47538127D01*
X4701606Y-47524604D01*
X4674000Y-47509615D01*
X4647217Y-47493202D01*
X4621329Y-47475410D01*
X4596408Y-47456288D01*
X4572522Y-47435887D01*
X4549736Y-47414264D01*
X4528113Y-47391478D01*
X4507712Y-47367592D01*
X4488590Y-47342671D01*
X4470798Y-47316783D01*
X4454385Y-47290000D01*
X4439396Y-47262394D01*
X4425873Y-47234042D01*
X4413852Y-47205021D01*
X4403366Y-47175410D01*
X4394445Y-47145291D01*
X4387111Y-47114747D01*
X4381387Y-47083861D01*
X4377287Y-47052717D01*
X4374822Y-47021402D01*
X4374000Y-46990000D01*
X4374822Y-46958598D01*
X4377287Y-46927283D01*
X4381387Y-46896139D01*
X4387111Y-46865253D01*
X4394445Y-46834709D01*
X4403366Y-46804590D01*
X4413852Y-46774979D01*
X4425873Y-46745958D01*
X4439396Y-46717606D01*
X4454385Y-46690000D01*
X4470798Y-46663217D01*
X4488590Y-46637329D01*
X4507712Y-46612408D01*
X4528113Y-46588522D01*
X4549736Y-46565736D01*
X4572522Y-46544113D01*
X4596408Y-46523712D01*
X4621329Y-46504590D01*
X4647217Y-46486798D01*
X4674000Y-46470385D01*
X4701606Y-46455396D01*
X4729958Y-46441873D01*
X4758979Y-46429852D01*
X4788590Y-46419366D01*
X4818709Y-46410445D01*
X4849253Y-46403111D01*
X4880139Y-46397387D01*
X4911283Y-46393287D01*
X4942598Y-46390822D01*
X4974000Y-46390000D01*
X5674000Y-46390000D01*
X5705402Y-46390822D01*
X5736717Y-46393287D01*
X5767861Y-46397387D01*
X5798747Y-46403111D01*
X5829291Y-46410445D01*
X5859410Y-46419366D01*
X5889021Y-46429852D01*
X5918042Y-46441873D01*
X5946394Y-46455396D01*
X5974000Y-46470385D01*
X6000783Y-46486798D01*
X6026671Y-46504590D01*
X6051592Y-46523712D01*
X6075478Y-46544113D01*
X6098264Y-46565736D01*
X6119887Y-46588522D01*
X6140288Y-46612408D01*
X6159410Y-46637329D01*
X6177202Y-46663217D01*
X6193615Y-46690000D01*
X6208604Y-46717606D01*
X6222127Y-46745958D01*
X6234148Y-46774979D01*
X6244634Y-46804590D01*
X6253555Y-46834709D01*
X6260889Y-46865253D01*
X6266613Y-46896139D01*
X6270713Y-46927283D01*
X6273178Y-46958598D01*
X6274000Y-46990000D01*
X6273178Y-47021402D01*
X6270713Y-47052717D01*
X6266613Y-47083861D01*
X6260889Y-47114747D01*
X6253555Y-47145291D01*
X6244634Y-47175410D01*
X6234148Y-47205021D01*
X6222127Y-47234042D01*
X6208604Y-47262394D01*
X6193615Y-47290000D01*
X6177202Y-47316783D01*
X6159410Y-47342671D01*
X6140288Y-47367592D01*
X6119887Y-47391478D01*
X6098264Y-47414264D01*
X6075478Y-47435887D01*
X6051592Y-47456288D01*
X6026671Y-47475410D01*
X6000783Y-47493202D01*
X5974000Y-47509615D01*
X5946394Y-47524604D01*
X5918042Y-47538127D01*
X5889021Y-47550148D01*
X5859410Y-47560634D01*
X5829291Y-47569555D01*
X5798747Y-47576889D01*
X5767861Y-47582613D01*
X5736717Y-47586713D01*
X5705402Y-47589178D01*
X5674000Y-47590000D01*
X5324000Y-47590000D01*
X5324000Y-46990000D01*
G37*
X5324000Y-46990000D02*
X5314000Y-46990000D01*
X5314000Y-47590000D01*
X4974000Y-47590000D01*
X4942598Y-47589178D01*
X4911283Y-47586713D01*
X4880139Y-47582613D01*
X4849253Y-47576889D01*
X4818709Y-47569555D01*
X4788590Y-47560634D01*
X4758979Y-47550148D01*
X4729958Y-47538127D01*
X4701606Y-47524604D01*
X4674000Y-47509615D01*
X4647217Y-47493202D01*
X4621329Y-47475410D01*
X4596408Y-47456288D01*
X4572522Y-47435887D01*
X4549736Y-47414264D01*
X4528113Y-47391478D01*
X4507712Y-47367592D01*
X4488590Y-47342671D01*
X4470798Y-47316783D01*
X4454385Y-47290000D01*
X4439396Y-47262394D01*
X4425873Y-47234042D01*
X4413852Y-47205021D01*
X4403366Y-47175410D01*
X4394445Y-47145291D01*
X4387111Y-47114747D01*
X4381387Y-47083861D01*
X4377287Y-47052717D01*
X4374822Y-47021402D01*
X4374000Y-46990000D01*
X4374822Y-46958598D01*
X4377287Y-46927283D01*
X4381387Y-46896139D01*
X4387111Y-46865253D01*
X4394445Y-46834709D01*
X4403366Y-46804590D01*
X4413852Y-46774979D01*
X4425873Y-46745958D01*
X4439396Y-46717606D01*
X4454385Y-46690000D01*
X4470798Y-46663217D01*
X4488590Y-46637329D01*
X4507712Y-46612408D01*
X4528113Y-46588522D01*
X4549736Y-46565736D01*
X4572522Y-46544113D01*
X4596408Y-46523712D01*
X4621329Y-46504590D01*
X4647217Y-46486798D01*
X4674000Y-46470385D01*
X4701606Y-46455396D01*
X4729958Y-46441873D01*
X4758979Y-46429852D01*
X4788590Y-46419366D01*
X4818709Y-46410445D01*
X4849253Y-46403111D01*
X4880139Y-46397387D01*
X4911283Y-46393287D01*
X4942598Y-46390822D01*
X4974000Y-46390000D01*
X5674000Y-46390000D01*
X5705402Y-46390822D01*
X5736717Y-46393287D01*
X5767861Y-46397387D01*
X5798747Y-46403111D01*
X5829291Y-46410445D01*
X5859410Y-46419366D01*
X5889021Y-46429852D01*
X5918042Y-46441873D01*
X5946394Y-46455396D01*
X5974000Y-46470385D01*
X6000783Y-46486798D01*
X6026671Y-46504590D01*
X6051592Y-46523712D01*
X6075478Y-46544113D01*
X6098264Y-46565736D01*
X6119887Y-46588522D01*
X6140288Y-46612408D01*
X6159410Y-46637329D01*
X6177202Y-46663217D01*
X6193615Y-46690000D01*
X6208604Y-46717606D01*
X6222127Y-46745958D01*
X6234148Y-46774979D01*
X6244634Y-46804590D01*
X6253555Y-46834709D01*
X6260889Y-46865253D01*
X6266613Y-46896139D01*
X6270713Y-46927283D01*
X6273178Y-46958598D01*
X6274000Y-46990000D01*
X6273178Y-47021402D01*
X6270713Y-47052717D01*
X6266613Y-47083861D01*
X6260889Y-47114747D01*
X6253555Y-47145291D01*
X6244634Y-47175410D01*
X6234148Y-47205021D01*
X6222127Y-47234042D01*
X6208604Y-47262394D01*
X6193615Y-47290000D01*
X6177202Y-47316783D01*
X6159410Y-47342671D01*
X6140288Y-47367592D01*
X6119887Y-47391478D01*
X6098264Y-47414264D01*
X6075478Y-47435887D01*
X6051592Y-47456288D01*
X6026671Y-47475410D01*
X6000783Y-47493202D01*
X5974000Y-47509615D01*
X5946394Y-47524604D01*
X5918042Y-47538127D01*
X5889021Y-47550148D01*
X5859410Y-47560634D01*
X5829291Y-47569555D01*
X5798747Y-47576889D01*
X5767861Y-47582613D01*
X5736717Y-47586713D01*
X5705402Y-47589178D01*
X5674000Y-47590000D01*
X5324000Y-47590000D01*
X5324000Y-46990000D01*
D10*
X25529071Y-53152142D02*
X24243357Y-55080714D01*
X25814785Y-53723571D02*
X26386214Y-53723571D01*
X26029071Y-53223571D02*
X26029071Y-54509285D01*
X26100500Y-54652142D01*
X26243357Y-54723571D01*
X26386214Y-54723571D01*
X27529071Y-54723571D02*
X27529071Y-53223571D01*
X27529071Y-54652142D02*
X27386214Y-54723571D01*
X27100500Y-54723571D01*
X26957642Y-54652142D01*
X26886214Y-54580714D01*
X26814785Y-54437857D01*
X26814785Y-54009285D01*
X26886214Y-53866428D01*
X26957642Y-53795000D01*
X27100500Y-53723571D01*
X27386214Y-53723571D01*
X27529071Y-53795000D01*
X28886214Y-54652142D02*
X28743357Y-54723571D01*
X28457642Y-54723571D01*
X28314785Y-54652142D01*
X28243357Y-54580714D01*
X28171928Y-54437857D01*
X28171928Y-54009285D01*
X28243357Y-53866428D01*
X28314785Y-53795000D01*
X28457642Y-53723571D01*
X28743357Y-53723571D01*
X28886214Y-53795000D01*
X29314785Y-53723571D02*
X29886214Y-53723571D01*
X29529071Y-53223571D02*
X29529071Y-54509285D01*
X29600500Y-54652142D01*
X29743357Y-54723571D01*
X29886214Y-54723571D01*
X31029071Y-54723571D02*
X31029071Y-53223571D01*
X31029071Y-54652142D02*
X30886214Y-54723571D01*
X30600500Y-54723571D01*
X30457642Y-54652142D01*
X30386214Y-54580714D01*
X30314785Y-54437857D01*
X30314785Y-54009285D01*
X30386214Y-53866428D01*
X30457642Y-53795000D01*
X30600500Y-53723571D01*
X30886214Y-53723571D01*
X31029071Y-53795000D01*
X32386214Y-54652142D02*
X32243357Y-54723571D01*
X31957642Y-54723571D01*
X31814785Y-54652142D01*
X31743357Y-54580714D01*
X31671928Y-54437857D01*
X31671928Y-54009285D01*
X31743357Y-53866428D01*
X31814785Y-53795000D01*
X31957642Y-53723571D01*
X32243357Y-53723571D01*
X32386214Y-53795000D01*
X32814785Y-53723571D02*
X33386214Y-53723571D01*
X33029071Y-53223571D02*
X33029071Y-54509285D01*
X33100500Y-54652142D01*
X33243357Y-54723571D01*
X33386214Y-54723571D01*
X34529071Y-54723571D02*
X34529071Y-53223571D01*
X34529071Y-54652142D02*
X34386214Y-54723571D01*
X34100500Y-54723571D01*
X33957642Y-54652142D01*
X33886214Y-54580714D01*
X33814785Y-54437857D01*
X33814785Y-54009285D01*
X33886214Y-53866428D01*
X33957642Y-53795000D01*
X34100500Y-53723571D01*
X34386214Y-53723571D01*
X34529071Y-53795000D01*
X35886214Y-54652142D02*
X35743357Y-54723571D01*
X35457642Y-54723571D01*
X35314785Y-54652142D01*
X35243357Y-54580714D01*
X35171928Y-54437857D01*
X35171928Y-54009285D01*
X35243357Y-53866428D01*
X35314785Y-53795000D01*
X35457642Y-53723571D01*
X35743357Y-53723571D01*
X35886214Y-53795000D01*
X24457642Y-57123571D02*
X24457642Y-56123571D01*
X24457642Y-56266428D02*
X24529071Y-56195000D01*
X24671928Y-56123571D01*
X24886214Y-56123571D01*
X25029071Y-56195000D01*
X25100500Y-56337857D01*
X25100500Y-57123571D01*
X25100500Y-56337857D02*
X25171928Y-56195000D01*
X25314785Y-56123571D01*
X25529071Y-56123571D01*
X25671928Y-56195000D01*
X25743357Y-56337857D01*
X25743357Y-57123571D01*
X27100500Y-57123571D02*
X27100500Y-56337857D01*
X27029071Y-56195000D01*
X26886214Y-56123571D01*
X26600500Y-56123571D01*
X26457642Y-56195000D01*
X27100500Y-57052142D02*
X26957642Y-57123571D01*
X26600500Y-57123571D01*
X26457642Y-57052142D01*
X26386214Y-56909285D01*
X26386214Y-56766428D01*
X26457642Y-56623571D01*
X26600500Y-56552142D01*
X26957642Y-56552142D01*
X27100500Y-56480714D01*
X27814785Y-57123571D02*
X27814785Y-56123571D01*
X27814785Y-55623571D02*
X27743357Y-55695000D01*
X27814785Y-55766428D01*
X27886214Y-55695000D01*
X27814785Y-55623571D01*
X27814785Y-55766428D01*
X29600500Y-55766428D02*
X29671928Y-55695000D01*
X29814785Y-55623571D01*
X30171928Y-55623571D01*
X30314785Y-55695000D01*
X30386214Y-55766428D01*
X30457642Y-55909285D01*
X30457642Y-56052142D01*
X30386214Y-56266428D01*
X29529071Y-57123571D01*
X30457642Y-57123571D01*
X31386214Y-55623571D02*
X31529071Y-55623571D01*
X31671928Y-55695000D01*
X31743357Y-55766428D01*
X31814785Y-55909285D01*
X31886214Y-56195000D01*
X31886214Y-56552142D01*
X31814785Y-56837857D01*
X31743357Y-56980714D01*
X31671928Y-57052142D01*
X31529071Y-57123571D01*
X31386214Y-57123571D01*
X31243357Y-57052142D01*
X31171928Y-56980714D01*
X31100500Y-56837857D01*
X31029071Y-56552142D01*
X31029071Y-56195000D01*
X31100500Y-55909285D01*
X31171928Y-55766428D01*
X31243357Y-55695000D01*
X31386214Y-55623571D01*
X32457642Y-55766428D02*
X32529071Y-55695000D01*
X32671928Y-55623571D01*
X33029071Y-55623571D01*
X33171928Y-55695000D01*
X33243357Y-55766428D01*
X33314785Y-55909285D01*
X33314785Y-56052142D01*
X33243357Y-56266428D01*
X32386214Y-57123571D01*
X33314785Y-57123571D01*
X34743357Y-57123571D02*
X33886214Y-57123571D01*
X34314785Y-57123571D02*
X34314785Y-55623571D01*
X34171928Y-55837857D01*
X34029071Y-55980714D01*
X33886214Y-56052142D01*
D11*
G36*
X1524000Y-55630000D02*
G01*
X1514000Y-55630000D01*
X1514000Y-56230000D01*
X1174000Y-56230000D01*
X1142598Y-56229178D01*
X1111283Y-56226713D01*
X1080139Y-56222613D01*
X1049253Y-56216889D01*
X1018709Y-56209555D01*
X988590Y-56200634D01*
X958979Y-56190148D01*
X929958Y-56178127D01*
X901606Y-56164604D01*
X874000Y-56149615D01*
X847217Y-56133202D01*
X821329Y-56115410D01*
X796408Y-56096288D01*
X772522Y-56075887D01*
X749736Y-56054264D01*
X728113Y-56031478D01*
X707712Y-56007592D01*
X688590Y-55982671D01*
X670798Y-55956783D01*
X654385Y-55930000D01*
X639396Y-55902394D01*
X625873Y-55874042D01*
X613852Y-55845021D01*
X603366Y-55815410D01*
X594445Y-55785291D01*
X587111Y-55754747D01*
X581387Y-55723861D01*
X577287Y-55692717D01*
X574822Y-55661402D01*
X574000Y-55630000D01*
X574822Y-55598598D01*
X577287Y-55567283D01*
X581387Y-55536139D01*
X587111Y-55505253D01*
X594445Y-55474709D01*
X603366Y-55444590D01*
X613852Y-55414979D01*
X625873Y-55385958D01*
X639396Y-55357606D01*
X654385Y-55330000D01*
X670798Y-55303217D01*
X688590Y-55277329D01*
X707712Y-55252408D01*
X728113Y-55228522D01*
X749736Y-55205736D01*
X772522Y-55184113D01*
X796408Y-55163712D01*
X821329Y-55144590D01*
X847217Y-55126798D01*
X874000Y-55110385D01*
X901606Y-55095396D01*
X929958Y-55081873D01*
X958979Y-55069852D01*
X988590Y-55059366D01*
X1018709Y-55050445D01*
X1049253Y-55043111D01*
X1080139Y-55037387D01*
X1111283Y-55033287D01*
X1142598Y-55030822D01*
X1174000Y-55030000D01*
X1874000Y-55030000D01*
X1905402Y-55030822D01*
X1936717Y-55033287D01*
X1967861Y-55037387D01*
X1998747Y-55043111D01*
X2029291Y-55050445D01*
X2059410Y-55059366D01*
X2089021Y-55069852D01*
X2118042Y-55081873D01*
X2146394Y-55095396D01*
X2174000Y-55110385D01*
X2200783Y-55126798D01*
X2226671Y-55144590D01*
X2251592Y-55163712D01*
X2275478Y-55184113D01*
X2298264Y-55205736D01*
X2319887Y-55228522D01*
X2340288Y-55252408D01*
X2359410Y-55277329D01*
X2377202Y-55303217D01*
X2393615Y-55330000D01*
X2408604Y-55357606D01*
X2422127Y-55385958D01*
X2434148Y-55414979D01*
X2444634Y-55444590D01*
X2453555Y-55474709D01*
X2460889Y-55505253D01*
X2466613Y-55536139D01*
X2470713Y-55567283D01*
X2473178Y-55598598D01*
X2474000Y-55630000D01*
X2473178Y-55661402D01*
X2470713Y-55692717D01*
X2466613Y-55723861D01*
X2460889Y-55754747D01*
X2453555Y-55785291D01*
X2444634Y-55815410D01*
X2434148Y-55845021D01*
X2422127Y-55874042D01*
X2408604Y-55902394D01*
X2393615Y-55930000D01*
X2377202Y-55956783D01*
X2359410Y-55982671D01*
X2340288Y-56007592D01*
X2319887Y-56031478D01*
X2298264Y-56054264D01*
X2275478Y-56075887D01*
X2251592Y-56096288D01*
X2226671Y-56115410D01*
X2200783Y-56133202D01*
X2174000Y-56149615D01*
X2146394Y-56164604D01*
X2118042Y-56178127D01*
X2089021Y-56190148D01*
X2059410Y-56200634D01*
X2029291Y-56209555D01*
X1998747Y-56216889D01*
X1967861Y-56222613D01*
X1936717Y-56226713D01*
X1905402Y-56229178D01*
X1874000Y-56230000D01*
X1524000Y-56230000D01*
X1524000Y-55630000D01*
G37*
X1524000Y-55630000D02*
X1514000Y-55630000D01*
X1514000Y-56230000D01*
X1174000Y-56230000D01*
X1142598Y-56229178D01*
X1111283Y-56226713D01*
X1080139Y-56222613D01*
X1049253Y-56216889D01*
X1018709Y-56209555D01*
X988590Y-56200634D01*
X958979Y-56190148D01*
X929958Y-56178127D01*
X901606Y-56164604D01*
X874000Y-56149615D01*
X847217Y-56133202D01*
X821329Y-56115410D01*
X796408Y-56096288D01*
X772522Y-56075887D01*
X749736Y-56054264D01*
X728113Y-56031478D01*
X707712Y-56007592D01*
X688590Y-55982671D01*
X670798Y-55956783D01*
X654385Y-55930000D01*
X639396Y-55902394D01*
X625873Y-55874042D01*
X613852Y-55845021D01*
X603366Y-55815410D01*
X594445Y-55785291D01*
X587111Y-55754747D01*
X581387Y-55723861D01*
X577287Y-55692717D01*
X574822Y-55661402D01*
X574000Y-55630000D01*
X574822Y-55598598D01*
X577287Y-55567283D01*
X581387Y-55536139D01*
X587111Y-55505253D01*
X594445Y-55474709D01*
X603366Y-55444590D01*
X613852Y-55414979D01*
X625873Y-55385958D01*
X639396Y-55357606D01*
X654385Y-55330000D01*
X670798Y-55303217D01*
X688590Y-55277329D01*
X707712Y-55252408D01*
X728113Y-55228522D01*
X749736Y-55205736D01*
X772522Y-55184113D01*
X796408Y-55163712D01*
X821329Y-55144590D01*
X847217Y-55126798D01*
X874000Y-55110385D01*
X901606Y-55095396D01*
X929958Y-55081873D01*
X958979Y-55069852D01*
X988590Y-55059366D01*
X1018709Y-55050445D01*
X1049253Y-55043111D01*
X1080139Y-55037387D01*
X1111283Y-55033287D01*
X1142598Y-55030822D01*
X1174000Y-55030000D01*
X1874000Y-55030000D01*
X1905402Y-55030822D01*
X1936717Y-55033287D01*
X1967861Y-55037387D01*
X1998747Y-55043111D01*
X2029291Y-55050445D01*
X2059410Y-55059366D01*
X2089021Y-55069852D01*
X2118042Y-55081873D01*
X2146394Y-55095396D01*
X2174000Y-55110385D01*
X2200783Y-55126798D01*
X2226671Y-55144590D01*
X2251592Y-55163712D01*
X2275478Y-55184113D01*
X2298264Y-55205736D01*
X2319887Y-55228522D01*
X2340288Y-55252408D01*
X2359410Y-55277329D01*
X2377202Y-55303217D01*
X2393615Y-55330000D01*
X2408604Y-55357606D01*
X2422127Y-55385958D01*
X2434148Y-55414979D01*
X2444634Y-55444590D01*
X2453555Y-55474709D01*
X2460889Y-55505253D01*
X2466613Y-55536139D01*
X2470713Y-55567283D01*
X2473178Y-55598598D01*
X2474000Y-55630000D01*
X2473178Y-55661402D01*
X2470713Y-55692717D01*
X2466613Y-55723861D01*
X2460889Y-55754747D01*
X2453555Y-55785291D01*
X2444634Y-55815410D01*
X2434148Y-55845021D01*
X2422127Y-55874042D01*
X2408604Y-55902394D01*
X2393615Y-55930000D01*
X2377202Y-55956783D01*
X2359410Y-55982671D01*
X2340288Y-56007592D01*
X2319887Y-56031478D01*
X2298264Y-56054264D01*
X2275478Y-56075887D01*
X2251592Y-56096288D01*
X2226671Y-56115410D01*
X2200783Y-56133202D01*
X2174000Y-56149615D01*
X2146394Y-56164604D01*
X2118042Y-56178127D01*
X2089021Y-56190148D01*
X2059410Y-56200634D01*
X2029291Y-56209555D01*
X1998747Y-56216889D01*
X1967861Y-56222613D01*
X1936717Y-56226713D01*
X1905402Y-56229178D01*
X1874000Y-56230000D01*
X1524000Y-56230000D01*
X1524000Y-55630000D01*
G36*
X1524000Y-46990000D02*
G01*
X1514000Y-46990000D01*
X1514000Y-47590000D01*
X1174000Y-47590000D01*
X1142598Y-47589178D01*
X1111283Y-47586713D01*
X1080139Y-47582613D01*
X1049253Y-47576889D01*
X1018709Y-47569555D01*
X988590Y-47560634D01*
X958979Y-47550148D01*
X929958Y-47538127D01*
X901606Y-47524604D01*
X874000Y-47509615D01*
X847217Y-47493202D01*
X821329Y-47475410D01*
X796408Y-47456288D01*
X772522Y-47435887D01*
X749736Y-47414264D01*
X728113Y-47391478D01*
X707712Y-47367592D01*
X688590Y-47342671D01*
X670798Y-47316783D01*
X654385Y-47290000D01*
X639396Y-47262394D01*
X625873Y-47234042D01*
X613852Y-47205021D01*
X603366Y-47175410D01*
X594445Y-47145291D01*
X587111Y-47114747D01*
X581387Y-47083861D01*
X577287Y-47052717D01*
X574822Y-47021402D01*
X574000Y-46990000D01*
X574822Y-46958598D01*
X577287Y-46927283D01*
X581387Y-46896139D01*
X587111Y-46865253D01*
X594445Y-46834709D01*
X603366Y-46804590D01*
X613852Y-46774979D01*
X625873Y-46745958D01*
X639396Y-46717606D01*
X654385Y-46690000D01*
X670798Y-46663217D01*
X688590Y-46637329D01*
X707712Y-46612408D01*
X728113Y-46588522D01*
X749736Y-46565736D01*
X772522Y-46544113D01*
X796408Y-46523712D01*
X821329Y-46504590D01*
X847217Y-46486798D01*
X874000Y-46470385D01*
X901606Y-46455396D01*
X929958Y-46441873D01*
X958979Y-46429852D01*
X988590Y-46419366D01*
X1018709Y-46410445D01*
X1049253Y-46403111D01*
X1080139Y-46397387D01*
X1111283Y-46393287D01*
X1142598Y-46390822D01*
X1174000Y-46390000D01*
X1874000Y-46390000D01*
X1905402Y-46390822D01*
X1936717Y-46393287D01*
X1967861Y-46397387D01*
X1998747Y-46403111D01*
X2029291Y-46410445D01*
X2059410Y-46419366D01*
X2089021Y-46429852D01*
X2118042Y-46441873D01*
X2146394Y-46455396D01*
X2174000Y-46470385D01*
X2200783Y-46486798D01*
X2226671Y-46504590D01*
X2251592Y-46523712D01*
X2275478Y-46544113D01*
X2298264Y-46565736D01*
X2319887Y-46588522D01*
X2340288Y-46612408D01*
X2359410Y-46637329D01*
X2377202Y-46663217D01*
X2393615Y-46690000D01*
X2408604Y-46717606D01*
X2422127Y-46745958D01*
X2434148Y-46774979D01*
X2444634Y-46804590D01*
X2453555Y-46834709D01*
X2460889Y-46865253D01*
X2466613Y-46896139D01*
X2470713Y-46927283D01*
X2473178Y-46958598D01*
X2474000Y-46990000D01*
X2473178Y-47021402D01*
X2470713Y-47052717D01*
X2466613Y-47083861D01*
X2460889Y-47114747D01*
X2453555Y-47145291D01*
X2444634Y-47175410D01*
X2434148Y-47205021D01*
X2422127Y-47234042D01*
X2408604Y-47262394D01*
X2393615Y-47290000D01*
X2377202Y-47316783D01*
X2359410Y-47342671D01*
X2340288Y-47367592D01*
X2319887Y-47391478D01*
X2298264Y-47414264D01*
X2275478Y-47435887D01*
X2251592Y-47456288D01*
X2226671Y-47475410D01*
X2200783Y-47493202D01*
X2174000Y-47509615D01*
X2146394Y-47524604D01*
X2118042Y-47538127D01*
X2089021Y-47550148D01*
X2059410Y-47560634D01*
X2029291Y-47569555D01*
X1998747Y-47576889D01*
X1967861Y-47582613D01*
X1936717Y-47586713D01*
X1905402Y-47589178D01*
X1874000Y-47590000D01*
X1524000Y-47590000D01*
X1524000Y-46990000D01*
G37*
X1524000Y-46990000D02*
X1514000Y-46990000D01*
X1514000Y-47590000D01*
X1174000Y-47590000D01*
X1142598Y-47589178D01*
X1111283Y-47586713D01*
X1080139Y-47582613D01*
X1049253Y-47576889D01*
X1018709Y-47569555D01*
X988590Y-47560634D01*
X958979Y-47550148D01*
X929958Y-47538127D01*
X901606Y-47524604D01*
X874000Y-47509615D01*
X847217Y-47493202D01*
X821329Y-47475410D01*
X796408Y-47456288D01*
X772522Y-47435887D01*
X749736Y-47414264D01*
X728113Y-47391478D01*
X707712Y-47367592D01*
X688590Y-47342671D01*
X670798Y-47316783D01*
X654385Y-47290000D01*
X639396Y-47262394D01*
X625873Y-47234042D01*
X613852Y-47205021D01*
X603366Y-47175410D01*
X594445Y-47145291D01*
X587111Y-47114747D01*
X581387Y-47083861D01*
X577287Y-47052717D01*
X574822Y-47021402D01*
X574000Y-46990000D01*
X574822Y-46958598D01*
X577287Y-46927283D01*
X581387Y-46896139D01*
X587111Y-46865253D01*
X594445Y-46834709D01*
X603366Y-46804590D01*
X613852Y-46774979D01*
X625873Y-46745958D01*
X639396Y-46717606D01*
X654385Y-46690000D01*
X670798Y-46663217D01*
X688590Y-46637329D01*
X707712Y-46612408D01*
X728113Y-46588522D01*
X749736Y-46565736D01*
X772522Y-46544113D01*
X796408Y-46523712D01*
X821329Y-46504590D01*
X847217Y-46486798D01*
X874000Y-46470385D01*
X901606Y-46455396D01*
X929958Y-46441873D01*
X958979Y-46429852D01*
X988590Y-46419366D01*
X1018709Y-46410445D01*
X1049253Y-46403111D01*
X1080139Y-46397387D01*
X1111283Y-46393287D01*
X1142598Y-46390822D01*
X1174000Y-46390000D01*
X1874000Y-46390000D01*
X1905402Y-46390822D01*
X1936717Y-46393287D01*
X1967861Y-46397387D01*
X1998747Y-46403111D01*
X2029291Y-46410445D01*
X2059410Y-46419366D01*
X2089021Y-46429852D01*
X2118042Y-46441873D01*
X2146394Y-46455396D01*
X2174000Y-46470385D01*
X2200783Y-46486798D01*
X2226671Y-46504590D01*
X2251592Y-46523712D01*
X2275478Y-46544113D01*
X2298264Y-46565736D01*
X2319887Y-46588522D01*
X2340288Y-46612408D01*
X2359410Y-46637329D01*
X2377202Y-46663217D01*
X2393615Y-46690000D01*
X2408604Y-46717606D01*
X2422127Y-46745958D01*
X2434148Y-46774979D01*
X2444634Y-46804590D01*
X2453555Y-46834709D01*
X2460889Y-46865253D01*
X2466613Y-46896139D01*
X2470713Y-46927283D01*
X2473178Y-46958598D01*
X2474000Y-46990000D01*
X2473178Y-47021402D01*
X2470713Y-47052717D01*
X2466613Y-47083861D01*
X2460889Y-47114747D01*
X2453555Y-47145291D01*
X2444634Y-47175410D01*
X2434148Y-47205021D01*
X2422127Y-47234042D01*
X2408604Y-47262394D01*
X2393615Y-47290000D01*
X2377202Y-47316783D01*
X2359410Y-47342671D01*
X2340288Y-47367592D01*
X2319887Y-47391478D01*
X2298264Y-47414264D01*
X2275478Y-47435887D01*
X2251592Y-47456288D01*
X2226671Y-47475410D01*
X2200783Y-47493202D01*
X2174000Y-47509615D01*
X2146394Y-47524604D01*
X2118042Y-47538127D01*
X2089021Y-47550148D01*
X2059410Y-47560634D01*
X2029291Y-47569555D01*
X1998747Y-47576889D01*
X1967861Y-47582613D01*
X1936717Y-47586713D01*
X1905402Y-47589178D01*
X1874000Y-47590000D01*
X1524000Y-47590000D01*
X1524000Y-46990000D01*
G36*
X5324000Y-55630000D02*
G01*
X5314000Y-55630000D01*
X5314000Y-56230000D01*
X4974000Y-56230000D01*
X4942598Y-56229178D01*
X4911283Y-56226713D01*
X4880139Y-56222613D01*
X4849253Y-56216889D01*
X4818709Y-56209555D01*
X4788590Y-56200634D01*
X4758979Y-56190148D01*
X4729958Y-56178127D01*
X4701606Y-56164604D01*
X4674000Y-56149615D01*
X4647217Y-56133202D01*
X4621329Y-56115410D01*
X4596408Y-56096288D01*
X4572522Y-56075887D01*
X4549736Y-56054264D01*
X4528113Y-56031478D01*
X4507712Y-56007592D01*
X4488590Y-55982671D01*
X4470798Y-55956783D01*
X4454385Y-55930000D01*
X4439396Y-55902394D01*
X4425873Y-55874042D01*
X4413852Y-55845021D01*
X4403366Y-55815410D01*
X4394445Y-55785291D01*
X4387111Y-55754747D01*
X4381387Y-55723861D01*
X4377287Y-55692717D01*
X4374822Y-55661402D01*
X4374000Y-55630000D01*
X4374822Y-55598598D01*
X4377287Y-55567283D01*
X4381387Y-55536139D01*
X4387111Y-55505253D01*
X4394445Y-55474709D01*
X4403366Y-55444590D01*
X4413852Y-55414979D01*
X4425873Y-55385958D01*
X4439396Y-55357606D01*
X4454385Y-55330000D01*
X4470798Y-55303217D01*
X4488590Y-55277329D01*
X4507712Y-55252408D01*
X4528113Y-55228522D01*
X4549736Y-55205736D01*
X4572522Y-55184113D01*
X4596408Y-55163712D01*
X4621329Y-55144590D01*
X4647217Y-55126798D01*
X4674000Y-55110385D01*
X4701606Y-55095396D01*
X4729958Y-55081873D01*
X4758979Y-55069852D01*
X4788590Y-55059366D01*
X4818709Y-55050445D01*
X4849253Y-55043111D01*
X4880139Y-55037387D01*
X4911283Y-55033287D01*
X4942598Y-55030822D01*
X4974000Y-55030000D01*
X5674000Y-55030000D01*
X5705402Y-55030822D01*
X5736717Y-55033287D01*
X5767861Y-55037387D01*
X5798747Y-55043111D01*
X5829291Y-55050445D01*
X5859410Y-55059366D01*
X5889021Y-55069852D01*
X5918042Y-55081873D01*
X5946394Y-55095396D01*
X5974000Y-55110385D01*
X6000783Y-55126798D01*
X6026671Y-55144590D01*
X6051592Y-55163712D01*
X6075478Y-55184113D01*
X6098264Y-55205736D01*
X6119887Y-55228522D01*
X6140288Y-55252408D01*
X6159410Y-55277329D01*
X6177202Y-55303217D01*
X6193615Y-55330000D01*
X6208604Y-55357606D01*
X6222127Y-55385958D01*
X6234148Y-55414979D01*
X6244634Y-55444590D01*
X6253555Y-55474709D01*
X6260889Y-55505253D01*
X6266613Y-55536139D01*
X6270713Y-55567283D01*
X6273178Y-55598598D01*
X6274000Y-55630000D01*
X6273178Y-55661402D01*
X6270713Y-55692717D01*
X6266613Y-55723861D01*
X6260889Y-55754747D01*
X6253555Y-55785291D01*
X6244634Y-55815410D01*
X6234148Y-55845021D01*
X6222127Y-55874042D01*
X6208604Y-55902394D01*
X6193615Y-55930000D01*
X6177202Y-55956783D01*
X6159410Y-55982671D01*
X6140288Y-56007592D01*
X6119887Y-56031478D01*
X6098264Y-56054264D01*
X6075478Y-56075887D01*
X6051592Y-56096288D01*
X6026671Y-56115410D01*
X6000783Y-56133202D01*
X5974000Y-56149615D01*
X5946394Y-56164604D01*
X5918042Y-56178127D01*
X5889021Y-56190148D01*
X5859410Y-56200634D01*
X5829291Y-56209555D01*
X5798747Y-56216889D01*
X5767861Y-56222613D01*
X5736717Y-56226713D01*
X5705402Y-56229178D01*
X5674000Y-56230000D01*
X5324000Y-56230000D01*
X5324000Y-55630000D01*
G37*
X5324000Y-55630000D02*
X5314000Y-55630000D01*
X5314000Y-56230000D01*
X4974000Y-56230000D01*
X4942598Y-56229178D01*
X4911283Y-56226713D01*
X4880139Y-56222613D01*
X4849253Y-56216889D01*
X4818709Y-56209555D01*
X4788590Y-56200634D01*
X4758979Y-56190148D01*
X4729958Y-56178127D01*
X4701606Y-56164604D01*
X4674000Y-56149615D01*
X4647217Y-56133202D01*
X4621329Y-56115410D01*
X4596408Y-56096288D01*
X4572522Y-56075887D01*
X4549736Y-56054264D01*
X4528113Y-56031478D01*
X4507712Y-56007592D01*
X4488590Y-55982671D01*
X4470798Y-55956783D01*
X4454385Y-55930000D01*
X4439396Y-55902394D01*
X4425873Y-55874042D01*
X4413852Y-55845021D01*
X4403366Y-55815410D01*
X4394445Y-55785291D01*
X4387111Y-55754747D01*
X4381387Y-55723861D01*
X4377287Y-55692717D01*
X4374822Y-55661402D01*
X4374000Y-55630000D01*
X4374822Y-55598598D01*
X4377287Y-55567283D01*
X4381387Y-55536139D01*
X4387111Y-55505253D01*
X4394445Y-55474709D01*
X4403366Y-55444590D01*
X4413852Y-55414979D01*
X4425873Y-55385958D01*
X4439396Y-55357606D01*
X4454385Y-55330000D01*
X4470798Y-55303217D01*
X4488590Y-55277329D01*
X4507712Y-55252408D01*
X4528113Y-55228522D01*
X4549736Y-55205736D01*
X4572522Y-55184113D01*
X4596408Y-55163712D01*
X4621329Y-55144590D01*
X4647217Y-55126798D01*
X4674000Y-55110385D01*
X4701606Y-55095396D01*
X4729958Y-55081873D01*
X4758979Y-55069852D01*
X4788590Y-55059366D01*
X4818709Y-55050445D01*
X4849253Y-55043111D01*
X4880139Y-55037387D01*
X4911283Y-55033287D01*
X4942598Y-55030822D01*
X4974000Y-55030000D01*
X5674000Y-55030000D01*
X5705402Y-55030822D01*
X5736717Y-55033287D01*
X5767861Y-55037387D01*
X5798747Y-55043111D01*
X5829291Y-55050445D01*
X5859410Y-55059366D01*
X5889021Y-55069852D01*
X5918042Y-55081873D01*
X5946394Y-55095396D01*
X5974000Y-55110385D01*
X6000783Y-55126798D01*
X6026671Y-55144590D01*
X6051592Y-55163712D01*
X6075478Y-55184113D01*
X6098264Y-55205736D01*
X6119887Y-55228522D01*
X6140288Y-55252408D01*
X6159410Y-55277329D01*
X6177202Y-55303217D01*
X6193615Y-55330000D01*
X6208604Y-55357606D01*
X6222127Y-55385958D01*
X6234148Y-55414979D01*
X6244634Y-55444590D01*
X6253555Y-55474709D01*
X6260889Y-55505253D01*
X6266613Y-55536139D01*
X6270713Y-55567283D01*
X6273178Y-55598598D01*
X6274000Y-55630000D01*
X6273178Y-55661402D01*
X6270713Y-55692717D01*
X6266613Y-55723861D01*
X6260889Y-55754747D01*
X6253555Y-55785291D01*
X6244634Y-55815410D01*
X6234148Y-55845021D01*
X6222127Y-55874042D01*
X6208604Y-55902394D01*
X6193615Y-55930000D01*
X6177202Y-55956783D01*
X6159410Y-55982671D01*
X6140288Y-56007592D01*
X6119887Y-56031478D01*
X6098264Y-56054264D01*
X6075478Y-56075887D01*
X6051592Y-56096288D01*
X6026671Y-56115410D01*
X6000783Y-56133202D01*
X5974000Y-56149615D01*
X5946394Y-56164604D01*
X5918042Y-56178127D01*
X5889021Y-56190148D01*
X5859410Y-56200634D01*
X5829291Y-56209555D01*
X5798747Y-56216889D01*
X5767861Y-56222613D01*
X5736717Y-56226713D01*
X5705402Y-56229178D01*
X5674000Y-56230000D01*
X5324000Y-56230000D01*
X5324000Y-55630000D01*
G36*
X5324000Y-46990000D02*
G01*
X5314000Y-46990000D01*
X5314000Y-47590000D01*
X4974000Y-47590000D01*
X4942598Y-47589178D01*
X4911283Y-47586713D01*
X4880139Y-47582613D01*
X4849253Y-47576889D01*
X4818709Y-47569555D01*
X4788590Y-47560634D01*
X4758979Y-47550148D01*
X4729958Y-47538127D01*
X4701606Y-47524604D01*
X4674000Y-47509615D01*
X4647217Y-47493202D01*
X4621329Y-47475410D01*
X4596408Y-47456288D01*
X4572522Y-47435887D01*
X4549736Y-47414264D01*
X4528113Y-47391478D01*
X4507712Y-47367592D01*
X4488590Y-47342671D01*
X4470798Y-47316783D01*
X4454385Y-47290000D01*
X4439396Y-47262394D01*
X4425873Y-47234042D01*
X4413852Y-47205021D01*
X4403366Y-47175410D01*
X4394445Y-47145291D01*
X4387111Y-47114747D01*
X4381387Y-47083861D01*
X4377287Y-47052717D01*
X4374822Y-47021402D01*
X4374000Y-46990000D01*
X4374822Y-46958598D01*
X4377287Y-46927283D01*
X4381387Y-46896139D01*
X4387111Y-46865253D01*
X4394445Y-46834709D01*
X4403366Y-46804590D01*
X4413852Y-46774979D01*
X4425873Y-46745958D01*
X4439396Y-46717606D01*
X4454385Y-46690000D01*
X4470798Y-46663217D01*
X4488590Y-46637329D01*
X4507712Y-46612408D01*
X4528113Y-46588522D01*
X4549736Y-46565736D01*
X4572522Y-46544113D01*
X4596408Y-46523712D01*
X4621329Y-46504590D01*
X4647217Y-46486798D01*
X4674000Y-46470385D01*
X4701606Y-46455396D01*
X4729958Y-46441873D01*
X4758979Y-46429852D01*
X4788590Y-46419366D01*
X4818709Y-46410445D01*
X4849253Y-46403111D01*
X4880139Y-46397387D01*
X4911283Y-46393287D01*
X4942598Y-46390822D01*
X4974000Y-46390000D01*
X5674000Y-46390000D01*
X5705402Y-46390822D01*
X5736717Y-46393287D01*
X5767861Y-46397387D01*
X5798747Y-46403111D01*
X5829291Y-46410445D01*
X5859410Y-46419366D01*
X5889021Y-46429852D01*
X5918042Y-46441873D01*
X5946394Y-46455396D01*
X5974000Y-46470385D01*
X6000783Y-46486798D01*
X6026671Y-46504590D01*
X6051592Y-46523712D01*
X6075478Y-46544113D01*
X6098264Y-46565736D01*
X6119887Y-46588522D01*
X6140288Y-46612408D01*
X6159410Y-46637329D01*
X6177202Y-46663217D01*
X6193615Y-46690000D01*
X6208604Y-46717606D01*
X6222127Y-46745958D01*
X6234148Y-46774979D01*
X6244634Y-46804590D01*
X6253555Y-46834709D01*
X6260889Y-46865253D01*
X6266613Y-46896139D01*
X6270713Y-46927283D01*
X6273178Y-46958598D01*
X6274000Y-46990000D01*
X6273178Y-47021402D01*
X6270713Y-47052717D01*
X6266613Y-47083861D01*
X6260889Y-47114747D01*
X6253555Y-47145291D01*
X6244634Y-47175410D01*
X6234148Y-47205021D01*
X6222127Y-47234042D01*
X6208604Y-47262394D01*
X6193615Y-47290000D01*
X6177202Y-47316783D01*
X6159410Y-47342671D01*
X6140288Y-47367592D01*
X6119887Y-47391478D01*
X6098264Y-47414264D01*
X6075478Y-47435887D01*
X6051592Y-47456288D01*
X6026671Y-47475410D01*
X6000783Y-47493202D01*
X5974000Y-47509615D01*
X5946394Y-47524604D01*
X5918042Y-47538127D01*
X5889021Y-47550148D01*
X5859410Y-47560634D01*
X5829291Y-47569555D01*
X5798747Y-47576889D01*
X5767861Y-47582613D01*
X5736717Y-47586713D01*
X5705402Y-47589178D01*
X5674000Y-47590000D01*
X5324000Y-47590000D01*
X5324000Y-46990000D01*
G37*
X5324000Y-46990000D02*
X5314000Y-46990000D01*
X5314000Y-47590000D01*
X4974000Y-47590000D01*
X4942598Y-47589178D01*
X4911283Y-47586713D01*
X4880139Y-47582613D01*
X4849253Y-47576889D01*
X4818709Y-47569555D01*
X4788590Y-47560634D01*
X4758979Y-47550148D01*
X4729958Y-47538127D01*
X4701606Y-47524604D01*
X4674000Y-47509615D01*
X4647217Y-47493202D01*
X4621329Y-47475410D01*
X4596408Y-47456288D01*
X4572522Y-47435887D01*
X4549736Y-47414264D01*
X4528113Y-47391478D01*
X4507712Y-47367592D01*
X4488590Y-47342671D01*
X4470798Y-47316783D01*
X4454385Y-47290000D01*
X4439396Y-47262394D01*
X4425873Y-47234042D01*
X4413852Y-47205021D01*
X4403366Y-47175410D01*
X4394445Y-47145291D01*
X4387111Y-47114747D01*
X4381387Y-47083861D01*
X4377287Y-47052717D01*
X4374822Y-47021402D01*
X4374000Y-46990000D01*
X4374822Y-46958598D01*
X4377287Y-46927283D01*
X4381387Y-46896139D01*
X4387111Y-46865253D01*
X4394445Y-46834709D01*
X4403366Y-46804590D01*
X4413852Y-46774979D01*
X4425873Y-46745958D01*
X4439396Y-46717606D01*
X4454385Y-46690000D01*
X4470798Y-46663217D01*
X4488590Y-46637329D01*
X4507712Y-46612408D01*
X4528113Y-46588522D01*
X4549736Y-46565736D01*
X4572522Y-46544113D01*
X4596408Y-46523712D01*
X4621329Y-46504590D01*
X4647217Y-46486798D01*
X4674000Y-46470385D01*
X4701606Y-46455396D01*
X4729958Y-46441873D01*
X4758979Y-46429852D01*
X4788590Y-46419366D01*
X4818709Y-46410445D01*
X4849253Y-46403111D01*
X4880139Y-46397387D01*
X4911283Y-46393287D01*
X4942598Y-46390822D01*
X4974000Y-46390000D01*
X5674000Y-46390000D01*
X5705402Y-46390822D01*
X5736717Y-46393287D01*
X5767861Y-46397387D01*
X5798747Y-46403111D01*
X5829291Y-46410445D01*
X5859410Y-46419366D01*
X5889021Y-46429852D01*
X5918042Y-46441873D01*
X5946394Y-46455396D01*
X5974000Y-46470385D01*
X6000783Y-46486798D01*
X6026671Y-46504590D01*
X6051592Y-46523712D01*
X6075478Y-46544113D01*
X6098264Y-46565736D01*
X6119887Y-46588522D01*
X6140288Y-46612408D01*
X6159410Y-46637329D01*
X6177202Y-46663217D01*
X6193615Y-46690000D01*
X6208604Y-46717606D01*
X6222127Y-46745958D01*
X6234148Y-46774979D01*
X6244634Y-46804590D01*
X6253555Y-46834709D01*
X6260889Y-46865253D01*
X6266613Y-46896139D01*
X6270713Y-46927283D01*
X6273178Y-46958598D01*
X6274000Y-46990000D01*
X6273178Y-47021402D01*
X6270713Y-47052717D01*
X6266613Y-47083861D01*
X6260889Y-47114747D01*
X6253555Y-47145291D01*
X6244634Y-47175410D01*
X6234148Y-47205021D01*
X6222127Y-47234042D01*
X6208604Y-47262394D01*
X6193615Y-47290000D01*
X6177202Y-47316783D01*
X6159410Y-47342671D01*
X6140288Y-47367592D01*
X6119887Y-47391478D01*
X6098264Y-47414264D01*
X6075478Y-47435887D01*
X6051592Y-47456288D01*
X6026671Y-47475410D01*
X6000783Y-47493202D01*
X5974000Y-47509615D01*
X5946394Y-47524604D01*
X5918042Y-47538127D01*
X5889021Y-47550148D01*
X5859410Y-47560634D01*
X5829291Y-47569555D01*
X5798747Y-47576889D01*
X5767861Y-47582613D01*
X5736717Y-47586713D01*
X5705402Y-47589178D01*
X5674000Y-47590000D01*
X5324000Y-47590000D01*
X5324000Y-46990000D01*
G36*
G01*
X8905600Y-4776000D02*
X7594400Y-4776000D01*
G75*
G02*
X7324000Y-4505600I0J270400D01*
G01*
X7324000Y-3694400D01*
G75*
G02*
X7594400Y-3424000I270400J0D01*
G01*
X8905600Y-3424000D01*
G75*
G02*
X9176000Y-3694400I0J-270400D01*
G01*
X9176000Y-4505600D01*
G75*
G02*
X8905600Y-4776000I-270400J0D01*
G01*
G37*
G36*
G01*
X8905600Y-7576000D02*
X7594400Y-7576000D01*
G75*
G02*
X7324000Y-7305600I0J270400D01*
G01*
X7324000Y-6494400D01*
G75*
G02*
X7594400Y-6224000I270400J0D01*
G01*
X8905600Y-6224000D01*
G75*
G02*
X9176000Y-6494400I0J-270400D01*
G01*
X9176000Y-7305600D01*
G75*
G02*
X8905600Y-7576000I-270400J0D01*
G01*
G37*
G36*
G01*
X26776000Y-18844400D02*
X26776000Y-20155600D01*
G75*
G02*
X26505600Y-20426000I-270400J0D01*
G01*
X25694400Y-20426000D01*
G75*
G02*
X25424000Y-20155600I0J270400D01*
G01*
X25424000Y-18844400D01*
G75*
G02*
X25694400Y-18574000I270400J0D01*
G01*
X26505600Y-18574000D01*
G75*
G02*
X26776000Y-18844400I0J-270400D01*
G01*
G37*
G36*
G01*
X29576000Y-18844400D02*
X29576000Y-20155600D01*
G75*
G02*
X29305600Y-20426000I-270400J0D01*
G01*
X28494400Y-20426000D01*
G75*
G02*
X28224000Y-20155600I0J270400D01*
G01*
X28224000Y-18844400D01*
G75*
G02*
X28494400Y-18574000I270400J0D01*
G01*
X29305600Y-18574000D01*
G75*
G02*
X29576000Y-18844400I0J-270400D01*
G01*
G37*
D12*
X9017000Y-53245000D03*
X9017000Y-55245000D03*
G36*
G01*
X10439500Y-45042100D02*
X10439500Y-43730900D01*
G75*
G02*
X10709900Y-43460500I270400J0D01*
G01*
X11521100Y-43460500D01*
G75*
G02*
X11791500Y-43730900I0J-270400D01*
G01*
X11791500Y-45042100D01*
G75*
G02*
X11521100Y-45312500I-270400J0D01*
G01*
X10709900Y-45312500D01*
G75*
G02*
X10439500Y-45042100I0J270400D01*
G01*
G37*
G36*
G01*
X7639500Y-45042100D02*
X7639500Y-43730900D01*
G75*
G02*
X7909900Y-43460500I270400J0D01*
G01*
X8721100Y-43460500D01*
G75*
G02*
X8991500Y-43730900I0J-270400D01*
G01*
X8991500Y-45042100D01*
G75*
G02*
X8721100Y-45312500I-270400J0D01*
G01*
X7909900Y-45312500D01*
G75*
G02*
X7639500Y-45042100I0J270400D01*
G01*
G37*
X26098500Y-32734000D03*
X26098500Y-30734000D03*
X19081500Y-7302500D03*
X17081500Y-7302500D03*
X3524500Y-44450000D03*
X5524500Y-44450000D03*
D13*
X20574000Y-38608000D03*
X20574000Y-36068000D03*
X20574000Y-33528000D03*
X20574000Y-15748000D03*
X20574000Y-13208000D03*
X20574000Y-10668000D03*
X5334000Y-10668000D03*
X5334000Y-13208000D03*
X5334000Y-15748000D03*
X5334000Y-33528000D03*
X5334000Y-36068000D03*
X5334000Y-38608000D03*
D14*
X16256000Y-44784000D03*
G36*
G01*
X17056000Y-50635000D02*
X15456000Y-50635000D01*
G75*
G02*
X15405000Y-50584000I0J51000D01*
G01*
X15405000Y-48984000D01*
G75*
G02*
X15456000Y-48933000I51000J0D01*
G01*
X17056000Y-48933000D01*
G75*
G02*
X17107000Y-48984000I0J-51000D01*
G01*
X17107000Y-50584000D01*
G75*
G02*
X17056000Y-50635000I-51000J0D01*
G01*
G37*
D15*
X5324000Y-46990000D03*
X5324000Y-55630000D03*
X1524000Y-46990000D03*
X1524000Y-55630000D03*
G36*
G01*
X4748999Y-51409000D02*
X5899001Y-51409000D01*
G75*
G02*
X5950000Y-51459999I0J-50999D01*
G01*
X5950000Y-52160001D01*
G75*
G02*
X5899001Y-52211000I-50999J0D01*
G01*
X4748999Y-52211000D01*
G75*
G02*
X4698000Y-52160001I0J50999D01*
G01*
X4698000Y-51459999D01*
G75*
G02*
X4748999Y-51409000I50999J0D01*
G01*
G37*
G36*
G01*
X4748999Y-50409000D02*
X5899001Y-50409000D01*
G75*
G02*
X5950000Y-50459999I0J-50999D01*
G01*
X5950000Y-51160001D01*
G75*
G02*
X5899001Y-51211000I-50999J0D01*
G01*
X4748999Y-51211000D01*
G75*
G02*
X4698000Y-51160001I0J50999D01*
G01*
X4698000Y-50459999D01*
G75*
G02*
X4748999Y-50409000I50999J0D01*
G01*
G37*
G36*
G01*
X4749000Y-49339000D02*
X5899000Y-49339000D01*
G75*
G02*
X5950000Y-49390000I0J-51000D01*
G01*
X5950000Y-50190000D01*
G75*
G02*
X5899000Y-50241000I-51000J0D01*
G01*
X4749000Y-50241000D01*
G75*
G02*
X4698000Y-50190000I0J51000D01*
G01*
X4698000Y-49390000D01*
G75*
G02*
X4749000Y-49339000I51000J0D01*
G01*
G37*
G36*
G01*
X4749000Y-52379000D02*
X5899000Y-52379000D01*
G75*
G02*
X5950000Y-52430000I0J-51000D01*
G01*
X5950000Y-53230000D01*
G75*
G02*
X5899000Y-53281000I-51000J0D01*
G01*
X4749000Y-53281000D01*
G75*
G02*
X4698000Y-53230000I0J51000D01*
G01*
X4698000Y-52430000D01*
G75*
G02*
X4749000Y-52379000I51000J0D01*
G01*
G37*
G36*
G01*
X4749000Y-48059000D02*
X5899000Y-48059000D01*
G75*
G02*
X5950000Y-48110000I0J-51000D01*
G01*
X5950000Y-49010000D01*
G75*
G02*
X5899000Y-49061000I-51000J0D01*
G01*
X4749000Y-49061000D01*
G75*
G02*
X4698000Y-49010000I0J51000D01*
G01*
X4698000Y-48110000D01*
G75*
G02*
X4749000Y-48059000I51000J0D01*
G01*
G37*
G36*
G01*
X4749000Y-53559000D02*
X5899000Y-53559000D01*
G75*
G02*
X5950000Y-53610000I0J-51000D01*
G01*
X5950000Y-54510000D01*
G75*
G02*
X5899000Y-54561000I-51000J0D01*
G01*
X4749000Y-54561000D01*
G75*
G02*
X4698000Y-54510000I0J51000D01*
G01*
X4698000Y-53610000D01*
G75*
G02*
X4749000Y-53559000I51000J0D01*
G01*
G37*
D16*
X14600000Y-55300000D03*
D17*
X17272000Y-20574000D03*
X17272000Y-23114000D03*
X17272000Y-25654000D03*
X17272000Y-28194000D03*
X17272000Y-33274000D03*
X17272000Y-35814000D03*
X17272000Y-38354000D03*
D18*
X13970000Y-25400000D03*
X13970000Y-27940000D03*
X13970000Y-30480000D03*
X13970000Y-35560000D03*
X13970000Y-38100000D03*
D19*
X30797500Y-28321000D03*
G36*
G01*
X36401000Y-44618250D02*
X36401000Y-45581750D01*
G75*
G02*
X36131750Y-45851000I-269250J0D01*
G01*
X35593250Y-45851000D01*
G75*
G02*
X35324000Y-45581750I0J269250D01*
G01*
X35324000Y-44618250D01*
G75*
G02*
X35593250Y-44349000I269250J0D01*
G01*
X36131750Y-44349000D01*
G75*
G02*
X36401000Y-44618250I0J-269250D01*
G01*
G37*
G36*
G01*
X38276000Y-44618250D02*
X38276000Y-45581750D01*
G75*
G02*
X38006750Y-45851000I-269250J0D01*
G01*
X37468250Y-45851000D01*
G75*
G02*
X37199000Y-45581750I0J269250D01*
G01*
X37199000Y-44618250D01*
G75*
G02*
X37468250Y-44349000I269250J0D01*
G01*
X38006750Y-44349000D01*
G75*
G02*
X38276000Y-44618250I0J-269250D01*
G01*
G37*
G36*
G01*
X33301000Y-14118250D02*
X33301000Y-15081750D01*
G75*
G02*
X33031750Y-15351000I-269250J0D01*
G01*
X32493250Y-15351000D01*
G75*
G02*
X32224000Y-15081750I0J269250D01*
G01*
X32224000Y-14118250D01*
G75*
G02*
X32493250Y-13849000I269250J0D01*
G01*
X33031750Y-13849000D01*
G75*
G02*
X33301000Y-14118250I0J-269250D01*
G01*
G37*
G36*
G01*
X35176000Y-14118250D02*
X35176000Y-15081750D01*
G75*
G02*
X34906750Y-15351000I-269250J0D01*
G01*
X34368250Y-15351000D01*
G75*
G02*
X34099000Y-15081750I0J269250D01*
G01*
X34099000Y-14118250D01*
G75*
G02*
X34368250Y-13849000I269250J0D01*
G01*
X34906750Y-13849000D01*
G75*
G02*
X35176000Y-14118250I0J-269250D01*
G01*
G37*
G36*
G01*
X38481750Y-41601000D02*
X37518250Y-41601000D01*
G75*
G02*
X37249000Y-41331750I0J269250D01*
G01*
X37249000Y-40793250D01*
G75*
G02*
X37518250Y-40524000I269250J0D01*
G01*
X38481750Y-40524000D01*
G75*
G02*
X38751000Y-40793250I0J-269250D01*
G01*
X38751000Y-41331750D01*
G75*
G02*
X38481750Y-41601000I-269250J0D01*
G01*
G37*
G36*
G01*
X38481750Y-43476000D02*
X37518250Y-43476000D01*
G75*
G02*
X37249000Y-43206750I0J269250D01*
G01*
X37249000Y-42668250D01*
G75*
G02*
X37518250Y-42399000I269250J0D01*
G01*
X38481750Y-42399000D01*
G75*
G02*
X38751000Y-42668250I0J-269250D01*
G01*
X38751000Y-43206750D01*
G75*
G02*
X38481750Y-43476000I-269250J0D01*
G01*
G37*
G36*
G01*
X37101000Y-14118250D02*
X37101000Y-15081750D01*
G75*
G02*
X36831750Y-15351000I-269250J0D01*
G01*
X36293250Y-15351000D01*
G75*
G02*
X36024000Y-15081750I0J269250D01*
G01*
X36024000Y-14118250D01*
G75*
G02*
X36293250Y-13849000I269250J0D01*
G01*
X36831750Y-13849000D01*
G75*
G02*
X37101000Y-14118250I0J-269250D01*
G01*
G37*
G36*
G01*
X38976000Y-14118250D02*
X38976000Y-15081750D01*
G75*
G02*
X38706750Y-15351000I-269250J0D01*
G01*
X38168250Y-15351000D01*
G75*
G02*
X37899000Y-15081750I0J269250D01*
G01*
X37899000Y-14118250D01*
G75*
G02*
X38168250Y-13849000I269250J0D01*
G01*
X38706750Y-13849000D01*
G75*
G02*
X38976000Y-14118250I0J-269250D01*
G01*
G37*
X44500000Y-22200000D03*
D20*
X36512500Y-34925000D03*
X35700000Y-49400000D03*
X35600000Y-11200000D03*
X35700000Y-19000000D03*
D19*
X44500000Y-50100000D03*
X44000000Y-37400000D03*
X44000000Y-9500000D03*
G36*
G01*
X32449000Y-40675001D02*
X32449000Y-40024999D01*
G75*
G02*
X32499999Y-39974000I50999J0D01*
G01*
X33720001Y-39974000D01*
G75*
G02*
X33771000Y-40024999I0J-50999D01*
G01*
X33771000Y-40675001D01*
G75*
G02*
X33720001Y-40726000I-50999J0D01*
G01*
X32499999Y-40726000D01*
G75*
G02*
X32449000Y-40675001I0J50999D01*
G01*
G37*
G36*
G01*
X32449000Y-42575001D02*
X32449000Y-41924999D01*
G75*
G02*
X32499999Y-41874000I50999J0D01*
G01*
X33720001Y-41874000D01*
G75*
G02*
X33771000Y-41924999I0J-50999D01*
G01*
X33771000Y-42575001D01*
G75*
G02*
X33720001Y-42626000I-50999J0D01*
G01*
X32499999Y-42626000D01*
G75*
G02*
X32449000Y-42575001I0J50999D01*
G01*
G37*
G36*
G01*
X29829000Y-42575001D02*
X29829000Y-41924999D01*
G75*
G02*
X29879999Y-41874000I50999J0D01*
G01*
X31100001Y-41874000D01*
G75*
G02*
X31151000Y-41924999I0J-50999D01*
G01*
X31151000Y-42575001D01*
G75*
G02*
X31100001Y-42626000I-50999J0D01*
G01*
X29879999Y-42626000D01*
G75*
G02*
X29829000Y-42575001I0J50999D01*
G01*
G37*
G36*
G01*
X29829000Y-41625001D02*
X29829000Y-40974999D01*
G75*
G02*
X29879999Y-40924000I50999J0D01*
G01*
X31100001Y-40924000D01*
G75*
G02*
X31151000Y-40974999I0J-50999D01*
G01*
X31151000Y-41625001D01*
G75*
G02*
X31100001Y-41676000I-50999J0D01*
G01*
X29879999Y-41676000D01*
G75*
G02*
X29829000Y-41625001I0J50999D01*
G01*
G37*
G36*
G01*
X29829000Y-40675001D02*
X29829000Y-40024999D01*
G75*
G02*
X29879999Y-39974000I50999J0D01*
G01*
X31100001Y-39974000D01*
G75*
G02*
X31151000Y-40024999I0J-50999D01*
G01*
X31151000Y-40675001D01*
G75*
G02*
X31100001Y-40726000I-50999J0D01*
G01*
X29879999Y-40726000D01*
G75*
G02*
X29829000Y-40675001I0J50999D01*
G01*
G37*
G36*
G01*
X30149000Y-7625001D02*
X30149000Y-6974999D01*
G75*
G02*
X30199999Y-6924000I50999J0D01*
G01*
X31420001Y-6924000D01*
G75*
G02*
X31471000Y-6974999I0J-50999D01*
G01*
X31471000Y-7625001D01*
G75*
G02*
X31420001Y-7676000I-50999J0D01*
G01*
X30199999Y-7676000D01*
G75*
G02*
X30149000Y-7625001I0J50999D01*
G01*
G37*
G36*
G01*
X30149000Y-9525001D02*
X30149000Y-8874999D01*
G75*
G02*
X30199999Y-8824000I50999J0D01*
G01*
X31420001Y-8824000D01*
G75*
G02*
X31471000Y-8874999I0J-50999D01*
G01*
X31471000Y-9525001D01*
G75*
G02*
X31420001Y-9576000I-50999J0D01*
G01*
X30199999Y-9576000D01*
G75*
G02*
X30149000Y-9525001I0J50999D01*
G01*
G37*
G36*
G01*
X27529000Y-9525001D02*
X27529000Y-8874999D01*
G75*
G02*
X27579999Y-8824000I50999J0D01*
G01*
X28800001Y-8824000D01*
G75*
G02*
X28851000Y-8874999I0J-50999D01*
G01*
X28851000Y-9525001D01*
G75*
G02*
X28800001Y-9576000I-50999J0D01*
G01*
X27579999Y-9576000D01*
G75*
G02*
X27529000Y-9525001I0J50999D01*
G01*
G37*
G36*
G01*
X27529000Y-8575001D02*
X27529000Y-7924999D01*
G75*
G02*
X27579999Y-7874000I50999J0D01*
G01*
X28800001Y-7874000D01*
G75*
G02*
X28851000Y-7924999I0J-50999D01*
G01*
X28851000Y-8575001D01*
G75*
G02*
X28800001Y-8626000I-50999J0D01*
G01*
X27579999Y-8626000D01*
G75*
G02*
X27529000Y-8575001I0J50999D01*
G01*
G37*
G36*
G01*
X27529000Y-7625001D02*
X27529000Y-6974999D01*
G75*
G02*
X27579999Y-6924000I50999J0D01*
G01*
X28800001Y-6924000D01*
G75*
G02*
X28851000Y-6974999I0J-50999D01*
G01*
X28851000Y-7625001D01*
G75*
G02*
X28800001Y-7676000I-50999J0D01*
G01*
X27579999Y-7676000D01*
G75*
G02*
X27529000Y-7625001I0J50999D01*
G01*
G37*
G36*
G01*
X27118250Y-41999000D02*
X28081750Y-41999000D01*
G75*
G02*
X28351000Y-42268250I0J-269250D01*
G01*
X28351000Y-42806750D01*
G75*
G02*
X28081750Y-43076000I-269250J0D01*
G01*
X27118250Y-43076000D01*
G75*
G02*
X26849000Y-42806750I0J269250D01*
G01*
X26849000Y-42268250D01*
G75*
G02*
X27118250Y-41999000I269250J0D01*
G01*
G37*
G36*
G01*
X27118250Y-40124000D02*
X28081750Y-40124000D01*
G75*
G02*
X28351000Y-40393250I0J-269250D01*
G01*
X28351000Y-40931750D01*
G75*
G02*
X28081750Y-41201000I-269250J0D01*
G01*
X27118250Y-41201000D01*
G75*
G02*
X26849000Y-40931750I0J269250D01*
G01*
X26849000Y-40393250D01*
G75*
G02*
X27118250Y-40124000I269250J0D01*
G01*
G37*
G36*
G01*
X25509000Y-10757750D02*
X25509000Y-11721250D01*
G75*
G02*
X25239750Y-11990500I-269250J0D01*
G01*
X24701250Y-11990500D01*
G75*
G02*
X24432000Y-11721250I0J269250D01*
G01*
X24432000Y-10757750D01*
G75*
G02*
X24701250Y-10488500I269250J0D01*
G01*
X25239750Y-10488500D01*
G75*
G02*
X25509000Y-10757750I0J-269250D01*
G01*
G37*
G36*
G01*
X27384000Y-10757750D02*
X27384000Y-11721250D01*
G75*
G02*
X27114750Y-11990500I-269250J0D01*
G01*
X26576250Y-11990500D01*
G75*
G02*
X26307000Y-11721250I0J269250D01*
G01*
X26307000Y-10757750D01*
G75*
G02*
X26576250Y-10488500I269250J0D01*
G01*
X27114750Y-10488500D01*
G75*
G02*
X27384000Y-10757750I0J-269250D01*
G01*
G37*
G36*
G01*
X36181750Y-41601000D02*
X35218250Y-41601000D01*
G75*
G02*
X34949000Y-41331750I0J269250D01*
G01*
X34949000Y-40793250D01*
G75*
G02*
X35218250Y-40524000I269250J0D01*
G01*
X36181750Y-40524000D01*
G75*
G02*
X36451000Y-40793250I0J-269250D01*
G01*
X36451000Y-41331750D01*
G75*
G02*
X36181750Y-41601000I-269250J0D01*
G01*
G37*
G36*
G01*
X36181750Y-43476000D02*
X35218250Y-43476000D01*
G75*
G02*
X34949000Y-43206750I0J269250D01*
G01*
X34949000Y-42668250D01*
G75*
G02*
X35218250Y-42399000I269250J0D01*
G01*
X36181750Y-42399000D01*
G75*
G02*
X36451000Y-42668250I0J-269250D01*
G01*
X36451000Y-43206750D01*
G75*
G02*
X36181750Y-43476000I-269250J0D01*
G01*
G37*
G36*
G01*
X33299000Y-45581750D02*
X33299000Y-44618250D01*
G75*
G02*
X33568250Y-44349000I269250J0D01*
G01*
X34106750Y-44349000D01*
G75*
G02*
X34376000Y-44618250I0J-269250D01*
G01*
X34376000Y-45581750D01*
G75*
G02*
X34106750Y-45851000I-269250J0D01*
G01*
X33568250Y-45851000D01*
G75*
G02*
X33299000Y-45581750I0J269250D01*
G01*
G37*
G36*
G01*
X31424000Y-45581750D02*
X31424000Y-44618250D01*
G75*
G02*
X31693250Y-44349000I269250J0D01*
G01*
X32231750Y-44349000D01*
G75*
G02*
X32501000Y-44618250I0J-269250D01*
G01*
X32501000Y-45581750D01*
G75*
G02*
X32231750Y-45851000I-269250J0D01*
G01*
X31693250Y-45851000D01*
G75*
G02*
X31424000Y-45581750I0J269250D01*
G01*
G37*
G36*
G01*
X29601000Y-13018250D02*
X29601000Y-13981750D01*
G75*
G02*
X29331750Y-14251000I-269250J0D01*
G01*
X28793250Y-14251000D01*
G75*
G02*
X28524000Y-13981750I0J269250D01*
G01*
X28524000Y-13018250D01*
G75*
G02*
X28793250Y-12749000I269250J0D01*
G01*
X29331750Y-12749000D01*
G75*
G02*
X29601000Y-13018250I0J-269250D01*
G01*
G37*
G36*
G01*
X31476000Y-13018250D02*
X31476000Y-13981750D01*
G75*
G02*
X31206750Y-14251000I-269250J0D01*
G01*
X30668250Y-14251000D01*
G75*
G02*
X30399000Y-13981750I0J269250D01*
G01*
X30399000Y-13018250D01*
G75*
G02*
X30668250Y-12749000I269250J0D01*
G01*
X31206750Y-12749000D01*
G75*
G02*
X31476000Y-13018250I0J-269250D01*
G01*
G37*
G36*
G01*
X31501000Y-10768250D02*
X31501000Y-11731750D01*
G75*
G02*
X31231750Y-12001000I-269250J0D01*
G01*
X30693250Y-12001000D01*
G75*
G02*
X30424000Y-11731750I0J269250D01*
G01*
X30424000Y-10768250D01*
G75*
G02*
X30693250Y-10499000I269250J0D01*
G01*
X31231750Y-10499000D01*
G75*
G02*
X31501000Y-10768250I0J-269250D01*
G01*
G37*
G36*
G01*
X33376000Y-10768250D02*
X33376000Y-11731750D01*
G75*
G02*
X33106750Y-12001000I-269250J0D01*
G01*
X32568250Y-12001000D01*
G75*
G02*
X32299000Y-11731750I0J269250D01*
G01*
X32299000Y-10768250D01*
G75*
G02*
X32568250Y-10499000I269250J0D01*
G01*
X33106750Y-10499000D01*
G75*
G02*
X33376000Y-10768250I0J-269250D01*
G01*
G37*
D16*
X41000000Y-3500000D03*
G36*
G01*
X39744400Y-40324000D02*
X41055600Y-40324000D01*
G75*
G02*
X41326000Y-40594400I0J-270400D01*
G01*
X41326000Y-41405600D01*
G75*
G02*
X41055600Y-41676000I-270400J0D01*
G01*
X39744400Y-41676000D01*
G75*
G02*
X39474000Y-41405600I0J270400D01*
G01*
X39474000Y-40594400D01*
G75*
G02*
X39744400Y-40324000I270400J0D01*
G01*
G37*
G36*
G01*
X39744400Y-37524000D02*
X41055600Y-37524000D01*
G75*
G02*
X41326000Y-37794400I0J-270400D01*
G01*
X41326000Y-38605600D01*
G75*
G02*
X41055600Y-38876000I-270400J0D01*
G01*
X39744400Y-38876000D01*
G75*
G02*
X39474000Y-38605600I0J270400D01*
G01*
X39474000Y-37794400D01*
G75*
G02*
X39744400Y-37524000I270400J0D01*
G01*
G37*
G36*
G01*
X35905600Y-5526000D02*
X34594400Y-5526000D01*
G75*
G02*
X34324000Y-5255600I0J270400D01*
G01*
X34324000Y-4444400D01*
G75*
G02*
X34594400Y-4174000I270400J0D01*
G01*
X35905600Y-4174000D01*
G75*
G02*
X36176000Y-4444400I0J-270400D01*
G01*
X36176000Y-5255600D01*
G75*
G02*
X35905600Y-5526000I-270400J0D01*
G01*
G37*
G36*
G01*
X35905600Y-8326000D02*
X34594400Y-8326000D01*
G75*
G02*
X34324000Y-8055600I0J270400D01*
G01*
X34324000Y-7244400D01*
G75*
G02*
X34594400Y-6974000I270400J0D01*
G01*
X35905600Y-6974000D01*
G75*
G02*
X36176000Y-7244400I0J-270400D01*
G01*
X36176000Y-8055600D01*
G75*
G02*
X35905600Y-8326000I-270400J0D01*
G01*
G37*
G36*
G01*
X28156000Y-38247600D02*
X28156000Y-36936400D01*
G75*
G02*
X28426400Y-36666000I270400J0D01*
G01*
X29237600Y-36666000D01*
G75*
G02*
X29508000Y-36936400I0J-270400D01*
G01*
X29508000Y-38247600D01*
G75*
G02*
X29237600Y-38518000I-270400J0D01*
G01*
X28426400Y-38518000D01*
G75*
G02*
X28156000Y-38247600I0J270400D01*
G01*
G37*
G36*
G01*
X25356000Y-38247600D02*
X25356000Y-36936400D01*
G75*
G02*
X25626400Y-36666000I270400J0D01*
G01*
X26437600Y-36666000D01*
G75*
G02*
X26708000Y-36936400I0J-270400D01*
G01*
X26708000Y-38247600D01*
G75*
G02*
X26437600Y-38518000I-270400J0D01*
G01*
X25626400Y-38518000D01*
G75*
G02*
X25356000Y-38247600I0J270400D01*
G01*
G37*
G36*
G01*
X24844400Y-6974000D02*
X26155600Y-6974000D01*
G75*
G02*
X26426000Y-7244400I0J-270400D01*
G01*
X26426000Y-8055600D01*
G75*
G02*
X26155600Y-8326000I-270400J0D01*
G01*
X24844400Y-8326000D01*
G75*
G02*
X24574000Y-8055600I0J270400D01*
G01*
X24574000Y-7244400D01*
G75*
G02*
X24844400Y-6974000I270400J0D01*
G01*
G37*
G36*
G01*
X24844400Y-4174000D02*
X26155600Y-4174000D01*
G75*
G02*
X26426000Y-4444400I0J-270400D01*
G01*
X26426000Y-5255600D01*
G75*
G02*
X26155600Y-5526000I-270400J0D01*
G01*
X24844400Y-5526000D01*
G75*
G02*
X24574000Y-5255600I0J270400D01*
G01*
X24574000Y-4444400D01*
G75*
G02*
X24844400Y-4174000I270400J0D01*
G01*
G37*
D21*
X6325200Y-54407600D02*
X5688404Y-54407600D01*
X5638399Y-48119500D01*
X6300198Y-48119500D01*
X6325200Y-54407600D01*
G36*
X6325200Y-54407600D02*
G01*
X5688404Y-54407600D01*
X5638399Y-48119500D01*
X6300198Y-48119500D01*
X6325200Y-54407600D01*
G37*
G36*
X5622934Y-52210984D02*
G01*
X5624270Y-52378984D01*
X5623284Y-52380724D01*
X5622270Y-52381000D01*
X4698000Y-52381000D01*
X4696268Y-52380000D01*
X4696000Y-52379000D01*
X4696000Y-52211000D01*
X4697000Y-52209268D01*
X4698000Y-52209000D01*
X5620934Y-52209000D01*
X5622934Y-52210984D01*
G37*
G36*
X5614982Y-51210984D02*
G01*
X5616557Y-51408984D01*
X5615571Y-51410724D01*
X5614557Y-51411000D01*
X4698000Y-51411000D01*
X4696268Y-51410000D01*
X4696000Y-51409000D01*
X4696000Y-51211000D01*
X4697000Y-51209268D01*
X4698000Y-51209000D01*
X5612982Y-51209000D01*
X5614982Y-51210984D01*
G37*
G36*
X5607268Y-50240984D02*
G01*
X5608604Y-50408984D01*
X5607618Y-50410724D01*
X5606604Y-50411000D01*
X4698000Y-50411000D01*
X4696268Y-50410000D01*
X4696000Y-50409000D01*
X4696000Y-50241000D01*
X4697000Y-50239268D01*
X4698000Y-50239000D01*
X5605268Y-50239000D01*
X5607268Y-50240984D01*
G37*
G36*
X31152732Y-41675000D02*
G01*
X31153000Y-41676000D01*
X31153000Y-41874000D01*
X31152000Y-41875732D01*
X31151000Y-41876000D01*
X29829000Y-41876000D01*
X29827268Y-41875000D01*
X29827000Y-41874000D01*
X29827000Y-41676000D01*
X29828000Y-41674268D01*
X29829000Y-41674000D01*
X31151000Y-41674000D01*
X31152732Y-41675000D01*
G37*
G36*
X31152732Y-40725000D02*
G01*
X31153000Y-40726000D01*
X31153000Y-40924000D01*
X31152000Y-40925732D01*
X31151000Y-40926000D01*
X29829000Y-40926000D01*
X29827268Y-40925000D01*
X29827000Y-40924000D01*
X29827000Y-40726000D01*
X29828000Y-40724268D01*
X29829000Y-40724000D01*
X31151000Y-40724000D01*
X31152732Y-40725000D01*
G37*
G36*
X28852732Y-8625000D02*
G01*
X28853000Y-8626000D01*
X28853000Y-8824000D01*
X28852000Y-8825732D01*
X28851000Y-8826000D01*
X27529000Y-8826000D01*
X27527268Y-8825000D01*
X27527000Y-8824000D01*
X27527000Y-8626000D01*
X27528000Y-8624268D01*
X27529000Y-8624000D01*
X28851000Y-8624000D01*
X28852732Y-8625000D01*
G37*
G36*
X28852732Y-7675000D02*
G01*
X28853000Y-7676000D01*
X28853000Y-7874000D01*
X28852000Y-7875732D01*
X28851000Y-7876000D01*
X27529000Y-7876000D01*
X27527268Y-7875000D01*
X27527000Y-7874000D01*
X27527000Y-7676000D01*
X27528000Y-7674268D01*
X27529000Y-7674000D01*
X28851000Y-7674000D01*
X28852732Y-7675000D01*
G37*
M02*
