G04 #@! TF.GenerationSoftware,KiCad,Pcbnew,(5.1.7)-1*
G04 #@! TF.CreationDate,2021-05-24T20:06:32+02:00*
G04 #@! TF.ProjectId,dcdcdc,64636463-6463-42e6-9b69-6361645f7063,rev?*
G04 #@! TF.SameCoordinates,Original*
G04 #@! TF.FileFunction,Soldermask,Bot*
G04 #@! TF.FilePolarity,Negative*
%FSLAX46Y46*%
G04 Gerber Fmt 4.6, Leading zero omitted, Abs format (unit mm)*
G04 Created by KiCad (PCBNEW (5.1.7)-1) date 2021-05-24 20:06:32*
%MOMM*%
%LPD*%
G01*
G04 APERTURE LIST*
%ADD10C,0.010000*%
%ADD11C,1.502000*%
%ADD12C,1.302000*%
%ADD13C,1.702000*%
%ADD14C,0.602000*%
%ADD15C,3.302000*%
%ADD16O,1.702000X1.402000*%
%ADD17C,1.405000*%
%ADD18C,2.102000*%
%ADD19C,2.100980*%
G04 APERTURE END LIST*
D10*
G36*
X40622898Y-57112112D02*
G01*
X40655538Y-57126139D01*
X40705687Y-57144591D01*
X40767735Y-57165566D01*
X40836071Y-57187164D01*
X40905087Y-57207485D01*
X40965452Y-57223693D01*
X41155363Y-57263167D01*
X41347115Y-57285486D01*
X41544723Y-57290494D01*
X41752201Y-57278037D01*
X41973561Y-57247957D01*
X42212818Y-57200101D01*
X42335824Y-57170612D01*
X42474007Y-57133042D01*
X42628059Y-57086324D01*
X42788311Y-57033710D01*
X42945092Y-56978453D01*
X43088732Y-56923802D01*
X43172530Y-56889263D01*
X43293200Y-56834995D01*
X43433731Y-56767586D01*
X43588756Y-56689910D01*
X43752908Y-56604844D01*
X43920821Y-56515261D01*
X44087126Y-56424036D01*
X44246458Y-56334045D01*
X44393448Y-56248162D01*
X44522731Y-56169262D01*
X44555859Y-56148280D01*
X44696329Y-56052368D01*
X44850723Y-55936043D01*
X45015047Y-55802804D01*
X45185303Y-55656150D01*
X45357496Y-55499579D01*
X45527628Y-55336592D01*
X45691705Y-55170686D01*
X45783749Y-55073177D01*
X45844917Y-55007624D01*
X45899546Y-54949953D01*
X45944264Y-54903654D01*
X45975699Y-54872217D01*
X45990477Y-54859131D01*
X45990723Y-54859020D01*
X46001986Y-54866533D01*
X46003883Y-54878349D01*
X46010245Y-54912129D01*
X46028081Y-54968041D01*
X46055514Y-55041483D01*
X46090666Y-55127853D01*
X46131661Y-55222549D01*
X46176622Y-55320968D01*
X46223671Y-55418509D01*
X46226550Y-55424294D01*
X46335795Y-55632184D01*
X46462711Y-55854202D01*
X46603256Y-56083943D01*
X46753387Y-56315007D01*
X46909063Y-56540989D01*
X47066241Y-56755487D01*
X47070665Y-56761319D01*
X47201508Y-56923133D01*
X47335958Y-57069532D01*
X47471616Y-57198614D01*
X47606081Y-57308481D01*
X47736957Y-57397231D01*
X47861843Y-57462964D01*
X47978342Y-57503780D01*
X48018356Y-57512106D01*
X48068064Y-57520342D01*
X48004720Y-57417348D01*
X47901813Y-57230834D01*
X47808936Y-57024436D01*
X47729806Y-56807478D01*
X47668135Y-56589282D01*
X47658947Y-56549569D01*
X47642155Y-56449170D01*
X47630671Y-56327744D01*
X47624503Y-56193342D01*
X47623658Y-56054015D01*
X47628146Y-55917813D01*
X47637974Y-55792789D01*
X47653151Y-55686992D01*
X47658035Y-55663353D01*
X47717234Y-55436301D01*
X47787775Y-55232231D01*
X47869083Y-55052112D01*
X47960587Y-54896914D01*
X48061712Y-54767604D01*
X48171885Y-54665153D01*
X48290532Y-54590529D01*
X48294007Y-54588831D01*
X48397146Y-54548722D01*
X48511002Y-54524442D01*
X48641307Y-54515116D01*
X48759868Y-54517760D01*
X48830162Y-54522261D01*
X48891872Y-54527421D01*
X48937347Y-54532530D01*
X48956621Y-54536021D01*
X48979172Y-54537804D01*
X48991363Y-54521163D01*
X48997273Y-54495457D01*
X49000440Y-54463822D01*
X49003554Y-54407820D01*
X49006513Y-54332837D01*
X49009216Y-54244262D01*
X49011562Y-54147479D01*
X49013450Y-54047875D01*
X49014779Y-53950838D01*
X49015447Y-53861752D01*
X49015354Y-53786006D01*
X49014397Y-53728985D01*
X49012477Y-53696076D01*
X49012310Y-53694853D01*
X49007077Y-53667685D01*
X48996474Y-53653192D01*
X48972768Y-53647391D01*
X48928225Y-53646298D01*
X48918039Y-53646294D01*
X48815805Y-53635708D01*
X48707847Y-53606746D01*
X48608020Y-53563607D01*
X48569469Y-53540704D01*
X48503747Y-53489093D01*
X48438344Y-53424091D01*
X48382493Y-53355649D01*
X48350948Y-53305210D01*
X48325383Y-53255478D01*
X48241989Y-53323411D01*
X48176972Y-53382446D01*
X48099441Y-53462914D01*
X48012614Y-53560840D01*
X47919707Y-53672248D01*
X47823935Y-53793163D01*
X47728514Y-53919611D01*
X47636661Y-54047616D01*
X47551591Y-54173203D01*
X47539575Y-54191647D01*
X47430117Y-54368598D01*
X47324272Y-54556586D01*
X47219661Y-54760232D01*
X47113907Y-54984156D01*
X47009537Y-55221465D01*
X46983272Y-55279334D01*
X46959169Y-55325897D01*
X46940681Y-55354790D01*
X46933862Y-55360952D01*
X46919706Y-55350344D01*
X46895387Y-55314329D01*
X46862214Y-55255093D01*
X46821499Y-55174822D01*
X46818291Y-55168247D01*
X46771173Y-55063798D01*
X46719519Y-54935967D01*
X46665011Y-54790044D01*
X46609329Y-54631317D01*
X46554155Y-54465077D01*
X46501168Y-54296611D01*
X46452050Y-54131211D01*
X46408481Y-53974166D01*
X46372142Y-53830764D01*
X46344714Y-53706295D01*
X46332862Y-53640585D01*
X46321910Y-53566262D01*
X46310469Y-53479087D01*
X46299307Y-53386061D01*
X46289193Y-53294186D01*
X46280896Y-53210462D01*
X46275183Y-53141890D01*
X46272823Y-53095470D01*
X46272805Y-53093471D01*
X46266749Y-53097664D01*
X46250223Y-53124697D01*
X46225549Y-53170403D01*
X46195048Y-53230617D01*
X46185369Y-53250353D01*
X45986525Y-53624996D01*
X45760465Y-53988893D01*
X45508304Y-54340792D01*
X45231158Y-54679443D01*
X44930143Y-55003598D01*
X44606375Y-55312004D01*
X44260971Y-55603413D01*
X43895046Y-55876574D01*
X43755236Y-55972394D01*
X43405808Y-56194359D01*
X43060138Y-56389044D01*
X42714121Y-56558000D01*
X42363653Y-56702779D01*
X42004630Y-56824931D01*
X41632948Y-56926005D01*
X41244503Y-57007554D01*
X40853541Y-57068707D01*
X40773306Y-57079595D01*
X40704229Y-57089398D01*
X40651408Y-57097358D01*
X40619938Y-57102717D01*
X40613376Y-57104409D01*
X40622898Y-57112112D01*
G37*
X40622898Y-57112112D02*
X40655538Y-57126139D01*
X40705687Y-57144591D01*
X40767735Y-57165566D01*
X40836071Y-57187164D01*
X40905087Y-57207485D01*
X40965452Y-57223693D01*
X41155363Y-57263167D01*
X41347115Y-57285486D01*
X41544723Y-57290494D01*
X41752201Y-57278037D01*
X41973561Y-57247957D01*
X42212818Y-57200101D01*
X42335824Y-57170612D01*
X42474007Y-57133042D01*
X42628059Y-57086324D01*
X42788311Y-57033710D01*
X42945092Y-56978453D01*
X43088732Y-56923802D01*
X43172530Y-56889263D01*
X43293200Y-56834995D01*
X43433731Y-56767586D01*
X43588756Y-56689910D01*
X43752908Y-56604844D01*
X43920821Y-56515261D01*
X44087126Y-56424036D01*
X44246458Y-56334045D01*
X44393448Y-56248162D01*
X44522731Y-56169262D01*
X44555859Y-56148280D01*
X44696329Y-56052368D01*
X44850723Y-55936043D01*
X45015047Y-55802804D01*
X45185303Y-55656150D01*
X45357496Y-55499579D01*
X45527628Y-55336592D01*
X45691705Y-55170686D01*
X45783749Y-55073177D01*
X45844917Y-55007624D01*
X45899546Y-54949953D01*
X45944264Y-54903654D01*
X45975699Y-54872217D01*
X45990477Y-54859131D01*
X45990723Y-54859020D01*
X46001986Y-54866533D01*
X46003883Y-54878349D01*
X46010245Y-54912129D01*
X46028081Y-54968041D01*
X46055514Y-55041483D01*
X46090666Y-55127853D01*
X46131661Y-55222549D01*
X46176622Y-55320968D01*
X46223671Y-55418509D01*
X46226550Y-55424294D01*
X46335795Y-55632184D01*
X46462711Y-55854202D01*
X46603256Y-56083943D01*
X46753387Y-56315007D01*
X46909063Y-56540989D01*
X47066241Y-56755487D01*
X47070665Y-56761319D01*
X47201508Y-56923133D01*
X47335958Y-57069532D01*
X47471616Y-57198614D01*
X47606081Y-57308481D01*
X47736957Y-57397231D01*
X47861843Y-57462964D01*
X47978342Y-57503780D01*
X48018356Y-57512106D01*
X48068064Y-57520342D01*
X48004720Y-57417348D01*
X47901813Y-57230834D01*
X47808936Y-57024436D01*
X47729806Y-56807478D01*
X47668135Y-56589282D01*
X47658947Y-56549569D01*
X47642155Y-56449170D01*
X47630671Y-56327744D01*
X47624503Y-56193342D01*
X47623658Y-56054015D01*
X47628146Y-55917813D01*
X47637974Y-55792789D01*
X47653151Y-55686992D01*
X47658035Y-55663353D01*
X47717234Y-55436301D01*
X47787775Y-55232231D01*
X47869083Y-55052112D01*
X47960587Y-54896914D01*
X48061712Y-54767604D01*
X48171885Y-54665153D01*
X48290532Y-54590529D01*
X48294007Y-54588831D01*
X48397146Y-54548722D01*
X48511002Y-54524442D01*
X48641307Y-54515116D01*
X48759868Y-54517760D01*
X48830162Y-54522261D01*
X48891872Y-54527421D01*
X48937347Y-54532530D01*
X48956621Y-54536021D01*
X48979172Y-54537804D01*
X48991363Y-54521163D01*
X48997273Y-54495457D01*
X49000440Y-54463822D01*
X49003554Y-54407820D01*
X49006513Y-54332837D01*
X49009216Y-54244262D01*
X49011562Y-54147479D01*
X49013450Y-54047875D01*
X49014779Y-53950838D01*
X49015447Y-53861752D01*
X49015354Y-53786006D01*
X49014397Y-53728985D01*
X49012477Y-53696076D01*
X49012310Y-53694853D01*
X49007077Y-53667685D01*
X48996474Y-53653192D01*
X48972768Y-53647391D01*
X48928225Y-53646298D01*
X48918039Y-53646294D01*
X48815805Y-53635708D01*
X48707847Y-53606746D01*
X48608020Y-53563607D01*
X48569469Y-53540704D01*
X48503747Y-53489093D01*
X48438344Y-53424091D01*
X48382493Y-53355649D01*
X48350948Y-53305210D01*
X48325383Y-53255478D01*
X48241989Y-53323411D01*
X48176972Y-53382446D01*
X48099441Y-53462914D01*
X48012614Y-53560840D01*
X47919707Y-53672248D01*
X47823935Y-53793163D01*
X47728514Y-53919611D01*
X47636661Y-54047616D01*
X47551591Y-54173203D01*
X47539575Y-54191647D01*
X47430117Y-54368598D01*
X47324272Y-54556586D01*
X47219661Y-54760232D01*
X47113907Y-54984156D01*
X47009537Y-55221465D01*
X46983272Y-55279334D01*
X46959169Y-55325897D01*
X46940681Y-55354790D01*
X46933862Y-55360952D01*
X46919706Y-55350344D01*
X46895387Y-55314329D01*
X46862214Y-55255093D01*
X46821499Y-55174822D01*
X46818291Y-55168247D01*
X46771173Y-55063798D01*
X46719519Y-54935967D01*
X46665011Y-54790044D01*
X46609329Y-54631317D01*
X46554155Y-54465077D01*
X46501168Y-54296611D01*
X46452050Y-54131211D01*
X46408481Y-53974166D01*
X46372142Y-53830764D01*
X46344714Y-53706295D01*
X46332862Y-53640585D01*
X46321910Y-53566262D01*
X46310469Y-53479087D01*
X46299307Y-53386061D01*
X46289193Y-53294186D01*
X46280896Y-53210462D01*
X46275183Y-53141890D01*
X46272823Y-53095470D01*
X46272805Y-53093471D01*
X46266749Y-53097664D01*
X46250223Y-53124697D01*
X46225549Y-53170403D01*
X46195048Y-53230617D01*
X46185369Y-53250353D01*
X45986525Y-53624996D01*
X45760465Y-53988893D01*
X45508304Y-54340792D01*
X45231158Y-54679443D01*
X44930143Y-55003598D01*
X44606375Y-55312004D01*
X44260971Y-55603413D01*
X43895046Y-55876574D01*
X43755236Y-55972394D01*
X43405808Y-56194359D01*
X43060138Y-56389044D01*
X42714121Y-56558000D01*
X42363653Y-56702779D01*
X42004630Y-56824931D01*
X41632948Y-56926005D01*
X41244503Y-57007554D01*
X40853541Y-57068707D01*
X40773306Y-57079595D01*
X40704229Y-57089398D01*
X40651408Y-57097358D01*
X40619938Y-57102717D01*
X40613376Y-57104409D01*
X40622898Y-57112112D01*
G36*
X1524000Y-55630000D02*
G01*
X1514000Y-55630000D01*
X1514000Y-56230000D01*
X1174000Y-56230000D01*
X1142598Y-56229178D01*
X1111283Y-56226713D01*
X1080139Y-56222613D01*
X1049253Y-56216889D01*
X1018709Y-56209555D01*
X988590Y-56200634D01*
X958979Y-56190148D01*
X929958Y-56178127D01*
X901606Y-56164604D01*
X874000Y-56149615D01*
X847217Y-56133202D01*
X821329Y-56115410D01*
X796408Y-56096288D01*
X772522Y-56075887D01*
X749736Y-56054264D01*
X728113Y-56031478D01*
X707712Y-56007592D01*
X688590Y-55982671D01*
X670798Y-55956783D01*
X654385Y-55930000D01*
X639396Y-55902394D01*
X625873Y-55874042D01*
X613852Y-55845021D01*
X603366Y-55815410D01*
X594445Y-55785291D01*
X587111Y-55754747D01*
X581387Y-55723861D01*
X577287Y-55692717D01*
X574822Y-55661402D01*
X574000Y-55630000D01*
X574822Y-55598598D01*
X577287Y-55567283D01*
X581387Y-55536139D01*
X587111Y-55505253D01*
X594445Y-55474709D01*
X603366Y-55444590D01*
X613852Y-55414979D01*
X625873Y-55385958D01*
X639396Y-55357606D01*
X654385Y-55330000D01*
X670798Y-55303217D01*
X688590Y-55277329D01*
X707712Y-55252408D01*
X728113Y-55228522D01*
X749736Y-55205736D01*
X772522Y-55184113D01*
X796408Y-55163712D01*
X821329Y-55144590D01*
X847217Y-55126798D01*
X874000Y-55110385D01*
X901606Y-55095396D01*
X929958Y-55081873D01*
X958979Y-55069852D01*
X988590Y-55059366D01*
X1018709Y-55050445D01*
X1049253Y-55043111D01*
X1080139Y-55037387D01*
X1111283Y-55033287D01*
X1142598Y-55030822D01*
X1174000Y-55030000D01*
X1874000Y-55030000D01*
X1905402Y-55030822D01*
X1936717Y-55033287D01*
X1967861Y-55037387D01*
X1998747Y-55043111D01*
X2029291Y-55050445D01*
X2059410Y-55059366D01*
X2089021Y-55069852D01*
X2118042Y-55081873D01*
X2146394Y-55095396D01*
X2174000Y-55110385D01*
X2200783Y-55126798D01*
X2226671Y-55144590D01*
X2251592Y-55163712D01*
X2275478Y-55184113D01*
X2298264Y-55205736D01*
X2319887Y-55228522D01*
X2340288Y-55252408D01*
X2359410Y-55277329D01*
X2377202Y-55303217D01*
X2393615Y-55330000D01*
X2408604Y-55357606D01*
X2422127Y-55385958D01*
X2434148Y-55414979D01*
X2444634Y-55444590D01*
X2453555Y-55474709D01*
X2460889Y-55505253D01*
X2466613Y-55536139D01*
X2470713Y-55567283D01*
X2473178Y-55598598D01*
X2474000Y-55630000D01*
X2473178Y-55661402D01*
X2470713Y-55692717D01*
X2466613Y-55723861D01*
X2460889Y-55754747D01*
X2453555Y-55785291D01*
X2444634Y-55815410D01*
X2434148Y-55845021D01*
X2422127Y-55874042D01*
X2408604Y-55902394D01*
X2393615Y-55930000D01*
X2377202Y-55956783D01*
X2359410Y-55982671D01*
X2340288Y-56007592D01*
X2319887Y-56031478D01*
X2298264Y-56054264D01*
X2275478Y-56075887D01*
X2251592Y-56096288D01*
X2226671Y-56115410D01*
X2200783Y-56133202D01*
X2174000Y-56149615D01*
X2146394Y-56164604D01*
X2118042Y-56178127D01*
X2089021Y-56190148D01*
X2059410Y-56200634D01*
X2029291Y-56209555D01*
X1998747Y-56216889D01*
X1967861Y-56222613D01*
X1936717Y-56226713D01*
X1905402Y-56229178D01*
X1874000Y-56230000D01*
X1524000Y-56230000D01*
X1524000Y-55630000D01*
G37*
X1524000Y-55630000D02*
X1514000Y-55630000D01*
X1514000Y-56230000D01*
X1174000Y-56230000D01*
X1142598Y-56229178D01*
X1111283Y-56226713D01*
X1080139Y-56222613D01*
X1049253Y-56216889D01*
X1018709Y-56209555D01*
X988590Y-56200634D01*
X958979Y-56190148D01*
X929958Y-56178127D01*
X901606Y-56164604D01*
X874000Y-56149615D01*
X847217Y-56133202D01*
X821329Y-56115410D01*
X796408Y-56096288D01*
X772522Y-56075887D01*
X749736Y-56054264D01*
X728113Y-56031478D01*
X707712Y-56007592D01*
X688590Y-55982671D01*
X670798Y-55956783D01*
X654385Y-55930000D01*
X639396Y-55902394D01*
X625873Y-55874042D01*
X613852Y-55845021D01*
X603366Y-55815410D01*
X594445Y-55785291D01*
X587111Y-55754747D01*
X581387Y-55723861D01*
X577287Y-55692717D01*
X574822Y-55661402D01*
X574000Y-55630000D01*
X574822Y-55598598D01*
X577287Y-55567283D01*
X581387Y-55536139D01*
X587111Y-55505253D01*
X594445Y-55474709D01*
X603366Y-55444590D01*
X613852Y-55414979D01*
X625873Y-55385958D01*
X639396Y-55357606D01*
X654385Y-55330000D01*
X670798Y-55303217D01*
X688590Y-55277329D01*
X707712Y-55252408D01*
X728113Y-55228522D01*
X749736Y-55205736D01*
X772522Y-55184113D01*
X796408Y-55163712D01*
X821329Y-55144590D01*
X847217Y-55126798D01*
X874000Y-55110385D01*
X901606Y-55095396D01*
X929958Y-55081873D01*
X958979Y-55069852D01*
X988590Y-55059366D01*
X1018709Y-55050445D01*
X1049253Y-55043111D01*
X1080139Y-55037387D01*
X1111283Y-55033287D01*
X1142598Y-55030822D01*
X1174000Y-55030000D01*
X1874000Y-55030000D01*
X1905402Y-55030822D01*
X1936717Y-55033287D01*
X1967861Y-55037387D01*
X1998747Y-55043111D01*
X2029291Y-55050445D01*
X2059410Y-55059366D01*
X2089021Y-55069852D01*
X2118042Y-55081873D01*
X2146394Y-55095396D01*
X2174000Y-55110385D01*
X2200783Y-55126798D01*
X2226671Y-55144590D01*
X2251592Y-55163712D01*
X2275478Y-55184113D01*
X2298264Y-55205736D01*
X2319887Y-55228522D01*
X2340288Y-55252408D01*
X2359410Y-55277329D01*
X2377202Y-55303217D01*
X2393615Y-55330000D01*
X2408604Y-55357606D01*
X2422127Y-55385958D01*
X2434148Y-55414979D01*
X2444634Y-55444590D01*
X2453555Y-55474709D01*
X2460889Y-55505253D01*
X2466613Y-55536139D01*
X2470713Y-55567283D01*
X2473178Y-55598598D01*
X2474000Y-55630000D01*
X2473178Y-55661402D01*
X2470713Y-55692717D01*
X2466613Y-55723861D01*
X2460889Y-55754747D01*
X2453555Y-55785291D01*
X2444634Y-55815410D01*
X2434148Y-55845021D01*
X2422127Y-55874042D01*
X2408604Y-55902394D01*
X2393615Y-55930000D01*
X2377202Y-55956783D01*
X2359410Y-55982671D01*
X2340288Y-56007592D01*
X2319887Y-56031478D01*
X2298264Y-56054264D01*
X2275478Y-56075887D01*
X2251592Y-56096288D01*
X2226671Y-56115410D01*
X2200783Y-56133202D01*
X2174000Y-56149615D01*
X2146394Y-56164604D01*
X2118042Y-56178127D01*
X2089021Y-56190148D01*
X2059410Y-56200634D01*
X2029291Y-56209555D01*
X1998747Y-56216889D01*
X1967861Y-56222613D01*
X1936717Y-56226713D01*
X1905402Y-56229178D01*
X1874000Y-56230000D01*
X1524000Y-56230000D01*
X1524000Y-55630000D01*
G36*
X1524000Y-46990000D02*
G01*
X1514000Y-46990000D01*
X1514000Y-47590000D01*
X1174000Y-47590000D01*
X1142598Y-47589178D01*
X1111283Y-47586713D01*
X1080139Y-47582613D01*
X1049253Y-47576889D01*
X1018709Y-47569555D01*
X988590Y-47560634D01*
X958979Y-47550148D01*
X929958Y-47538127D01*
X901606Y-47524604D01*
X874000Y-47509615D01*
X847217Y-47493202D01*
X821329Y-47475410D01*
X796408Y-47456288D01*
X772522Y-47435887D01*
X749736Y-47414264D01*
X728113Y-47391478D01*
X707712Y-47367592D01*
X688590Y-47342671D01*
X670798Y-47316783D01*
X654385Y-47290000D01*
X639396Y-47262394D01*
X625873Y-47234042D01*
X613852Y-47205021D01*
X603366Y-47175410D01*
X594445Y-47145291D01*
X587111Y-47114747D01*
X581387Y-47083861D01*
X577287Y-47052717D01*
X574822Y-47021402D01*
X574000Y-46990000D01*
X574822Y-46958598D01*
X577287Y-46927283D01*
X581387Y-46896139D01*
X587111Y-46865253D01*
X594445Y-46834709D01*
X603366Y-46804590D01*
X613852Y-46774979D01*
X625873Y-46745958D01*
X639396Y-46717606D01*
X654385Y-46690000D01*
X670798Y-46663217D01*
X688590Y-46637329D01*
X707712Y-46612408D01*
X728113Y-46588522D01*
X749736Y-46565736D01*
X772522Y-46544113D01*
X796408Y-46523712D01*
X821329Y-46504590D01*
X847217Y-46486798D01*
X874000Y-46470385D01*
X901606Y-46455396D01*
X929958Y-46441873D01*
X958979Y-46429852D01*
X988590Y-46419366D01*
X1018709Y-46410445D01*
X1049253Y-46403111D01*
X1080139Y-46397387D01*
X1111283Y-46393287D01*
X1142598Y-46390822D01*
X1174000Y-46390000D01*
X1874000Y-46390000D01*
X1905402Y-46390822D01*
X1936717Y-46393287D01*
X1967861Y-46397387D01*
X1998747Y-46403111D01*
X2029291Y-46410445D01*
X2059410Y-46419366D01*
X2089021Y-46429852D01*
X2118042Y-46441873D01*
X2146394Y-46455396D01*
X2174000Y-46470385D01*
X2200783Y-46486798D01*
X2226671Y-46504590D01*
X2251592Y-46523712D01*
X2275478Y-46544113D01*
X2298264Y-46565736D01*
X2319887Y-46588522D01*
X2340288Y-46612408D01*
X2359410Y-46637329D01*
X2377202Y-46663217D01*
X2393615Y-46690000D01*
X2408604Y-46717606D01*
X2422127Y-46745958D01*
X2434148Y-46774979D01*
X2444634Y-46804590D01*
X2453555Y-46834709D01*
X2460889Y-46865253D01*
X2466613Y-46896139D01*
X2470713Y-46927283D01*
X2473178Y-46958598D01*
X2474000Y-46990000D01*
X2473178Y-47021402D01*
X2470713Y-47052717D01*
X2466613Y-47083861D01*
X2460889Y-47114747D01*
X2453555Y-47145291D01*
X2444634Y-47175410D01*
X2434148Y-47205021D01*
X2422127Y-47234042D01*
X2408604Y-47262394D01*
X2393615Y-47290000D01*
X2377202Y-47316783D01*
X2359410Y-47342671D01*
X2340288Y-47367592D01*
X2319887Y-47391478D01*
X2298264Y-47414264D01*
X2275478Y-47435887D01*
X2251592Y-47456288D01*
X2226671Y-47475410D01*
X2200783Y-47493202D01*
X2174000Y-47509615D01*
X2146394Y-47524604D01*
X2118042Y-47538127D01*
X2089021Y-47550148D01*
X2059410Y-47560634D01*
X2029291Y-47569555D01*
X1998747Y-47576889D01*
X1967861Y-47582613D01*
X1936717Y-47586713D01*
X1905402Y-47589178D01*
X1874000Y-47590000D01*
X1524000Y-47590000D01*
X1524000Y-46990000D01*
G37*
X1524000Y-46990000D02*
X1514000Y-46990000D01*
X1514000Y-47590000D01*
X1174000Y-47590000D01*
X1142598Y-47589178D01*
X1111283Y-47586713D01*
X1080139Y-47582613D01*
X1049253Y-47576889D01*
X1018709Y-47569555D01*
X988590Y-47560634D01*
X958979Y-47550148D01*
X929958Y-47538127D01*
X901606Y-47524604D01*
X874000Y-47509615D01*
X847217Y-47493202D01*
X821329Y-47475410D01*
X796408Y-47456288D01*
X772522Y-47435887D01*
X749736Y-47414264D01*
X728113Y-47391478D01*
X707712Y-47367592D01*
X688590Y-47342671D01*
X670798Y-47316783D01*
X654385Y-47290000D01*
X639396Y-47262394D01*
X625873Y-47234042D01*
X613852Y-47205021D01*
X603366Y-47175410D01*
X594445Y-47145291D01*
X587111Y-47114747D01*
X581387Y-47083861D01*
X577287Y-47052717D01*
X574822Y-47021402D01*
X574000Y-46990000D01*
X574822Y-46958598D01*
X577287Y-46927283D01*
X581387Y-46896139D01*
X587111Y-46865253D01*
X594445Y-46834709D01*
X603366Y-46804590D01*
X613852Y-46774979D01*
X625873Y-46745958D01*
X639396Y-46717606D01*
X654385Y-46690000D01*
X670798Y-46663217D01*
X688590Y-46637329D01*
X707712Y-46612408D01*
X728113Y-46588522D01*
X749736Y-46565736D01*
X772522Y-46544113D01*
X796408Y-46523712D01*
X821329Y-46504590D01*
X847217Y-46486798D01*
X874000Y-46470385D01*
X901606Y-46455396D01*
X929958Y-46441873D01*
X958979Y-46429852D01*
X988590Y-46419366D01*
X1018709Y-46410445D01*
X1049253Y-46403111D01*
X1080139Y-46397387D01*
X1111283Y-46393287D01*
X1142598Y-46390822D01*
X1174000Y-46390000D01*
X1874000Y-46390000D01*
X1905402Y-46390822D01*
X1936717Y-46393287D01*
X1967861Y-46397387D01*
X1998747Y-46403111D01*
X2029291Y-46410445D01*
X2059410Y-46419366D01*
X2089021Y-46429852D01*
X2118042Y-46441873D01*
X2146394Y-46455396D01*
X2174000Y-46470385D01*
X2200783Y-46486798D01*
X2226671Y-46504590D01*
X2251592Y-46523712D01*
X2275478Y-46544113D01*
X2298264Y-46565736D01*
X2319887Y-46588522D01*
X2340288Y-46612408D01*
X2359410Y-46637329D01*
X2377202Y-46663217D01*
X2393615Y-46690000D01*
X2408604Y-46717606D01*
X2422127Y-46745958D01*
X2434148Y-46774979D01*
X2444634Y-46804590D01*
X2453555Y-46834709D01*
X2460889Y-46865253D01*
X2466613Y-46896139D01*
X2470713Y-46927283D01*
X2473178Y-46958598D01*
X2474000Y-46990000D01*
X2473178Y-47021402D01*
X2470713Y-47052717D01*
X2466613Y-47083861D01*
X2460889Y-47114747D01*
X2453555Y-47145291D01*
X2444634Y-47175410D01*
X2434148Y-47205021D01*
X2422127Y-47234042D01*
X2408604Y-47262394D01*
X2393615Y-47290000D01*
X2377202Y-47316783D01*
X2359410Y-47342671D01*
X2340288Y-47367592D01*
X2319887Y-47391478D01*
X2298264Y-47414264D01*
X2275478Y-47435887D01*
X2251592Y-47456288D01*
X2226671Y-47475410D01*
X2200783Y-47493202D01*
X2174000Y-47509615D01*
X2146394Y-47524604D01*
X2118042Y-47538127D01*
X2089021Y-47550148D01*
X2059410Y-47560634D01*
X2029291Y-47569555D01*
X1998747Y-47576889D01*
X1967861Y-47582613D01*
X1936717Y-47586713D01*
X1905402Y-47589178D01*
X1874000Y-47590000D01*
X1524000Y-47590000D01*
X1524000Y-46990000D01*
G36*
X5324000Y-55630000D02*
G01*
X5314000Y-55630000D01*
X5314000Y-56230000D01*
X4974000Y-56230000D01*
X4942598Y-56229178D01*
X4911283Y-56226713D01*
X4880139Y-56222613D01*
X4849253Y-56216889D01*
X4818709Y-56209555D01*
X4788590Y-56200634D01*
X4758979Y-56190148D01*
X4729958Y-56178127D01*
X4701606Y-56164604D01*
X4674000Y-56149615D01*
X4647217Y-56133202D01*
X4621329Y-56115410D01*
X4596408Y-56096288D01*
X4572522Y-56075887D01*
X4549736Y-56054264D01*
X4528113Y-56031478D01*
X4507712Y-56007592D01*
X4488590Y-55982671D01*
X4470798Y-55956783D01*
X4454385Y-55930000D01*
X4439396Y-55902394D01*
X4425873Y-55874042D01*
X4413852Y-55845021D01*
X4403366Y-55815410D01*
X4394445Y-55785291D01*
X4387111Y-55754747D01*
X4381387Y-55723861D01*
X4377287Y-55692717D01*
X4374822Y-55661402D01*
X4374000Y-55630000D01*
X4374822Y-55598598D01*
X4377287Y-55567283D01*
X4381387Y-55536139D01*
X4387111Y-55505253D01*
X4394445Y-55474709D01*
X4403366Y-55444590D01*
X4413852Y-55414979D01*
X4425873Y-55385958D01*
X4439396Y-55357606D01*
X4454385Y-55330000D01*
X4470798Y-55303217D01*
X4488590Y-55277329D01*
X4507712Y-55252408D01*
X4528113Y-55228522D01*
X4549736Y-55205736D01*
X4572522Y-55184113D01*
X4596408Y-55163712D01*
X4621329Y-55144590D01*
X4647217Y-55126798D01*
X4674000Y-55110385D01*
X4701606Y-55095396D01*
X4729958Y-55081873D01*
X4758979Y-55069852D01*
X4788590Y-55059366D01*
X4818709Y-55050445D01*
X4849253Y-55043111D01*
X4880139Y-55037387D01*
X4911283Y-55033287D01*
X4942598Y-55030822D01*
X4974000Y-55030000D01*
X5674000Y-55030000D01*
X5705402Y-55030822D01*
X5736717Y-55033287D01*
X5767861Y-55037387D01*
X5798747Y-55043111D01*
X5829291Y-55050445D01*
X5859410Y-55059366D01*
X5889021Y-55069852D01*
X5918042Y-55081873D01*
X5946394Y-55095396D01*
X5974000Y-55110385D01*
X6000783Y-55126798D01*
X6026671Y-55144590D01*
X6051592Y-55163712D01*
X6075478Y-55184113D01*
X6098264Y-55205736D01*
X6119887Y-55228522D01*
X6140288Y-55252408D01*
X6159410Y-55277329D01*
X6177202Y-55303217D01*
X6193615Y-55330000D01*
X6208604Y-55357606D01*
X6222127Y-55385958D01*
X6234148Y-55414979D01*
X6244634Y-55444590D01*
X6253555Y-55474709D01*
X6260889Y-55505253D01*
X6266613Y-55536139D01*
X6270713Y-55567283D01*
X6273178Y-55598598D01*
X6274000Y-55630000D01*
X6273178Y-55661402D01*
X6270713Y-55692717D01*
X6266613Y-55723861D01*
X6260889Y-55754747D01*
X6253555Y-55785291D01*
X6244634Y-55815410D01*
X6234148Y-55845021D01*
X6222127Y-55874042D01*
X6208604Y-55902394D01*
X6193615Y-55930000D01*
X6177202Y-55956783D01*
X6159410Y-55982671D01*
X6140288Y-56007592D01*
X6119887Y-56031478D01*
X6098264Y-56054264D01*
X6075478Y-56075887D01*
X6051592Y-56096288D01*
X6026671Y-56115410D01*
X6000783Y-56133202D01*
X5974000Y-56149615D01*
X5946394Y-56164604D01*
X5918042Y-56178127D01*
X5889021Y-56190148D01*
X5859410Y-56200634D01*
X5829291Y-56209555D01*
X5798747Y-56216889D01*
X5767861Y-56222613D01*
X5736717Y-56226713D01*
X5705402Y-56229178D01*
X5674000Y-56230000D01*
X5324000Y-56230000D01*
X5324000Y-55630000D01*
G37*
X5324000Y-55630000D02*
X5314000Y-55630000D01*
X5314000Y-56230000D01*
X4974000Y-56230000D01*
X4942598Y-56229178D01*
X4911283Y-56226713D01*
X4880139Y-56222613D01*
X4849253Y-56216889D01*
X4818709Y-56209555D01*
X4788590Y-56200634D01*
X4758979Y-56190148D01*
X4729958Y-56178127D01*
X4701606Y-56164604D01*
X4674000Y-56149615D01*
X4647217Y-56133202D01*
X4621329Y-56115410D01*
X4596408Y-56096288D01*
X4572522Y-56075887D01*
X4549736Y-56054264D01*
X4528113Y-56031478D01*
X4507712Y-56007592D01*
X4488590Y-55982671D01*
X4470798Y-55956783D01*
X4454385Y-55930000D01*
X4439396Y-55902394D01*
X4425873Y-55874042D01*
X4413852Y-55845021D01*
X4403366Y-55815410D01*
X4394445Y-55785291D01*
X4387111Y-55754747D01*
X4381387Y-55723861D01*
X4377287Y-55692717D01*
X4374822Y-55661402D01*
X4374000Y-55630000D01*
X4374822Y-55598598D01*
X4377287Y-55567283D01*
X4381387Y-55536139D01*
X4387111Y-55505253D01*
X4394445Y-55474709D01*
X4403366Y-55444590D01*
X4413852Y-55414979D01*
X4425873Y-55385958D01*
X4439396Y-55357606D01*
X4454385Y-55330000D01*
X4470798Y-55303217D01*
X4488590Y-55277329D01*
X4507712Y-55252408D01*
X4528113Y-55228522D01*
X4549736Y-55205736D01*
X4572522Y-55184113D01*
X4596408Y-55163712D01*
X4621329Y-55144590D01*
X4647217Y-55126798D01*
X4674000Y-55110385D01*
X4701606Y-55095396D01*
X4729958Y-55081873D01*
X4758979Y-55069852D01*
X4788590Y-55059366D01*
X4818709Y-55050445D01*
X4849253Y-55043111D01*
X4880139Y-55037387D01*
X4911283Y-55033287D01*
X4942598Y-55030822D01*
X4974000Y-55030000D01*
X5674000Y-55030000D01*
X5705402Y-55030822D01*
X5736717Y-55033287D01*
X5767861Y-55037387D01*
X5798747Y-55043111D01*
X5829291Y-55050445D01*
X5859410Y-55059366D01*
X5889021Y-55069852D01*
X5918042Y-55081873D01*
X5946394Y-55095396D01*
X5974000Y-55110385D01*
X6000783Y-55126798D01*
X6026671Y-55144590D01*
X6051592Y-55163712D01*
X6075478Y-55184113D01*
X6098264Y-55205736D01*
X6119887Y-55228522D01*
X6140288Y-55252408D01*
X6159410Y-55277329D01*
X6177202Y-55303217D01*
X6193615Y-55330000D01*
X6208604Y-55357606D01*
X6222127Y-55385958D01*
X6234148Y-55414979D01*
X6244634Y-55444590D01*
X6253555Y-55474709D01*
X6260889Y-55505253D01*
X6266613Y-55536139D01*
X6270713Y-55567283D01*
X6273178Y-55598598D01*
X6274000Y-55630000D01*
X6273178Y-55661402D01*
X6270713Y-55692717D01*
X6266613Y-55723861D01*
X6260889Y-55754747D01*
X6253555Y-55785291D01*
X6244634Y-55815410D01*
X6234148Y-55845021D01*
X6222127Y-55874042D01*
X6208604Y-55902394D01*
X6193615Y-55930000D01*
X6177202Y-55956783D01*
X6159410Y-55982671D01*
X6140288Y-56007592D01*
X6119887Y-56031478D01*
X6098264Y-56054264D01*
X6075478Y-56075887D01*
X6051592Y-56096288D01*
X6026671Y-56115410D01*
X6000783Y-56133202D01*
X5974000Y-56149615D01*
X5946394Y-56164604D01*
X5918042Y-56178127D01*
X5889021Y-56190148D01*
X5859410Y-56200634D01*
X5829291Y-56209555D01*
X5798747Y-56216889D01*
X5767861Y-56222613D01*
X5736717Y-56226713D01*
X5705402Y-56229178D01*
X5674000Y-56230000D01*
X5324000Y-56230000D01*
X5324000Y-55630000D01*
G36*
X5324000Y-46990000D02*
G01*
X5314000Y-46990000D01*
X5314000Y-47590000D01*
X4974000Y-47590000D01*
X4942598Y-47589178D01*
X4911283Y-47586713D01*
X4880139Y-47582613D01*
X4849253Y-47576889D01*
X4818709Y-47569555D01*
X4788590Y-47560634D01*
X4758979Y-47550148D01*
X4729958Y-47538127D01*
X4701606Y-47524604D01*
X4674000Y-47509615D01*
X4647217Y-47493202D01*
X4621329Y-47475410D01*
X4596408Y-47456288D01*
X4572522Y-47435887D01*
X4549736Y-47414264D01*
X4528113Y-47391478D01*
X4507712Y-47367592D01*
X4488590Y-47342671D01*
X4470798Y-47316783D01*
X4454385Y-47290000D01*
X4439396Y-47262394D01*
X4425873Y-47234042D01*
X4413852Y-47205021D01*
X4403366Y-47175410D01*
X4394445Y-47145291D01*
X4387111Y-47114747D01*
X4381387Y-47083861D01*
X4377287Y-47052717D01*
X4374822Y-47021402D01*
X4374000Y-46990000D01*
X4374822Y-46958598D01*
X4377287Y-46927283D01*
X4381387Y-46896139D01*
X4387111Y-46865253D01*
X4394445Y-46834709D01*
X4403366Y-46804590D01*
X4413852Y-46774979D01*
X4425873Y-46745958D01*
X4439396Y-46717606D01*
X4454385Y-46690000D01*
X4470798Y-46663217D01*
X4488590Y-46637329D01*
X4507712Y-46612408D01*
X4528113Y-46588522D01*
X4549736Y-46565736D01*
X4572522Y-46544113D01*
X4596408Y-46523712D01*
X4621329Y-46504590D01*
X4647217Y-46486798D01*
X4674000Y-46470385D01*
X4701606Y-46455396D01*
X4729958Y-46441873D01*
X4758979Y-46429852D01*
X4788590Y-46419366D01*
X4818709Y-46410445D01*
X4849253Y-46403111D01*
X4880139Y-46397387D01*
X4911283Y-46393287D01*
X4942598Y-46390822D01*
X4974000Y-46390000D01*
X5674000Y-46390000D01*
X5705402Y-46390822D01*
X5736717Y-46393287D01*
X5767861Y-46397387D01*
X5798747Y-46403111D01*
X5829291Y-46410445D01*
X5859410Y-46419366D01*
X5889021Y-46429852D01*
X5918042Y-46441873D01*
X5946394Y-46455396D01*
X5974000Y-46470385D01*
X6000783Y-46486798D01*
X6026671Y-46504590D01*
X6051592Y-46523712D01*
X6075478Y-46544113D01*
X6098264Y-46565736D01*
X6119887Y-46588522D01*
X6140288Y-46612408D01*
X6159410Y-46637329D01*
X6177202Y-46663217D01*
X6193615Y-46690000D01*
X6208604Y-46717606D01*
X6222127Y-46745958D01*
X6234148Y-46774979D01*
X6244634Y-46804590D01*
X6253555Y-46834709D01*
X6260889Y-46865253D01*
X6266613Y-46896139D01*
X6270713Y-46927283D01*
X6273178Y-46958598D01*
X6274000Y-46990000D01*
X6273178Y-47021402D01*
X6270713Y-47052717D01*
X6266613Y-47083861D01*
X6260889Y-47114747D01*
X6253555Y-47145291D01*
X6244634Y-47175410D01*
X6234148Y-47205021D01*
X6222127Y-47234042D01*
X6208604Y-47262394D01*
X6193615Y-47290000D01*
X6177202Y-47316783D01*
X6159410Y-47342671D01*
X6140288Y-47367592D01*
X6119887Y-47391478D01*
X6098264Y-47414264D01*
X6075478Y-47435887D01*
X6051592Y-47456288D01*
X6026671Y-47475410D01*
X6000783Y-47493202D01*
X5974000Y-47509615D01*
X5946394Y-47524604D01*
X5918042Y-47538127D01*
X5889021Y-47550148D01*
X5859410Y-47560634D01*
X5829291Y-47569555D01*
X5798747Y-47576889D01*
X5767861Y-47582613D01*
X5736717Y-47586713D01*
X5705402Y-47589178D01*
X5674000Y-47590000D01*
X5324000Y-47590000D01*
X5324000Y-46990000D01*
G37*
X5324000Y-46990000D02*
X5314000Y-46990000D01*
X5314000Y-47590000D01*
X4974000Y-47590000D01*
X4942598Y-47589178D01*
X4911283Y-47586713D01*
X4880139Y-47582613D01*
X4849253Y-47576889D01*
X4818709Y-47569555D01*
X4788590Y-47560634D01*
X4758979Y-47550148D01*
X4729958Y-47538127D01*
X4701606Y-47524604D01*
X4674000Y-47509615D01*
X4647217Y-47493202D01*
X4621329Y-47475410D01*
X4596408Y-47456288D01*
X4572522Y-47435887D01*
X4549736Y-47414264D01*
X4528113Y-47391478D01*
X4507712Y-47367592D01*
X4488590Y-47342671D01*
X4470798Y-47316783D01*
X4454385Y-47290000D01*
X4439396Y-47262394D01*
X4425873Y-47234042D01*
X4413852Y-47205021D01*
X4403366Y-47175410D01*
X4394445Y-47145291D01*
X4387111Y-47114747D01*
X4381387Y-47083861D01*
X4377287Y-47052717D01*
X4374822Y-47021402D01*
X4374000Y-46990000D01*
X4374822Y-46958598D01*
X4377287Y-46927283D01*
X4381387Y-46896139D01*
X4387111Y-46865253D01*
X4394445Y-46834709D01*
X4403366Y-46804590D01*
X4413852Y-46774979D01*
X4425873Y-46745958D01*
X4439396Y-46717606D01*
X4454385Y-46690000D01*
X4470798Y-46663217D01*
X4488590Y-46637329D01*
X4507712Y-46612408D01*
X4528113Y-46588522D01*
X4549736Y-46565736D01*
X4572522Y-46544113D01*
X4596408Y-46523712D01*
X4621329Y-46504590D01*
X4647217Y-46486798D01*
X4674000Y-46470385D01*
X4701606Y-46455396D01*
X4729958Y-46441873D01*
X4758979Y-46429852D01*
X4788590Y-46419366D01*
X4818709Y-46410445D01*
X4849253Y-46403111D01*
X4880139Y-46397387D01*
X4911283Y-46393287D01*
X4942598Y-46390822D01*
X4974000Y-46390000D01*
X5674000Y-46390000D01*
X5705402Y-46390822D01*
X5736717Y-46393287D01*
X5767861Y-46397387D01*
X5798747Y-46403111D01*
X5829291Y-46410445D01*
X5859410Y-46419366D01*
X5889021Y-46429852D01*
X5918042Y-46441873D01*
X5946394Y-46455396D01*
X5974000Y-46470385D01*
X6000783Y-46486798D01*
X6026671Y-46504590D01*
X6051592Y-46523712D01*
X6075478Y-46544113D01*
X6098264Y-46565736D01*
X6119887Y-46588522D01*
X6140288Y-46612408D01*
X6159410Y-46637329D01*
X6177202Y-46663217D01*
X6193615Y-46690000D01*
X6208604Y-46717606D01*
X6222127Y-46745958D01*
X6234148Y-46774979D01*
X6244634Y-46804590D01*
X6253555Y-46834709D01*
X6260889Y-46865253D01*
X6266613Y-46896139D01*
X6270713Y-46927283D01*
X6273178Y-46958598D01*
X6274000Y-46990000D01*
X6273178Y-47021402D01*
X6270713Y-47052717D01*
X6266613Y-47083861D01*
X6260889Y-47114747D01*
X6253555Y-47145291D01*
X6244634Y-47175410D01*
X6234148Y-47205021D01*
X6222127Y-47234042D01*
X6208604Y-47262394D01*
X6193615Y-47290000D01*
X6177202Y-47316783D01*
X6159410Y-47342671D01*
X6140288Y-47367592D01*
X6119887Y-47391478D01*
X6098264Y-47414264D01*
X6075478Y-47435887D01*
X6051592Y-47456288D01*
X6026671Y-47475410D01*
X6000783Y-47493202D01*
X5974000Y-47509615D01*
X5946394Y-47524604D01*
X5918042Y-47538127D01*
X5889021Y-47550148D01*
X5859410Y-47560634D01*
X5829291Y-47569555D01*
X5798747Y-47576889D01*
X5767861Y-47582613D01*
X5736717Y-47586713D01*
X5705402Y-47589178D01*
X5674000Y-47590000D01*
X5324000Y-47590000D01*
X5324000Y-46990000D01*
G36*
X40622898Y-57112112D02*
G01*
X40655538Y-57126139D01*
X40705687Y-57144591D01*
X40767735Y-57165566D01*
X40836071Y-57187164D01*
X40905087Y-57207485D01*
X40965452Y-57223693D01*
X41155363Y-57263167D01*
X41347115Y-57285486D01*
X41544723Y-57290494D01*
X41752201Y-57278037D01*
X41973561Y-57247957D01*
X42212818Y-57200101D01*
X42335824Y-57170612D01*
X42474007Y-57133042D01*
X42628059Y-57086324D01*
X42788311Y-57033710D01*
X42945092Y-56978453D01*
X43088732Y-56923802D01*
X43172530Y-56889263D01*
X43293200Y-56834995D01*
X43433731Y-56767586D01*
X43588756Y-56689910D01*
X43752908Y-56604844D01*
X43920821Y-56515261D01*
X44087126Y-56424036D01*
X44246458Y-56334045D01*
X44393448Y-56248162D01*
X44522731Y-56169262D01*
X44555859Y-56148280D01*
X44696329Y-56052368D01*
X44850723Y-55936043D01*
X45015047Y-55802804D01*
X45185303Y-55656150D01*
X45357496Y-55499579D01*
X45527628Y-55336592D01*
X45691705Y-55170686D01*
X45783749Y-55073177D01*
X45844917Y-55007624D01*
X45899546Y-54949953D01*
X45944264Y-54903654D01*
X45975699Y-54872217D01*
X45990477Y-54859131D01*
X45990723Y-54859020D01*
X46001986Y-54866533D01*
X46003883Y-54878349D01*
X46010245Y-54912129D01*
X46028081Y-54968041D01*
X46055514Y-55041483D01*
X46090666Y-55127853D01*
X46131661Y-55222549D01*
X46176622Y-55320968D01*
X46223671Y-55418509D01*
X46226550Y-55424294D01*
X46335795Y-55632184D01*
X46462711Y-55854202D01*
X46603256Y-56083943D01*
X46753387Y-56315007D01*
X46909063Y-56540989D01*
X47066241Y-56755487D01*
X47070665Y-56761319D01*
X47201508Y-56923133D01*
X47335958Y-57069532D01*
X47471616Y-57198614D01*
X47606081Y-57308481D01*
X47736957Y-57397231D01*
X47861843Y-57462964D01*
X47978342Y-57503780D01*
X48018356Y-57512106D01*
X48068064Y-57520342D01*
X48004720Y-57417348D01*
X47901813Y-57230834D01*
X47808936Y-57024436D01*
X47729806Y-56807478D01*
X47668135Y-56589282D01*
X47658947Y-56549569D01*
X47642155Y-56449170D01*
X47630671Y-56327744D01*
X47624503Y-56193342D01*
X47623658Y-56054015D01*
X47628146Y-55917813D01*
X47637974Y-55792789D01*
X47653151Y-55686992D01*
X47658035Y-55663353D01*
X47717234Y-55436301D01*
X47787775Y-55232231D01*
X47869083Y-55052112D01*
X47960587Y-54896914D01*
X48061712Y-54767604D01*
X48171885Y-54665153D01*
X48290532Y-54590529D01*
X48294007Y-54588831D01*
X48397146Y-54548722D01*
X48511002Y-54524442D01*
X48641307Y-54515116D01*
X48759868Y-54517760D01*
X48830162Y-54522261D01*
X48891872Y-54527421D01*
X48937347Y-54532530D01*
X48956621Y-54536021D01*
X48979172Y-54537804D01*
X48991363Y-54521163D01*
X48997273Y-54495457D01*
X49000440Y-54463822D01*
X49003554Y-54407820D01*
X49006513Y-54332837D01*
X49009216Y-54244262D01*
X49011562Y-54147479D01*
X49013450Y-54047875D01*
X49014779Y-53950838D01*
X49015447Y-53861752D01*
X49015354Y-53786006D01*
X49014397Y-53728985D01*
X49012477Y-53696076D01*
X49012310Y-53694853D01*
X49007077Y-53667685D01*
X48996474Y-53653192D01*
X48972768Y-53647391D01*
X48928225Y-53646298D01*
X48918039Y-53646294D01*
X48815805Y-53635708D01*
X48707847Y-53606746D01*
X48608020Y-53563607D01*
X48569469Y-53540704D01*
X48503747Y-53489093D01*
X48438344Y-53424091D01*
X48382493Y-53355649D01*
X48350948Y-53305210D01*
X48325383Y-53255478D01*
X48241989Y-53323411D01*
X48176972Y-53382446D01*
X48099441Y-53462914D01*
X48012614Y-53560840D01*
X47919707Y-53672248D01*
X47823935Y-53793163D01*
X47728514Y-53919611D01*
X47636661Y-54047616D01*
X47551591Y-54173203D01*
X47539575Y-54191647D01*
X47430117Y-54368598D01*
X47324272Y-54556586D01*
X47219661Y-54760232D01*
X47113907Y-54984156D01*
X47009537Y-55221465D01*
X46983272Y-55279334D01*
X46959169Y-55325897D01*
X46940681Y-55354790D01*
X46933862Y-55360952D01*
X46919706Y-55350344D01*
X46895387Y-55314329D01*
X46862214Y-55255093D01*
X46821499Y-55174822D01*
X46818291Y-55168247D01*
X46771173Y-55063798D01*
X46719519Y-54935967D01*
X46665011Y-54790044D01*
X46609329Y-54631317D01*
X46554155Y-54465077D01*
X46501168Y-54296611D01*
X46452050Y-54131211D01*
X46408481Y-53974166D01*
X46372142Y-53830764D01*
X46344714Y-53706295D01*
X46332862Y-53640585D01*
X46321910Y-53566262D01*
X46310469Y-53479087D01*
X46299307Y-53386061D01*
X46289193Y-53294186D01*
X46280896Y-53210462D01*
X46275183Y-53141890D01*
X46272823Y-53095470D01*
X46272805Y-53093471D01*
X46266749Y-53097664D01*
X46250223Y-53124697D01*
X46225549Y-53170403D01*
X46195048Y-53230617D01*
X46185369Y-53250353D01*
X45986525Y-53624996D01*
X45760465Y-53988893D01*
X45508304Y-54340792D01*
X45231158Y-54679443D01*
X44930143Y-55003598D01*
X44606375Y-55312004D01*
X44260971Y-55603413D01*
X43895046Y-55876574D01*
X43755236Y-55972394D01*
X43405808Y-56194359D01*
X43060138Y-56389044D01*
X42714121Y-56558000D01*
X42363653Y-56702779D01*
X42004630Y-56824931D01*
X41632948Y-56926005D01*
X41244503Y-57007554D01*
X40853541Y-57068707D01*
X40773306Y-57079595D01*
X40704229Y-57089398D01*
X40651408Y-57097358D01*
X40619938Y-57102717D01*
X40613376Y-57104409D01*
X40622898Y-57112112D01*
G37*
X40622898Y-57112112D02*
X40655538Y-57126139D01*
X40705687Y-57144591D01*
X40767735Y-57165566D01*
X40836071Y-57187164D01*
X40905087Y-57207485D01*
X40965452Y-57223693D01*
X41155363Y-57263167D01*
X41347115Y-57285486D01*
X41544723Y-57290494D01*
X41752201Y-57278037D01*
X41973561Y-57247957D01*
X42212818Y-57200101D01*
X42335824Y-57170612D01*
X42474007Y-57133042D01*
X42628059Y-57086324D01*
X42788311Y-57033710D01*
X42945092Y-56978453D01*
X43088732Y-56923802D01*
X43172530Y-56889263D01*
X43293200Y-56834995D01*
X43433731Y-56767586D01*
X43588756Y-56689910D01*
X43752908Y-56604844D01*
X43920821Y-56515261D01*
X44087126Y-56424036D01*
X44246458Y-56334045D01*
X44393448Y-56248162D01*
X44522731Y-56169262D01*
X44555859Y-56148280D01*
X44696329Y-56052368D01*
X44850723Y-55936043D01*
X45015047Y-55802804D01*
X45185303Y-55656150D01*
X45357496Y-55499579D01*
X45527628Y-55336592D01*
X45691705Y-55170686D01*
X45783749Y-55073177D01*
X45844917Y-55007624D01*
X45899546Y-54949953D01*
X45944264Y-54903654D01*
X45975699Y-54872217D01*
X45990477Y-54859131D01*
X45990723Y-54859020D01*
X46001986Y-54866533D01*
X46003883Y-54878349D01*
X46010245Y-54912129D01*
X46028081Y-54968041D01*
X46055514Y-55041483D01*
X46090666Y-55127853D01*
X46131661Y-55222549D01*
X46176622Y-55320968D01*
X46223671Y-55418509D01*
X46226550Y-55424294D01*
X46335795Y-55632184D01*
X46462711Y-55854202D01*
X46603256Y-56083943D01*
X46753387Y-56315007D01*
X46909063Y-56540989D01*
X47066241Y-56755487D01*
X47070665Y-56761319D01*
X47201508Y-56923133D01*
X47335958Y-57069532D01*
X47471616Y-57198614D01*
X47606081Y-57308481D01*
X47736957Y-57397231D01*
X47861843Y-57462964D01*
X47978342Y-57503780D01*
X48018356Y-57512106D01*
X48068064Y-57520342D01*
X48004720Y-57417348D01*
X47901813Y-57230834D01*
X47808936Y-57024436D01*
X47729806Y-56807478D01*
X47668135Y-56589282D01*
X47658947Y-56549569D01*
X47642155Y-56449170D01*
X47630671Y-56327744D01*
X47624503Y-56193342D01*
X47623658Y-56054015D01*
X47628146Y-55917813D01*
X47637974Y-55792789D01*
X47653151Y-55686992D01*
X47658035Y-55663353D01*
X47717234Y-55436301D01*
X47787775Y-55232231D01*
X47869083Y-55052112D01*
X47960587Y-54896914D01*
X48061712Y-54767604D01*
X48171885Y-54665153D01*
X48290532Y-54590529D01*
X48294007Y-54588831D01*
X48397146Y-54548722D01*
X48511002Y-54524442D01*
X48641307Y-54515116D01*
X48759868Y-54517760D01*
X48830162Y-54522261D01*
X48891872Y-54527421D01*
X48937347Y-54532530D01*
X48956621Y-54536021D01*
X48979172Y-54537804D01*
X48991363Y-54521163D01*
X48997273Y-54495457D01*
X49000440Y-54463822D01*
X49003554Y-54407820D01*
X49006513Y-54332837D01*
X49009216Y-54244262D01*
X49011562Y-54147479D01*
X49013450Y-54047875D01*
X49014779Y-53950838D01*
X49015447Y-53861752D01*
X49015354Y-53786006D01*
X49014397Y-53728985D01*
X49012477Y-53696076D01*
X49012310Y-53694853D01*
X49007077Y-53667685D01*
X48996474Y-53653192D01*
X48972768Y-53647391D01*
X48928225Y-53646298D01*
X48918039Y-53646294D01*
X48815805Y-53635708D01*
X48707847Y-53606746D01*
X48608020Y-53563607D01*
X48569469Y-53540704D01*
X48503747Y-53489093D01*
X48438344Y-53424091D01*
X48382493Y-53355649D01*
X48350948Y-53305210D01*
X48325383Y-53255478D01*
X48241989Y-53323411D01*
X48176972Y-53382446D01*
X48099441Y-53462914D01*
X48012614Y-53560840D01*
X47919707Y-53672248D01*
X47823935Y-53793163D01*
X47728514Y-53919611D01*
X47636661Y-54047616D01*
X47551591Y-54173203D01*
X47539575Y-54191647D01*
X47430117Y-54368598D01*
X47324272Y-54556586D01*
X47219661Y-54760232D01*
X47113907Y-54984156D01*
X47009537Y-55221465D01*
X46983272Y-55279334D01*
X46959169Y-55325897D01*
X46940681Y-55354790D01*
X46933862Y-55360952D01*
X46919706Y-55350344D01*
X46895387Y-55314329D01*
X46862214Y-55255093D01*
X46821499Y-55174822D01*
X46818291Y-55168247D01*
X46771173Y-55063798D01*
X46719519Y-54935967D01*
X46665011Y-54790044D01*
X46609329Y-54631317D01*
X46554155Y-54465077D01*
X46501168Y-54296611D01*
X46452050Y-54131211D01*
X46408481Y-53974166D01*
X46372142Y-53830764D01*
X46344714Y-53706295D01*
X46332862Y-53640585D01*
X46321910Y-53566262D01*
X46310469Y-53479087D01*
X46299307Y-53386061D01*
X46289193Y-53294186D01*
X46280896Y-53210462D01*
X46275183Y-53141890D01*
X46272823Y-53095470D01*
X46272805Y-53093471D01*
X46266749Y-53097664D01*
X46250223Y-53124697D01*
X46225549Y-53170403D01*
X46195048Y-53230617D01*
X46185369Y-53250353D01*
X45986525Y-53624996D01*
X45760465Y-53988893D01*
X45508304Y-54340792D01*
X45231158Y-54679443D01*
X44930143Y-55003598D01*
X44606375Y-55312004D01*
X44260971Y-55603413D01*
X43895046Y-55876574D01*
X43755236Y-55972394D01*
X43405808Y-56194359D01*
X43060138Y-56389044D01*
X42714121Y-56558000D01*
X42363653Y-56702779D01*
X42004630Y-56824931D01*
X41632948Y-56926005D01*
X41244503Y-57007554D01*
X40853541Y-57068707D01*
X40773306Y-57079595D01*
X40704229Y-57089398D01*
X40651408Y-57097358D01*
X40619938Y-57102717D01*
X40613376Y-57104409D01*
X40622898Y-57112112D01*
G36*
X1524000Y-55630000D02*
G01*
X1514000Y-55630000D01*
X1514000Y-56230000D01*
X1174000Y-56230000D01*
X1142598Y-56229178D01*
X1111283Y-56226713D01*
X1080139Y-56222613D01*
X1049253Y-56216889D01*
X1018709Y-56209555D01*
X988590Y-56200634D01*
X958979Y-56190148D01*
X929958Y-56178127D01*
X901606Y-56164604D01*
X874000Y-56149615D01*
X847217Y-56133202D01*
X821329Y-56115410D01*
X796408Y-56096288D01*
X772522Y-56075887D01*
X749736Y-56054264D01*
X728113Y-56031478D01*
X707712Y-56007592D01*
X688590Y-55982671D01*
X670798Y-55956783D01*
X654385Y-55930000D01*
X639396Y-55902394D01*
X625873Y-55874042D01*
X613852Y-55845021D01*
X603366Y-55815410D01*
X594445Y-55785291D01*
X587111Y-55754747D01*
X581387Y-55723861D01*
X577287Y-55692717D01*
X574822Y-55661402D01*
X574000Y-55630000D01*
X574822Y-55598598D01*
X577287Y-55567283D01*
X581387Y-55536139D01*
X587111Y-55505253D01*
X594445Y-55474709D01*
X603366Y-55444590D01*
X613852Y-55414979D01*
X625873Y-55385958D01*
X639396Y-55357606D01*
X654385Y-55330000D01*
X670798Y-55303217D01*
X688590Y-55277329D01*
X707712Y-55252408D01*
X728113Y-55228522D01*
X749736Y-55205736D01*
X772522Y-55184113D01*
X796408Y-55163712D01*
X821329Y-55144590D01*
X847217Y-55126798D01*
X874000Y-55110385D01*
X901606Y-55095396D01*
X929958Y-55081873D01*
X958979Y-55069852D01*
X988590Y-55059366D01*
X1018709Y-55050445D01*
X1049253Y-55043111D01*
X1080139Y-55037387D01*
X1111283Y-55033287D01*
X1142598Y-55030822D01*
X1174000Y-55030000D01*
X1874000Y-55030000D01*
X1905402Y-55030822D01*
X1936717Y-55033287D01*
X1967861Y-55037387D01*
X1998747Y-55043111D01*
X2029291Y-55050445D01*
X2059410Y-55059366D01*
X2089021Y-55069852D01*
X2118042Y-55081873D01*
X2146394Y-55095396D01*
X2174000Y-55110385D01*
X2200783Y-55126798D01*
X2226671Y-55144590D01*
X2251592Y-55163712D01*
X2275478Y-55184113D01*
X2298264Y-55205736D01*
X2319887Y-55228522D01*
X2340288Y-55252408D01*
X2359410Y-55277329D01*
X2377202Y-55303217D01*
X2393615Y-55330000D01*
X2408604Y-55357606D01*
X2422127Y-55385958D01*
X2434148Y-55414979D01*
X2444634Y-55444590D01*
X2453555Y-55474709D01*
X2460889Y-55505253D01*
X2466613Y-55536139D01*
X2470713Y-55567283D01*
X2473178Y-55598598D01*
X2474000Y-55630000D01*
X2473178Y-55661402D01*
X2470713Y-55692717D01*
X2466613Y-55723861D01*
X2460889Y-55754747D01*
X2453555Y-55785291D01*
X2444634Y-55815410D01*
X2434148Y-55845021D01*
X2422127Y-55874042D01*
X2408604Y-55902394D01*
X2393615Y-55930000D01*
X2377202Y-55956783D01*
X2359410Y-55982671D01*
X2340288Y-56007592D01*
X2319887Y-56031478D01*
X2298264Y-56054264D01*
X2275478Y-56075887D01*
X2251592Y-56096288D01*
X2226671Y-56115410D01*
X2200783Y-56133202D01*
X2174000Y-56149615D01*
X2146394Y-56164604D01*
X2118042Y-56178127D01*
X2089021Y-56190148D01*
X2059410Y-56200634D01*
X2029291Y-56209555D01*
X1998747Y-56216889D01*
X1967861Y-56222613D01*
X1936717Y-56226713D01*
X1905402Y-56229178D01*
X1874000Y-56230000D01*
X1524000Y-56230000D01*
X1524000Y-55630000D01*
G37*
X1524000Y-55630000D02*
X1514000Y-55630000D01*
X1514000Y-56230000D01*
X1174000Y-56230000D01*
X1142598Y-56229178D01*
X1111283Y-56226713D01*
X1080139Y-56222613D01*
X1049253Y-56216889D01*
X1018709Y-56209555D01*
X988590Y-56200634D01*
X958979Y-56190148D01*
X929958Y-56178127D01*
X901606Y-56164604D01*
X874000Y-56149615D01*
X847217Y-56133202D01*
X821329Y-56115410D01*
X796408Y-56096288D01*
X772522Y-56075887D01*
X749736Y-56054264D01*
X728113Y-56031478D01*
X707712Y-56007592D01*
X688590Y-55982671D01*
X670798Y-55956783D01*
X654385Y-55930000D01*
X639396Y-55902394D01*
X625873Y-55874042D01*
X613852Y-55845021D01*
X603366Y-55815410D01*
X594445Y-55785291D01*
X587111Y-55754747D01*
X581387Y-55723861D01*
X577287Y-55692717D01*
X574822Y-55661402D01*
X574000Y-55630000D01*
X574822Y-55598598D01*
X577287Y-55567283D01*
X581387Y-55536139D01*
X587111Y-55505253D01*
X594445Y-55474709D01*
X603366Y-55444590D01*
X613852Y-55414979D01*
X625873Y-55385958D01*
X639396Y-55357606D01*
X654385Y-55330000D01*
X670798Y-55303217D01*
X688590Y-55277329D01*
X707712Y-55252408D01*
X728113Y-55228522D01*
X749736Y-55205736D01*
X772522Y-55184113D01*
X796408Y-55163712D01*
X821329Y-55144590D01*
X847217Y-55126798D01*
X874000Y-55110385D01*
X901606Y-55095396D01*
X929958Y-55081873D01*
X958979Y-55069852D01*
X988590Y-55059366D01*
X1018709Y-55050445D01*
X1049253Y-55043111D01*
X1080139Y-55037387D01*
X1111283Y-55033287D01*
X1142598Y-55030822D01*
X1174000Y-55030000D01*
X1874000Y-55030000D01*
X1905402Y-55030822D01*
X1936717Y-55033287D01*
X1967861Y-55037387D01*
X1998747Y-55043111D01*
X2029291Y-55050445D01*
X2059410Y-55059366D01*
X2089021Y-55069852D01*
X2118042Y-55081873D01*
X2146394Y-55095396D01*
X2174000Y-55110385D01*
X2200783Y-55126798D01*
X2226671Y-55144590D01*
X2251592Y-55163712D01*
X2275478Y-55184113D01*
X2298264Y-55205736D01*
X2319887Y-55228522D01*
X2340288Y-55252408D01*
X2359410Y-55277329D01*
X2377202Y-55303217D01*
X2393615Y-55330000D01*
X2408604Y-55357606D01*
X2422127Y-55385958D01*
X2434148Y-55414979D01*
X2444634Y-55444590D01*
X2453555Y-55474709D01*
X2460889Y-55505253D01*
X2466613Y-55536139D01*
X2470713Y-55567283D01*
X2473178Y-55598598D01*
X2474000Y-55630000D01*
X2473178Y-55661402D01*
X2470713Y-55692717D01*
X2466613Y-55723861D01*
X2460889Y-55754747D01*
X2453555Y-55785291D01*
X2444634Y-55815410D01*
X2434148Y-55845021D01*
X2422127Y-55874042D01*
X2408604Y-55902394D01*
X2393615Y-55930000D01*
X2377202Y-55956783D01*
X2359410Y-55982671D01*
X2340288Y-56007592D01*
X2319887Y-56031478D01*
X2298264Y-56054264D01*
X2275478Y-56075887D01*
X2251592Y-56096288D01*
X2226671Y-56115410D01*
X2200783Y-56133202D01*
X2174000Y-56149615D01*
X2146394Y-56164604D01*
X2118042Y-56178127D01*
X2089021Y-56190148D01*
X2059410Y-56200634D01*
X2029291Y-56209555D01*
X1998747Y-56216889D01*
X1967861Y-56222613D01*
X1936717Y-56226713D01*
X1905402Y-56229178D01*
X1874000Y-56230000D01*
X1524000Y-56230000D01*
X1524000Y-55630000D01*
G36*
X1524000Y-46990000D02*
G01*
X1514000Y-46990000D01*
X1514000Y-47590000D01*
X1174000Y-47590000D01*
X1142598Y-47589178D01*
X1111283Y-47586713D01*
X1080139Y-47582613D01*
X1049253Y-47576889D01*
X1018709Y-47569555D01*
X988590Y-47560634D01*
X958979Y-47550148D01*
X929958Y-47538127D01*
X901606Y-47524604D01*
X874000Y-47509615D01*
X847217Y-47493202D01*
X821329Y-47475410D01*
X796408Y-47456288D01*
X772522Y-47435887D01*
X749736Y-47414264D01*
X728113Y-47391478D01*
X707712Y-47367592D01*
X688590Y-47342671D01*
X670798Y-47316783D01*
X654385Y-47290000D01*
X639396Y-47262394D01*
X625873Y-47234042D01*
X613852Y-47205021D01*
X603366Y-47175410D01*
X594445Y-47145291D01*
X587111Y-47114747D01*
X581387Y-47083861D01*
X577287Y-47052717D01*
X574822Y-47021402D01*
X574000Y-46990000D01*
X574822Y-46958598D01*
X577287Y-46927283D01*
X581387Y-46896139D01*
X587111Y-46865253D01*
X594445Y-46834709D01*
X603366Y-46804590D01*
X613852Y-46774979D01*
X625873Y-46745958D01*
X639396Y-46717606D01*
X654385Y-46690000D01*
X670798Y-46663217D01*
X688590Y-46637329D01*
X707712Y-46612408D01*
X728113Y-46588522D01*
X749736Y-46565736D01*
X772522Y-46544113D01*
X796408Y-46523712D01*
X821329Y-46504590D01*
X847217Y-46486798D01*
X874000Y-46470385D01*
X901606Y-46455396D01*
X929958Y-46441873D01*
X958979Y-46429852D01*
X988590Y-46419366D01*
X1018709Y-46410445D01*
X1049253Y-46403111D01*
X1080139Y-46397387D01*
X1111283Y-46393287D01*
X1142598Y-46390822D01*
X1174000Y-46390000D01*
X1874000Y-46390000D01*
X1905402Y-46390822D01*
X1936717Y-46393287D01*
X1967861Y-46397387D01*
X1998747Y-46403111D01*
X2029291Y-46410445D01*
X2059410Y-46419366D01*
X2089021Y-46429852D01*
X2118042Y-46441873D01*
X2146394Y-46455396D01*
X2174000Y-46470385D01*
X2200783Y-46486798D01*
X2226671Y-46504590D01*
X2251592Y-46523712D01*
X2275478Y-46544113D01*
X2298264Y-46565736D01*
X2319887Y-46588522D01*
X2340288Y-46612408D01*
X2359410Y-46637329D01*
X2377202Y-46663217D01*
X2393615Y-46690000D01*
X2408604Y-46717606D01*
X2422127Y-46745958D01*
X2434148Y-46774979D01*
X2444634Y-46804590D01*
X2453555Y-46834709D01*
X2460889Y-46865253D01*
X2466613Y-46896139D01*
X2470713Y-46927283D01*
X2473178Y-46958598D01*
X2474000Y-46990000D01*
X2473178Y-47021402D01*
X2470713Y-47052717D01*
X2466613Y-47083861D01*
X2460889Y-47114747D01*
X2453555Y-47145291D01*
X2444634Y-47175410D01*
X2434148Y-47205021D01*
X2422127Y-47234042D01*
X2408604Y-47262394D01*
X2393615Y-47290000D01*
X2377202Y-47316783D01*
X2359410Y-47342671D01*
X2340288Y-47367592D01*
X2319887Y-47391478D01*
X2298264Y-47414264D01*
X2275478Y-47435887D01*
X2251592Y-47456288D01*
X2226671Y-47475410D01*
X2200783Y-47493202D01*
X2174000Y-47509615D01*
X2146394Y-47524604D01*
X2118042Y-47538127D01*
X2089021Y-47550148D01*
X2059410Y-47560634D01*
X2029291Y-47569555D01*
X1998747Y-47576889D01*
X1967861Y-47582613D01*
X1936717Y-47586713D01*
X1905402Y-47589178D01*
X1874000Y-47590000D01*
X1524000Y-47590000D01*
X1524000Y-46990000D01*
G37*
X1524000Y-46990000D02*
X1514000Y-46990000D01*
X1514000Y-47590000D01*
X1174000Y-47590000D01*
X1142598Y-47589178D01*
X1111283Y-47586713D01*
X1080139Y-47582613D01*
X1049253Y-47576889D01*
X1018709Y-47569555D01*
X988590Y-47560634D01*
X958979Y-47550148D01*
X929958Y-47538127D01*
X901606Y-47524604D01*
X874000Y-47509615D01*
X847217Y-47493202D01*
X821329Y-47475410D01*
X796408Y-47456288D01*
X772522Y-47435887D01*
X749736Y-47414264D01*
X728113Y-47391478D01*
X707712Y-47367592D01*
X688590Y-47342671D01*
X670798Y-47316783D01*
X654385Y-47290000D01*
X639396Y-47262394D01*
X625873Y-47234042D01*
X613852Y-47205021D01*
X603366Y-47175410D01*
X594445Y-47145291D01*
X587111Y-47114747D01*
X581387Y-47083861D01*
X577287Y-47052717D01*
X574822Y-47021402D01*
X574000Y-46990000D01*
X574822Y-46958598D01*
X577287Y-46927283D01*
X581387Y-46896139D01*
X587111Y-46865253D01*
X594445Y-46834709D01*
X603366Y-46804590D01*
X613852Y-46774979D01*
X625873Y-46745958D01*
X639396Y-46717606D01*
X654385Y-46690000D01*
X670798Y-46663217D01*
X688590Y-46637329D01*
X707712Y-46612408D01*
X728113Y-46588522D01*
X749736Y-46565736D01*
X772522Y-46544113D01*
X796408Y-46523712D01*
X821329Y-46504590D01*
X847217Y-46486798D01*
X874000Y-46470385D01*
X901606Y-46455396D01*
X929958Y-46441873D01*
X958979Y-46429852D01*
X988590Y-46419366D01*
X1018709Y-46410445D01*
X1049253Y-46403111D01*
X1080139Y-46397387D01*
X1111283Y-46393287D01*
X1142598Y-46390822D01*
X1174000Y-46390000D01*
X1874000Y-46390000D01*
X1905402Y-46390822D01*
X1936717Y-46393287D01*
X1967861Y-46397387D01*
X1998747Y-46403111D01*
X2029291Y-46410445D01*
X2059410Y-46419366D01*
X2089021Y-46429852D01*
X2118042Y-46441873D01*
X2146394Y-46455396D01*
X2174000Y-46470385D01*
X2200783Y-46486798D01*
X2226671Y-46504590D01*
X2251592Y-46523712D01*
X2275478Y-46544113D01*
X2298264Y-46565736D01*
X2319887Y-46588522D01*
X2340288Y-46612408D01*
X2359410Y-46637329D01*
X2377202Y-46663217D01*
X2393615Y-46690000D01*
X2408604Y-46717606D01*
X2422127Y-46745958D01*
X2434148Y-46774979D01*
X2444634Y-46804590D01*
X2453555Y-46834709D01*
X2460889Y-46865253D01*
X2466613Y-46896139D01*
X2470713Y-46927283D01*
X2473178Y-46958598D01*
X2474000Y-46990000D01*
X2473178Y-47021402D01*
X2470713Y-47052717D01*
X2466613Y-47083861D01*
X2460889Y-47114747D01*
X2453555Y-47145291D01*
X2444634Y-47175410D01*
X2434148Y-47205021D01*
X2422127Y-47234042D01*
X2408604Y-47262394D01*
X2393615Y-47290000D01*
X2377202Y-47316783D01*
X2359410Y-47342671D01*
X2340288Y-47367592D01*
X2319887Y-47391478D01*
X2298264Y-47414264D01*
X2275478Y-47435887D01*
X2251592Y-47456288D01*
X2226671Y-47475410D01*
X2200783Y-47493202D01*
X2174000Y-47509615D01*
X2146394Y-47524604D01*
X2118042Y-47538127D01*
X2089021Y-47550148D01*
X2059410Y-47560634D01*
X2029291Y-47569555D01*
X1998747Y-47576889D01*
X1967861Y-47582613D01*
X1936717Y-47586713D01*
X1905402Y-47589178D01*
X1874000Y-47590000D01*
X1524000Y-47590000D01*
X1524000Y-46990000D01*
G36*
X5324000Y-55630000D02*
G01*
X5314000Y-55630000D01*
X5314000Y-56230000D01*
X4974000Y-56230000D01*
X4942598Y-56229178D01*
X4911283Y-56226713D01*
X4880139Y-56222613D01*
X4849253Y-56216889D01*
X4818709Y-56209555D01*
X4788590Y-56200634D01*
X4758979Y-56190148D01*
X4729958Y-56178127D01*
X4701606Y-56164604D01*
X4674000Y-56149615D01*
X4647217Y-56133202D01*
X4621329Y-56115410D01*
X4596408Y-56096288D01*
X4572522Y-56075887D01*
X4549736Y-56054264D01*
X4528113Y-56031478D01*
X4507712Y-56007592D01*
X4488590Y-55982671D01*
X4470798Y-55956783D01*
X4454385Y-55930000D01*
X4439396Y-55902394D01*
X4425873Y-55874042D01*
X4413852Y-55845021D01*
X4403366Y-55815410D01*
X4394445Y-55785291D01*
X4387111Y-55754747D01*
X4381387Y-55723861D01*
X4377287Y-55692717D01*
X4374822Y-55661402D01*
X4374000Y-55630000D01*
X4374822Y-55598598D01*
X4377287Y-55567283D01*
X4381387Y-55536139D01*
X4387111Y-55505253D01*
X4394445Y-55474709D01*
X4403366Y-55444590D01*
X4413852Y-55414979D01*
X4425873Y-55385958D01*
X4439396Y-55357606D01*
X4454385Y-55330000D01*
X4470798Y-55303217D01*
X4488590Y-55277329D01*
X4507712Y-55252408D01*
X4528113Y-55228522D01*
X4549736Y-55205736D01*
X4572522Y-55184113D01*
X4596408Y-55163712D01*
X4621329Y-55144590D01*
X4647217Y-55126798D01*
X4674000Y-55110385D01*
X4701606Y-55095396D01*
X4729958Y-55081873D01*
X4758979Y-55069852D01*
X4788590Y-55059366D01*
X4818709Y-55050445D01*
X4849253Y-55043111D01*
X4880139Y-55037387D01*
X4911283Y-55033287D01*
X4942598Y-55030822D01*
X4974000Y-55030000D01*
X5674000Y-55030000D01*
X5705402Y-55030822D01*
X5736717Y-55033287D01*
X5767861Y-55037387D01*
X5798747Y-55043111D01*
X5829291Y-55050445D01*
X5859410Y-55059366D01*
X5889021Y-55069852D01*
X5918042Y-55081873D01*
X5946394Y-55095396D01*
X5974000Y-55110385D01*
X6000783Y-55126798D01*
X6026671Y-55144590D01*
X6051592Y-55163712D01*
X6075478Y-55184113D01*
X6098264Y-55205736D01*
X6119887Y-55228522D01*
X6140288Y-55252408D01*
X6159410Y-55277329D01*
X6177202Y-55303217D01*
X6193615Y-55330000D01*
X6208604Y-55357606D01*
X6222127Y-55385958D01*
X6234148Y-55414979D01*
X6244634Y-55444590D01*
X6253555Y-55474709D01*
X6260889Y-55505253D01*
X6266613Y-55536139D01*
X6270713Y-55567283D01*
X6273178Y-55598598D01*
X6274000Y-55630000D01*
X6273178Y-55661402D01*
X6270713Y-55692717D01*
X6266613Y-55723861D01*
X6260889Y-55754747D01*
X6253555Y-55785291D01*
X6244634Y-55815410D01*
X6234148Y-55845021D01*
X6222127Y-55874042D01*
X6208604Y-55902394D01*
X6193615Y-55930000D01*
X6177202Y-55956783D01*
X6159410Y-55982671D01*
X6140288Y-56007592D01*
X6119887Y-56031478D01*
X6098264Y-56054264D01*
X6075478Y-56075887D01*
X6051592Y-56096288D01*
X6026671Y-56115410D01*
X6000783Y-56133202D01*
X5974000Y-56149615D01*
X5946394Y-56164604D01*
X5918042Y-56178127D01*
X5889021Y-56190148D01*
X5859410Y-56200634D01*
X5829291Y-56209555D01*
X5798747Y-56216889D01*
X5767861Y-56222613D01*
X5736717Y-56226713D01*
X5705402Y-56229178D01*
X5674000Y-56230000D01*
X5324000Y-56230000D01*
X5324000Y-55630000D01*
G37*
X5324000Y-55630000D02*
X5314000Y-55630000D01*
X5314000Y-56230000D01*
X4974000Y-56230000D01*
X4942598Y-56229178D01*
X4911283Y-56226713D01*
X4880139Y-56222613D01*
X4849253Y-56216889D01*
X4818709Y-56209555D01*
X4788590Y-56200634D01*
X4758979Y-56190148D01*
X4729958Y-56178127D01*
X4701606Y-56164604D01*
X4674000Y-56149615D01*
X4647217Y-56133202D01*
X4621329Y-56115410D01*
X4596408Y-56096288D01*
X4572522Y-56075887D01*
X4549736Y-56054264D01*
X4528113Y-56031478D01*
X4507712Y-56007592D01*
X4488590Y-55982671D01*
X4470798Y-55956783D01*
X4454385Y-55930000D01*
X4439396Y-55902394D01*
X4425873Y-55874042D01*
X4413852Y-55845021D01*
X4403366Y-55815410D01*
X4394445Y-55785291D01*
X4387111Y-55754747D01*
X4381387Y-55723861D01*
X4377287Y-55692717D01*
X4374822Y-55661402D01*
X4374000Y-55630000D01*
X4374822Y-55598598D01*
X4377287Y-55567283D01*
X4381387Y-55536139D01*
X4387111Y-55505253D01*
X4394445Y-55474709D01*
X4403366Y-55444590D01*
X4413852Y-55414979D01*
X4425873Y-55385958D01*
X4439396Y-55357606D01*
X4454385Y-55330000D01*
X4470798Y-55303217D01*
X4488590Y-55277329D01*
X4507712Y-55252408D01*
X4528113Y-55228522D01*
X4549736Y-55205736D01*
X4572522Y-55184113D01*
X4596408Y-55163712D01*
X4621329Y-55144590D01*
X4647217Y-55126798D01*
X4674000Y-55110385D01*
X4701606Y-55095396D01*
X4729958Y-55081873D01*
X4758979Y-55069852D01*
X4788590Y-55059366D01*
X4818709Y-55050445D01*
X4849253Y-55043111D01*
X4880139Y-55037387D01*
X4911283Y-55033287D01*
X4942598Y-55030822D01*
X4974000Y-55030000D01*
X5674000Y-55030000D01*
X5705402Y-55030822D01*
X5736717Y-55033287D01*
X5767861Y-55037387D01*
X5798747Y-55043111D01*
X5829291Y-55050445D01*
X5859410Y-55059366D01*
X5889021Y-55069852D01*
X5918042Y-55081873D01*
X5946394Y-55095396D01*
X5974000Y-55110385D01*
X6000783Y-55126798D01*
X6026671Y-55144590D01*
X6051592Y-55163712D01*
X6075478Y-55184113D01*
X6098264Y-55205736D01*
X6119887Y-55228522D01*
X6140288Y-55252408D01*
X6159410Y-55277329D01*
X6177202Y-55303217D01*
X6193615Y-55330000D01*
X6208604Y-55357606D01*
X6222127Y-55385958D01*
X6234148Y-55414979D01*
X6244634Y-55444590D01*
X6253555Y-55474709D01*
X6260889Y-55505253D01*
X6266613Y-55536139D01*
X6270713Y-55567283D01*
X6273178Y-55598598D01*
X6274000Y-55630000D01*
X6273178Y-55661402D01*
X6270713Y-55692717D01*
X6266613Y-55723861D01*
X6260889Y-55754747D01*
X6253555Y-55785291D01*
X6244634Y-55815410D01*
X6234148Y-55845021D01*
X6222127Y-55874042D01*
X6208604Y-55902394D01*
X6193615Y-55930000D01*
X6177202Y-55956783D01*
X6159410Y-55982671D01*
X6140288Y-56007592D01*
X6119887Y-56031478D01*
X6098264Y-56054264D01*
X6075478Y-56075887D01*
X6051592Y-56096288D01*
X6026671Y-56115410D01*
X6000783Y-56133202D01*
X5974000Y-56149615D01*
X5946394Y-56164604D01*
X5918042Y-56178127D01*
X5889021Y-56190148D01*
X5859410Y-56200634D01*
X5829291Y-56209555D01*
X5798747Y-56216889D01*
X5767861Y-56222613D01*
X5736717Y-56226713D01*
X5705402Y-56229178D01*
X5674000Y-56230000D01*
X5324000Y-56230000D01*
X5324000Y-55630000D01*
G36*
X5324000Y-46990000D02*
G01*
X5314000Y-46990000D01*
X5314000Y-47590000D01*
X4974000Y-47590000D01*
X4942598Y-47589178D01*
X4911283Y-47586713D01*
X4880139Y-47582613D01*
X4849253Y-47576889D01*
X4818709Y-47569555D01*
X4788590Y-47560634D01*
X4758979Y-47550148D01*
X4729958Y-47538127D01*
X4701606Y-47524604D01*
X4674000Y-47509615D01*
X4647217Y-47493202D01*
X4621329Y-47475410D01*
X4596408Y-47456288D01*
X4572522Y-47435887D01*
X4549736Y-47414264D01*
X4528113Y-47391478D01*
X4507712Y-47367592D01*
X4488590Y-47342671D01*
X4470798Y-47316783D01*
X4454385Y-47290000D01*
X4439396Y-47262394D01*
X4425873Y-47234042D01*
X4413852Y-47205021D01*
X4403366Y-47175410D01*
X4394445Y-47145291D01*
X4387111Y-47114747D01*
X4381387Y-47083861D01*
X4377287Y-47052717D01*
X4374822Y-47021402D01*
X4374000Y-46990000D01*
X4374822Y-46958598D01*
X4377287Y-46927283D01*
X4381387Y-46896139D01*
X4387111Y-46865253D01*
X4394445Y-46834709D01*
X4403366Y-46804590D01*
X4413852Y-46774979D01*
X4425873Y-46745958D01*
X4439396Y-46717606D01*
X4454385Y-46690000D01*
X4470798Y-46663217D01*
X4488590Y-46637329D01*
X4507712Y-46612408D01*
X4528113Y-46588522D01*
X4549736Y-46565736D01*
X4572522Y-46544113D01*
X4596408Y-46523712D01*
X4621329Y-46504590D01*
X4647217Y-46486798D01*
X4674000Y-46470385D01*
X4701606Y-46455396D01*
X4729958Y-46441873D01*
X4758979Y-46429852D01*
X4788590Y-46419366D01*
X4818709Y-46410445D01*
X4849253Y-46403111D01*
X4880139Y-46397387D01*
X4911283Y-46393287D01*
X4942598Y-46390822D01*
X4974000Y-46390000D01*
X5674000Y-46390000D01*
X5705402Y-46390822D01*
X5736717Y-46393287D01*
X5767861Y-46397387D01*
X5798747Y-46403111D01*
X5829291Y-46410445D01*
X5859410Y-46419366D01*
X5889021Y-46429852D01*
X5918042Y-46441873D01*
X5946394Y-46455396D01*
X5974000Y-46470385D01*
X6000783Y-46486798D01*
X6026671Y-46504590D01*
X6051592Y-46523712D01*
X6075478Y-46544113D01*
X6098264Y-46565736D01*
X6119887Y-46588522D01*
X6140288Y-46612408D01*
X6159410Y-46637329D01*
X6177202Y-46663217D01*
X6193615Y-46690000D01*
X6208604Y-46717606D01*
X6222127Y-46745958D01*
X6234148Y-46774979D01*
X6244634Y-46804590D01*
X6253555Y-46834709D01*
X6260889Y-46865253D01*
X6266613Y-46896139D01*
X6270713Y-46927283D01*
X6273178Y-46958598D01*
X6274000Y-46990000D01*
X6273178Y-47021402D01*
X6270713Y-47052717D01*
X6266613Y-47083861D01*
X6260889Y-47114747D01*
X6253555Y-47145291D01*
X6244634Y-47175410D01*
X6234148Y-47205021D01*
X6222127Y-47234042D01*
X6208604Y-47262394D01*
X6193615Y-47290000D01*
X6177202Y-47316783D01*
X6159410Y-47342671D01*
X6140288Y-47367592D01*
X6119887Y-47391478D01*
X6098264Y-47414264D01*
X6075478Y-47435887D01*
X6051592Y-47456288D01*
X6026671Y-47475410D01*
X6000783Y-47493202D01*
X5974000Y-47509615D01*
X5946394Y-47524604D01*
X5918042Y-47538127D01*
X5889021Y-47550148D01*
X5859410Y-47560634D01*
X5829291Y-47569555D01*
X5798747Y-47576889D01*
X5767861Y-47582613D01*
X5736717Y-47586713D01*
X5705402Y-47589178D01*
X5674000Y-47590000D01*
X5324000Y-47590000D01*
X5324000Y-46990000D01*
G37*
X5324000Y-46990000D02*
X5314000Y-46990000D01*
X5314000Y-47590000D01*
X4974000Y-47590000D01*
X4942598Y-47589178D01*
X4911283Y-47586713D01*
X4880139Y-47582613D01*
X4849253Y-47576889D01*
X4818709Y-47569555D01*
X4788590Y-47560634D01*
X4758979Y-47550148D01*
X4729958Y-47538127D01*
X4701606Y-47524604D01*
X4674000Y-47509615D01*
X4647217Y-47493202D01*
X4621329Y-47475410D01*
X4596408Y-47456288D01*
X4572522Y-47435887D01*
X4549736Y-47414264D01*
X4528113Y-47391478D01*
X4507712Y-47367592D01*
X4488590Y-47342671D01*
X4470798Y-47316783D01*
X4454385Y-47290000D01*
X4439396Y-47262394D01*
X4425873Y-47234042D01*
X4413852Y-47205021D01*
X4403366Y-47175410D01*
X4394445Y-47145291D01*
X4387111Y-47114747D01*
X4381387Y-47083861D01*
X4377287Y-47052717D01*
X4374822Y-47021402D01*
X4374000Y-46990000D01*
X4374822Y-46958598D01*
X4377287Y-46927283D01*
X4381387Y-46896139D01*
X4387111Y-46865253D01*
X4394445Y-46834709D01*
X4403366Y-46804590D01*
X4413852Y-46774979D01*
X4425873Y-46745958D01*
X4439396Y-46717606D01*
X4454385Y-46690000D01*
X4470798Y-46663217D01*
X4488590Y-46637329D01*
X4507712Y-46612408D01*
X4528113Y-46588522D01*
X4549736Y-46565736D01*
X4572522Y-46544113D01*
X4596408Y-46523712D01*
X4621329Y-46504590D01*
X4647217Y-46486798D01*
X4674000Y-46470385D01*
X4701606Y-46455396D01*
X4729958Y-46441873D01*
X4758979Y-46429852D01*
X4788590Y-46419366D01*
X4818709Y-46410445D01*
X4849253Y-46403111D01*
X4880139Y-46397387D01*
X4911283Y-46393287D01*
X4942598Y-46390822D01*
X4974000Y-46390000D01*
X5674000Y-46390000D01*
X5705402Y-46390822D01*
X5736717Y-46393287D01*
X5767861Y-46397387D01*
X5798747Y-46403111D01*
X5829291Y-46410445D01*
X5859410Y-46419366D01*
X5889021Y-46429852D01*
X5918042Y-46441873D01*
X5946394Y-46455396D01*
X5974000Y-46470385D01*
X6000783Y-46486798D01*
X6026671Y-46504590D01*
X6051592Y-46523712D01*
X6075478Y-46544113D01*
X6098264Y-46565736D01*
X6119887Y-46588522D01*
X6140288Y-46612408D01*
X6159410Y-46637329D01*
X6177202Y-46663217D01*
X6193615Y-46690000D01*
X6208604Y-46717606D01*
X6222127Y-46745958D01*
X6234148Y-46774979D01*
X6244634Y-46804590D01*
X6253555Y-46834709D01*
X6260889Y-46865253D01*
X6266613Y-46896139D01*
X6270713Y-46927283D01*
X6273178Y-46958598D01*
X6274000Y-46990000D01*
X6273178Y-47021402D01*
X6270713Y-47052717D01*
X6266613Y-47083861D01*
X6260889Y-47114747D01*
X6253555Y-47145291D01*
X6244634Y-47175410D01*
X6234148Y-47205021D01*
X6222127Y-47234042D01*
X6208604Y-47262394D01*
X6193615Y-47290000D01*
X6177202Y-47316783D01*
X6159410Y-47342671D01*
X6140288Y-47367592D01*
X6119887Y-47391478D01*
X6098264Y-47414264D01*
X6075478Y-47435887D01*
X6051592Y-47456288D01*
X6026671Y-47475410D01*
X6000783Y-47493202D01*
X5974000Y-47509615D01*
X5946394Y-47524604D01*
X5918042Y-47538127D01*
X5889021Y-47550148D01*
X5859410Y-47560634D01*
X5829291Y-47569555D01*
X5798747Y-47576889D01*
X5767861Y-47582613D01*
X5736717Y-47586713D01*
X5705402Y-47589178D01*
X5674000Y-47590000D01*
X5324000Y-47590000D01*
X5324000Y-46990000D01*
D11*
X9017000Y-53245000D03*
X9017000Y-55245000D03*
X26098500Y-32734000D03*
X26098500Y-30734000D03*
X19081500Y-7302500D03*
X17081500Y-7302500D03*
X3524500Y-44450000D03*
X5524500Y-44450000D03*
D12*
X20574000Y-38608000D03*
X20574000Y-36068000D03*
X20574000Y-33528000D03*
X20574000Y-15748000D03*
X20574000Y-13208000D03*
X20574000Y-10668000D03*
X5334000Y-10668000D03*
X5334000Y-13208000D03*
X5334000Y-15748000D03*
X5334000Y-33528000D03*
X5334000Y-36068000D03*
X5334000Y-38608000D03*
D13*
X16256000Y-44784000D03*
G36*
G01*
X17056000Y-50635000D02*
X15456000Y-50635000D01*
G75*
G02*
X15405000Y-50584000I0J51000D01*
G01*
X15405000Y-48984000D01*
G75*
G02*
X15456000Y-48933000I51000J0D01*
G01*
X17056000Y-48933000D01*
G75*
G02*
X17107000Y-48984000I0J-51000D01*
G01*
X17107000Y-50584000D01*
G75*
G02*
X17056000Y-50635000I-51000J0D01*
G01*
G37*
D14*
X5324000Y-46990000D03*
X5324000Y-55630000D03*
X1524000Y-46990000D03*
X1524000Y-55630000D03*
D15*
X14600000Y-55300000D03*
D16*
X17272000Y-20574000D03*
X17272000Y-23114000D03*
X17272000Y-25654000D03*
X17272000Y-28194000D03*
X17272000Y-33274000D03*
X17272000Y-35814000D03*
X17272000Y-38354000D03*
D17*
X13970000Y-25400000D03*
X13970000Y-27940000D03*
X13970000Y-30480000D03*
X13970000Y-35560000D03*
X13970000Y-38100000D03*
D18*
X30797500Y-28321000D03*
X44500000Y-22200000D03*
D19*
X36512500Y-34925000D03*
X35700000Y-49400000D03*
X35600000Y-11200000D03*
X35700000Y-19000000D03*
D18*
X44500000Y-50100000D03*
X44000000Y-37400000D03*
X44000000Y-9500000D03*
D15*
X41000000Y-3500000D03*
M02*
