G04 #@! TF.GenerationSoftware,KiCad,Pcbnew,(5.1.7)-1*
G04 #@! TF.CreationDate,2021-05-24T20:06:32+02:00*
G04 #@! TF.ProjectId,dcdcdc,64636463-6463-42e6-9b69-6361645f7063,rev?*
G04 #@! TF.SameCoordinates,Original*
G04 #@! TF.FileFunction,Copper,L1,Top*
G04 #@! TF.FilePolarity,Positive*
%FSLAX46Y46*%
G04 Gerber Fmt 4.6, Leading zero omitted, Abs format (unit mm)*
G04 Created by KiCad (PCBNEW (5.1.7)-1) date 2021-05-24 20:06:32*
%MOMM*%
%LPD*%
G01*
G04 APERTURE LIST*
G04 #@! TA.AperFunction,EtchedComponent*
%ADD10C,0.010000*%
G04 #@! TD*
G04 #@! TA.AperFunction,ComponentPad*
%ADD11C,1.400000*%
G04 #@! TD*
G04 #@! TA.AperFunction,ComponentPad*
%ADD12C,1.200000*%
G04 #@! TD*
G04 #@! TA.AperFunction,ComponentPad*
%ADD13C,1.600000*%
G04 #@! TD*
G04 #@! TA.AperFunction,ComponentPad*
%ADD14R,1.600000X1.600000*%
G04 #@! TD*
G04 #@! TA.AperFunction,SMDPad,CuDef*
%ADD15R,0.200000X0.200000*%
G04 #@! TD*
G04 #@! TA.AperFunction,SMDPad,CuDef*
%ADD16R,1.150000X0.700000*%
G04 #@! TD*
G04 #@! TA.AperFunction,SMDPad,CuDef*
%ADD17R,1.150000X0.800000*%
G04 #@! TD*
G04 #@! TA.AperFunction,SMDPad,CuDef*
%ADD18R,1.150000X0.900000*%
G04 #@! TD*
G04 #@! TA.AperFunction,ComponentPad*
%ADD19O,1.600000X1.300000*%
G04 #@! TD*
G04 #@! TA.AperFunction,ComponentPad*
%ADD20C,1.303000*%
G04 #@! TD*
G04 #@! TA.AperFunction,ComponentPad*
%ADD21C,2.000000*%
G04 #@! TD*
G04 #@! TA.AperFunction,ComponentPad*
%ADD22C,1.998980*%
G04 #@! TD*
G04 #@! TA.AperFunction,SMDPad,CuDef*
%ADD23R,1.220000X0.650000*%
G04 #@! TD*
G04 #@! TA.AperFunction,ViaPad*
%ADD24C,0.800000*%
G04 #@! TD*
G04 #@! TA.AperFunction,ViaPad*
%ADD25C,0.600000*%
G04 #@! TD*
G04 #@! TA.AperFunction,Conductor*
%ADD26C,0.250000*%
G04 #@! TD*
G04 #@! TA.AperFunction,Conductor*
%ADD27C,0.600000*%
G04 #@! TD*
G04 #@! TA.AperFunction,Conductor*
%ADD28C,1.000000*%
G04 #@! TD*
G04 #@! TA.AperFunction,Conductor*
%ADD29C,0.400000*%
G04 #@! TD*
G04 #@! TA.AperFunction,Conductor*
%ADD30C,0.254000*%
G04 #@! TD*
G04 #@! TA.AperFunction,Conductor*
%ADD31C,0.100000*%
G04 #@! TD*
G04 #@! TA.AperFunction,Conductor*
%ADD32C,0.200000*%
G04 #@! TD*
G04 APERTURE END LIST*
D10*
G36*
X1524000Y-55880000D02*
G01*
X1874000Y-55880000D01*
X1887084Y-55879657D01*
X1900132Y-55878630D01*
X1913109Y-55876922D01*
X1925978Y-55874537D01*
X1938705Y-55871481D01*
X1951254Y-55867764D01*
X1963592Y-55863395D01*
X1975684Y-55858386D01*
X1987498Y-55852752D01*
X1999000Y-55846506D01*
X2010160Y-55839668D01*
X2020946Y-55832254D01*
X2031330Y-55824286D01*
X2041283Y-55815786D01*
X2050777Y-55806777D01*
X2059786Y-55797283D01*
X2068286Y-55787330D01*
X2076254Y-55776946D01*
X2083668Y-55766160D01*
X2090506Y-55755000D01*
X2096752Y-55743498D01*
X2102386Y-55731684D01*
X2107395Y-55719592D01*
X2111764Y-55707254D01*
X2115481Y-55694705D01*
X2118537Y-55681978D01*
X2120922Y-55669109D01*
X2122630Y-55656132D01*
X2123657Y-55643084D01*
X2124000Y-55630000D01*
X2123657Y-55616916D01*
X2122630Y-55603868D01*
X2120922Y-55590891D01*
X2118537Y-55578022D01*
X2115481Y-55565295D01*
X2111764Y-55552746D01*
X2107395Y-55540408D01*
X2102386Y-55528316D01*
X2096752Y-55516502D01*
X2090506Y-55505000D01*
X2083668Y-55493840D01*
X2076254Y-55483054D01*
X2068286Y-55472670D01*
X2059786Y-55462717D01*
X2050777Y-55453223D01*
X2041283Y-55444214D01*
X2031330Y-55435714D01*
X2020946Y-55427746D01*
X2010160Y-55420332D01*
X1999000Y-55413494D01*
X1987498Y-55407248D01*
X1975684Y-55401614D01*
X1963592Y-55396605D01*
X1951254Y-55392236D01*
X1938705Y-55388519D01*
X1925978Y-55385463D01*
X1913109Y-55383078D01*
X1900132Y-55381370D01*
X1887084Y-55380343D01*
X1874000Y-55380000D01*
X1174000Y-55380000D01*
X1160916Y-55380343D01*
X1147868Y-55381370D01*
X1134891Y-55383078D01*
X1122022Y-55385463D01*
X1109295Y-55388519D01*
X1096746Y-55392236D01*
X1084408Y-55396605D01*
X1072316Y-55401614D01*
X1060502Y-55407248D01*
X1049000Y-55413494D01*
X1037840Y-55420332D01*
X1027054Y-55427746D01*
X1016670Y-55435714D01*
X1006717Y-55444214D01*
X997223Y-55453223D01*
X988214Y-55462717D01*
X979714Y-55472670D01*
X971746Y-55483054D01*
X964332Y-55493840D01*
X957494Y-55505000D01*
X951248Y-55516502D01*
X945614Y-55528316D01*
X940605Y-55540408D01*
X936236Y-55552746D01*
X932519Y-55565295D01*
X929463Y-55578022D01*
X927078Y-55590891D01*
X925370Y-55603868D01*
X924343Y-55616916D01*
X924000Y-55630000D01*
X924343Y-55643084D01*
X925370Y-55656132D01*
X927078Y-55669109D01*
X929463Y-55681978D01*
X932519Y-55694705D01*
X936236Y-55707254D01*
X940605Y-55719592D01*
X945614Y-55731684D01*
X951248Y-55743498D01*
X957494Y-55755000D01*
X964332Y-55766160D01*
X971746Y-55776946D01*
X979714Y-55787330D01*
X988214Y-55797283D01*
X997223Y-55806777D01*
X1006717Y-55815786D01*
X1016670Y-55824286D01*
X1027054Y-55832254D01*
X1037840Y-55839668D01*
X1049000Y-55846506D01*
X1060502Y-55852752D01*
X1072316Y-55858386D01*
X1084408Y-55863395D01*
X1096746Y-55867764D01*
X1109295Y-55871481D01*
X1122022Y-55874537D01*
X1134891Y-55876922D01*
X1147868Y-55878630D01*
X1160916Y-55879657D01*
X1174000Y-55880000D01*
X1514000Y-55880000D01*
X1514000Y-56130000D01*
X1174000Y-56130000D01*
X1147832Y-56129315D01*
X1121736Y-56127261D01*
X1095783Y-56123844D01*
X1070044Y-56119074D01*
X1044590Y-56112963D01*
X1019492Y-56105528D01*
X994816Y-56096790D01*
X970632Y-56086773D01*
X947005Y-56075503D01*
X924000Y-56063013D01*
X901680Y-56049335D01*
X880107Y-56034508D01*
X859340Y-56018573D01*
X839435Y-56001572D01*
X820447Y-55983553D01*
X802428Y-55964565D01*
X785427Y-55944660D01*
X769492Y-55923893D01*
X754665Y-55902320D01*
X740987Y-55880000D01*
X728497Y-55856995D01*
X717227Y-55833368D01*
X707210Y-55809184D01*
X698472Y-55784508D01*
X691037Y-55759410D01*
X684926Y-55733956D01*
X680156Y-55708217D01*
X676739Y-55682264D01*
X674685Y-55656168D01*
X674000Y-55630000D01*
X674685Y-55603832D01*
X676739Y-55577736D01*
X680156Y-55551783D01*
X684926Y-55526044D01*
X691037Y-55500590D01*
X698472Y-55475492D01*
X707210Y-55450816D01*
X717227Y-55426632D01*
X728497Y-55403005D01*
X740987Y-55380000D01*
X754665Y-55357680D01*
X769492Y-55336107D01*
X785427Y-55315340D01*
X802428Y-55295435D01*
X820447Y-55276447D01*
X839435Y-55258428D01*
X859340Y-55241427D01*
X880107Y-55225492D01*
X901680Y-55210665D01*
X924000Y-55196987D01*
X947005Y-55184497D01*
X970632Y-55173227D01*
X994816Y-55163210D01*
X1019492Y-55154472D01*
X1044590Y-55147037D01*
X1070044Y-55140926D01*
X1095783Y-55136156D01*
X1121736Y-55132739D01*
X1147832Y-55130685D01*
X1174000Y-55130000D01*
X1874000Y-55130000D01*
X1900168Y-55130685D01*
X1926264Y-55132739D01*
X1952217Y-55136156D01*
X1977956Y-55140926D01*
X2003410Y-55147037D01*
X2028508Y-55154472D01*
X2053184Y-55163210D01*
X2077368Y-55173227D01*
X2100995Y-55184497D01*
X2124000Y-55196987D01*
X2146320Y-55210665D01*
X2167893Y-55225492D01*
X2188660Y-55241427D01*
X2208565Y-55258428D01*
X2227553Y-55276447D01*
X2245572Y-55295435D01*
X2262573Y-55315340D01*
X2278508Y-55336107D01*
X2293335Y-55357680D01*
X2307013Y-55380000D01*
X2319503Y-55403005D01*
X2330773Y-55426632D01*
X2340790Y-55450816D01*
X2349528Y-55475492D01*
X2356963Y-55500590D01*
X2363074Y-55526044D01*
X2367844Y-55551783D01*
X2371261Y-55577736D01*
X2373315Y-55603832D01*
X2374000Y-55630000D01*
X2373315Y-55656168D01*
X2371261Y-55682264D01*
X2367844Y-55708217D01*
X2363074Y-55733956D01*
X2356963Y-55759410D01*
X2349528Y-55784508D01*
X2340790Y-55809184D01*
X2330773Y-55833368D01*
X2319503Y-55856995D01*
X2307013Y-55880000D01*
X2293335Y-55902320D01*
X2278508Y-55923893D01*
X2262573Y-55944660D01*
X2245572Y-55964565D01*
X2227553Y-55983553D01*
X2208565Y-56001572D01*
X2188660Y-56018573D01*
X2167893Y-56034508D01*
X2146320Y-56049335D01*
X2124000Y-56063013D01*
X2100995Y-56075503D01*
X2077368Y-56086773D01*
X2053184Y-56096790D01*
X2028508Y-56105528D01*
X2003410Y-56112963D01*
X1977956Y-56119074D01*
X1952217Y-56123844D01*
X1926264Y-56127261D01*
X1900168Y-56129315D01*
X1874000Y-56130000D01*
X1524000Y-56130000D01*
X1524000Y-55880000D01*
G37*
X1524000Y-55880000D02*
X1874000Y-55880000D01*
X1887084Y-55879657D01*
X1900132Y-55878630D01*
X1913109Y-55876922D01*
X1925978Y-55874537D01*
X1938705Y-55871481D01*
X1951254Y-55867764D01*
X1963592Y-55863395D01*
X1975684Y-55858386D01*
X1987498Y-55852752D01*
X1999000Y-55846506D01*
X2010160Y-55839668D01*
X2020946Y-55832254D01*
X2031330Y-55824286D01*
X2041283Y-55815786D01*
X2050777Y-55806777D01*
X2059786Y-55797283D01*
X2068286Y-55787330D01*
X2076254Y-55776946D01*
X2083668Y-55766160D01*
X2090506Y-55755000D01*
X2096752Y-55743498D01*
X2102386Y-55731684D01*
X2107395Y-55719592D01*
X2111764Y-55707254D01*
X2115481Y-55694705D01*
X2118537Y-55681978D01*
X2120922Y-55669109D01*
X2122630Y-55656132D01*
X2123657Y-55643084D01*
X2124000Y-55630000D01*
X2123657Y-55616916D01*
X2122630Y-55603868D01*
X2120922Y-55590891D01*
X2118537Y-55578022D01*
X2115481Y-55565295D01*
X2111764Y-55552746D01*
X2107395Y-55540408D01*
X2102386Y-55528316D01*
X2096752Y-55516502D01*
X2090506Y-55505000D01*
X2083668Y-55493840D01*
X2076254Y-55483054D01*
X2068286Y-55472670D01*
X2059786Y-55462717D01*
X2050777Y-55453223D01*
X2041283Y-55444214D01*
X2031330Y-55435714D01*
X2020946Y-55427746D01*
X2010160Y-55420332D01*
X1999000Y-55413494D01*
X1987498Y-55407248D01*
X1975684Y-55401614D01*
X1963592Y-55396605D01*
X1951254Y-55392236D01*
X1938705Y-55388519D01*
X1925978Y-55385463D01*
X1913109Y-55383078D01*
X1900132Y-55381370D01*
X1887084Y-55380343D01*
X1874000Y-55380000D01*
X1174000Y-55380000D01*
X1160916Y-55380343D01*
X1147868Y-55381370D01*
X1134891Y-55383078D01*
X1122022Y-55385463D01*
X1109295Y-55388519D01*
X1096746Y-55392236D01*
X1084408Y-55396605D01*
X1072316Y-55401614D01*
X1060502Y-55407248D01*
X1049000Y-55413494D01*
X1037840Y-55420332D01*
X1027054Y-55427746D01*
X1016670Y-55435714D01*
X1006717Y-55444214D01*
X997223Y-55453223D01*
X988214Y-55462717D01*
X979714Y-55472670D01*
X971746Y-55483054D01*
X964332Y-55493840D01*
X957494Y-55505000D01*
X951248Y-55516502D01*
X945614Y-55528316D01*
X940605Y-55540408D01*
X936236Y-55552746D01*
X932519Y-55565295D01*
X929463Y-55578022D01*
X927078Y-55590891D01*
X925370Y-55603868D01*
X924343Y-55616916D01*
X924000Y-55630000D01*
X924343Y-55643084D01*
X925370Y-55656132D01*
X927078Y-55669109D01*
X929463Y-55681978D01*
X932519Y-55694705D01*
X936236Y-55707254D01*
X940605Y-55719592D01*
X945614Y-55731684D01*
X951248Y-55743498D01*
X957494Y-55755000D01*
X964332Y-55766160D01*
X971746Y-55776946D01*
X979714Y-55787330D01*
X988214Y-55797283D01*
X997223Y-55806777D01*
X1006717Y-55815786D01*
X1016670Y-55824286D01*
X1027054Y-55832254D01*
X1037840Y-55839668D01*
X1049000Y-55846506D01*
X1060502Y-55852752D01*
X1072316Y-55858386D01*
X1084408Y-55863395D01*
X1096746Y-55867764D01*
X1109295Y-55871481D01*
X1122022Y-55874537D01*
X1134891Y-55876922D01*
X1147868Y-55878630D01*
X1160916Y-55879657D01*
X1174000Y-55880000D01*
X1514000Y-55880000D01*
X1514000Y-56130000D01*
X1174000Y-56130000D01*
X1147832Y-56129315D01*
X1121736Y-56127261D01*
X1095783Y-56123844D01*
X1070044Y-56119074D01*
X1044590Y-56112963D01*
X1019492Y-56105528D01*
X994816Y-56096790D01*
X970632Y-56086773D01*
X947005Y-56075503D01*
X924000Y-56063013D01*
X901680Y-56049335D01*
X880107Y-56034508D01*
X859340Y-56018573D01*
X839435Y-56001572D01*
X820447Y-55983553D01*
X802428Y-55964565D01*
X785427Y-55944660D01*
X769492Y-55923893D01*
X754665Y-55902320D01*
X740987Y-55880000D01*
X728497Y-55856995D01*
X717227Y-55833368D01*
X707210Y-55809184D01*
X698472Y-55784508D01*
X691037Y-55759410D01*
X684926Y-55733956D01*
X680156Y-55708217D01*
X676739Y-55682264D01*
X674685Y-55656168D01*
X674000Y-55630000D01*
X674685Y-55603832D01*
X676739Y-55577736D01*
X680156Y-55551783D01*
X684926Y-55526044D01*
X691037Y-55500590D01*
X698472Y-55475492D01*
X707210Y-55450816D01*
X717227Y-55426632D01*
X728497Y-55403005D01*
X740987Y-55380000D01*
X754665Y-55357680D01*
X769492Y-55336107D01*
X785427Y-55315340D01*
X802428Y-55295435D01*
X820447Y-55276447D01*
X839435Y-55258428D01*
X859340Y-55241427D01*
X880107Y-55225492D01*
X901680Y-55210665D01*
X924000Y-55196987D01*
X947005Y-55184497D01*
X970632Y-55173227D01*
X994816Y-55163210D01*
X1019492Y-55154472D01*
X1044590Y-55147037D01*
X1070044Y-55140926D01*
X1095783Y-55136156D01*
X1121736Y-55132739D01*
X1147832Y-55130685D01*
X1174000Y-55130000D01*
X1874000Y-55130000D01*
X1900168Y-55130685D01*
X1926264Y-55132739D01*
X1952217Y-55136156D01*
X1977956Y-55140926D01*
X2003410Y-55147037D01*
X2028508Y-55154472D01*
X2053184Y-55163210D01*
X2077368Y-55173227D01*
X2100995Y-55184497D01*
X2124000Y-55196987D01*
X2146320Y-55210665D01*
X2167893Y-55225492D01*
X2188660Y-55241427D01*
X2208565Y-55258428D01*
X2227553Y-55276447D01*
X2245572Y-55295435D01*
X2262573Y-55315340D01*
X2278508Y-55336107D01*
X2293335Y-55357680D01*
X2307013Y-55380000D01*
X2319503Y-55403005D01*
X2330773Y-55426632D01*
X2340790Y-55450816D01*
X2349528Y-55475492D01*
X2356963Y-55500590D01*
X2363074Y-55526044D01*
X2367844Y-55551783D01*
X2371261Y-55577736D01*
X2373315Y-55603832D01*
X2374000Y-55630000D01*
X2373315Y-55656168D01*
X2371261Y-55682264D01*
X2367844Y-55708217D01*
X2363074Y-55733956D01*
X2356963Y-55759410D01*
X2349528Y-55784508D01*
X2340790Y-55809184D01*
X2330773Y-55833368D01*
X2319503Y-55856995D01*
X2307013Y-55880000D01*
X2293335Y-55902320D01*
X2278508Y-55923893D01*
X2262573Y-55944660D01*
X2245572Y-55964565D01*
X2227553Y-55983553D01*
X2208565Y-56001572D01*
X2188660Y-56018573D01*
X2167893Y-56034508D01*
X2146320Y-56049335D01*
X2124000Y-56063013D01*
X2100995Y-56075503D01*
X2077368Y-56086773D01*
X2053184Y-56096790D01*
X2028508Y-56105528D01*
X2003410Y-56112963D01*
X1977956Y-56119074D01*
X1952217Y-56123844D01*
X1926264Y-56127261D01*
X1900168Y-56129315D01*
X1874000Y-56130000D01*
X1524000Y-56130000D01*
X1524000Y-55880000D01*
G36*
X1524000Y-47240000D02*
G01*
X1874000Y-47240000D01*
X1887084Y-47239657D01*
X1900132Y-47238630D01*
X1913109Y-47236922D01*
X1925978Y-47234537D01*
X1938705Y-47231481D01*
X1951254Y-47227764D01*
X1963592Y-47223395D01*
X1975684Y-47218386D01*
X1987498Y-47212752D01*
X1999000Y-47206506D01*
X2010160Y-47199668D01*
X2020946Y-47192254D01*
X2031330Y-47184286D01*
X2041283Y-47175786D01*
X2050777Y-47166777D01*
X2059786Y-47157283D01*
X2068286Y-47147330D01*
X2076254Y-47136946D01*
X2083668Y-47126160D01*
X2090506Y-47115000D01*
X2096752Y-47103498D01*
X2102386Y-47091684D01*
X2107395Y-47079592D01*
X2111764Y-47067254D01*
X2115481Y-47054705D01*
X2118537Y-47041978D01*
X2120922Y-47029109D01*
X2122630Y-47016132D01*
X2123657Y-47003084D01*
X2124000Y-46990000D01*
X2123657Y-46976916D01*
X2122630Y-46963868D01*
X2120922Y-46950891D01*
X2118537Y-46938022D01*
X2115481Y-46925295D01*
X2111764Y-46912746D01*
X2107395Y-46900408D01*
X2102386Y-46888316D01*
X2096752Y-46876502D01*
X2090506Y-46865000D01*
X2083668Y-46853840D01*
X2076254Y-46843054D01*
X2068286Y-46832670D01*
X2059786Y-46822717D01*
X2050777Y-46813223D01*
X2041283Y-46804214D01*
X2031330Y-46795714D01*
X2020946Y-46787746D01*
X2010160Y-46780332D01*
X1999000Y-46773494D01*
X1987498Y-46767248D01*
X1975684Y-46761614D01*
X1963592Y-46756605D01*
X1951254Y-46752236D01*
X1938705Y-46748519D01*
X1925978Y-46745463D01*
X1913109Y-46743078D01*
X1900132Y-46741370D01*
X1887084Y-46740343D01*
X1874000Y-46740000D01*
X1174000Y-46740000D01*
X1160916Y-46740343D01*
X1147868Y-46741370D01*
X1134891Y-46743078D01*
X1122022Y-46745463D01*
X1109295Y-46748519D01*
X1096746Y-46752236D01*
X1084408Y-46756605D01*
X1072316Y-46761614D01*
X1060502Y-46767248D01*
X1049000Y-46773494D01*
X1037840Y-46780332D01*
X1027054Y-46787746D01*
X1016670Y-46795714D01*
X1006717Y-46804214D01*
X997223Y-46813223D01*
X988214Y-46822717D01*
X979714Y-46832670D01*
X971746Y-46843054D01*
X964332Y-46853840D01*
X957494Y-46865000D01*
X951248Y-46876502D01*
X945614Y-46888316D01*
X940605Y-46900408D01*
X936236Y-46912746D01*
X932519Y-46925295D01*
X929463Y-46938022D01*
X927078Y-46950891D01*
X925370Y-46963868D01*
X924343Y-46976916D01*
X924000Y-46990000D01*
X924343Y-47003084D01*
X925370Y-47016132D01*
X927078Y-47029109D01*
X929463Y-47041978D01*
X932519Y-47054705D01*
X936236Y-47067254D01*
X940605Y-47079592D01*
X945614Y-47091684D01*
X951248Y-47103498D01*
X957494Y-47115000D01*
X964332Y-47126160D01*
X971746Y-47136946D01*
X979714Y-47147330D01*
X988214Y-47157283D01*
X997223Y-47166777D01*
X1006717Y-47175786D01*
X1016670Y-47184286D01*
X1027054Y-47192254D01*
X1037840Y-47199668D01*
X1049000Y-47206506D01*
X1060502Y-47212752D01*
X1072316Y-47218386D01*
X1084408Y-47223395D01*
X1096746Y-47227764D01*
X1109295Y-47231481D01*
X1122022Y-47234537D01*
X1134891Y-47236922D01*
X1147868Y-47238630D01*
X1160916Y-47239657D01*
X1174000Y-47240000D01*
X1514000Y-47240000D01*
X1514000Y-47490000D01*
X1174000Y-47490000D01*
X1147832Y-47489315D01*
X1121736Y-47487261D01*
X1095783Y-47483844D01*
X1070044Y-47479074D01*
X1044590Y-47472963D01*
X1019492Y-47465528D01*
X994816Y-47456790D01*
X970632Y-47446773D01*
X947005Y-47435503D01*
X924000Y-47423013D01*
X901680Y-47409335D01*
X880107Y-47394508D01*
X859340Y-47378573D01*
X839435Y-47361572D01*
X820447Y-47343553D01*
X802428Y-47324565D01*
X785427Y-47304660D01*
X769492Y-47283893D01*
X754665Y-47262320D01*
X740987Y-47240000D01*
X728497Y-47216995D01*
X717227Y-47193368D01*
X707210Y-47169184D01*
X698472Y-47144508D01*
X691037Y-47119410D01*
X684926Y-47093956D01*
X680156Y-47068217D01*
X676739Y-47042264D01*
X674685Y-47016168D01*
X674000Y-46990000D01*
X674685Y-46963832D01*
X676739Y-46937736D01*
X680156Y-46911783D01*
X684926Y-46886044D01*
X691037Y-46860590D01*
X698472Y-46835492D01*
X707210Y-46810816D01*
X717227Y-46786632D01*
X728497Y-46763005D01*
X740987Y-46740000D01*
X754665Y-46717680D01*
X769492Y-46696107D01*
X785427Y-46675340D01*
X802428Y-46655435D01*
X820447Y-46636447D01*
X839435Y-46618428D01*
X859340Y-46601427D01*
X880107Y-46585492D01*
X901680Y-46570665D01*
X924000Y-46556987D01*
X947005Y-46544497D01*
X970632Y-46533227D01*
X994816Y-46523210D01*
X1019492Y-46514472D01*
X1044590Y-46507037D01*
X1070044Y-46500926D01*
X1095783Y-46496156D01*
X1121736Y-46492739D01*
X1147832Y-46490685D01*
X1174000Y-46490000D01*
X1874000Y-46490000D01*
X1900168Y-46490685D01*
X1926264Y-46492739D01*
X1952217Y-46496156D01*
X1977956Y-46500926D01*
X2003410Y-46507037D01*
X2028508Y-46514472D01*
X2053184Y-46523210D01*
X2077368Y-46533227D01*
X2100995Y-46544497D01*
X2124000Y-46556987D01*
X2146320Y-46570665D01*
X2167893Y-46585492D01*
X2188660Y-46601427D01*
X2208565Y-46618428D01*
X2227553Y-46636447D01*
X2245572Y-46655435D01*
X2262573Y-46675340D01*
X2278508Y-46696107D01*
X2293335Y-46717680D01*
X2307013Y-46740000D01*
X2319503Y-46763005D01*
X2330773Y-46786632D01*
X2340790Y-46810816D01*
X2349528Y-46835492D01*
X2356963Y-46860590D01*
X2363074Y-46886044D01*
X2367844Y-46911783D01*
X2371261Y-46937736D01*
X2373315Y-46963832D01*
X2374000Y-46990000D01*
X2373315Y-47016168D01*
X2371261Y-47042264D01*
X2367844Y-47068217D01*
X2363074Y-47093956D01*
X2356963Y-47119410D01*
X2349528Y-47144508D01*
X2340790Y-47169184D01*
X2330773Y-47193368D01*
X2319503Y-47216995D01*
X2307013Y-47240000D01*
X2293335Y-47262320D01*
X2278508Y-47283893D01*
X2262573Y-47304660D01*
X2245572Y-47324565D01*
X2227553Y-47343553D01*
X2208565Y-47361572D01*
X2188660Y-47378573D01*
X2167893Y-47394508D01*
X2146320Y-47409335D01*
X2124000Y-47423013D01*
X2100995Y-47435503D01*
X2077368Y-47446773D01*
X2053184Y-47456790D01*
X2028508Y-47465528D01*
X2003410Y-47472963D01*
X1977956Y-47479074D01*
X1952217Y-47483844D01*
X1926264Y-47487261D01*
X1900168Y-47489315D01*
X1874000Y-47490000D01*
X1524000Y-47490000D01*
X1524000Y-47240000D01*
G37*
X1524000Y-47240000D02*
X1874000Y-47240000D01*
X1887084Y-47239657D01*
X1900132Y-47238630D01*
X1913109Y-47236922D01*
X1925978Y-47234537D01*
X1938705Y-47231481D01*
X1951254Y-47227764D01*
X1963592Y-47223395D01*
X1975684Y-47218386D01*
X1987498Y-47212752D01*
X1999000Y-47206506D01*
X2010160Y-47199668D01*
X2020946Y-47192254D01*
X2031330Y-47184286D01*
X2041283Y-47175786D01*
X2050777Y-47166777D01*
X2059786Y-47157283D01*
X2068286Y-47147330D01*
X2076254Y-47136946D01*
X2083668Y-47126160D01*
X2090506Y-47115000D01*
X2096752Y-47103498D01*
X2102386Y-47091684D01*
X2107395Y-47079592D01*
X2111764Y-47067254D01*
X2115481Y-47054705D01*
X2118537Y-47041978D01*
X2120922Y-47029109D01*
X2122630Y-47016132D01*
X2123657Y-47003084D01*
X2124000Y-46990000D01*
X2123657Y-46976916D01*
X2122630Y-46963868D01*
X2120922Y-46950891D01*
X2118537Y-46938022D01*
X2115481Y-46925295D01*
X2111764Y-46912746D01*
X2107395Y-46900408D01*
X2102386Y-46888316D01*
X2096752Y-46876502D01*
X2090506Y-46865000D01*
X2083668Y-46853840D01*
X2076254Y-46843054D01*
X2068286Y-46832670D01*
X2059786Y-46822717D01*
X2050777Y-46813223D01*
X2041283Y-46804214D01*
X2031330Y-46795714D01*
X2020946Y-46787746D01*
X2010160Y-46780332D01*
X1999000Y-46773494D01*
X1987498Y-46767248D01*
X1975684Y-46761614D01*
X1963592Y-46756605D01*
X1951254Y-46752236D01*
X1938705Y-46748519D01*
X1925978Y-46745463D01*
X1913109Y-46743078D01*
X1900132Y-46741370D01*
X1887084Y-46740343D01*
X1874000Y-46740000D01*
X1174000Y-46740000D01*
X1160916Y-46740343D01*
X1147868Y-46741370D01*
X1134891Y-46743078D01*
X1122022Y-46745463D01*
X1109295Y-46748519D01*
X1096746Y-46752236D01*
X1084408Y-46756605D01*
X1072316Y-46761614D01*
X1060502Y-46767248D01*
X1049000Y-46773494D01*
X1037840Y-46780332D01*
X1027054Y-46787746D01*
X1016670Y-46795714D01*
X1006717Y-46804214D01*
X997223Y-46813223D01*
X988214Y-46822717D01*
X979714Y-46832670D01*
X971746Y-46843054D01*
X964332Y-46853840D01*
X957494Y-46865000D01*
X951248Y-46876502D01*
X945614Y-46888316D01*
X940605Y-46900408D01*
X936236Y-46912746D01*
X932519Y-46925295D01*
X929463Y-46938022D01*
X927078Y-46950891D01*
X925370Y-46963868D01*
X924343Y-46976916D01*
X924000Y-46990000D01*
X924343Y-47003084D01*
X925370Y-47016132D01*
X927078Y-47029109D01*
X929463Y-47041978D01*
X932519Y-47054705D01*
X936236Y-47067254D01*
X940605Y-47079592D01*
X945614Y-47091684D01*
X951248Y-47103498D01*
X957494Y-47115000D01*
X964332Y-47126160D01*
X971746Y-47136946D01*
X979714Y-47147330D01*
X988214Y-47157283D01*
X997223Y-47166777D01*
X1006717Y-47175786D01*
X1016670Y-47184286D01*
X1027054Y-47192254D01*
X1037840Y-47199668D01*
X1049000Y-47206506D01*
X1060502Y-47212752D01*
X1072316Y-47218386D01*
X1084408Y-47223395D01*
X1096746Y-47227764D01*
X1109295Y-47231481D01*
X1122022Y-47234537D01*
X1134891Y-47236922D01*
X1147868Y-47238630D01*
X1160916Y-47239657D01*
X1174000Y-47240000D01*
X1514000Y-47240000D01*
X1514000Y-47490000D01*
X1174000Y-47490000D01*
X1147832Y-47489315D01*
X1121736Y-47487261D01*
X1095783Y-47483844D01*
X1070044Y-47479074D01*
X1044590Y-47472963D01*
X1019492Y-47465528D01*
X994816Y-47456790D01*
X970632Y-47446773D01*
X947005Y-47435503D01*
X924000Y-47423013D01*
X901680Y-47409335D01*
X880107Y-47394508D01*
X859340Y-47378573D01*
X839435Y-47361572D01*
X820447Y-47343553D01*
X802428Y-47324565D01*
X785427Y-47304660D01*
X769492Y-47283893D01*
X754665Y-47262320D01*
X740987Y-47240000D01*
X728497Y-47216995D01*
X717227Y-47193368D01*
X707210Y-47169184D01*
X698472Y-47144508D01*
X691037Y-47119410D01*
X684926Y-47093956D01*
X680156Y-47068217D01*
X676739Y-47042264D01*
X674685Y-47016168D01*
X674000Y-46990000D01*
X674685Y-46963832D01*
X676739Y-46937736D01*
X680156Y-46911783D01*
X684926Y-46886044D01*
X691037Y-46860590D01*
X698472Y-46835492D01*
X707210Y-46810816D01*
X717227Y-46786632D01*
X728497Y-46763005D01*
X740987Y-46740000D01*
X754665Y-46717680D01*
X769492Y-46696107D01*
X785427Y-46675340D01*
X802428Y-46655435D01*
X820447Y-46636447D01*
X839435Y-46618428D01*
X859340Y-46601427D01*
X880107Y-46585492D01*
X901680Y-46570665D01*
X924000Y-46556987D01*
X947005Y-46544497D01*
X970632Y-46533227D01*
X994816Y-46523210D01*
X1019492Y-46514472D01*
X1044590Y-46507037D01*
X1070044Y-46500926D01*
X1095783Y-46496156D01*
X1121736Y-46492739D01*
X1147832Y-46490685D01*
X1174000Y-46490000D01*
X1874000Y-46490000D01*
X1900168Y-46490685D01*
X1926264Y-46492739D01*
X1952217Y-46496156D01*
X1977956Y-46500926D01*
X2003410Y-46507037D01*
X2028508Y-46514472D01*
X2053184Y-46523210D01*
X2077368Y-46533227D01*
X2100995Y-46544497D01*
X2124000Y-46556987D01*
X2146320Y-46570665D01*
X2167893Y-46585492D01*
X2188660Y-46601427D01*
X2208565Y-46618428D01*
X2227553Y-46636447D01*
X2245572Y-46655435D01*
X2262573Y-46675340D01*
X2278508Y-46696107D01*
X2293335Y-46717680D01*
X2307013Y-46740000D01*
X2319503Y-46763005D01*
X2330773Y-46786632D01*
X2340790Y-46810816D01*
X2349528Y-46835492D01*
X2356963Y-46860590D01*
X2363074Y-46886044D01*
X2367844Y-46911783D01*
X2371261Y-46937736D01*
X2373315Y-46963832D01*
X2374000Y-46990000D01*
X2373315Y-47016168D01*
X2371261Y-47042264D01*
X2367844Y-47068217D01*
X2363074Y-47093956D01*
X2356963Y-47119410D01*
X2349528Y-47144508D01*
X2340790Y-47169184D01*
X2330773Y-47193368D01*
X2319503Y-47216995D01*
X2307013Y-47240000D01*
X2293335Y-47262320D01*
X2278508Y-47283893D01*
X2262573Y-47304660D01*
X2245572Y-47324565D01*
X2227553Y-47343553D01*
X2208565Y-47361572D01*
X2188660Y-47378573D01*
X2167893Y-47394508D01*
X2146320Y-47409335D01*
X2124000Y-47423013D01*
X2100995Y-47435503D01*
X2077368Y-47446773D01*
X2053184Y-47456790D01*
X2028508Y-47465528D01*
X2003410Y-47472963D01*
X1977956Y-47479074D01*
X1952217Y-47483844D01*
X1926264Y-47487261D01*
X1900168Y-47489315D01*
X1874000Y-47490000D01*
X1524000Y-47490000D01*
X1524000Y-47240000D01*
G36*
X5324000Y-55880000D02*
G01*
X5674000Y-55880000D01*
X5687084Y-55879657D01*
X5700132Y-55878630D01*
X5713109Y-55876922D01*
X5725978Y-55874537D01*
X5738705Y-55871481D01*
X5751254Y-55867764D01*
X5763592Y-55863395D01*
X5775684Y-55858386D01*
X5787498Y-55852752D01*
X5799000Y-55846506D01*
X5810160Y-55839668D01*
X5820946Y-55832254D01*
X5831330Y-55824286D01*
X5841283Y-55815786D01*
X5850777Y-55806777D01*
X5859786Y-55797283D01*
X5868286Y-55787330D01*
X5876254Y-55776946D01*
X5883668Y-55766160D01*
X5890506Y-55755000D01*
X5896752Y-55743498D01*
X5902386Y-55731684D01*
X5907395Y-55719592D01*
X5911764Y-55707254D01*
X5915481Y-55694705D01*
X5918537Y-55681978D01*
X5920922Y-55669109D01*
X5922630Y-55656132D01*
X5923657Y-55643084D01*
X5924000Y-55630000D01*
X5923657Y-55616916D01*
X5922630Y-55603868D01*
X5920922Y-55590891D01*
X5918537Y-55578022D01*
X5915481Y-55565295D01*
X5911764Y-55552746D01*
X5907395Y-55540408D01*
X5902386Y-55528316D01*
X5896752Y-55516502D01*
X5890506Y-55505000D01*
X5883668Y-55493840D01*
X5876254Y-55483054D01*
X5868286Y-55472670D01*
X5859786Y-55462717D01*
X5850777Y-55453223D01*
X5841283Y-55444214D01*
X5831330Y-55435714D01*
X5820946Y-55427746D01*
X5810160Y-55420332D01*
X5799000Y-55413494D01*
X5787498Y-55407248D01*
X5775684Y-55401614D01*
X5763592Y-55396605D01*
X5751254Y-55392236D01*
X5738705Y-55388519D01*
X5725978Y-55385463D01*
X5713109Y-55383078D01*
X5700132Y-55381370D01*
X5687084Y-55380343D01*
X5674000Y-55380000D01*
X4974000Y-55380000D01*
X4960916Y-55380343D01*
X4947868Y-55381370D01*
X4934891Y-55383078D01*
X4922022Y-55385463D01*
X4909295Y-55388519D01*
X4896746Y-55392236D01*
X4884408Y-55396605D01*
X4872316Y-55401614D01*
X4860502Y-55407248D01*
X4849000Y-55413494D01*
X4837840Y-55420332D01*
X4827054Y-55427746D01*
X4816670Y-55435714D01*
X4806717Y-55444214D01*
X4797223Y-55453223D01*
X4788214Y-55462717D01*
X4779714Y-55472670D01*
X4771746Y-55483054D01*
X4764332Y-55493840D01*
X4757494Y-55505000D01*
X4751248Y-55516502D01*
X4745614Y-55528316D01*
X4740605Y-55540408D01*
X4736236Y-55552746D01*
X4732519Y-55565295D01*
X4729463Y-55578022D01*
X4727078Y-55590891D01*
X4725370Y-55603868D01*
X4724343Y-55616916D01*
X4724000Y-55630000D01*
X4724343Y-55643084D01*
X4725370Y-55656132D01*
X4727078Y-55669109D01*
X4729463Y-55681978D01*
X4732519Y-55694705D01*
X4736236Y-55707254D01*
X4740605Y-55719592D01*
X4745614Y-55731684D01*
X4751248Y-55743498D01*
X4757494Y-55755000D01*
X4764332Y-55766160D01*
X4771746Y-55776946D01*
X4779714Y-55787330D01*
X4788214Y-55797283D01*
X4797223Y-55806777D01*
X4806717Y-55815786D01*
X4816670Y-55824286D01*
X4827054Y-55832254D01*
X4837840Y-55839668D01*
X4849000Y-55846506D01*
X4860502Y-55852752D01*
X4872316Y-55858386D01*
X4884408Y-55863395D01*
X4896746Y-55867764D01*
X4909295Y-55871481D01*
X4922022Y-55874537D01*
X4934891Y-55876922D01*
X4947868Y-55878630D01*
X4960916Y-55879657D01*
X4974000Y-55880000D01*
X5314000Y-55880000D01*
X5314000Y-56130000D01*
X4974000Y-56130000D01*
X4947832Y-56129315D01*
X4921736Y-56127261D01*
X4895783Y-56123844D01*
X4870044Y-56119074D01*
X4844590Y-56112963D01*
X4819492Y-56105528D01*
X4794816Y-56096790D01*
X4770632Y-56086773D01*
X4747005Y-56075503D01*
X4724000Y-56063013D01*
X4701680Y-56049335D01*
X4680107Y-56034508D01*
X4659340Y-56018573D01*
X4639435Y-56001572D01*
X4620447Y-55983553D01*
X4602428Y-55964565D01*
X4585427Y-55944660D01*
X4569492Y-55923893D01*
X4554665Y-55902320D01*
X4540987Y-55880000D01*
X4528497Y-55856995D01*
X4517227Y-55833368D01*
X4507210Y-55809184D01*
X4498472Y-55784508D01*
X4491037Y-55759410D01*
X4484926Y-55733956D01*
X4480156Y-55708217D01*
X4476739Y-55682264D01*
X4474685Y-55656168D01*
X4474000Y-55630000D01*
X4474685Y-55603832D01*
X4476739Y-55577736D01*
X4480156Y-55551783D01*
X4484926Y-55526044D01*
X4491037Y-55500590D01*
X4498472Y-55475492D01*
X4507210Y-55450816D01*
X4517227Y-55426632D01*
X4528497Y-55403005D01*
X4540987Y-55380000D01*
X4554665Y-55357680D01*
X4569492Y-55336107D01*
X4585427Y-55315340D01*
X4602428Y-55295435D01*
X4620447Y-55276447D01*
X4639435Y-55258428D01*
X4659340Y-55241427D01*
X4680107Y-55225492D01*
X4701680Y-55210665D01*
X4724000Y-55196987D01*
X4747005Y-55184497D01*
X4770632Y-55173227D01*
X4794816Y-55163210D01*
X4819492Y-55154472D01*
X4844590Y-55147037D01*
X4870044Y-55140926D01*
X4895783Y-55136156D01*
X4921736Y-55132739D01*
X4947832Y-55130685D01*
X4974000Y-55130000D01*
X5674000Y-55130000D01*
X5700168Y-55130685D01*
X5726264Y-55132739D01*
X5752217Y-55136156D01*
X5777956Y-55140926D01*
X5803410Y-55147037D01*
X5828508Y-55154472D01*
X5853184Y-55163210D01*
X5877368Y-55173227D01*
X5900995Y-55184497D01*
X5924000Y-55196987D01*
X5946320Y-55210665D01*
X5967893Y-55225492D01*
X5988660Y-55241427D01*
X6008565Y-55258428D01*
X6027553Y-55276447D01*
X6045572Y-55295435D01*
X6062573Y-55315340D01*
X6078508Y-55336107D01*
X6093335Y-55357680D01*
X6107013Y-55380000D01*
X6119503Y-55403005D01*
X6130773Y-55426632D01*
X6140790Y-55450816D01*
X6149528Y-55475492D01*
X6156963Y-55500590D01*
X6163074Y-55526044D01*
X6167844Y-55551783D01*
X6171261Y-55577736D01*
X6173315Y-55603832D01*
X6174000Y-55630000D01*
X6173315Y-55656168D01*
X6171261Y-55682264D01*
X6167844Y-55708217D01*
X6163074Y-55733956D01*
X6156963Y-55759410D01*
X6149528Y-55784508D01*
X6140790Y-55809184D01*
X6130773Y-55833368D01*
X6119503Y-55856995D01*
X6107013Y-55880000D01*
X6093335Y-55902320D01*
X6078508Y-55923893D01*
X6062573Y-55944660D01*
X6045572Y-55964565D01*
X6027553Y-55983553D01*
X6008565Y-56001572D01*
X5988660Y-56018573D01*
X5967893Y-56034508D01*
X5946320Y-56049335D01*
X5924000Y-56063013D01*
X5900995Y-56075503D01*
X5877368Y-56086773D01*
X5853184Y-56096790D01*
X5828508Y-56105528D01*
X5803410Y-56112963D01*
X5777956Y-56119074D01*
X5752217Y-56123844D01*
X5726264Y-56127261D01*
X5700168Y-56129315D01*
X5674000Y-56130000D01*
X5324000Y-56130000D01*
X5324000Y-55880000D01*
G37*
X5324000Y-55880000D02*
X5674000Y-55880000D01*
X5687084Y-55879657D01*
X5700132Y-55878630D01*
X5713109Y-55876922D01*
X5725978Y-55874537D01*
X5738705Y-55871481D01*
X5751254Y-55867764D01*
X5763592Y-55863395D01*
X5775684Y-55858386D01*
X5787498Y-55852752D01*
X5799000Y-55846506D01*
X5810160Y-55839668D01*
X5820946Y-55832254D01*
X5831330Y-55824286D01*
X5841283Y-55815786D01*
X5850777Y-55806777D01*
X5859786Y-55797283D01*
X5868286Y-55787330D01*
X5876254Y-55776946D01*
X5883668Y-55766160D01*
X5890506Y-55755000D01*
X5896752Y-55743498D01*
X5902386Y-55731684D01*
X5907395Y-55719592D01*
X5911764Y-55707254D01*
X5915481Y-55694705D01*
X5918537Y-55681978D01*
X5920922Y-55669109D01*
X5922630Y-55656132D01*
X5923657Y-55643084D01*
X5924000Y-55630000D01*
X5923657Y-55616916D01*
X5922630Y-55603868D01*
X5920922Y-55590891D01*
X5918537Y-55578022D01*
X5915481Y-55565295D01*
X5911764Y-55552746D01*
X5907395Y-55540408D01*
X5902386Y-55528316D01*
X5896752Y-55516502D01*
X5890506Y-55505000D01*
X5883668Y-55493840D01*
X5876254Y-55483054D01*
X5868286Y-55472670D01*
X5859786Y-55462717D01*
X5850777Y-55453223D01*
X5841283Y-55444214D01*
X5831330Y-55435714D01*
X5820946Y-55427746D01*
X5810160Y-55420332D01*
X5799000Y-55413494D01*
X5787498Y-55407248D01*
X5775684Y-55401614D01*
X5763592Y-55396605D01*
X5751254Y-55392236D01*
X5738705Y-55388519D01*
X5725978Y-55385463D01*
X5713109Y-55383078D01*
X5700132Y-55381370D01*
X5687084Y-55380343D01*
X5674000Y-55380000D01*
X4974000Y-55380000D01*
X4960916Y-55380343D01*
X4947868Y-55381370D01*
X4934891Y-55383078D01*
X4922022Y-55385463D01*
X4909295Y-55388519D01*
X4896746Y-55392236D01*
X4884408Y-55396605D01*
X4872316Y-55401614D01*
X4860502Y-55407248D01*
X4849000Y-55413494D01*
X4837840Y-55420332D01*
X4827054Y-55427746D01*
X4816670Y-55435714D01*
X4806717Y-55444214D01*
X4797223Y-55453223D01*
X4788214Y-55462717D01*
X4779714Y-55472670D01*
X4771746Y-55483054D01*
X4764332Y-55493840D01*
X4757494Y-55505000D01*
X4751248Y-55516502D01*
X4745614Y-55528316D01*
X4740605Y-55540408D01*
X4736236Y-55552746D01*
X4732519Y-55565295D01*
X4729463Y-55578022D01*
X4727078Y-55590891D01*
X4725370Y-55603868D01*
X4724343Y-55616916D01*
X4724000Y-55630000D01*
X4724343Y-55643084D01*
X4725370Y-55656132D01*
X4727078Y-55669109D01*
X4729463Y-55681978D01*
X4732519Y-55694705D01*
X4736236Y-55707254D01*
X4740605Y-55719592D01*
X4745614Y-55731684D01*
X4751248Y-55743498D01*
X4757494Y-55755000D01*
X4764332Y-55766160D01*
X4771746Y-55776946D01*
X4779714Y-55787330D01*
X4788214Y-55797283D01*
X4797223Y-55806777D01*
X4806717Y-55815786D01*
X4816670Y-55824286D01*
X4827054Y-55832254D01*
X4837840Y-55839668D01*
X4849000Y-55846506D01*
X4860502Y-55852752D01*
X4872316Y-55858386D01*
X4884408Y-55863395D01*
X4896746Y-55867764D01*
X4909295Y-55871481D01*
X4922022Y-55874537D01*
X4934891Y-55876922D01*
X4947868Y-55878630D01*
X4960916Y-55879657D01*
X4974000Y-55880000D01*
X5314000Y-55880000D01*
X5314000Y-56130000D01*
X4974000Y-56130000D01*
X4947832Y-56129315D01*
X4921736Y-56127261D01*
X4895783Y-56123844D01*
X4870044Y-56119074D01*
X4844590Y-56112963D01*
X4819492Y-56105528D01*
X4794816Y-56096790D01*
X4770632Y-56086773D01*
X4747005Y-56075503D01*
X4724000Y-56063013D01*
X4701680Y-56049335D01*
X4680107Y-56034508D01*
X4659340Y-56018573D01*
X4639435Y-56001572D01*
X4620447Y-55983553D01*
X4602428Y-55964565D01*
X4585427Y-55944660D01*
X4569492Y-55923893D01*
X4554665Y-55902320D01*
X4540987Y-55880000D01*
X4528497Y-55856995D01*
X4517227Y-55833368D01*
X4507210Y-55809184D01*
X4498472Y-55784508D01*
X4491037Y-55759410D01*
X4484926Y-55733956D01*
X4480156Y-55708217D01*
X4476739Y-55682264D01*
X4474685Y-55656168D01*
X4474000Y-55630000D01*
X4474685Y-55603832D01*
X4476739Y-55577736D01*
X4480156Y-55551783D01*
X4484926Y-55526044D01*
X4491037Y-55500590D01*
X4498472Y-55475492D01*
X4507210Y-55450816D01*
X4517227Y-55426632D01*
X4528497Y-55403005D01*
X4540987Y-55380000D01*
X4554665Y-55357680D01*
X4569492Y-55336107D01*
X4585427Y-55315340D01*
X4602428Y-55295435D01*
X4620447Y-55276447D01*
X4639435Y-55258428D01*
X4659340Y-55241427D01*
X4680107Y-55225492D01*
X4701680Y-55210665D01*
X4724000Y-55196987D01*
X4747005Y-55184497D01*
X4770632Y-55173227D01*
X4794816Y-55163210D01*
X4819492Y-55154472D01*
X4844590Y-55147037D01*
X4870044Y-55140926D01*
X4895783Y-55136156D01*
X4921736Y-55132739D01*
X4947832Y-55130685D01*
X4974000Y-55130000D01*
X5674000Y-55130000D01*
X5700168Y-55130685D01*
X5726264Y-55132739D01*
X5752217Y-55136156D01*
X5777956Y-55140926D01*
X5803410Y-55147037D01*
X5828508Y-55154472D01*
X5853184Y-55163210D01*
X5877368Y-55173227D01*
X5900995Y-55184497D01*
X5924000Y-55196987D01*
X5946320Y-55210665D01*
X5967893Y-55225492D01*
X5988660Y-55241427D01*
X6008565Y-55258428D01*
X6027553Y-55276447D01*
X6045572Y-55295435D01*
X6062573Y-55315340D01*
X6078508Y-55336107D01*
X6093335Y-55357680D01*
X6107013Y-55380000D01*
X6119503Y-55403005D01*
X6130773Y-55426632D01*
X6140790Y-55450816D01*
X6149528Y-55475492D01*
X6156963Y-55500590D01*
X6163074Y-55526044D01*
X6167844Y-55551783D01*
X6171261Y-55577736D01*
X6173315Y-55603832D01*
X6174000Y-55630000D01*
X6173315Y-55656168D01*
X6171261Y-55682264D01*
X6167844Y-55708217D01*
X6163074Y-55733956D01*
X6156963Y-55759410D01*
X6149528Y-55784508D01*
X6140790Y-55809184D01*
X6130773Y-55833368D01*
X6119503Y-55856995D01*
X6107013Y-55880000D01*
X6093335Y-55902320D01*
X6078508Y-55923893D01*
X6062573Y-55944660D01*
X6045572Y-55964565D01*
X6027553Y-55983553D01*
X6008565Y-56001572D01*
X5988660Y-56018573D01*
X5967893Y-56034508D01*
X5946320Y-56049335D01*
X5924000Y-56063013D01*
X5900995Y-56075503D01*
X5877368Y-56086773D01*
X5853184Y-56096790D01*
X5828508Y-56105528D01*
X5803410Y-56112963D01*
X5777956Y-56119074D01*
X5752217Y-56123844D01*
X5726264Y-56127261D01*
X5700168Y-56129315D01*
X5674000Y-56130000D01*
X5324000Y-56130000D01*
X5324000Y-55880000D01*
G36*
X5324000Y-47240000D02*
G01*
X5674000Y-47240000D01*
X5687084Y-47239657D01*
X5700132Y-47238630D01*
X5713109Y-47236922D01*
X5725978Y-47234537D01*
X5738705Y-47231481D01*
X5751254Y-47227764D01*
X5763592Y-47223395D01*
X5775684Y-47218386D01*
X5787498Y-47212752D01*
X5799000Y-47206506D01*
X5810160Y-47199668D01*
X5820946Y-47192254D01*
X5831330Y-47184286D01*
X5841283Y-47175786D01*
X5850777Y-47166777D01*
X5859786Y-47157283D01*
X5868286Y-47147330D01*
X5876254Y-47136946D01*
X5883668Y-47126160D01*
X5890506Y-47115000D01*
X5896752Y-47103498D01*
X5902386Y-47091684D01*
X5907395Y-47079592D01*
X5911764Y-47067254D01*
X5915481Y-47054705D01*
X5918537Y-47041978D01*
X5920922Y-47029109D01*
X5922630Y-47016132D01*
X5923657Y-47003084D01*
X5924000Y-46990000D01*
X5923657Y-46976916D01*
X5922630Y-46963868D01*
X5920922Y-46950891D01*
X5918537Y-46938022D01*
X5915481Y-46925295D01*
X5911764Y-46912746D01*
X5907395Y-46900408D01*
X5902386Y-46888316D01*
X5896752Y-46876502D01*
X5890506Y-46865000D01*
X5883668Y-46853840D01*
X5876254Y-46843054D01*
X5868286Y-46832670D01*
X5859786Y-46822717D01*
X5850777Y-46813223D01*
X5841283Y-46804214D01*
X5831330Y-46795714D01*
X5820946Y-46787746D01*
X5810160Y-46780332D01*
X5799000Y-46773494D01*
X5787498Y-46767248D01*
X5775684Y-46761614D01*
X5763592Y-46756605D01*
X5751254Y-46752236D01*
X5738705Y-46748519D01*
X5725978Y-46745463D01*
X5713109Y-46743078D01*
X5700132Y-46741370D01*
X5687084Y-46740343D01*
X5674000Y-46740000D01*
X4974000Y-46740000D01*
X4960916Y-46740343D01*
X4947868Y-46741370D01*
X4934891Y-46743078D01*
X4922022Y-46745463D01*
X4909295Y-46748519D01*
X4896746Y-46752236D01*
X4884408Y-46756605D01*
X4872316Y-46761614D01*
X4860502Y-46767248D01*
X4849000Y-46773494D01*
X4837840Y-46780332D01*
X4827054Y-46787746D01*
X4816670Y-46795714D01*
X4806717Y-46804214D01*
X4797223Y-46813223D01*
X4788214Y-46822717D01*
X4779714Y-46832670D01*
X4771746Y-46843054D01*
X4764332Y-46853840D01*
X4757494Y-46865000D01*
X4751248Y-46876502D01*
X4745614Y-46888316D01*
X4740605Y-46900408D01*
X4736236Y-46912746D01*
X4732519Y-46925295D01*
X4729463Y-46938022D01*
X4727078Y-46950891D01*
X4725370Y-46963868D01*
X4724343Y-46976916D01*
X4724000Y-46990000D01*
X4724343Y-47003084D01*
X4725370Y-47016132D01*
X4727078Y-47029109D01*
X4729463Y-47041978D01*
X4732519Y-47054705D01*
X4736236Y-47067254D01*
X4740605Y-47079592D01*
X4745614Y-47091684D01*
X4751248Y-47103498D01*
X4757494Y-47115000D01*
X4764332Y-47126160D01*
X4771746Y-47136946D01*
X4779714Y-47147330D01*
X4788214Y-47157283D01*
X4797223Y-47166777D01*
X4806717Y-47175786D01*
X4816670Y-47184286D01*
X4827054Y-47192254D01*
X4837840Y-47199668D01*
X4849000Y-47206506D01*
X4860502Y-47212752D01*
X4872316Y-47218386D01*
X4884408Y-47223395D01*
X4896746Y-47227764D01*
X4909295Y-47231481D01*
X4922022Y-47234537D01*
X4934891Y-47236922D01*
X4947868Y-47238630D01*
X4960916Y-47239657D01*
X4974000Y-47240000D01*
X5314000Y-47240000D01*
X5314000Y-47490000D01*
X4974000Y-47490000D01*
X4947832Y-47489315D01*
X4921736Y-47487261D01*
X4895783Y-47483844D01*
X4870044Y-47479074D01*
X4844590Y-47472963D01*
X4819492Y-47465528D01*
X4794816Y-47456790D01*
X4770632Y-47446773D01*
X4747005Y-47435503D01*
X4724000Y-47423013D01*
X4701680Y-47409335D01*
X4680107Y-47394508D01*
X4659340Y-47378573D01*
X4639435Y-47361572D01*
X4620447Y-47343553D01*
X4602428Y-47324565D01*
X4585427Y-47304660D01*
X4569492Y-47283893D01*
X4554665Y-47262320D01*
X4540987Y-47240000D01*
X4528497Y-47216995D01*
X4517227Y-47193368D01*
X4507210Y-47169184D01*
X4498472Y-47144508D01*
X4491037Y-47119410D01*
X4484926Y-47093956D01*
X4480156Y-47068217D01*
X4476739Y-47042264D01*
X4474685Y-47016168D01*
X4474000Y-46990000D01*
X4474685Y-46963832D01*
X4476739Y-46937736D01*
X4480156Y-46911783D01*
X4484926Y-46886044D01*
X4491037Y-46860590D01*
X4498472Y-46835492D01*
X4507210Y-46810816D01*
X4517227Y-46786632D01*
X4528497Y-46763005D01*
X4540987Y-46740000D01*
X4554665Y-46717680D01*
X4569492Y-46696107D01*
X4585427Y-46675340D01*
X4602428Y-46655435D01*
X4620447Y-46636447D01*
X4639435Y-46618428D01*
X4659340Y-46601427D01*
X4680107Y-46585492D01*
X4701680Y-46570665D01*
X4724000Y-46556987D01*
X4747005Y-46544497D01*
X4770632Y-46533227D01*
X4794816Y-46523210D01*
X4819492Y-46514472D01*
X4844590Y-46507037D01*
X4870044Y-46500926D01*
X4895783Y-46496156D01*
X4921736Y-46492739D01*
X4947832Y-46490685D01*
X4974000Y-46490000D01*
X5674000Y-46490000D01*
X5700168Y-46490685D01*
X5726264Y-46492739D01*
X5752217Y-46496156D01*
X5777956Y-46500926D01*
X5803410Y-46507037D01*
X5828508Y-46514472D01*
X5853184Y-46523210D01*
X5877368Y-46533227D01*
X5900995Y-46544497D01*
X5924000Y-46556987D01*
X5946320Y-46570665D01*
X5967893Y-46585492D01*
X5988660Y-46601427D01*
X6008565Y-46618428D01*
X6027553Y-46636447D01*
X6045572Y-46655435D01*
X6062573Y-46675340D01*
X6078508Y-46696107D01*
X6093335Y-46717680D01*
X6107013Y-46740000D01*
X6119503Y-46763005D01*
X6130773Y-46786632D01*
X6140790Y-46810816D01*
X6149528Y-46835492D01*
X6156963Y-46860590D01*
X6163074Y-46886044D01*
X6167844Y-46911783D01*
X6171261Y-46937736D01*
X6173315Y-46963832D01*
X6174000Y-46990000D01*
X6173315Y-47016168D01*
X6171261Y-47042264D01*
X6167844Y-47068217D01*
X6163074Y-47093956D01*
X6156963Y-47119410D01*
X6149528Y-47144508D01*
X6140790Y-47169184D01*
X6130773Y-47193368D01*
X6119503Y-47216995D01*
X6107013Y-47240000D01*
X6093335Y-47262320D01*
X6078508Y-47283893D01*
X6062573Y-47304660D01*
X6045572Y-47324565D01*
X6027553Y-47343553D01*
X6008565Y-47361572D01*
X5988660Y-47378573D01*
X5967893Y-47394508D01*
X5946320Y-47409335D01*
X5924000Y-47423013D01*
X5900995Y-47435503D01*
X5877368Y-47446773D01*
X5853184Y-47456790D01*
X5828508Y-47465528D01*
X5803410Y-47472963D01*
X5777956Y-47479074D01*
X5752217Y-47483844D01*
X5726264Y-47487261D01*
X5700168Y-47489315D01*
X5674000Y-47490000D01*
X5324000Y-47490000D01*
X5324000Y-47240000D01*
G37*
X5324000Y-47240000D02*
X5674000Y-47240000D01*
X5687084Y-47239657D01*
X5700132Y-47238630D01*
X5713109Y-47236922D01*
X5725978Y-47234537D01*
X5738705Y-47231481D01*
X5751254Y-47227764D01*
X5763592Y-47223395D01*
X5775684Y-47218386D01*
X5787498Y-47212752D01*
X5799000Y-47206506D01*
X5810160Y-47199668D01*
X5820946Y-47192254D01*
X5831330Y-47184286D01*
X5841283Y-47175786D01*
X5850777Y-47166777D01*
X5859786Y-47157283D01*
X5868286Y-47147330D01*
X5876254Y-47136946D01*
X5883668Y-47126160D01*
X5890506Y-47115000D01*
X5896752Y-47103498D01*
X5902386Y-47091684D01*
X5907395Y-47079592D01*
X5911764Y-47067254D01*
X5915481Y-47054705D01*
X5918537Y-47041978D01*
X5920922Y-47029109D01*
X5922630Y-47016132D01*
X5923657Y-47003084D01*
X5924000Y-46990000D01*
X5923657Y-46976916D01*
X5922630Y-46963868D01*
X5920922Y-46950891D01*
X5918537Y-46938022D01*
X5915481Y-46925295D01*
X5911764Y-46912746D01*
X5907395Y-46900408D01*
X5902386Y-46888316D01*
X5896752Y-46876502D01*
X5890506Y-46865000D01*
X5883668Y-46853840D01*
X5876254Y-46843054D01*
X5868286Y-46832670D01*
X5859786Y-46822717D01*
X5850777Y-46813223D01*
X5841283Y-46804214D01*
X5831330Y-46795714D01*
X5820946Y-46787746D01*
X5810160Y-46780332D01*
X5799000Y-46773494D01*
X5787498Y-46767248D01*
X5775684Y-46761614D01*
X5763592Y-46756605D01*
X5751254Y-46752236D01*
X5738705Y-46748519D01*
X5725978Y-46745463D01*
X5713109Y-46743078D01*
X5700132Y-46741370D01*
X5687084Y-46740343D01*
X5674000Y-46740000D01*
X4974000Y-46740000D01*
X4960916Y-46740343D01*
X4947868Y-46741370D01*
X4934891Y-46743078D01*
X4922022Y-46745463D01*
X4909295Y-46748519D01*
X4896746Y-46752236D01*
X4884408Y-46756605D01*
X4872316Y-46761614D01*
X4860502Y-46767248D01*
X4849000Y-46773494D01*
X4837840Y-46780332D01*
X4827054Y-46787746D01*
X4816670Y-46795714D01*
X4806717Y-46804214D01*
X4797223Y-46813223D01*
X4788214Y-46822717D01*
X4779714Y-46832670D01*
X4771746Y-46843054D01*
X4764332Y-46853840D01*
X4757494Y-46865000D01*
X4751248Y-46876502D01*
X4745614Y-46888316D01*
X4740605Y-46900408D01*
X4736236Y-46912746D01*
X4732519Y-46925295D01*
X4729463Y-46938022D01*
X4727078Y-46950891D01*
X4725370Y-46963868D01*
X4724343Y-46976916D01*
X4724000Y-46990000D01*
X4724343Y-47003084D01*
X4725370Y-47016132D01*
X4727078Y-47029109D01*
X4729463Y-47041978D01*
X4732519Y-47054705D01*
X4736236Y-47067254D01*
X4740605Y-47079592D01*
X4745614Y-47091684D01*
X4751248Y-47103498D01*
X4757494Y-47115000D01*
X4764332Y-47126160D01*
X4771746Y-47136946D01*
X4779714Y-47147330D01*
X4788214Y-47157283D01*
X4797223Y-47166777D01*
X4806717Y-47175786D01*
X4816670Y-47184286D01*
X4827054Y-47192254D01*
X4837840Y-47199668D01*
X4849000Y-47206506D01*
X4860502Y-47212752D01*
X4872316Y-47218386D01*
X4884408Y-47223395D01*
X4896746Y-47227764D01*
X4909295Y-47231481D01*
X4922022Y-47234537D01*
X4934891Y-47236922D01*
X4947868Y-47238630D01*
X4960916Y-47239657D01*
X4974000Y-47240000D01*
X5314000Y-47240000D01*
X5314000Y-47490000D01*
X4974000Y-47490000D01*
X4947832Y-47489315D01*
X4921736Y-47487261D01*
X4895783Y-47483844D01*
X4870044Y-47479074D01*
X4844590Y-47472963D01*
X4819492Y-47465528D01*
X4794816Y-47456790D01*
X4770632Y-47446773D01*
X4747005Y-47435503D01*
X4724000Y-47423013D01*
X4701680Y-47409335D01*
X4680107Y-47394508D01*
X4659340Y-47378573D01*
X4639435Y-47361572D01*
X4620447Y-47343553D01*
X4602428Y-47324565D01*
X4585427Y-47304660D01*
X4569492Y-47283893D01*
X4554665Y-47262320D01*
X4540987Y-47240000D01*
X4528497Y-47216995D01*
X4517227Y-47193368D01*
X4507210Y-47169184D01*
X4498472Y-47144508D01*
X4491037Y-47119410D01*
X4484926Y-47093956D01*
X4480156Y-47068217D01*
X4476739Y-47042264D01*
X4474685Y-47016168D01*
X4474000Y-46990000D01*
X4474685Y-46963832D01*
X4476739Y-46937736D01*
X4480156Y-46911783D01*
X4484926Y-46886044D01*
X4491037Y-46860590D01*
X4498472Y-46835492D01*
X4507210Y-46810816D01*
X4517227Y-46786632D01*
X4528497Y-46763005D01*
X4540987Y-46740000D01*
X4554665Y-46717680D01*
X4569492Y-46696107D01*
X4585427Y-46675340D01*
X4602428Y-46655435D01*
X4620447Y-46636447D01*
X4639435Y-46618428D01*
X4659340Y-46601427D01*
X4680107Y-46585492D01*
X4701680Y-46570665D01*
X4724000Y-46556987D01*
X4747005Y-46544497D01*
X4770632Y-46533227D01*
X4794816Y-46523210D01*
X4819492Y-46514472D01*
X4844590Y-46507037D01*
X4870044Y-46500926D01*
X4895783Y-46496156D01*
X4921736Y-46492739D01*
X4947832Y-46490685D01*
X4974000Y-46490000D01*
X5674000Y-46490000D01*
X5700168Y-46490685D01*
X5726264Y-46492739D01*
X5752217Y-46496156D01*
X5777956Y-46500926D01*
X5803410Y-46507037D01*
X5828508Y-46514472D01*
X5853184Y-46523210D01*
X5877368Y-46533227D01*
X5900995Y-46544497D01*
X5924000Y-46556987D01*
X5946320Y-46570665D01*
X5967893Y-46585492D01*
X5988660Y-46601427D01*
X6008565Y-46618428D01*
X6027553Y-46636447D01*
X6045572Y-46655435D01*
X6062573Y-46675340D01*
X6078508Y-46696107D01*
X6093335Y-46717680D01*
X6107013Y-46740000D01*
X6119503Y-46763005D01*
X6130773Y-46786632D01*
X6140790Y-46810816D01*
X6149528Y-46835492D01*
X6156963Y-46860590D01*
X6163074Y-46886044D01*
X6167844Y-46911783D01*
X6171261Y-46937736D01*
X6173315Y-46963832D01*
X6174000Y-46990000D01*
X6173315Y-47016168D01*
X6171261Y-47042264D01*
X6167844Y-47068217D01*
X6163074Y-47093956D01*
X6156963Y-47119410D01*
X6149528Y-47144508D01*
X6140790Y-47169184D01*
X6130773Y-47193368D01*
X6119503Y-47216995D01*
X6107013Y-47240000D01*
X6093335Y-47262320D01*
X6078508Y-47283893D01*
X6062573Y-47304660D01*
X6045572Y-47324565D01*
X6027553Y-47343553D01*
X6008565Y-47361572D01*
X5988660Y-47378573D01*
X5967893Y-47394508D01*
X5946320Y-47409335D01*
X5924000Y-47423013D01*
X5900995Y-47435503D01*
X5877368Y-47446773D01*
X5853184Y-47456790D01*
X5828508Y-47465528D01*
X5803410Y-47472963D01*
X5777956Y-47479074D01*
X5752217Y-47483844D01*
X5726264Y-47487261D01*
X5700168Y-47489315D01*
X5674000Y-47490000D01*
X5324000Y-47490000D01*
X5324000Y-47240000D01*
G04 #@! TA.AperFunction,SMDPad,CuDef*
G36*
G01*
X8875000Y-4725000D02*
X7625000Y-4725000D01*
G75*
G02*
X7375000Y-4475000I0J250000D01*
G01*
X7375000Y-3725000D01*
G75*
G02*
X7625000Y-3475000I250000J0D01*
G01*
X8875000Y-3475000D01*
G75*
G02*
X9125000Y-3725000I0J-250000D01*
G01*
X9125000Y-4475000D01*
G75*
G02*
X8875000Y-4725000I-250000J0D01*
G01*
G37*
G04 #@! TD.AperFunction*
G04 #@! TA.AperFunction,SMDPad,CuDef*
G36*
G01*
X8875000Y-7525000D02*
X7625000Y-7525000D01*
G75*
G02*
X7375000Y-7275000I0J250000D01*
G01*
X7375000Y-6525000D01*
G75*
G02*
X7625000Y-6275000I250000J0D01*
G01*
X8875000Y-6275000D01*
G75*
G02*
X9125000Y-6525000I0J-250000D01*
G01*
X9125000Y-7275000D01*
G75*
G02*
X8875000Y-7525000I-250000J0D01*
G01*
G37*
G04 #@! TD.AperFunction*
G04 #@! TA.AperFunction,SMDPad,CuDef*
G36*
G01*
X26725000Y-18875000D02*
X26725000Y-20125000D01*
G75*
G02*
X26475000Y-20375000I-250000J0D01*
G01*
X25725000Y-20375000D01*
G75*
G02*
X25475000Y-20125000I0J250000D01*
G01*
X25475000Y-18875000D01*
G75*
G02*
X25725000Y-18625000I250000J0D01*
G01*
X26475000Y-18625000D01*
G75*
G02*
X26725000Y-18875000I0J-250000D01*
G01*
G37*
G04 #@! TD.AperFunction*
G04 #@! TA.AperFunction,SMDPad,CuDef*
G36*
G01*
X29525000Y-18875000D02*
X29525000Y-20125000D01*
G75*
G02*
X29275000Y-20375000I-250000J0D01*
G01*
X28525000Y-20375000D01*
G75*
G02*
X28275000Y-20125000I0J250000D01*
G01*
X28275000Y-18875000D01*
G75*
G02*
X28525000Y-18625000I250000J0D01*
G01*
X29275000Y-18625000D01*
G75*
G02*
X29525000Y-18875000I0J-250000D01*
G01*
G37*
G04 #@! TD.AperFunction*
D11*
X9017000Y-53245000D03*
X9017000Y-55245000D03*
G04 #@! TA.AperFunction,SMDPad,CuDef*
G36*
G01*
X10490500Y-45011500D02*
X10490500Y-43761500D01*
G75*
G02*
X10740500Y-43511500I250000J0D01*
G01*
X11490500Y-43511500D01*
G75*
G02*
X11740500Y-43761500I0J-250000D01*
G01*
X11740500Y-45011500D01*
G75*
G02*
X11490500Y-45261500I-250000J0D01*
G01*
X10740500Y-45261500D01*
G75*
G02*
X10490500Y-45011500I0J250000D01*
G01*
G37*
G04 #@! TD.AperFunction*
G04 #@! TA.AperFunction,SMDPad,CuDef*
G36*
G01*
X7690500Y-45011500D02*
X7690500Y-43761500D01*
G75*
G02*
X7940500Y-43511500I250000J0D01*
G01*
X8690500Y-43511500D01*
G75*
G02*
X8940500Y-43761500I0J-250000D01*
G01*
X8940500Y-45011500D01*
G75*
G02*
X8690500Y-45261500I-250000J0D01*
G01*
X7940500Y-45261500D01*
G75*
G02*
X7690500Y-45011500I0J250000D01*
G01*
G37*
G04 #@! TD.AperFunction*
X26098500Y-32734000D03*
X26098500Y-30734000D03*
X19081500Y-7302500D03*
X17081500Y-7302500D03*
X3524500Y-44450000D03*
X5524500Y-44450000D03*
D12*
X20574000Y-38608000D03*
X20574000Y-36068000D03*
X20574000Y-33528000D03*
X20574000Y-15748000D03*
X20574000Y-13208000D03*
X20574000Y-10668000D03*
X5334000Y-10668000D03*
X5334000Y-13208000D03*
X5334000Y-15748000D03*
X5334000Y-33528000D03*
X5334000Y-36068000D03*
X5334000Y-38608000D03*
D13*
X16256000Y-44784000D03*
D14*
X16256000Y-49784000D03*
D15*
X5324000Y-46615000D03*
X5324000Y-55255000D03*
X1524000Y-46615000D03*
X1524000Y-55255000D03*
D16*
X5324000Y-51810000D03*
X5324000Y-50810000D03*
D17*
X5324000Y-49790000D03*
X5324000Y-52830000D03*
D18*
X5324000Y-48560000D03*
X5324000Y-54060000D03*
D19*
X17272000Y-20574000D03*
X17272000Y-23114000D03*
X17272000Y-25654000D03*
X17272000Y-28194000D03*
X17272000Y-33274000D03*
X17272000Y-35814000D03*
X17272000Y-38354000D03*
D20*
X13970000Y-25400000D03*
X13970000Y-27940000D03*
X13970000Y-30480000D03*
X13970000Y-35560000D03*
X13970000Y-38100000D03*
D21*
X30797500Y-28321000D03*
G04 #@! TA.AperFunction,SMDPad,CuDef*
G36*
G01*
X36350000Y-44643750D02*
X36350000Y-45556250D01*
G75*
G02*
X36106250Y-45800000I-243750J0D01*
G01*
X35618750Y-45800000D01*
G75*
G02*
X35375000Y-45556250I0J243750D01*
G01*
X35375000Y-44643750D01*
G75*
G02*
X35618750Y-44400000I243750J0D01*
G01*
X36106250Y-44400000D01*
G75*
G02*
X36350000Y-44643750I0J-243750D01*
G01*
G37*
G04 #@! TD.AperFunction*
G04 #@! TA.AperFunction,SMDPad,CuDef*
G36*
G01*
X38225000Y-44643750D02*
X38225000Y-45556250D01*
G75*
G02*
X37981250Y-45800000I-243750J0D01*
G01*
X37493750Y-45800000D01*
G75*
G02*
X37250000Y-45556250I0J243750D01*
G01*
X37250000Y-44643750D01*
G75*
G02*
X37493750Y-44400000I243750J0D01*
G01*
X37981250Y-44400000D01*
G75*
G02*
X38225000Y-44643750I0J-243750D01*
G01*
G37*
G04 #@! TD.AperFunction*
G04 #@! TA.AperFunction,SMDPad,CuDef*
G36*
G01*
X33250000Y-14143750D02*
X33250000Y-15056250D01*
G75*
G02*
X33006250Y-15300000I-243750J0D01*
G01*
X32518750Y-15300000D01*
G75*
G02*
X32275000Y-15056250I0J243750D01*
G01*
X32275000Y-14143750D01*
G75*
G02*
X32518750Y-13900000I243750J0D01*
G01*
X33006250Y-13900000D01*
G75*
G02*
X33250000Y-14143750I0J-243750D01*
G01*
G37*
G04 #@! TD.AperFunction*
G04 #@! TA.AperFunction,SMDPad,CuDef*
G36*
G01*
X35125000Y-14143750D02*
X35125000Y-15056250D01*
G75*
G02*
X34881250Y-15300000I-243750J0D01*
G01*
X34393750Y-15300000D01*
G75*
G02*
X34150000Y-15056250I0J243750D01*
G01*
X34150000Y-14143750D01*
G75*
G02*
X34393750Y-13900000I243750J0D01*
G01*
X34881250Y-13900000D01*
G75*
G02*
X35125000Y-14143750I0J-243750D01*
G01*
G37*
G04 #@! TD.AperFunction*
G04 #@! TA.AperFunction,SMDPad,CuDef*
G36*
G01*
X38456250Y-41550000D02*
X37543750Y-41550000D01*
G75*
G02*
X37300000Y-41306250I0J243750D01*
G01*
X37300000Y-40818750D01*
G75*
G02*
X37543750Y-40575000I243750J0D01*
G01*
X38456250Y-40575000D01*
G75*
G02*
X38700000Y-40818750I0J-243750D01*
G01*
X38700000Y-41306250D01*
G75*
G02*
X38456250Y-41550000I-243750J0D01*
G01*
G37*
G04 #@! TD.AperFunction*
G04 #@! TA.AperFunction,SMDPad,CuDef*
G36*
G01*
X38456250Y-43425000D02*
X37543750Y-43425000D01*
G75*
G02*
X37300000Y-43181250I0J243750D01*
G01*
X37300000Y-42693750D01*
G75*
G02*
X37543750Y-42450000I243750J0D01*
G01*
X38456250Y-42450000D01*
G75*
G02*
X38700000Y-42693750I0J-243750D01*
G01*
X38700000Y-43181250D01*
G75*
G02*
X38456250Y-43425000I-243750J0D01*
G01*
G37*
G04 #@! TD.AperFunction*
G04 #@! TA.AperFunction,SMDPad,CuDef*
G36*
G01*
X37050000Y-14143750D02*
X37050000Y-15056250D01*
G75*
G02*
X36806250Y-15300000I-243750J0D01*
G01*
X36318750Y-15300000D01*
G75*
G02*
X36075000Y-15056250I0J243750D01*
G01*
X36075000Y-14143750D01*
G75*
G02*
X36318750Y-13900000I243750J0D01*
G01*
X36806250Y-13900000D01*
G75*
G02*
X37050000Y-14143750I0J-243750D01*
G01*
G37*
G04 #@! TD.AperFunction*
G04 #@! TA.AperFunction,SMDPad,CuDef*
G36*
G01*
X38925000Y-14143750D02*
X38925000Y-15056250D01*
G75*
G02*
X38681250Y-15300000I-243750J0D01*
G01*
X38193750Y-15300000D01*
G75*
G02*
X37950000Y-15056250I0J243750D01*
G01*
X37950000Y-14143750D01*
G75*
G02*
X38193750Y-13900000I243750J0D01*
G01*
X38681250Y-13900000D01*
G75*
G02*
X38925000Y-14143750I0J-243750D01*
G01*
G37*
G04 #@! TD.AperFunction*
X44500000Y-22200000D03*
D22*
X36512500Y-34925000D03*
X35700000Y-49400000D03*
X35600000Y-11200000D03*
X35700000Y-19000000D03*
D21*
X44500000Y-50100000D03*
X44000000Y-37400000D03*
X44000000Y-9500000D03*
D23*
X33110000Y-40350000D03*
X33110000Y-42250000D03*
X30490000Y-42250000D03*
X30490000Y-41300000D03*
X30490000Y-40350000D03*
X30810000Y-7300000D03*
X30810000Y-9200000D03*
X28190000Y-9200000D03*
X28190000Y-8250000D03*
X28190000Y-7300000D03*
G04 #@! TA.AperFunction,SMDPad,CuDef*
G36*
G01*
X27143750Y-42050000D02*
X28056250Y-42050000D01*
G75*
G02*
X28300000Y-42293750I0J-243750D01*
G01*
X28300000Y-42781250D01*
G75*
G02*
X28056250Y-43025000I-243750J0D01*
G01*
X27143750Y-43025000D01*
G75*
G02*
X26900000Y-42781250I0J243750D01*
G01*
X26900000Y-42293750D01*
G75*
G02*
X27143750Y-42050000I243750J0D01*
G01*
G37*
G04 #@! TD.AperFunction*
G04 #@! TA.AperFunction,SMDPad,CuDef*
G36*
G01*
X27143750Y-40175000D02*
X28056250Y-40175000D01*
G75*
G02*
X28300000Y-40418750I0J-243750D01*
G01*
X28300000Y-40906250D01*
G75*
G02*
X28056250Y-41150000I-243750J0D01*
G01*
X27143750Y-41150000D01*
G75*
G02*
X26900000Y-40906250I0J243750D01*
G01*
X26900000Y-40418750D01*
G75*
G02*
X27143750Y-40175000I243750J0D01*
G01*
G37*
G04 #@! TD.AperFunction*
G04 #@! TA.AperFunction,SMDPad,CuDef*
G36*
G01*
X25458000Y-10783250D02*
X25458000Y-11695750D01*
G75*
G02*
X25214250Y-11939500I-243750J0D01*
G01*
X24726750Y-11939500D01*
G75*
G02*
X24483000Y-11695750I0J243750D01*
G01*
X24483000Y-10783250D01*
G75*
G02*
X24726750Y-10539500I243750J0D01*
G01*
X25214250Y-10539500D01*
G75*
G02*
X25458000Y-10783250I0J-243750D01*
G01*
G37*
G04 #@! TD.AperFunction*
G04 #@! TA.AperFunction,SMDPad,CuDef*
G36*
G01*
X27333000Y-10783250D02*
X27333000Y-11695750D01*
G75*
G02*
X27089250Y-11939500I-243750J0D01*
G01*
X26601750Y-11939500D01*
G75*
G02*
X26358000Y-11695750I0J243750D01*
G01*
X26358000Y-10783250D01*
G75*
G02*
X26601750Y-10539500I243750J0D01*
G01*
X27089250Y-10539500D01*
G75*
G02*
X27333000Y-10783250I0J-243750D01*
G01*
G37*
G04 #@! TD.AperFunction*
G04 #@! TA.AperFunction,SMDPad,CuDef*
G36*
G01*
X36156250Y-41550000D02*
X35243750Y-41550000D01*
G75*
G02*
X35000000Y-41306250I0J243750D01*
G01*
X35000000Y-40818750D01*
G75*
G02*
X35243750Y-40575000I243750J0D01*
G01*
X36156250Y-40575000D01*
G75*
G02*
X36400000Y-40818750I0J-243750D01*
G01*
X36400000Y-41306250D01*
G75*
G02*
X36156250Y-41550000I-243750J0D01*
G01*
G37*
G04 #@! TD.AperFunction*
G04 #@! TA.AperFunction,SMDPad,CuDef*
G36*
G01*
X36156250Y-43425000D02*
X35243750Y-43425000D01*
G75*
G02*
X35000000Y-43181250I0J243750D01*
G01*
X35000000Y-42693750D01*
G75*
G02*
X35243750Y-42450000I243750J0D01*
G01*
X36156250Y-42450000D01*
G75*
G02*
X36400000Y-42693750I0J-243750D01*
G01*
X36400000Y-43181250D01*
G75*
G02*
X36156250Y-43425000I-243750J0D01*
G01*
G37*
G04 #@! TD.AperFunction*
G04 #@! TA.AperFunction,SMDPad,CuDef*
G36*
G01*
X33350000Y-45556250D02*
X33350000Y-44643750D01*
G75*
G02*
X33593750Y-44400000I243750J0D01*
G01*
X34081250Y-44400000D01*
G75*
G02*
X34325000Y-44643750I0J-243750D01*
G01*
X34325000Y-45556250D01*
G75*
G02*
X34081250Y-45800000I-243750J0D01*
G01*
X33593750Y-45800000D01*
G75*
G02*
X33350000Y-45556250I0J243750D01*
G01*
G37*
G04 #@! TD.AperFunction*
G04 #@! TA.AperFunction,SMDPad,CuDef*
G36*
G01*
X31475000Y-45556250D02*
X31475000Y-44643750D01*
G75*
G02*
X31718750Y-44400000I243750J0D01*
G01*
X32206250Y-44400000D01*
G75*
G02*
X32450000Y-44643750I0J-243750D01*
G01*
X32450000Y-45556250D01*
G75*
G02*
X32206250Y-45800000I-243750J0D01*
G01*
X31718750Y-45800000D01*
G75*
G02*
X31475000Y-45556250I0J243750D01*
G01*
G37*
G04 #@! TD.AperFunction*
G04 #@! TA.AperFunction,SMDPad,CuDef*
G36*
G01*
X29550000Y-13043750D02*
X29550000Y-13956250D01*
G75*
G02*
X29306250Y-14200000I-243750J0D01*
G01*
X28818750Y-14200000D01*
G75*
G02*
X28575000Y-13956250I0J243750D01*
G01*
X28575000Y-13043750D01*
G75*
G02*
X28818750Y-12800000I243750J0D01*
G01*
X29306250Y-12800000D01*
G75*
G02*
X29550000Y-13043750I0J-243750D01*
G01*
G37*
G04 #@! TD.AperFunction*
G04 #@! TA.AperFunction,SMDPad,CuDef*
G36*
G01*
X31425000Y-13043750D02*
X31425000Y-13956250D01*
G75*
G02*
X31181250Y-14200000I-243750J0D01*
G01*
X30693750Y-14200000D01*
G75*
G02*
X30450000Y-13956250I0J243750D01*
G01*
X30450000Y-13043750D01*
G75*
G02*
X30693750Y-12800000I243750J0D01*
G01*
X31181250Y-12800000D01*
G75*
G02*
X31425000Y-13043750I0J-243750D01*
G01*
G37*
G04 #@! TD.AperFunction*
G04 #@! TA.AperFunction,SMDPad,CuDef*
G36*
G01*
X31450000Y-10793750D02*
X31450000Y-11706250D01*
G75*
G02*
X31206250Y-11950000I-243750J0D01*
G01*
X30718750Y-11950000D01*
G75*
G02*
X30475000Y-11706250I0J243750D01*
G01*
X30475000Y-10793750D01*
G75*
G02*
X30718750Y-10550000I243750J0D01*
G01*
X31206250Y-10550000D01*
G75*
G02*
X31450000Y-10793750I0J-243750D01*
G01*
G37*
G04 #@! TD.AperFunction*
G04 #@! TA.AperFunction,SMDPad,CuDef*
G36*
G01*
X33325000Y-10793750D02*
X33325000Y-11706250D01*
G75*
G02*
X33081250Y-11950000I-243750J0D01*
G01*
X32593750Y-11950000D01*
G75*
G02*
X32350000Y-11706250I0J243750D01*
G01*
X32350000Y-10793750D01*
G75*
G02*
X32593750Y-10550000I243750J0D01*
G01*
X33081250Y-10550000D01*
G75*
G02*
X33325000Y-10793750I0J-243750D01*
G01*
G37*
G04 #@! TD.AperFunction*
G04 #@! TA.AperFunction,SMDPad,CuDef*
G36*
G01*
X39775000Y-40375000D02*
X41025000Y-40375000D01*
G75*
G02*
X41275000Y-40625000I0J-250000D01*
G01*
X41275000Y-41375000D01*
G75*
G02*
X41025000Y-41625000I-250000J0D01*
G01*
X39775000Y-41625000D01*
G75*
G02*
X39525000Y-41375000I0J250000D01*
G01*
X39525000Y-40625000D01*
G75*
G02*
X39775000Y-40375000I250000J0D01*
G01*
G37*
G04 #@! TD.AperFunction*
G04 #@! TA.AperFunction,SMDPad,CuDef*
G36*
G01*
X39775000Y-37575000D02*
X41025000Y-37575000D01*
G75*
G02*
X41275000Y-37825000I0J-250000D01*
G01*
X41275000Y-38575000D01*
G75*
G02*
X41025000Y-38825000I-250000J0D01*
G01*
X39775000Y-38825000D01*
G75*
G02*
X39525000Y-38575000I0J250000D01*
G01*
X39525000Y-37825000D01*
G75*
G02*
X39775000Y-37575000I250000J0D01*
G01*
G37*
G04 #@! TD.AperFunction*
G04 #@! TA.AperFunction,SMDPad,CuDef*
G36*
G01*
X35875000Y-5475000D02*
X34625000Y-5475000D01*
G75*
G02*
X34375000Y-5225000I0J250000D01*
G01*
X34375000Y-4475000D01*
G75*
G02*
X34625000Y-4225000I250000J0D01*
G01*
X35875000Y-4225000D01*
G75*
G02*
X36125000Y-4475000I0J-250000D01*
G01*
X36125000Y-5225000D01*
G75*
G02*
X35875000Y-5475000I-250000J0D01*
G01*
G37*
G04 #@! TD.AperFunction*
G04 #@! TA.AperFunction,SMDPad,CuDef*
G36*
G01*
X35875000Y-8275000D02*
X34625000Y-8275000D01*
G75*
G02*
X34375000Y-8025000I0J250000D01*
G01*
X34375000Y-7275000D01*
G75*
G02*
X34625000Y-7025000I250000J0D01*
G01*
X35875000Y-7025000D01*
G75*
G02*
X36125000Y-7275000I0J-250000D01*
G01*
X36125000Y-8025000D01*
G75*
G02*
X35875000Y-8275000I-250000J0D01*
G01*
G37*
G04 #@! TD.AperFunction*
G04 #@! TA.AperFunction,SMDPad,CuDef*
G36*
G01*
X28207000Y-38217000D02*
X28207000Y-36967000D01*
G75*
G02*
X28457000Y-36717000I250000J0D01*
G01*
X29207000Y-36717000D01*
G75*
G02*
X29457000Y-36967000I0J-250000D01*
G01*
X29457000Y-38217000D01*
G75*
G02*
X29207000Y-38467000I-250000J0D01*
G01*
X28457000Y-38467000D01*
G75*
G02*
X28207000Y-38217000I0J250000D01*
G01*
G37*
G04 #@! TD.AperFunction*
G04 #@! TA.AperFunction,SMDPad,CuDef*
G36*
G01*
X25407000Y-38217000D02*
X25407000Y-36967000D01*
G75*
G02*
X25657000Y-36717000I250000J0D01*
G01*
X26407000Y-36717000D01*
G75*
G02*
X26657000Y-36967000I0J-250000D01*
G01*
X26657000Y-38217000D01*
G75*
G02*
X26407000Y-38467000I-250000J0D01*
G01*
X25657000Y-38467000D01*
G75*
G02*
X25407000Y-38217000I0J250000D01*
G01*
G37*
G04 #@! TD.AperFunction*
G04 #@! TA.AperFunction,SMDPad,CuDef*
G36*
G01*
X24875000Y-7025000D02*
X26125000Y-7025000D01*
G75*
G02*
X26375000Y-7275000I0J-250000D01*
G01*
X26375000Y-8025000D01*
G75*
G02*
X26125000Y-8275000I-250000J0D01*
G01*
X24875000Y-8275000D01*
G75*
G02*
X24625000Y-8025000I0J250000D01*
G01*
X24625000Y-7275000D01*
G75*
G02*
X24875000Y-7025000I250000J0D01*
G01*
G37*
G04 #@! TD.AperFunction*
G04 #@! TA.AperFunction,SMDPad,CuDef*
G36*
G01*
X24875000Y-4225000D02*
X26125000Y-4225000D01*
G75*
G02*
X26375000Y-4475000I0J-250000D01*
G01*
X26375000Y-5225000D01*
G75*
G02*
X26125000Y-5475000I-250000J0D01*
G01*
X24875000Y-5475000D01*
G75*
G02*
X24625000Y-5225000I0J250000D01*
G01*
X24625000Y-4475000D01*
G75*
G02*
X24875000Y-4225000I250000J0D01*
G01*
G37*
G04 #@! TD.AperFunction*
D24*
X28300000Y-15500000D03*
X30100000Y-15500000D03*
X28300000Y-4800000D03*
X12217400Y-4343400D03*
X5486400Y-4013200D03*
D25*
X29438600Y-8255000D03*
X29489400Y-7239000D03*
X29464000Y-9220200D03*
D24*
X29413200Y-10642600D03*
X29387800Y-5969000D03*
X28295600Y-17018000D03*
X28270200Y-21818600D03*
X28321000Y-24333200D03*
X28321000Y-27432000D03*
X28295600Y-30327600D03*
X28244800Y-33553400D03*
X28930600Y-39446200D03*
D25*
X31771200Y-40771200D03*
X31724600Y-39547800D03*
X30759400Y-39522400D03*
X29921200Y-39522400D03*
D24*
X30302200Y-45085000D03*
X25247600Y-45034200D03*
X25120600Y-50901600D03*
X30276800Y-50927000D03*
X43967400Y-33604200D03*
X43891200Y-29311600D03*
X43840400Y-18237200D03*
X43764200Y-25171400D03*
X16637000Y-4419600D03*
X22098000Y-4419600D03*
X31800800Y-4470400D03*
X33502600Y-22809200D03*
X33426400Y-27940000D03*
X33426400Y-32664400D03*
D26*
X29050000Y-8250000D02*
X29600000Y-7700000D01*
X28190000Y-8250000D02*
X29050000Y-8250000D01*
D27*
X29280000Y-40350000D02*
X27900000Y-38970000D01*
X30490000Y-40350000D02*
X29280000Y-40350000D01*
X28275000Y-37300000D02*
X28900000Y-37300000D01*
X27900000Y-37675000D02*
X28275000Y-37300000D01*
X27900000Y-38970000D02*
X27900000Y-37675000D01*
D26*
X31962500Y-40962500D02*
X31962500Y-42992900D01*
X31962500Y-44400000D02*
X31962500Y-45100000D01*
X31350000Y-40350000D02*
X31771200Y-40771200D01*
X30490000Y-40350000D02*
X31350000Y-40350000D01*
X31771200Y-40771200D02*
X31962500Y-40962500D01*
X31962500Y-42992900D02*
X31962500Y-44400000D01*
D28*
X5334000Y-33528000D02*
X10922000Y-27940000D01*
X10922000Y-27940000D02*
X13970000Y-27940000D01*
X16256000Y-23114000D02*
X17272000Y-23114000D01*
X15494000Y-23876000D02*
X16256000Y-23114000D01*
X15494000Y-26416000D02*
X15494000Y-23876000D01*
X13970000Y-27940000D02*
X15494000Y-26416000D01*
X10922000Y-21336000D02*
X5334000Y-15748000D01*
X10922000Y-27940000D02*
X10922000Y-21336000D01*
D26*
X6582000Y-50810000D02*
X5324000Y-50810000D01*
X9017000Y-53245000D02*
X6582000Y-50810000D01*
X9017000Y-55245000D02*
X9017000Y-54962998D01*
X5324000Y-51810000D02*
X6598000Y-51810000D01*
X6598000Y-51810000D02*
X7620000Y-52832000D01*
X7620000Y-52832000D02*
X7620000Y-54038500D01*
X8826500Y-55245000D02*
X9017000Y-55245000D01*
X7620000Y-54038500D02*
X8826500Y-55245000D01*
X30937500Y-11375000D02*
X30812500Y-11250000D01*
X30812500Y-9202500D02*
X30810000Y-9200000D01*
D27*
X32037500Y-14600000D02*
X30937500Y-13500000D01*
X32762500Y-14600000D02*
X32037500Y-14600000D01*
X30937500Y-11275000D02*
X30962500Y-11250000D01*
X30937500Y-13500000D02*
X30937500Y-11275000D01*
X30962500Y-9352500D02*
X30810000Y-9200000D01*
X30962500Y-11250000D02*
X30962500Y-9352500D01*
D29*
X26687500Y-11250000D02*
X26687500Y-10702500D01*
D26*
X27887500Y-42250000D02*
X27600000Y-42537500D01*
D28*
X17048000Y-7590000D02*
X17272000Y-7366000D01*
X8652500Y-7302500D02*
X8250000Y-6900000D01*
X17081500Y-7302500D02*
X8652500Y-7302500D01*
X8250000Y-10292000D02*
X5334000Y-13208000D01*
X8250000Y-6900000D02*
X8250000Y-10292000D01*
X18542000Y-13208000D02*
X17048000Y-13208000D01*
X20574000Y-13208000D02*
X18542000Y-13208000D01*
X17048000Y-7336000D02*
X17081500Y-7302500D01*
X17048000Y-13208000D02*
X17048000Y-7336000D01*
X13970000Y-16383000D02*
X17048000Y-13208000D01*
X13970000Y-25400000D02*
X13970000Y-16383000D01*
X8382000Y-36068000D02*
X13970000Y-30480000D01*
X5334000Y-36068000D02*
X8382000Y-36068000D01*
X13970000Y-30480000D02*
X19304000Y-30480000D01*
X26162000Y-30610000D02*
X26032000Y-30480000D01*
X23622000Y-33020000D02*
X23622000Y-30480000D01*
X20574000Y-36068000D02*
X23622000Y-33020000D01*
X23622000Y-30480000D02*
X19304000Y-30480000D01*
X23876000Y-30734000D02*
X23622000Y-30480000D01*
X26098500Y-30734000D02*
X23876000Y-30734000D01*
X26098500Y-19501500D02*
X26100000Y-19500000D01*
X26098500Y-30734000D02*
X26098500Y-19501500D01*
X18346000Y-19500000D02*
X17272000Y-20574000D01*
X26100000Y-19500000D02*
X18346000Y-19500000D01*
D27*
X30810000Y-7300000D02*
X30810000Y-7310000D01*
X33110000Y-40350000D02*
X33250000Y-40350000D01*
X34637500Y-14600000D02*
X36562500Y-14600000D01*
X37737500Y-43200000D02*
X38000000Y-42937500D01*
X37737500Y-45100000D02*
X37737500Y-43200000D01*
D29*
X33162500Y-42302500D02*
X33110000Y-42250000D01*
D27*
X33837500Y-45100000D02*
X35862500Y-45100000D01*
D29*
X3524500Y-44450000D02*
X3524500Y-38449000D01*
X3524500Y-38449000D02*
X4635500Y-37338000D01*
X4635500Y-37338000D02*
X9906000Y-37338000D01*
X13970000Y-33274000D02*
X17272000Y-33274000D01*
X9906000Y-37338000D02*
X13970000Y-33274000D01*
D27*
X6000000Y-48582000D02*
X6250000Y-48582000D01*
X5000000Y-48582000D02*
X6000000Y-48582000D01*
X3000000Y-53257000D02*
X3000000Y-49407000D01*
X5000000Y-54082000D02*
X3825000Y-54082000D01*
X3000000Y-49407000D02*
X3825000Y-48582000D01*
X3825000Y-48582000D02*
X5000000Y-48582000D01*
X3825000Y-54082000D02*
X3000000Y-53257000D01*
D28*
X15858500Y-44386500D02*
X16256000Y-44784000D01*
X11115500Y-44386500D02*
X15858500Y-44386500D01*
X6920000Y-48582000D02*
X11115500Y-44386500D01*
X6000000Y-48582000D02*
X6920000Y-48582000D01*
D27*
X5324000Y-54060000D02*
X6181000Y-54060000D01*
D28*
X20066000Y-38608000D02*
X17272000Y-35814000D01*
X20574000Y-38608000D02*
X20066000Y-38608000D01*
X16256000Y-35814000D02*
X13970000Y-38100000D01*
X17272000Y-35814000D02*
X16256000Y-35814000D01*
X20574000Y-45466000D02*
X20574000Y-38608000D01*
X16256000Y-49784000D02*
X20574000Y-45466000D01*
X5524500Y-38798500D02*
X5334000Y-38608000D01*
X5524500Y-44450000D02*
X5524500Y-38798500D01*
X5588000Y-44386500D02*
X5524500Y-44450000D01*
X8315500Y-44386500D02*
X5588000Y-44386500D01*
D27*
X4149000Y-52830000D02*
X4000500Y-52681500D01*
X5324000Y-52830000D02*
X4149000Y-52830000D01*
X4518998Y-49790000D02*
X5324000Y-49790000D01*
X4000500Y-50308498D02*
X4518998Y-49790000D01*
X4000500Y-52681500D02*
X4000500Y-50308498D01*
X5324000Y-49790000D02*
X8503000Y-49790000D01*
D28*
X16250000Y-49790000D02*
X16256000Y-49784000D01*
X8503000Y-49790000D02*
X16250000Y-49790000D01*
D27*
X5324000Y-52830000D02*
X6221000Y-52830000D01*
X25850000Y-7300000D02*
X25500000Y-7650000D01*
X28190000Y-7300000D02*
X25850000Y-7300000D01*
D29*
X24812500Y-8337500D02*
X25500000Y-7650000D01*
X24812500Y-11250000D02*
X24812500Y-8337500D01*
D28*
X25152500Y-7302500D02*
X25500000Y-7650000D01*
X19081500Y-7302500D02*
X25152500Y-7302500D01*
D27*
X27700000Y-40562500D02*
X27600000Y-40662500D01*
X28237500Y-41300000D02*
X30490000Y-41300000D01*
X27600000Y-40662500D02*
X28237500Y-41300000D01*
D28*
X26032000Y-39094500D02*
X26032000Y-37592000D01*
X27600000Y-40662500D02*
X26032000Y-39094500D01*
X26032000Y-32800500D02*
X26098500Y-32734000D01*
X26032000Y-37592000D02*
X26032000Y-32800500D01*
D30*
X37683871Y-3141866D02*
X37759533Y-3180418D01*
X37819582Y-3240467D01*
X37858134Y-3316129D01*
X37873000Y-3409992D01*
X37873000Y-5840008D01*
X37858134Y-5933871D01*
X37819582Y-6009533D01*
X37759533Y-6069582D01*
X37683871Y-6108134D01*
X37590008Y-6123000D01*
X9419327Y-6123000D01*
X9355172Y-6044828D01*
X9252269Y-5960377D01*
X9134867Y-5897625D01*
X9007479Y-5858982D01*
X8875000Y-5845934D01*
X7625000Y-5845934D01*
X7492521Y-5858982D01*
X7365133Y-5897625D01*
X7247731Y-5960377D01*
X7144828Y-6044828D01*
X7080673Y-6123000D01*
X4909992Y-6123000D01*
X4816129Y-6108134D01*
X4740467Y-6069582D01*
X4680418Y-6009533D01*
X4641866Y-5933871D01*
X4627000Y-5840008D01*
X4627000Y-5475000D01*
X24296418Y-5475000D01*
X24302732Y-5539103D01*
X24321430Y-5600743D01*
X24351794Y-5657550D01*
X24392657Y-5707343D01*
X24442450Y-5748206D01*
X24499257Y-5778570D01*
X24560897Y-5797268D01*
X24625000Y-5803582D01*
X25345250Y-5802000D01*
X25427000Y-5720250D01*
X25427000Y-4923000D01*
X25573000Y-4923000D01*
X25573000Y-5720250D01*
X25654750Y-5802000D01*
X26375000Y-5803582D01*
X26439103Y-5797268D01*
X26500743Y-5778570D01*
X26557550Y-5748206D01*
X26607343Y-5707343D01*
X26648206Y-5657550D01*
X26678570Y-5600743D01*
X26697268Y-5539103D01*
X26703582Y-5475000D01*
X34046418Y-5475000D01*
X34052732Y-5539103D01*
X34071430Y-5600743D01*
X34101794Y-5657550D01*
X34142657Y-5707343D01*
X34192450Y-5748206D01*
X34249257Y-5778570D01*
X34310897Y-5797268D01*
X34375000Y-5803582D01*
X35095250Y-5802000D01*
X35177000Y-5720250D01*
X35177000Y-4923000D01*
X35323000Y-4923000D01*
X35323000Y-5720250D01*
X35404750Y-5802000D01*
X36125000Y-5803582D01*
X36189103Y-5797268D01*
X36250743Y-5778570D01*
X36307550Y-5748206D01*
X36357343Y-5707343D01*
X36398206Y-5657550D01*
X36428570Y-5600743D01*
X36447268Y-5539103D01*
X36453582Y-5475000D01*
X36452000Y-5004750D01*
X36370250Y-4923000D01*
X35323000Y-4923000D01*
X35177000Y-4923000D01*
X34129750Y-4923000D01*
X34048000Y-5004750D01*
X34046418Y-5475000D01*
X26703582Y-5475000D01*
X26702000Y-5004750D01*
X26620250Y-4923000D01*
X25573000Y-4923000D01*
X25427000Y-4923000D01*
X24379750Y-4923000D01*
X24298000Y-5004750D01*
X24296418Y-5475000D01*
X4627000Y-5475000D01*
X4627000Y-4725000D01*
X7046418Y-4725000D01*
X7052732Y-4789103D01*
X7071430Y-4850743D01*
X7101794Y-4907550D01*
X7142657Y-4957343D01*
X7192450Y-4998206D01*
X7249257Y-5028570D01*
X7310897Y-5047268D01*
X7375000Y-5053582D01*
X8095250Y-5052000D01*
X8177000Y-4970250D01*
X8177000Y-4173000D01*
X8323000Y-4173000D01*
X8323000Y-4970250D01*
X8404750Y-5052000D01*
X9125000Y-5053582D01*
X9189103Y-5047268D01*
X9250743Y-5028570D01*
X9307550Y-4998206D01*
X9357343Y-4957343D01*
X9398206Y-4907550D01*
X9428570Y-4850743D01*
X9447268Y-4789103D01*
X9453582Y-4725000D01*
X9452000Y-4254750D01*
X9422250Y-4225000D01*
X24296418Y-4225000D01*
X24298000Y-4695250D01*
X24379750Y-4777000D01*
X25427000Y-4777000D01*
X25427000Y-3979750D01*
X25573000Y-3979750D01*
X25573000Y-4777000D01*
X26620250Y-4777000D01*
X26702000Y-4695250D01*
X26703582Y-4225000D01*
X34046418Y-4225000D01*
X34048000Y-4695250D01*
X34129750Y-4777000D01*
X35177000Y-4777000D01*
X35177000Y-3979750D01*
X35323000Y-3979750D01*
X35323000Y-4777000D01*
X36370250Y-4777000D01*
X36452000Y-4695250D01*
X36453582Y-4225000D01*
X36447268Y-4160897D01*
X36428570Y-4099257D01*
X36398206Y-4042450D01*
X36357343Y-3992657D01*
X36307550Y-3951794D01*
X36250743Y-3921430D01*
X36189103Y-3902732D01*
X36125000Y-3896418D01*
X35404750Y-3898000D01*
X35323000Y-3979750D01*
X35177000Y-3979750D01*
X35095250Y-3898000D01*
X34375000Y-3896418D01*
X34310897Y-3902732D01*
X34249257Y-3921430D01*
X34192450Y-3951794D01*
X34142657Y-3992657D01*
X34101794Y-4042450D01*
X34071430Y-4099257D01*
X34052732Y-4160897D01*
X34046418Y-4225000D01*
X26703582Y-4225000D01*
X26697268Y-4160897D01*
X26678570Y-4099257D01*
X26648206Y-4042450D01*
X26607343Y-3992657D01*
X26557550Y-3951794D01*
X26500743Y-3921430D01*
X26439103Y-3902732D01*
X26375000Y-3896418D01*
X25654750Y-3898000D01*
X25573000Y-3979750D01*
X25427000Y-3979750D01*
X25345250Y-3898000D01*
X24625000Y-3896418D01*
X24560897Y-3902732D01*
X24499257Y-3921430D01*
X24442450Y-3951794D01*
X24392657Y-3992657D01*
X24351794Y-4042450D01*
X24321430Y-4099257D01*
X24302732Y-4160897D01*
X24296418Y-4225000D01*
X9422250Y-4225000D01*
X9370250Y-4173000D01*
X8323000Y-4173000D01*
X8177000Y-4173000D01*
X7129750Y-4173000D01*
X7048000Y-4254750D01*
X7046418Y-4725000D01*
X4627000Y-4725000D01*
X4627000Y-3475000D01*
X7046418Y-3475000D01*
X7048000Y-3945250D01*
X7129750Y-4027000D01*
X8177000Y-4027000D01*
X8177000Y-3229750D01*
X8323000Y-3229750D01*
X8323000Y-4027000D01*
X9370250Y-4027000D01*
X9452000Y-3945250D01*
X9453582Y-3475000D01*
X9447268Y-3410897D01*
X9428570Y-3349257D01*
X9398206Y-3292450D01*
X9357343Y-3242657D01*
X9307550Y-3201794D01*
X9250743Y-3171430D01*
X9189103Y-3152732D01*
X9125000Y-3146418D01*
X8404750Y-3148000D01*
X8323000Y-3229750D01*
X8177000Y-3229750D01*
X8095250Y-3148000D01*
X7375000Y-3146418D01*
X7310897Y-3152732D01*
X7249257Y-3171430D01*
X7192450Y-3201794D01*
X7142657Y-3242657D01*
X7101794Y-3292450D01*
X7071430Y-3349257D01*
X7052732Y-3410897D01*
X7046418Y-3475000D01*
X4627000Y-3475000D01*
X4627000Y-3409992D01*
X4641866Y-3316129D01*
X4680418Y-3240467D01*
X4740467Y-3180418D01*
X4816129Y-3141866D01*
X4909992Y-3127000D01*
X37590008Y-3127000D01*
X37683871Y-3141866D01*
G04 #@! TA.AperFunction,Conductor*
D31*
G36*
X37683871Y-3141866D02*
G01*
X37759533Y-3180418D01*
X37819582Y-3240467D01*
X37858134Y-3316129D01*
X37873000Y-3409992D01*
X37873000Y-5840008D01*
X37858134Y-5933871D01*
X37819582Y-6009533D01*
X37759533Y-6069582D01*
X37683871Y-6108134D01*
X37590008Y-6123000D01*
X9419327Y-6123000D01*
X9355172Y-6044828D01*
X9252269Y-5960377D01*
X9134867Y-5897625D01*
X9007479Y-5858982D01*
X8875000Y-5845934D01*
X7625000Y-5845934D01*
X7492521Y-5858982D01*
X7365133Y-5897625D01*
X7247731Y-5960377D01*
X7144828Y-6044828D01*
X7080673Y-6123000D01*
X4909992Y-6123000D01*
X4816129Y-6108134D01*
X4740467Y-6069582D01*
X4680418Y-6009533D01*
X4641866Y-5933871D01*
X4627000Y-5840008D01*
X4627000Y-5475000D01*
X24296418Y-5475000D01*
X24302732Y-5539103D01*
X24321430Y-5600743D01*
X24351794Y-5657550D01*
X24392657Y-5707343D01*
X24442450Y-5748206D01*
X24499257Y-5778570D01*
X24560897Y-5797268D01*
X24625000Y-5803582D01*
X25345250Y-5802000D01*
X25427000Y-5720250D01*
X25427000Y-4923000D01*
X25573000Y-4923000D01*
X25573000Y-5720250D01*
X25654750Y-5802000D01*
X26375000Y-5803582D01*
X26439103Y-5797268D01*
X26500743Y-5778570D01*
X26557550Y-5748206D01*
X26607343Y-5707343D01*
X26648206Y-5657550D01*
X26678570Y-5600743D01*
X26697268Y-5539103D01*
X26703582Y-5475000D01*
X34046418Y-5475000D01*
X34052732Y-5539103D01*
X34071430Y-5600743D01*
X34101794Y-5657550D01*
X34142657Y-5707343D01*
X34192450Y-5748206D01*
X34249257Y-5778570D01*
X34310897Y-5797268D01*
X34375000Y-5803582D01*
X35095250Y-5802000D01*
X35177000Y-5720250D01*
X35177000Y-4923000D01*
X35323000Y-4923000D01*
X35323000Y-5720250D01*
X35404750Y-5802000D01*
X36125000Y-5803582D01*
X36189103Y-5797268D01*
X36250743Y-5778570D01*
X36307550Y-5748206D01*
X36357343Y-5707343D01*
X36398206Y-5657550D01*
X36428570Y-5600743D01*
X36447268Y-5539103D01*
X36453582Y-5475000D01*
X36452000Y-5004750D01*
X36370250Y-4923000D01*
X35323000Y-4923000D01*
X35177000Y-4923000D01*
X34129750Y-4923000D01*
X34048000Y-5004750D01*
X34046418Y-5475000D01*
X26703582Y-5475000D01*
X26702000Y-5004750D01*
X26620250Y-4923000D01*
X25573000Y-4923000D01*
X25427000Y-4923000D01*
X24379750Y-4923000D01*
X24298000Y-5004750D01*
X24296418Y-5475000D01*
X4627000Y-5475000D01*
X4627000Y-4725000D01*
X7046418Y-4725000D01*
X7052732Y-4789103D01*
X7071430Y-4850743D01*
X7101794Y-4907550D01*
X7142657Y-4957343D01*
X7192450Y-4998206D01*
X7249257Y-5028570D01*
X7310897Y-5047268D01*
X7375000Y-5053582D01*
X8095250Y-5052000D01*
X8177000Y-4970250D01*
X8177000Y-4173000D01*
X8323000Y-4173000D01*
X8323000Y-4970250D01*
X8404750Y-5052000D01*
X9125000Y-5053582D01*
X9189103Y-5047268D01*
X9250743Y-5028570D01*
X9307550Y-4998206D01*
X9357343Y-4957343D01*
X9398206Y-4907550D01*
X9428570Y-4850743D01*
X9447268Y-4789103D01*
X9453582Y-4725000D01*
X9452000Y-4254750D01*
X9422250Y-4225000D01*
X24296418Y-4225000D01*
X24298000Y-4695250D01*
X24379750Y-4777000D01*
X25427000Y-4777000D01*
X25427000Y-3979750D01*
X25573000Y-3979750D01*
X25573000Y-4777000D01*
X26620250Y-4777000D01*
X26702000Y-4695250D01*
X26703582Y-4225000D01*
X34046418Y-4225000D01*
X34048000Y-4695250D01*
X34129750Y-4777000D01*
X35177000Y-4777000D01*
X35177000Y-3979750D01*
X35323000Y-3979750D01*
X35323000Y-4777000D01*
X36370250Y-4777000D01*
X36452000Y-4695250D01*
X36453582Y-4225000D01*
X36447268Y-4160897D01*
X36428570Y-4099257D01*
X36398206Y-4042450D01*
X36357343Y-3992657D01*
X36307550Y-3951794D01*
X36250743Y-3921430D01*
X36189103Y-3902732D01*
X36125000Y-3896418D01*
X35404750Y-3898000D01*
X35323000Y-3979750D01*
X35177000Y-3979750D01*
X35095250Y-3898000D01*
X34375000Y-3896418D01*
X34310897Y-3902732D01*
X34249257Y-3921430D01*
X34192450Y-3951794D01*
X34142657Y-3992657D01*
X34101794Y-4042450D01*
X34071430Y-4099257D01*
X34052732Y-4160897D01*
X34046418Y-4225000D01*
X26703582Y-4225000D01*
X26697268Y-4160897D01*
X26678570Y-4099257D01*
X26648206Y-4042450D01*
X26607343Y-3992657D01*
X26557550Y-3951794D01*
X26500743Y-3921430D01*
X26439103Y-3902732D01*
X26375000Y-3896418D01*
X25654750Y-3898000D01*
X25573000Y-3979750D01*
X25427000Y-3979750D01*
X25345250Y-3898000D01*
X24625000Y-3896418D01*
X24560897Y-3902732D01*
X24499257Y-3921430D01*
X24442450Y-3951794D01*
X24392657Y-3992657D01*
X24351794Y-4042450D01*
X24321430Y-4099257D01*
X24302732Y-4160897D01*
X24296418Y-4225000D01*
X9422250Y-4225000D01*
X9370250Y-4173000D01*
X8323000Y-4173000D01*
X8177000Y-4173000D01*
X7129750Y-4173000D01*
X7048000Y-4254750D01*
X7046418Y-4725000D01*
X4627000Y-4725000D01*
X4627000Y-3475000D01*
X7046418Y-3475000D01*
X7048000Y-3945250D01*
X7129750Y-4027000D01*
X8177000Y-4027000D01*
X8177000Y-3229750D01*
X8323000Y-3229750D01*
X8323000Y-4027000D01*
X9370250Y-4027000D01*
X9452000Y-3945250D01*
X9453582Y-3475000D01*
X9447268Y-3410897D01*
X9428570Y-3349257D01*
X9398206Y-3292450D01*
X9357343Y-3242657D01*
X9307550Y-3201794D01*
X9250743Y-3171430D01*
X9189103Y-3152732D01*
X9125000Y-3146418D01*
X8404750Y-3148000D01*
X8323000Y-3229750D01*
X8177000Y-3229750D01*
X8095250Y-3148000D01*
X7375000Y-3146418D01*
X7310897Y-3152732D01*
X7249257Y-3171430D01*
X7192450Y-3201794D01*
X7142657Y-3242657D01*
X7101794Y-3292450D01*
X7071430Y-3349257D01*
X7052732Y-3410897D01*
X7046418Y-3475000D01*
X4627000Y-3475000D01*
X4627000Y-3409992D01*
X4641866Y-3316129D01*
X4680418Y-3240467D01*
X4740467Y-3180418D01*
X4816129Y-3141866D01*
X4909992Y-3127000D01*
X37590008Y-3127000D01*
X37683871Y-3141866D01*
G37*
G04 #@! TD.AperFunction*
D32*
X45692319Y-6715868D02*
X45775602Y-6758303D01*
X45841697Y-6824398D01*
X45884132Y-6907681D01*
X45900000Y-7007871D01*
X45900000Y-15092129D01*
X45884132Y-15192319D01*
X45841697Y-15275602D01*
X45775602Y-15341697D01*
X45692319Y-15384132D01*
X45592129Y-15400000D01*
X39208165Y-15400000D01*
X39220660Y-15358810D01*
X39226452Y-15300000D01*
X39225000Y-14825000D01*
X39150000Y-14750000D01*
X38587500Y-14750000D01*
X38587500Y-14770000D01*
X38287500Y-14770000D01*
X38287500Y-14750000D01*
X37725000Y-14750000D01*
X37650000Y-14825000D01*
X37648548Y-15300000D01*
X37654340Y-15358810D01*
X37666835Y-15400000D01*
X37351120Y-15400000D01*
X37402785Y-15303343D01*
X37439528Y-15182217D01*
X37451935Y-15056250D01*
X37451935Y-14143750D01*
X37439528Y-14017783D01*
X37403800Y-13900000D01*
X37648548Y-13900000D01*
X37650000Y-14375000D01*
X37725000Y-14450000D01*
X38287500Y-14450000D01*
X38287500Y-13675000D01*
X38587500Y-13675000D01*
X38587500Y-14450000D01*
X39150000Y-14450000D01*
X39225000Y-14375000D01*
X39226452Y-13900000D01*
X39220660Y-13841190D01*
X39203505Y-13784639D01*
X39175648Y-13732522D01*
X39138159Y-13686841D01*
X39092478Y-13649352D01*
X39040361Y-13621495D01*
X38983810Y-13604340D01*
X38925000Y-13598548D01*
X38662500Y-13600000D01*
X38587500Y-13675000D01*
X38287500Y-13675000D01*
X38212500Y-13600000D01*
X37950000Y-13598548D01*
X37891190Y-13604340D01*
X37834639Y-13621495D01*
X37782522Y-13649352D01*
X37736841Y-13686841D01*
X37699352Y-13732522D01*
X37671495Y-13784639D01*
X37654340Y-13841190D01*
X37648548Y-13900000D01*
X37403800Y-13900000D01*
X37402785Y-13896657D01*
X37343117Y-13785027D01*
X37262818Y-13687182D01*
X37164973Y-13606883D01*
X37053343Y-13547215D01*
X36932217Y-13510472D01*
X36806250Y-13498065D01*
X36318750Y-13498065D01*
X36192783Y-13510472D01*
X36071657Y-13547215D01*
X35960027Y-13606883D01*
X35862182Y-13687182D01*
X35781883Y-13785027D01*
X35722215Y-13896657D01*
X35721201Y-13900000D01*
X35478799Y-13900000D01*
X35477785Y-13896657D01*
X35418117Y-13785027D01*
X35337818Y-13687182D01*
X35239973Y-13606883D01*
X35128343Y-13547215D01*
X35007217Y-13510472D01*
X34881250Y-13498065D01*
X34393750Y-13498065D01*
X34267783Y-13510472D01*
X34146657Y-13547215D01*
X34035027Y-13606883D01*
X33937182Y-13687182D01*
X33891374Y-13743000D01*
X33508626Y-13743000D01*
X33462818Y-13687182D01*
X33364973Y-13606883D01*
X33253343Y-13547215D01*
X33132217Y-13510472D01*
X33006250Y-13498065D01*
X32518750Y-13498065D01*
X32392783Y-13510472D01*
X32271657Y-13547215D01*
X32160027Y-13606883D01*
X32090990Y-13663540D01*
X31826935Y-13399486D01*
X31826935Y-13043750D01*
X31814528Y-12917783D01*
X31800000Y-12869890D01*
X31800000Y-11958553D01*
X31802785Y-11953343D01*
X31803799Y-11950000D01*
X32048548Y-11950000D01*
X32054340Y-12008810D01*
X32071495Y-12065361D01*
X32099352Y-12117478D01*
X32136841Y-12163159D01*
X32182522Y-12200648D01*
X32234639Y-12228505D01*
X32291190Y-12245660D01*
X32350000Y-12251452D01*
X32612500Y-12250000D01*
X32687500Y-12175000D01*
X32687500Y-11400000D01*
X32987500Y-11400000D01*
X32987500Y-12175000D01*
X33062500Y-12250000D01*
X33325000Y-12251452D01*
X33383810Y-12245660D01*
X33440361Y-12228505D01*
X33492478Y-12200648D01*
X33529981Y-12169870D01*
X34842262Y-12169870D01*
X34958916Y-12337571D01*
X35193164Y-12440782D01*
X35443046Y-12496311D01*
X35698960Y-12502023D01*
X35951070Y-12457698D01*
X36189689Y-12365042D01*
X36241084Y-12337571D01*
X36357738Y-12169870D01*
X35600000Y-11412132D01*
X34842262Y-12169870D01*
X33529981Y-12169870D01*
X33538159Y-12163159D01*
X33575648Y-12117478D01*
X33603505Y-12065361D01*
X33620660Y-12008810D01*
X33626452Y-11950000D01*
X33625000Y-11475000D01*
X33550000Y-11400000D01*
X32987500Y-11400000D01*
X32687500Y-11400000D01*
X32125000Y-11400000D01*
X32050000Y-11475000D01*
X32048548Y-11950000D01*
X31803799Y-11950000D01*
X31839528Y-11832217D01*
X31851935Y-11706250D01*
X31851935Y-11298960D01*
X34297977Y-11298960D01*
X34342302Y-11551070D01*
X34434958Y-11789689D01*
X34462429Y-11841084D01*
X34630130Y-11957738D01*
X35387868Y-11200000D01*
X35812132Y-11200000D01*
X36569870Y-11957738D01*
X36737571Y-11841084D01*
X36840782Y-11606836D01*
X36896311Y-11356954D01*
X36902023Y-11101040D01*
X36857698Y-10848930D01*
X36765042Y-10610311D01*
X36737571Y-10558916D01*
X36610084Y-10470235D01*
X43241897Y-10470235D01*
X43358613Y-10637988D01*
X43592948Y-10741250D01*
X43842925Y-10796812D01*
X44098939Y-10802538D01*
X44351150Y-10758208D01*
X44589867Y-10665526D01*
X44641387Y-10637988D01*
X44758103Y-10470235D01*
X44000000Y-9712132D01*
X43241897Y-10470235D01*
X36610084Y-10470235D01*
X36569870Y-10442262D01*
X35812132Y-11200000D01*
X35387868Y-11200000D01*
X34630130Y-10442262D01*
X34462429Y-10558916D01*
X34359218Y-10793164D01*
X34303689Y-11043046D01*
X34297977Y-11298960D01*
X31851935Y-11298960D01*
X31851935Y-10793750D01*
X31839528Y-10667783D01*
X31803800Y-10550000D01*
X32048548Y-10550000D01*
X32050000Y-11025000D01*
X32125000Y-11100000D01*
X32687500Y-11100000D01*
X32687500Y-10325000D01*
X32987500Y-10325000D01*
X32987500Y-11100000D01*
X33550000Y-11100000D01*
X33625000Y-11025000D01*
X33626452Y-10550000D01*
X33620660Y-10491190D01*
X33603505Y-10434639D01*
X33575648Y-10382522D01*
X33538159Y-10336841D01*
X33492478Y-10299352D01*
X33440361Y-10271495D01*
X33383810Y-10254340D01*
X33325000Y-10248548D01*
X33062500Y-10250000D01*
X32987500Y-10325000D01*
X32687500Y-10325000D01*
X32612500Y-10250000D01*
X32350000Y-10248548D01*
X32291190Y-10254340D01*
X32234639Y-10271495D01*
X32182522Y-10299352D01*
X32136841Y-10336841D01*
X32099352Y-10382522D01*
X32071495Y-10434639D01*
X32054340Y-10491190D01*
X32048548Y-10550000D01*
X31803800Y-10550000D01*
X31802785Y-10546657D01*
X31800000Y-10541447D01*
X31800000Y-10230130D01*
X34842262Y-10230130D01*
X35600000Y-10987868D01*
X36357738Y-10230130D01*
X36241084Y-10062429D01*
X36006836Y-9959218D01*
X35756954Y-9903689D01*
X35501040Y-9897977D01*
X35248930Y-9942302D01*
X35010311Y-10034958D01*
X34958916Y-10062429D01*
X34842262Y-10230130D01*
X31800000Y-10230130D01*
X31800000Y-9650265D01*
X31814212Y-9603414D01*
X31814652Y-9598939D01*
X42697462Y-9598939D01*
X42741792Y-9851150D01*
X42834474Y-10089867D01*
X42862012Y-10141387D01*
X43029765Y-10258103D01*
X43787868Y-9500000D01*
X44212132Y-9500000D01*
X44970235Y-10258103D01*
X45137988Y-10141387D01*
X45241250Y-9907052D01*
X45296812Y-9657075D01*
X45302538Y-9401061D01*
X45258208Y-9148850D01*
X45165526Y-8910133D01*
X45137988Y-8858613D01*
X44970235Y-8741897D01*
X44212132Y-9500000D01*
X43787868Y-9500000D01*
X43029765Y-8741897D01*
X42862012Y-8858613D01*
X42758750Y-9092948D01*
X42703188Y-9342925D01*
X42697462Y-9598939D01*
X31814652Y-9598939D01*
X31821935Y-9525000D01*
X31821935Y-8875000D01*
X31814212Y-8796586D01*
X31800000Y-8749735D01*
X31800000Y-8275000D01*
X34073548Y-8275000D01*
X34079340Y-8333810D01*
X34096495Y-8390361D01*
X34124352Y-8442478D01*
X34161841Y-8488159D01*
X34207522Y-8525648D01*
X34259639Y-8553505D01*
X34316190Y-8570660D01*
X34375000Y-8576452D01*
X35025000Y-8575000D01*
X35100000Y-8500000D01*
X35100000Y-7800000D01*
X35400000Y-7800000D01*
X35400000Y-8500000D01*
X35475000Y-8575000D01*
X36125000Y-8576452D01*
X36183810Y-8570660D01*
X36240361Y-8553505D01*
X36284775Y-8529765D01*
X43241897Y-8529765D01*
X44000000Y-9287868D01*
X44758103Y-8529765D01*
X44641387Y-8362012D01*
X44407052Y-8258750D01*
X44157075Y-8203188D01*
X43901061Y-8197462D01*
X43648850Y-8241792D01*
X43410133Y-8334474D01*
X43358613Y-8362012D01*
X43241897Y-8529765D01*
X36284775Y-8529765D01*
X36292478Y-8525648D01*
X36338159Y-8488159D01*
X36375648Y-8442478D01*
X36403505Y-8390361D01*
X36420660Y-8333810D01*
X36426452Y-8275000D01*
X36425000Y-7875000D01*
X36350000Y-7800000D01*
X35400000Y-7800000D01*
X35100000Y-7800000D01*
X34150000Y-7800000D01*
X34075000Y-7875000D01*
X34073548Y-8275000D01*
X31800000Y-8275000D01*
X31800000Y-7025000D01*
X34073548Y-7025000D01*
X34075000Y-7425000D01*
X34150000Y-7500000D01*
X35100000Y-7500000D01*
X35100000Y-6800000D01*
X35400000Y-6800000D01*
X35400000Y-7500000D01*
X36350000Y-7500000D01*
X36425000Y-7425000D01*
X36426452Y-7025000D01*
X36420660Y-6966190D01*
X36403505Y-6909639D01*
X36375648Y-6857522D01*
X36338159Y-6811841D01*
X36292478Y-6774352D01*
X36240361Y-6746495D01*
X36183810Y-6729340D01*
X36125000Y-6723548D01*
X35475000Y-6725000D01*
X35400000Y-6800000D01*
X35100000Y-6800000D01*
X35025000Y-6725000D01*
X34375000Y-6723548D01*
X34316190Y-6729340D01*
X34259639Y-6746495D01*
X34207522Y-6774352D01*
X34161841Y-6811841D01*
X34124352Y-6857522D01*
X34096495Y-6909639D01*
X34079340Y-6966190D01*
X34073548Y-7025000D01*
X31800000Y-7025000D01*
X31800000Y-7007871D01*
X31815868Y-6907681D01*
X31858303Y-6824398D01*
X31924398Y-6758303D01*
X32007681Y-6715868D01*
X32107871Y-6700000D01*
X45592129Y-6700000D01*
X45692319Y-6715868D01*
G04 #@! TA.AperFunction,Conductor*
D31*
G36*
X45692319Y-6715868D02*
G01*
X45775602Y-6758303D01*
X45841697Y-6824398D01*
X45884132Y-6907681D01*
X45900000Y-7007871D01*
X45900000Y-15092129D01*
X45884132Y-15192319D01*
X45841697Y-15275602D01*
X45775602Y-15341697D01*
X45692319Y-15384132D01*
X45592129Y-15400000D01*
X39208165Y-15400000D01*
X39220660Y-15358810D01*
X39226452Y-15300000D01*
X39225000Y-14825000D01*
X39150000Y-14750000D01*
X38587500Y-14750000D01*
X38587500Y-14770000D01*
X38287500Y-14770000D01*
X38287500Y-14750000D01*
X37725000Y-14750000D01*
X37650000Y-14825000D01*
X37648548Y-15300000D01*
X37654340Y-15358810D01*
X37666835Y-15400000D01*
X37351120Y-15400000D01*
X37402785Y-15303343D01*
X37439528Y-15182217D01*
X37451935Y-15056250D01*
X37451935Y-14143750D01*
X37439528Y-14017783D01*
X37403800Y-13900000D01*
X37648548Y-13900000D01*
X37650000Y-14375000D01*
X37725000Y-14450000D01*
X38287500Y-14450000D01*
X38287500Y-13675000D01*
X38587500Y-13675000D01*
X38587500Y-14450000D01*
X39150000Y-14450000D01*
X39225000Y-14375000D01*
X39226452Y-13900000D01*
X39220660Y-13841190D01*
X39203505Y-13784639D01*
X39175648Y-13732522D01*
X39138159Y-13686841D01*
X39092478Y-13649352D01*
X39040361Y-13621495D01*
X38983810Y-13604340D01*
X38925000Y-13598548D01*
X38662500Y-13600000D01*
X38587500Y-13675000D01*
X38287500Y-13675000D01*
X38212500Y-13600000D01*
X37950000Y-13598548D01*
X37891190Y-13604340D01*
X37834639Y-13621495D01*
X37782522Y-13649352D01*
X37736841Y-13686841D01*
X37699352Y-13732522D01*
X37671495Y-13784639D01*
X37654340Y-13841190D01*
X37648548Y-13900000D01*
X37403800Y-13900000D01*
X37402785Y-13896657D01*
X37343117Y-13785027D01*
X37262818Y-13687182D01*
X37164973Y-13606883D01*
X37053343Y-13547215D01*
X36932217Y-13510472D01*
X36806250Y-13498065D01*
X36318750Y-13498065D01*
X36192783Y-13510472D01*
X36071657Y-13547215D01*
X35960027Y-13606883D01*
X35862182Y-13687182D01*
X35781883Y-13785027D01*
X35722215Y-13896657D01*
X35721201Y-13900000D01*
X35478799Y-13900000D01*
X35477785Y-13896657D01*
X35418117Y-13785027D01*
X35337818Y-13687182D01*
X35239973Y-13606883D01*
X35128343Y-13547215D01*
X35007217Y-13510472D01*
X34881250Y-13498065D01*
X34393750Y-13498065D01*
X34267783Y-13510472D01*
X34146657Y-13547215D01*
X34035027Y-13606883D01*
X33937182Y-13687182D01*
X33891374Y-13743000D01*
X33508626Y-13743000D01*
X33462818Y-13687182D01*
X33364973Y-13606883D01*
X33253343Y-13547215D01*
X33132217Y-13510472D01*
X33006250Y-13498065D01*
X32518750Y-13498065D01*
X32392783Y-13510472D01*
X32271657Y-13547215D01*
X32160027Y-13606883D01*
X32090990Y-13663540D01*
X31826935Y-13399486D01*
X31826935Y-13043750D01*
X31814528Y-12917783D01*
X31800000Y-12869890D01*
X31800000Y-11958553D01*
X31802785Y-11953343D01*
X31803799Y-11950000D01*
X32048548Y-11950000D01*
X32054340Y-12008810D01*
X32071495Y-12065361D01*
X32099352Y-12117478D01*
X32136841Y-12163159D01*
X32182522Y-12200648D01*
X32234639Y-12228505D01*
X32291190Y-12245660D01*
X32350000Y-12251452D01*
X32612500Y-12250000D01*
X32687500Y-12175000D01*
X32687500Y-11400000D01*
X32987500Y-11400000D01*
X32987500Y-12175000D01*
X33062500Y-12250000D01*
X33325000Y-12251452D01*
X33383810Y-12245660D01*
X33440361Y-12228505D01*
X33492478Y-12200648D01*
X33529981Y-12169870D01*
X34842262Y-12169870D01*
X34958916Y-12337571D01*
X35193164Y-12440782D01*
X35443046Y-12496311D01*
X35698960Y-12502023D01*
X35951070Y-12457698D01*
X36189689Y-12365042D01*
X36241084Y-12337571D01*
X36357738Y-12169870D01*
X35600000Y-11412132D01*
X34842262Y-12169870D01*
X33529981Y-12169870D01*
X33538159Y-12163159D01*
X33575648Y-12117478D01*
X33603505Y-12065361D01*
X33620660Y-12008810D01*
X33626452Y-11950000D01*
X33625000Y-11475000D01*
X33550000Y-11400000D01*
X32987500Y-11400000D01*
X32687500Y-11400000D01*
X32125000Y-11400000D01*
X32050000Y-11475000D01*
X32048548Y-11950000D01*
X31803799Y-11950000D01*
X31839528Y-11832217D01*
X31851935Y-11706250D01*
X31851935Y-11298960D01*
X34297977Y-11298960D01*
X34342302Y-11551070D01*
X34434958Y-11789689D01*
X34462429Y-11841084D01*
X34630130Y-11957738D01*
X35387868Y-11200000D01*
X35812132Y-11200000D01*
X36569870Y-11957738D01*
X36737571Y-11841084D01*
X36840782Y-11606836D01*
X36896311Y-11356954D01*
X36902023Y-11101040D01*
X36857698Y-10848930D01*
X36765042Y-10610311D01*
X36737571Y-10558916D01*
X36610084Y-10470235D01*
X43241897Y-10470235D01*
X43358613Y-10637988D01*
X43592948Y-10741250D01*
X43842925Y-10796812D01*
X44098939Y-10802538D01*
X44351150Y-10758208D01*
X44589867Y-10665526D01*
X44641387Y-10637988D01*
X44758103Y-10470235D01*
X44000000Y-9712132D01*
X43241897Y-10470235D01*
X36610084Y-10470235D01*
X36569870Y-10442262D01*
X35812132Y-11200000D01*
X35387868Y-11200000D01*
X34630130Y-10442262D01*
X34462429Y-10558916D01*
X34359218Y-10793164D01*
X34303689Y-11043046D01*
X34297977Y-11298960D01*
X31851935Y-11298960D01*
X31851935Y-10793750D01*
X31839528Y-10667783D01*
X31803800Y-10550000D01*
X32048548Y-10550000D01*
X32050000Y-11025000D01*
X32125000Y-11100000D01*
X32687500Y-11100000D01*
X32687500Y-10325000D01*
X32987500Y-10325000D01*
X32987500Y-11100000D01*
X33550000Y-11100000D01*
X33625000Y-11025000D01*
X33626452Y-10550000D01*
X33620660Y-10491190D01*
X33603505Y-10434639D01*
X33575648Y-10382522D01*
X33538159Y-10336841D01*
X33492478Y-10299352D01*
X33440361Y-10271495D01*
X33383810Y-10254340D01*
X33325000Y-10248548D01*
X33062500Y-10250000D01*
X32987500Y-10325000D01*
X32687500Y-10325000D01*
X32612500Y-10250000D01*
X32350000Y-10248548D01*
X32291190Y-10254340D01*
X32234639Y-10271495D01*
X32182522Y-10299352D01*
X32136841Y-10336841D01*
X32099352Y-10382522D01*
X32071495Y-10434639D01*
X32054340Y-10491190D01*
X32048548Y-10550000D01*
X31803800Y-10550000D01*
X31802785Y-10546657D01*
X31800000Y-10541447D01*
X31800000Y-10230130D01*
X34842262Y-10230130D01*
X35600000Y-10987868D01*
X36357738Y-10230130D01*
X36241084Y-10062429D01*
X36006836Y-9959218D01*
X35756954Y-9903689D01*
X35501040Y-9897977D01*
X35248930Y-9942302D01*
X35010311Y-10034958D01*
X34958916Y-10062429D01*
X34842262Y-10230130D01*
X31800000Y-10230130D01*
X31800000Y-9650265D01*
X31814212Y-9603414D01*
X31814652Y-9598939D01*
X42697462Y-9598939D01*
X42741792Y-9851150D01*
X42834474Y-10089867D01*
X42862012Y-10141387D01*
X43029765Y-10258103D01*
X43787868Y-9500000D01*
X44212132Y-9500000D01*
X44970235Y-10258103D01*
X45137988Y-10141387D01*
X45241250Y-9907052D01*
X45296812Y-9657075D01*
X45302538Y-9401061D01*
X45258208Y-9148850D01*
X45165526Y-8910133D01*
X45137988Y-8858613D01*
X44970235Y-8741897D01*
X44212132Y-9500000D01*
X43787868Y-9500000D01*
X43029765Y-8741897D01*
X42862012Y-8858613D01*
X42758750Y-9092948D01*
X42703188Y-9342925D01*
X42697462Y-9598939D01*
X31814652Y-9598939D01*
X31821935Y-9525000D01*
X31821935Y-8875000D01*
X31814212Y-8796586D01*
X31800000Y-8749735D01*
X31800000Y-8275000D01*
X34073548Y-8275000D01*
X34079340Y-8333810D01*
X34096495Y-8390361D01*
X34124352Y-8442478D01*
X34161841Y-8488159D01*
X34207522Y-8525648D01*
X34259639Y-8553505D01*
X34316190Y-8570660D01*
X34375000Y-8576452D01*
X35025000Y-8575000D01*
X35100000Y-8500000D01*
X35100000Y-7800000D01*
X35400000Y-7800000D01*
X35400000Y-8500000D01*
X35475000Y-8575000D01*
X36125000Y-8576452D01*
X36183810Y-8570660D01*
X36240361Y-8553505D01*
X36284775Y-8529765D01*
X43241897Y-8529765D01*
X44000000Y-9287868D01*
X44758103Y-8529765D01*
X44641387Y-8362012D01*
X44407052Y-8258750D01*
X44157075Y-8203188D01*
X43901061Y-8197462D01*
X43648850Y-8241792D01*
X43410133Y-8334474D01*
X43358613Y-8362012D01*
X43241897Y-8529765D01*
X36284775Y-8529765D01*
X36292478Y-8525648D01*
X36338159Y-8488159D01*
X36375648Y-8442478D01*
X36403505Y-8390361D01*
X36420660Y-8333810D01*
X36426452Y-8275000D01*
X36425000Y-7875000D01*
X36350000Y-7800000D01*
X35400000Y-7800000D01*
X35100000Y-7800000D01*
X34150000Y-7800000D01*
X34075000Y-7875000D01*
X34073548Y-8275000D01*
X31800000Y-8275000D01*
X31800000Y-7025000D01*
X34073548Y-7025000D01*
X34075000Y-7425000D01*
X34150000Y-7500000D01*
X35100000Y-7500000D01*
X35100000Y-6800000D01*
X35400000Y-6800000D01*
X35400000Y-7500000D01*
X36350000Y-7500000D01*
X36425000Y-7425000D01*
X36426452Y-7025000D01*
X36420660Y-6966190D01*
X36403505Y-6909639D01*
X36375648Y-6857522D01*
X36338159Y-6811841D01*
X36292478Y-6774352D01*
X36240361Y-6746495D01*
X36183810Y-6729340D01*
X36125000Y-6723548D01*
X35475000Y-6725000D01*
X35400000Y-6800000D01*
X35100000Y-6800000D01*
X35025000Y-6725000D01*
X34375000Y-6723548D01*
X34316190Y-6729340D01*
X34259639Y-6746495D01*
X34207522Y-6774352D01*
X34161841Y-6811841D01*
X34124352Y-6857522D01*
X34096495Y-6909639D01*
X34079340Y-6966190D01*
X34073548Y-7025000D01*
X31800000Y-7025000D01*
X31800000Y-7007871D01*
X31815868Y-6907681D01*
X31858303Y-6824398D01*
X31924398Y-6758303D01*
X32007681Y-6715868D01*
X32107871Y-6700000D01*
X45592129Y-6700000D01*
X45692319Y-6715868D01*
G37*
G04 #@! TD.AperFunction*
D32*
X32700000Y-8400000D02*
X30800000Y-8400000D01*
X30800000Y-6700000D01*
X32700000Y-6700000D01*
X32700000Y-8400000D01*
G04 #@! TA.AperFunction,Conductor*
D31*
G36*
X32700000Y-8400000D02*
G01*
X30800000Y-8400000D01*
X30800000Y-6700000D01*
X32700000Y-6700000D01*
X32700000Y-8400000D01*
G37*
G04 #@! TD.AperFunction*
D30*
X30073000Y-12352606D02*
X30073000Y-14700000D01*
X30075440Y-14724776D01*
X30082667Y-14748601D01*
X30094403Y-14770557D01*
X30110197Y-14789803D01*
X30129443Y-14805597D01*
X30151399Y-14817333D01*
X30175224Y-14824560D01*
X30200000Y-14827000D01*
X30873000Y-14827000D01*
X30873000Y-16273000D01*
X27727000Y-16273000D01*
X27727000Y-14200000D01*
X28246418Y-14200000D01*
X28252732Y-14264103D01*
X28271430Y-14325743D01*
X28301794Y-14382550D01*
X28342657Y-14432343D01*
X28392450Y-14473206D01*
X28449257Y-14503570D01*
X28510897Y-14522268D01*
X28575000Y-14528582D01*
X28907750Y-14527000D01*
X28989500Y-14445250D01*
X28989500Y-13573000D01*
X29135500Y-13573000D01*
X29135500Y-14445250D01*
X29217250Y-14527000D01*
X29550000Y-14528582D01*
X29614103Y-14522268D01*
X29675743Y-14503570D01*
X29732550Y-14473206D01*
X29782343Y-14432343D01*
X29823206Y-14382550D01*
X29853570Y-14325743D01*
X29872268Y-14264103D01*
X29878582Y-14200000D01*
X29877000Y-13654750D01*
X29795250Y-13573000D01*
X29135500Y-13573000D01*
X28989500Y-13573000D01*
X28329750Y-13573000D01*
X28248000Y-13654750D01*
X28246418Y-14200000D01*
X27727000Y-14200000D01*
X27727000Y-13428901D01*
X28028872Y-12800000D01*
X28246418Y-12800000D01*
X28248000Y-13345250D01*
X28329750Y-13427000D01*
X28989500Y-13427000D01*
X28989500Y-12554750D01*
X29135500Y-12554750D01*
X29135500Y-13427000D01*
X29795250Y-13427000D01*
X29877000Y-13345250D01*
X29878582Y-12800000D01*
X29872268Y-12735897D01*
X29853570Y-12674257D01*
X29823206Y-12617450D01*
X29782343Y-12567657D01*
X29732550Y-12526794D01*
X29675743Y-12496430D01*
X29614103Y-12477732D01*
X29550000Y-12471418D01*
X29217250Y-12473000D01*
X29135500Y-12554750D01*
X28989500Y-12554750D01*
X28907750Y-12473000D01*
X28575000Y-12471418D01*
X28510897Y-12477732D01*
X28449257Y-12496430D01*
X28392450Y-12526794D01*
X28342657Y-12567657D01*
X28301794Y-12617450D01*
X28271430Y-12674257D01*
X28252732Y-12735897D01*
X28246418Y-12800000D01*
X28028872Y-12800000D01*
X28836933Y-11116539D01*
X30073000Y-12352606D01*
G04 #@! TA.AperFunction,Conductor*
D31*
G36*
X30073000Y-12352606D02*
G01*
X30073000Y-14700000D01*
X30075440Y-14724776D01*
X30082667Y-14748601D01*
X30094403Y-14770557D01*
X30110197Y-14789803D01*
X30129443Y-14805597D01*
X30151399Y-14817333D01*
X30175224Y-14824560D01*
X30200000Y-14827000D01*
X30873000Y-14827000D01*
X30873000Y-16273000D01*
X27727000Y-16273000D01*
X27727000Y-14200000D01*
X28246418Y-14200000D01*
X28252732Y-14264103D01*
X28271430Y-14325743D01*
X28301794Y-14382550D01*
X28342657Y-14432343D01*
X28392450Y-14473206D01*
X28449257Y-14503570D01*
X28510897Y-14522268D01*
X28575000Y-14528582D01*
X28907750Y-14527000D01*
X28989500Y-14445250D01*
X28989500Y-13573000D01*
X29135500Y-13573000D01*
X29135500Y-14445250D01*
X29217250Y-14527000D01*
X29550000Y-14528582D01*
X29614103Y-14522268D01*
X29675743Y-14503570D01*
X29732550Y-14473206D01*
X29782343Y-14432343D01*
X29823206Y-14382550D01*
X29853570Y-14325743D01*
X29872268Y-14264103D01*
X29878582Y-14200000D01*
X29877000Y-13654750D01*
X29795250Y-13573000D01*
X29135500Y-13573000D01*
X28989500Y-13573000D01*
X28329750Y-13573000D01*
X28248000Y-13654750D01*
X28246418Y-14200000D01*
X27727000Y-14200000D01*
X27727000Y-13428901D01*
X28028872Y-12800000D01*
X28246418Y-12800000D01*
X28248000Y-13345250D01*
X28329750Y-13427000D01*
X28989500Y-13427000D01*
X28989500Y-12554750D01*
X29135500Y-12554750D01*
X29135500Y-13427000D01*
X29795250Y-13427000D01*
X29877000Y-13345250D01*
X29878582Y-12800000D01*
X29872268Y-12735897D01*
X29853570Y-12674257D01*
X29823206Y-12617450D01*
X29782343Y-12567657D01*
X29732550Y-12526794D01*
X29675743Y-12496430D01*
X29614103Y-12477732D01*
X29550000Y-12471418D01*
X29217250Y-12473000D01*
X29135500Y-12554750D01*
X28989500Y-12554750D01*
X28907750Y-12473000D01*
X28575000Y-12471418D01*
X28510897Y-12477732D01*
X28449257Y-12496430D01*
X28392450Y-12526794D01*
X28342657Y-12567657D01*
X28301794Y-12617450D01*
X28271430Y-12674257D01*
X28252732Y-12735897D01*
X28246418Y-12800000D01*
X28028872Y-12800000D01*
X28836933Y-11116539D01*
X30073000Y-12352606D01*
G37*
G04 #@! TD.AperFunction*
D32*
X30100000Y-6691836D02*
X30084640Y-6696496D01*
X30032523Y-6724353D01*
X29986842Y-6761842D01*
X29949353Y-6807523D01*
X29921496Y-6859640D01*
X29904341Y-6916190D01*
X29898549Y-6975000D01*
X29898549Y-7625000D01*
X29904341Y-7683810D01*
X29921496Y-7740360D01*
X29949353Y-7792477D01*
X29986842Y-7838158D01*
X30032523Y-7875647D01*
X30084640Y-7903504D01*
X30100000Y-7908164D01*
X30100000Y-8591836D01*
X30084640Y-8596496D01*
X30032523Y-8624353D01*
X29986842Y-8661842D01*
X29949353Y-8707523D01*
X29921496Y-8759640D01*
X29904341Y-8816190D01*
X29898549Y-8875000D01*
X29898549Y-9525000D01*
X29904341Y-9583810D01*
X29921496Y-9640360D01*
X29949353Y-9692477D01*
X29986842Y-9738158D01*
X30032523Y-9775647D01*
X30084640Y-9803504D01*
X30100000Y-9808164D01*
X30100000Y-12200000D01*
X28700000Y-12200000D01*
X28700000Y-9826451D01*
X28800000Y-9826451D01*
X28858810Y-9820659D01*
X28915360Y-9803504D01*
X28967477Y-9775647D01*
X29013158Y-9738158D01*
X29050647Y-9692477D01*
X29078504Y-9640360D01*
X29095659Y-9583810D01*
X29101451Y-9525000D01*
X29101451Y-8875000D01*
X29095659Y-8816190D01*
X29078504Y-8759640D01*
X29050647Y-8707523D01*
X29013158Y-8661842D01*
X28967477Y-8624353D01*
X28915360Y-8596496D01*
X28858810Y-8579341D01*
X28800000Y-8573549D01*
X28700000Y-8573549D01*
X28700000Y-7926451D01*
X28800000Y-7926451D01*
X28858810Y-7920659D01*
X28915360Y-7903504D01*
X28967477Y-7875647D01*
X29013158Y-7838158D01*
X29050647Y-7792477D01*
X29078504Y-7740360D01*
X29095659Y-7683810D01*
X29101451Y-7625000D01*
X29101451Y-6975000D01*
X29095659Y-6916190D01*
X29078504Y-6859640D01*
X29050647Y-6807523D01*
X29013158Y-6761842D01*
X28967477Y-6724353D01*
X28915360Y-6696496D01*
X28858810Y-6679341D01*
X28800000Y-6673549D01*
X28700000Y-6673549D01*
X28700000Y-6350000D01*
X30100000Y-6350000D01*
X30100000Y-6691836D01*
G04 #@! TA.AperFunction,Conductor*
D31*
G36*
X30100000Y-6691836D02*
G01*
X30084640Y-6696496D01*
X30032523Y-6724353D01*
X29986842Y-6761842D01*
X29949353Y-6807523D01*
X29921496Y-6859640D01*
X29904341Y-6916190D01*
X29898549Y-6975000D01*
X29898549Y-7625000D01*
X29904341Y-7683810D01*
X29921496Y-7740360D01*
X29949353Y-7792477D01*
X29986842Y-7838158D01*
X30032523Y-7875647D01*
X30084640Y-7903504D01*
X30100000Y-7908164D01*
X30100000Y-8591836D01*
X30084640Y-8596496D01*
X30032523Y-8624353D01*
X29986842Y-8661842D01*
X29949353Y-8707523D01*
X29921496Y-8759640D01*
X29904341Y-8816190D01*
X29898549Y-8875000D01*
X29898549Y-9525000D01*
X29904341Y-9583810D01*
X29921496Y-9640360D01*
X29949353Y-9692477D01*
X29986842Y-9738158D01*
X30032523Y-9775647D01*
X30084640Y-9803504D01*
X30100000Y-9808164D01*
X30100000Y-12200000D01*
X28700000Y-12200000D01*
X28700000Y-9826451D01*
X28800000Y-9826451D01*
X28858810Y-9820659D01*
X28915360Y-9803504D01*
X28967477Y-9775647D01*
X29013158Y-9738158D01*
X29050647Y-9692477D01*
X29078504Y-9640360D01*
X29095659Y-9583810D01*
X29101451Y-9525000D01*
X29101451Y-8875000D01*
X29095659Y-8816190D01*
X29078504Y-8759640D01*
X29050647Y-8707523D01*
X29013158Y-8661842D01*
X28967477Y-8624353D01*
X28915360Y-8596496D01*
X28858810Y-8579341D01*
X28800000Y-8573549D01*
X28700000Y-8573549D01*
X28700000Y-7926451D01*
X28800000Y-7926451D01*
X28858810Y-7920659D01*
X28915360Y-7903504D01*
X28967477Y-7875647D01*
X29013158Y-7838158D01*
X29050647Y-7792477D01*
X29078504Y-7740360D01*
X29095659Y-7683810D01*
X29101451Y-7625000D01*
X29101451Y-6975000D01*
X29095659Y-6916190D01*
X29078504Y-6859640D01*
X29050647Y-6807523D01*
X29013158Y-6761842D01*
X28967477Y-6724353D01*
X28915360Y-6696496D01*
X28858810Y-6679341D01*
X28800000Y-6673549D01*
X28700000Y-6673549D01*
X28700000Y-6350000D01*
X30100000Y-6350000D01*
X30100000Y-6691836D01*
G37*
G04 #@! TD.AperFunction*
D32*
X45692319Y-39715868D02*
X45775602Y-39758303D01*
X45841697Y-39824398D01*
X45884132Y-39907681D01*
X45900000Y-40007871D01*
X45900000Y-51592129D01*
X45884132Y-51692319D01*
X45841697Y-51775602D01*
X45775602Y-51841697D01*
X45692319Y-51884132D01*
X45592129Y-51900000D01*
X39607871Y-51900000D01*
X39507681Y-51884132D01*
X39424398Y-51841697D01*
X39358303Y-51775602D01*
X39315868Y-51692319D01*
X39300000Y-51592129D01*
X39300000Y-51072711D01*
X43745078Y-51072711D01*
X43862125Y-51239961D01*
X44096777Y-51342500D01*
X44346924Y-51397291D01*
X44602954Y-51402227D01*
X44855028Y-51357119D01*
X45093458Y-51263701D01*
X45137875Y-51239961D01*
X45254922Y-51072711D01*
X44500000Y-50317789D01*
X43745078Y-51072711D01*
X39300000Y-51072711D01*
X39300000Y-50202954D01*
X43197773Y-50202954D01*
X43242881Y-50455028D01*
X43336299Y-50693458D01*
X43360039Y-50737875D01*
X43527289Y-50854922D01*
X44282211Y-50100000D01*
X44717789Y-50100000D01*
X45472711Y-50854922D01*
X45639961Y-50737875D01*
X45742500Y-50503223D01*
X45797291Y-50253076D01*
X45802227Y-49997046D01*
X45757119Y-49744972D01*
X45663701Y-49506542D01*
X45639961Y-49462125D01*
X45472711Y-49345078D01*
X44717789Y-50100000D01*
X44282211Y-50100000D01*
X43527289Y-49345078D01*
X43360039Y-49462125D01*
X43257500Y-49696777D01*
X43202709Y-49946924D01*
X43197773Y-50202954D01*
X39300000Y-50202954D01*
X39300000Y-49127289D01*
X43745078Y-49127289D01*
X44500000Y-49882211D01*
X45254922Y-49127289D01*
X45137875Y-48960039D01*
X44903223Y-48857500D01*
X44653076Y-48802709D01*
X44397046Y-48797773D01*
X44144972Y-48842881D01*
X43906542Y-48936299D01*
X43862125Y-48960039D01*
X43745078Y-49127289D01*
X39300000Y-49127289D01*
X39300000Y-42400000D01*
X39298769Y-42384357D01*
X39279192Y-42260750D01*
X39274242Y-42241782D01*
X39269524Y-42230994D01*
X39212708Y-42119487D01*
X39202139Y-42102976D01*
X39194318Y-42094175D01*
X39105825Y-42005682D01*
X39090671Y-41993246D01*
X39080513Y-41987292D01*
X38969006Y-41930476D01*
X38950751Y-41923332D01*
X38939250Y-41920808D01*
X38815643Y-41901231D01*
X38800000Y-41900000D01*
X34709851Y-41900000D01*
X34624212Y-41882965D01*
X34559964Y-41840036D01*
X34517035Y-41775788D01*
X34475243Y-41565686D01*
X34470485Y-41550000D01*
X34698548Y-41550000D01*
X34704340Y-41608810D01*
X34721495Y-41665361D01*
X34749352Y-41717478D01*
X34786841Y-41763159D01*
X34832522Y-41800648D01*
X34884639Y-41828505D01*
X34941190Y-41845660D01*
X35000000Y-41851452D01*
X35471000Y-41850000D01*
X35546000Y-41775000D01*
X35546000Y-41216500D01*
X35854000Y-41216500D01*
X35854000Y-41775000D01*
X35929000Y-41850000D01*
X36400000Y-41851452D01*
X36458810Y-41845660D01*
X36515361Y-41828505D01*
X36567478Y-41800648D01*
X36613159Y-41763159D01*
X36650648Y-41717478D01*
X36678505Y-41665361D01*
X36695660Y-41608810D01*
X36701452Y-41550000D01*
X36998548Y-41550000D01*
X37004340Y-41608810D01*
X37021495Y-41665361D01*
X37049352Y-41717478D01*
X37086841Y-41763159D01*
X37132522Y-41800648D01*
X37184639Y-41828505D01*
X37241190Y-41845660D01*
X37300000Y-41851452D01*
X37771000Y-41850000D01*
X37846000Y-41775000D01*
X37846000Y-41216500D01*
X38154000Y-41216500D01*
X38154000Y-41775000D01*
X38229000Y-41850000D01*
X38700000Y-41851452D01*
X38758810Y-41845660D01*
X38815361Y-41828505D01*
X38867478Y-41800648D01*
X38913159Y-41763159D01*
X38950648Y-41717478D01*
X38978505Y-41665361D01*
X38990748Y-41625000D01*
X39223548Y-41625000D01*
X39229340Y-41683810D01*
X39246495Y-41740361D01*
X39274352Y-41792478D01*
X39311841Y-41838159D01*
X39357522Y-41875648D01*
X39409639Y-41903505D01*
X39466190Y-41920660D01*
X39525000Y-41926452D01*
X40171000Y-41925000D01*
X40246000Y-41850000D01*
X40246000Y-41154000D01*
X40554000Y-41154000D01*
X40554000Y-41850000D01*
X40629000Y-41925000D01*
X41275000Y-41926452D01*
X41333810Y-41920660D01*
X41390361Y-41903505D01*
X41442478Y-41875648D01*
X41488159Y-41838159D01*
X41525648Y-41792478D01*
X41553505Y-41740361D01*
X41570660Y-41683810D01*
X41576452Y-41625000D01*
X41575000Y-41229000D01*
X41500000Y-41154000D01*
X40554000Y-41154000D01*
X40246000Y-41154000D01*
X39300000Y-41154000D01*
X39225000Y-41229000D01*
X39223548Y-41625000D01*
X38990748Y-41625000D01*
X38995660Y-41608810D01*
X39001452Y-41550000D01*
X39000000Y-41291500D01*
X38925000Y-41216500D01*
X38154000Y-41216500D01*
X37846000Y-41216500D01*
X37075000Y-41216500D01*
X37000000Y-41291500D01*
X36998548Y-41550000D01*
X36701452Y-41550000D01*
X36700000Y-41291500D01*
X36625000Y-41216500D01*
X35854000Y-41216500D01*
X35546000Y-41216500D01*
X34775000Y-41216500D01*
X34700000Y-41291500D01*
X34698548Y-41550000D01*
X34470485Y-41550000D01*
X34469552Y-41546927D01*
X34460311Y-41529638D01*
X34395279Y-41432311D01*
X34382843Y-41417157D01*
X34367689Y-41404721D01*
X34270362Y-41339689D01*
X34253073Y-41330448D01*
X34234314Y-41324757D01*
X34119509Y-41301921D01*
X34100000Y-41300000D01*
X33307871Y-41300000D01*
X33207681Y-41284132D01*
X33124398Y-41241697D01*
X33058303Y-41175602D01*
X33015868Y-41092319D01*
X33000000Y-40992129D01*
X33000000Y-40504000D01*
X33264000Y-40504000D01*
X33264000Y-40900000D01*
X33339000Y-40975000D01*
X33720000Y-40976452D01*
X33778810Y-40970660D01*
X33835361Y-40953505D01*
X33887478Y-40925648D01*
X33933159Y-40888159D01*
X33970648Y-40842478D01*
X33998505Y-40790361D01*
X34015660Y-40733810D01*
X34021452Y-40675000D01*
X34020000Y-40579000D01*
X34016000Y-40575000D01*
X34698548Y-40575000D01*
X34700000Y-40833500D01*
X34775000Y-40908500D01*
X35546000Y-40908500D01*
X35546000Y-40350000D01*
X35854000Y-40350000D01*
X35854000Y-40908500D01*
X36625000Y-40908500D01*
X36700000Y-40833500D01*
X36701452Y-40575000D01*
X36998548Y-40575000D01*
X37000000Y-40833500D01*
X37075000Y-40908500D01*
X37846000Y-40908500D01*
X37846000Y-40350000D01*
X38154000Y-40350000D01*
X38154000Y-40908500D01*
X38925000Y-40908500D01*
X39000000Y-40833500D01*
X39001452Y-40575000D01*
X38995660Y-40516190D01*
X38978505Y-40459639D01*
X38950648Y-40407522D01*
X38923959Y-40375000D01*
X39223548Y-40375000D01*
X39225000Y-40771000D01*
X39300000Y-40846000D01*
X40246000Y-40846000D01*
X40246000Y-40150000D01*
X40554000Y-40150000D01*
X40554000Y-40846000D01*
X41500000Y-40846000D01*
X41575000Y-40771000D01*
X41576452Y-40375000D01*
X41570660Y-40316190D01*
X41553505Y-40259639D01*
X41525648Y-40207522D01*
X41488159Y-40161841D01*
X41442478Y-40124352D01*
X41390361Y-40096495D01*
X41333810Y-40079340D01*
X41275000Y-40073548D01*
X40629000Y-40075000D01*
X40554000Y-40150000D01*
X40246000Y-40150000D01*
X40171000Y-40075000D01*
X39525000Y-40073548D01*
X39466190Y-40079340D01*
X39409639Y-40096495D01*
X39357522Y-40124352D01*
X39311841Y-40161841D01*
X39274352Y-40207522D01*
X39246495Y-40259639D01*
X39229340Y-40316190D01*
X39223548Y-40375000D01*
X38923959Y-40375000D01*
X38913159Y-40361841D01*
X38867478Y-40324352D01*
X38815361Y-40296495D01*
X38758810Y-40279340D01*
X38700000Y-40273548D01*
X38229000Y-40275000D01*
X38154000Y-40350000D01*
X37846000Y-40350000D01*
X37771000Y-40275000D01*
X37300000Y-40273548D01*
X37241190Y-40279340D01*
X37184639Y-40296495D01*
X37132522Y-40324352D01*
X37086841Y-40361841D01*
X37049352Y-40407522D01*
X37021495Y-40459639D01*
X37004340Y-40516190D01*
X36998548Y-40575000D01*
X36701452Y-40575000D01*
X36695660Y-40516190D01*
X36678505Y-40459639D01*
X36650648Y-40407522D01*
X36613159Y-40361841D01*
X36567478Y-40324352D01*
X36515361Y-40296495D01*
X36458810Y-40279340D01*
X36400000Y-40273548D01*
X35929000Y-40275000D01*
X35854000Y-40350000D01*
X35546000Y-40350000D01*
X35471000Y-40275000D01*
X35000000Y-40273548D01*
X34941190Y-40279340D01*
X34884639Y-40296495D01*
X34832522Y-40324352D01*
X34786841Y-40361841D01*
X34749352Y-40407522D01*
X34721495Y-40459639D01*
X34704340Y-40516190D01*
X34698548Y-40575000D01*
X34016000Y-40575000D01*
X33945000Y-40504000D01*
X33264000Y-40504000D01*
X33000000Y-40504000D01*
X33000000Y-40176000D01*
X33264000Y-40176000D01*
X33264000Y-40196000D01*
X33945000Y-40196000D01*
X34020000Y-40121000D01*
X34021452Y-40025000D01*
X34015660Y-39966190D01*
X33998505Y-39909639D01*
X33970648Y-39857522D01*
X33933159Y-39811841D01*
X33887478Y-39774352D01*
X33835361Y-39746495D01*
X33778810Y-39729340D01*
X33720000Y-39723548D01*
X33339000Y-39725000D01*
X33264002Y-39799998D01*
X33264002Y-39725000D01*
X33189759Y-39725000D01*
X33207681Y-39715868D01*
X33307871Y-39700000D01*
X45592129Y-39700000D01*
X45692319Y-39715868D01*
G04 #@! TA.AperFunction,Conductor*
D31*
G36*
X45692319Y-39715868D02*
G01*
X45775602Y-39758303D01*
X45841697Y-39824398D01*
X45884132Y-39907681D01*
X45900000Y-40007871D01*
X45900000Y-51592129D01*
X45884132Y-51692319D01*
X45841697Y-51775602D01*
X45775602Y-51841697D01*
X45692319Y-51884132D01*
X45592129Y-51900000D01*
X39607871Y-51900000D01*
X39507681Y-51884132D01*
X39424398Y-51841697D01*
X39358303Y-51775602D01*
X39315868Y-51692319D01*
X39300000Y-51592129D01*
X39300000Y-51072711D01*
X43745078Y-51072711D01*
X43862125Y-51239961D01*
X44096777Y-51342500D01*
X44346924Y-51397291D01*
X44602954Y-51402227D01*
X44855028Y-51357119D01*
X45093458Y-51263701D01*
X45137875Y-51239961D01*
X45254922Y-51072711D01*
X44500000Y-50317789D01*
X43745078Y-51072711D01*
X39300000Y-51072711D01*
X39300000Y-50202954D01*
X43197773Y-50202954D01*
X43242881Y-50455028D01*
X43336299Y-50693458D01*
X43360039Y-50737875D01*
X43527289Y-50854922D01*
X44282211Y-50100000D01*
X44717789Y-50100000D01*
X45472711Y-50854922D01*
X45639961Y-50737875D01*
X45742500Y-50503223D01*
X45797291Y-50253076D01*
X45802227Y-49997046D01*
X45757119Y-49744972D01*
X45663701Y-49506542D01*
X45639961Y-49462125D01*
X45472711Y-49345078D01*
X44717789Y-50100000D01*
X44282211Y-50100000D01*
X43527289Y-49345078D01*
X43360039Y-49462125D01*
X43257500Y-49696777D01*
X43202709Y-49946924D01*
X43197773Y-50202954D01*
X39300000Y-50202954D01*
X39300000Y-49127289D01*
X43745078Y-49127289D01*
X44500000Y-49882211D01*
X45254922Y-49127289D01*
X45137875Y-48960039D01*
X44903223Y-48857500D01*
X44653076Y-48802709D01*
X44397046Y-48797773D01*
X44144972Y-48842881D01*
X43906542Y-48936299D01*
X43862125Y-48960039D01*
X43745078Y-49127289D01*
X39300000Y-49127289D01*
X39300000Y-42400000D01*
X39298769Y-42384357D01*
X39279192Y-42260750D01*
X39274242Y-42241782D01*
X39269524Y-42230994D01*
X39212708Y-42119487D01*
X39202139Y-42102976D01*
X39194318Y-42094175D01*
X39105825Y-42005682D01*
X39090671Y-41993246D01*
X39080513Y-41987292D01*
X38969006Y-41930476D01*
X38950751Y-41923332D01*
X38939250Y-41920808D01*
X38815643Y-41901231D01*
X38800000Y-41900000D01*
X34709851Y-41900000D01*
X34624212Y-41882965D01*
X34559964Y-41840036D01*
X34517035Y-41775788D01*
X34475243Y-41565686D01*
X34470485Y-41550000D01*
X34698548Y-41550000D01*
X34704340Y-41608810D01*
X34721495Y-41665361D01*
X34749352Y-41717478D01*
X34786841Y-41763159D01*
X34832522Y-41800648D01*
X34884639Y-41828505D01*
X34941190Y-41845660D01*
X35000000Y-41851452D01*
X35471000Y-41850000D01*
X35546000Y-41775000D01*
X35546000Y-41216500D01*
X35854000Y-41216500D01*
X35854000Y-41775000D01*
X35929000Y-41850000D01*
X36400000Y-41851452D01*
X36458810Y-41845660D01*
X36515361Y-41828505D01*
X36567478Y-41800648D01*
X36613159Y-41763159D01*
X36650648Y-41717478D01*
X36678505Y-41665361D01*
X36695660Y-41608810D01*
X36701452Y-41550000D01*
X36998548Y-41550000D01*
X37004340Y-41608810D01*
X37021495Y-41665361D01*
X37049352Y-41717478D01*
X37086841Y-41763159D01*
X37132522Y-41800648D01*
X37184639Y-41828505D01*
X37241190Y-41845660D01*
X37300000Y-41851452D01*
X37771000Y-41850000D01*
X37846000Y-41775000D01*
X37846000Y-41216500D01*
X38154000Y-41216500D01*
X38154000Y-41775000D01*
X38229000Y-41850000D01*
X38700000Y-41851452D01*
X38758810Y-41845660D01*
X38815361Y-41828505D01*
X38867478Y-41800648D01*
X38913159Y-41763159D01*
X38950648Y-41717478D01*
X38978505Y-41665361D01*
X38990748Y-41625000D01*
X39223548Y-41625000D01*
X39229340Y-41683810D01*
X39246495Y-41740361D01*
X39274352Y-41792478D01*
X39311841Y-41838159D01*
X39357522Y-41875648D01*
X39409639Y-41903505D01*
X39466190Y-41920660D01*
X39525000Y-41926452D01*
X40171000Y-41925000D01*
X40246000Y-41850000D01*
X40246000Y-41154000D01*
X40554000Y-41154000D01*
X40554000Y-41850000D01*
X40629000Y-41925000D01*
X41275000Y-41926452D01*
X41333810Y-41920660D01*
X41390361Y-41903505D01*
X41442478Y-41875648D01*
X41488159Y-41838159D01*
X41525648Y-41792478D01*
X41553505Y-41740361D01*
X41570660Y-41683810D01*
X41576452Y-41625000D01*
X41575000Y-41229000D01*
X41500000Y-41154000D01*
X40554000Y-41154000D01*
X40246000Y-41154000D01*
X39300000Y-41154000D01*
X39225000Y-41229000D01*
X39223548Y-41625000D01*
X38990748Y-41625000D01*
X38995660Y-41608810D01*
X39001452Y-41550000D01*
X39000000Y-41291500D01*
X38925000Y-41216500D01*
X38154000Y-41216500D01*
X37846000Y-41216500D01*
X37075000Y-41216500D01*
X37000000Y-41291500D01*
X36998548Y-41550000D01*
X36701452Y-41550000D01*
X36700000Y-41291500D01*
X36625000Y-41216500D01*
X35854000Y-41216500D01*
X35546000Y-41216500D01*
X34775000Y-41216500D01*
X34700000Y-41291500D01*
X34698548Y-41550000D01*
X34470485Y-41550000D01*
X34469552Y-41546927D01*
X34460311Y-41529638D01*
X34395279Y-41432311D01*
X34382843Y-41417157D01*
X34367689Y-41404721D01*
X34270362Y-41339689D01*
X34253073Y-41330448D01*
X34234314Y-41324757D01*
X34119509Y-41301921D01*
X34100000Y-41300000D01*
X33307871Y-41300000D01*
X33207681Y-41284132D01*
X33124398Y-41241697D01*
X33058303Y-41175602D01*
X33015868Y-41092319D01*
X33000000Y-40992129D01*
X33000000Y-40504000D01*
X33264000Y-40504000D01*
X33264000Y-40900000D01*
X33339000Y-40975000D01*
X33720000Y-40976452D01*
X33778810Y-40970660D01*
X33835361Y-40953505D01*
X33887478Y-40925648D01*
X33933159Y-40888159D01*
X33970648Y-40842478D01*
X33998505Y-40790361D01*
X34015660Y-40733810D01*
X34021452Y-40675000D01*
X34020000Y-40579000D01*
X34016000Y-40575000D01*
X34698548Y-40575000D01*
X34700000Y-40833500D01*
X34775000Y-40908500D01*
X35546000Y-40908500D01*
X35546000Y-40350000D01*
X35854000Y-40350000D01*
X35854000Y-40908500D01*
X36625000Y-40908500D01*
X36700000Y-40833500D01*
X36701452Y-40575000D01*
X36998548Y-40575000D01*
X37000000Y-40833500D01*
X37075000Y-40908500D01*
X37846000Y-40908500D01*
X37846000Y-40350000D01*
X38154000Y-40350000D01*
X38154000Y-40908500D01*
X38925000Y-40908500D01*
X39000000Y-40833500D01*
X39001452Y-40575000D01*
X38995660Y-40516190D01*
X38978505Y-40459639D01*
X38950648Y-40407522D01*
X38923959Y-40375000D01*
X39223548Y-40375000D01*
X39225000Y-40771000D01*
X39300000Y-40846000D01*
X40246000Y-40846000D01*
X40246000Y-40150000D01*
X40554000Y-40150000D01*
X40554000Y-40846000D01*
X41500000Y-40846000D01*
X41575000Y-40771000D01*
X41576452Y-40375000D01*
X41570660Y-40316190D01*
X41553505Y-40259639D01*
X41525648Y-40207522D01*
X41488159Y-40161841D01*
X41442478Y-40124352D01*
X41390361Y-40096495D01*
X41333810Y-40079340D01*
X41275000Y-40073548D01*
X40629000Y-40075000D01*
X40554000Y-40150000D01*
X40246000Y-40150000D01*
X40171000Y-40075000D01*
X39525000Y-40073548D01*
X39466190Y-40079340D01*
X39409639Y-40096495D01*
X39357522Y-40124352D01*
X39311841Y-40161841D01*
X39274352Y-40207522D01*
X39246495Y-40259639D01*
X39229340Y-40316190D01*
X39223548Y-40375000D01*
X38923959Y-40375000D01*
X38913159Y-40361841D01*
X38867478Y-40324352D01*
X38815361Y-40296495D01*
X38758810Y-40279340D01*
X38700000Y-40273548D01*
X38229000Y-40275000D01*
X38154000Y-40350000D01*
X37846000Y-40350000D01*
X37771000Y-40275000D01*
X37300000Y-40273548D01*
X37241190Y-40279340D01*
X37184639Y-40296495D01*
X37132522Y-40324352D01*
X37086841Y-40361841D01*
X37049352Y-40407522D01*
X37021495Y-40459639D01*
X37004340Y-40516190D01*
X36998548Y-40575000D01*
X36701452Y-40575000D01*
X36695660Y-40516190D01*
X36678505Y-40459639D01*
X36650648Y-40407522D01*
X36613159Y-40361841D01*
X36567478Y-40324352D01*
X36515361Y-40296495D01*
X36458810Y-40279340D01*
X36400000Y-40273548D01*
X35929000Y-40275000D01*
X35854000Y-40350000D01*
X35546000Y-40350000D01*
X35471000Y-40275000D01*
X35000000Y-40273548D01*
X34941190Y-40279340D01*
X34884639Y-40296495D01*
X34832522Y-40324352D01*
X34786841Y-40361841D01*
X34749352Y-40407522D01*
X34721495Y-40459639D01*
X34704340Y-40516190D01*
X34698548Y-40575000D01*
X34016000Y-40575000D01*
X33945000Y-40504000D01*
X33264000Y-40504000D01*
X33000000Y-40504000D01*
X33000000Y-40176000D01*
X33264000Y-40176000D01*
X33264000Y-40196000D01*
X33945000Y-40196000D01*
X34020000Y-40121000D01*
X34021452Y-40025000D01*
X34015660Y-39966190D01*
X33998505Y-39909639D01*
X33970648Y-39857522D01*
X33933159Y-39811841D01*
X33887478Y-39774352D01*
X33835361Y-39746495D01*
X33778810Y-39729340D01*
X33720000Y-39723548D01*
X33339000Y-39725000D01*
X33264002Y-39799998D01*
X33264002Y-39725000D01*
X33189759Y-39725000D01*
X33207681Y-39715868D01*
X33307871Y-39700000D01*
X45592129Y-39700000D01*
X45692319Y-39715868D01*
G37*
G04 #@! TD.AperFunction*
D30*
X32173000Y-39750368D02*
X32143245Y-39786624D01*
X32103595Y-39860804D01*
X32079178Y-39941293D01*
X32070934Y-40025000D01*
X32070934Y-40675000D01*
X32079178Y-40758707D01*
X32103595Y-40839196D01*
X32143245Y-40913376D01*
X32173000Y-40949632D01*
X32173000Y-41650368D01*
X32143245Y-41686624D01*
X32103595Y-41760804D01*
X32079178Y-41841293D01*
X32070934Y-41925000D01*
X32070934Y-42575000D01*
X32073000Y-42595978D01*
X32073000Y-42800000D01*
X32081205Y-42883304D01*
X32105503Y-42963406D01*
X32144962Y-43037228D01*
X32173000Y-43071393D01*
X32173000Y-43773000D01*
X31427000Y-43773000D01*
X31427000Y-42849632D01*
X31456755Y-42813376D01*
X31496405Y-42739196D01*
X31520822Y-42658707D01*
X31529066Y-42575000D01*
X31529066Y-41925000D01*
X31520822Y-41841293D01*
X31500711Y-41775000D01*
X31520822Y-41708707D01*
X31529066Y-41625000D01*
X31529066Y-40975000D01*
X31520822Y-40891293D01*
X31496405Y-40810804D01*
X31456755Y-40736624D01*
X31427000Y-40700368D01*
X31427000Y-40400000D01*
X31424560Y-40375224D01*
X31417333Y-40351399D01*
X31405597Y-40329443D01*
X31389803Y-40310197D01*
X31370557Y-40294403D01*
X31348601Y-40282667D01*
X31324776Y-40275440D01*
X31300000Y-40273000D01*
X29652606Y-40273000D01*
X27906606Y-38527000D01*
X32173000Y-38527000D01*
X32173000Y-39750368D01*
G04 #@! TA.AperFunction,Conductor*
D31*
G36*
X32173000Y-39750368D02*
G01*
X32143245Y-39786624D01*
X32103595Y-39860804D01*
X32079178Y-39941293D01*
X32070934Y-40025000D01*
X32070934Y-40675000D01*
X32079178Y-40758707D01*
X32103595Y-40839196D01*
X32143245Y-40913376D01*
X32173000Y-40949632D01*
X32173000Y-41650368D01*
X32143245Y-41686624D01*
X32103595Y-41760804D01*
X32079178Y-41841293D01*
X32070934Y-41925000D01*
X32070934Y-42575000D01*
X32073000Y-42595978D01*
X32073000Y-42800000D01*
X32081205Y-42883304D01*
X32105503Y-42963406D01*
X32144962Y-43037228D01*
X32173000Y-43071393D01*
X32173000Y-43773000D01*
X31427000Y-43773000D01*
X31427000Y-42849632D01*
X31456755Y-42813376D01*
X31496405Y-42739196D01*
X31520822Y-42658707D01*
X31529066Y-42575000D01*
X31529066Y-41925000D01*
X31520822Y-41841293D01*
X31500711Y-41775000D01*
X31520822Y-41708707D01*
X31529066Y-41625000D01*
X31529066Y-40975000D01*
X31520822Y-40891293D01*
X31496405Y-40810804D01*
X31456755Y-40736624D01*
X31427000Y-40700368D01*
X31427000Y-40400000D01*
X31424560Y-40375224D01*
X31417333Y-40351399D01*
X31405597Y-40329443D01*
X31389803Y-40310197D01*
X31370557Y-40294403D01*
X31348601Y-40282667D01*
X31324776Y-40275440D01*
X31300000Y-40273000D01*
X29652606Y-40273000D01*
X27906606Y-38527000D01*
X32173000Y-38527000D01*
X32173000Y-39750368D01*
G37*
G04 #@! TD.AperFunction*
D32*
X40100000Y-51900000D02*
X33900000Y-51900000D01*
X33900000Y-50304928D01*
X34865782Y-50304928D01*
X34973497Y-50485011D01*
X35199132Y-50605896D01*
X35444015Y-50680440D01*
X35698734Y-50705777D01*
X35953503Y-50680934D01*
X36198531Y-50606865D01*
X36424400Y-50486417D01*
X36426503Y-50485011D01*
X36534218Y-50304928D01*
X35700000Y-49470711D01*
X34865782Y-50304928D01*
X33900000Y-50304928D01*
X33900000Y-49398734D01*
X34394223Y-49398734D01*
X34419066Y-49653503D01*
X34493135Y-49898531D01*
X34613583Y-50124400D01*
X34614989Y-50126503D01*
X34795072Y-50234218D01*
X35629289Y-49400000D01*
X35770711Y-49400000D01*
X36604928Y-50234218D01*
X36785011Y-50126503D01*
X36905896Y-49900868D01*
X36980440Y-49655985D01*
X37005777Y-49401266D01*
X36980934Y-49146497D01*
X36906865Y-48901469D01*
X36786417Y-48675600D01*
X36785011Y-48673497D01*
X36604928Y-48565782D01*
X35770711Y-49400000D01*
X35629289Y-49400000D01*
X34795072Y-48565782D01*
X34614989Y-48673497D01*
X34494104Y-48899132D01*
X34419560Y-49144015D01*
X34394223Y-49398734D01*
X33900000Y-49398734D01*
X33900000Y-48495072D01*
X34865782Y-48495072D01*
X35700000Y-49329289D01*
X36534218Y-48495072D01*
X36426503Y-48314989D01*
X36200868Y-48194104D01*
X35955985Y-48119560D01*
X35701266Y-48094223D01*
X35446497Y-48119066D01*
X35201469Y-48193135D01*
X34975600Y-48313583D01*
X34973497Y-48314989D01*
X34865782Y-48495072D01*
X33900000Y-48495072D01*
X33900000Y-46800000D01*
X40100000Y-46800000D01*
X40100000Y-51900000D01*
G04 #@! TA.AperFunction,Conductor*
D31*
G36*
X40100000Y-51900000D02*
G01*
X33900000Y-51900000D01*
X33900000Y-50304928D01*
X34865782Y-50304928D01*
X34973497Y-50485011D01*
X35199132Y-50605896D01*
X35444015Y-50680440D01*
X35698734Y-50705777D01*
X35953503Y-50680934D01*
X36198531Y-50606865D01*
X36424400Y-50486417D01*
X36426503Y-50485011D01*
X36534218Y-50304928D01*
X35700000Y-49470711D01*
X34865782Y-50304928D01*
X33900000Y-50304928D01*
X33900000Y-49398734D01*
X34394223Y-49398734D01*
X34419066Y-49653503D01*
X34493135Y-49898531D01*
X34613583Y-50124400D01*
X34614989Y-50126503D01*
X34795072Y-50234218D01*
X35629289Y-49400000D01*
X35770711Y-49400000D01*
X36604928Y-50234218D01*
X36785011Y-50126503D01*
X36905896Y-49900868D01*
X36980440Y-49655985D01*
X37005777Y-49401266D01*
X36980934Y-49146497D01*
X36906865Y-48901469D01*
X36786417Y-48675600D01*
X36785011Y-48673497D01*
X36604928Y-48565782D01*
X35770711Y-49400000D01*
X35629289Y-49400000D01*
X34795072Y-48565782D01*
X34614989Y-48673497D01*
X34494104Y-48899132D01*
X34419560Y-49144015D01*
X34394223Y-49398734D01*
X33900000Y-49398734D01*
X33900000Y-48495072D01*
X34865782Y-48495072D01*
X35700000Y-49329289D01*
X36534218Y-48495072D01*
X36426503Y-48314989D01*
X36200868Y-48194104D01*
X35955985Y-48119560D01*
X35701266Y-48094223D01*
X35446497Y-48119066D01*
X35201469Y-48193135D01*
X34975600Y-48313583D01*
X34973497Y-48314989D01*
X34865782Y-48495072D01*
X33900000Y-48495072D01*
X33900000Y-46800000D01*
X40100000Y-46800000D01*
X40100000Y-51900000D01*
G37*
G04 #@! TD.AperFunction*
D32*
X25977772Y-43832588D02*
X26046927Y-43869552D01*
X26121964Y-43892314D01*
X26200000Y-43900000D01*
X31000000Y-43900000D01*
X31078036Y-43892314D01*
X31153073Y-43869552D01*
X31222228Y-43832588D01*
X31261937Y-43800000D01*
X32492129Y-43800000D01*
X32592319Y-43815868D01*
X32675602Y-43858303D01*
X32741697Y-43924398D01*
X32784132Y-44007681D01*
X32800000Y-44107871D01*
X32800000Y-51592129D01*
X32784132Y-51692319D01*
X32741697Y-51775602D01*
X32675602Y-51841697D01*
X32592319Y-51884132D01*
X32492129Y-51900000D01*
X24407871Y-51900000D01*
X24307681Y-51884132D01*
X24224398Y-51841697D01*
X24158303Y-51775602D01*
X24115868Y-51692319D01*
X24100000Y-51592129D01*
X24100000Y-45800000D01*
X31173548Y-45800000D01*
X31179340Y-45858810D01*
X31196495Y-45915361D01*
X31224352Y-45967478D01*
X31261841Y-46013159D01*
X31307522Y-46050648D01*
X31359639Y-46078505D01*
X31416190Y-46095660D01*
X31475000Y-46101452D01*
X31837500Y-46100000D01*
X31912500Y-46025000D01*
X31912500Y-45150000D01*
X32012500Y-45150000D01*
X32012500Y-46025000D01*
X32087500Y-46100000D01*
X32450000Y-46101452D01*
X32508810Y-46095660D01*
X32565361Y-46078505D01*
X32617478Y-46050648D01*
X32663159Y-46013159D01*
X32700648Y-45967478D01*
X32728505Y-45915361D01*
X32745660Y-45858810D01*
X32751452Y-45800000D01*
X32750000Y-45225000D01*
X32675000Y-45150000D01*
X32012500Y-45150000D01*
X31912500Y-45150000D01*
X31250000Y-45150000D01*
X31175000Y-45225000D01*
X31173548Y-45800000D01*
X24100000Y-45800000D01*
X24100000Y-44400000D01*
X31173548Y-44400000D01*
X31175000Y-44975000D01*
X31250000Y-45050000D01*
X31912500Y-45050000D01*
X31912500Y-44175000D01*
X32012500Y-44175000D01*
X32012500Y-45050000D01*
X32675000Y-45050000D01*
X32750000Y-44975000D01*
X32751452Y-44400000D01*
X32745660Y-44341190D01*
X32728505Y-44284639D01*
X32700648Y-44232522D01*
X32663159Y-44186841D01*
X32617478Y-44149352D01*
X32565361Y-44121495D01*
X32508810Y-44104340D01*
X32450000Y-44098548D01*
X32087500Y-44100000D01*
X32012500Y-44175000D01*
X31912500Y-44175000D01*
X31837500Y-44100000D01*
X31475000Y-44098548D01*
X31416190Y-44104340D01*
X31359639Y-44121495D01*
X31307522Y-44149352D01*
X31261841Y-44186841D01*
X31224352Y-44232522D01*
X31196495Y-44284639D01*
X31179340Y-44341190D01*
X31173548Y-44400000D01*
X24100000Y-44400000D01*
X24100000Y-44107871D01*
X24115868Y-44007681D01*
X24158303Y-43924398D01*
X24224398Y-43858303D01*
X24307681Y-43815868D01*
X24407871Y-43800000D01*
X25938063Y-43800000D01*
X25977772Y-43832588D01*
G04 #@! TA.AperFunction,Conductor*
D31*
G36*
X25977772Y-43832588D02*
G01*
X26046927Y-43869552D01*
X26121964Y-43892314D01*
X26200000Y-43900000D01*
X31000000Y-43900000D01*
X31078036Y-43892314D01*
X31153073Y-43869552D01*
X31222228Y-43832588D01*
X31261937Y-43800000D01*
X32492129Y-43800000D01*
X32592319Y-43815868D01*
X32675602Y-43858303D01*
X32741697Y-43924398D01*
X32784132Y-44007681D01*
X32800000Y-44107871D01*
X32800000Y-51592129D01*
X32784132Y-51692319D01*
X32741697Y-51775602D01*
X32675602Y-51841697D01*
X32592319Y-51884132D01*
X32492129Y-51900000D01*
X24407871Y-51900000D01*
X24307681Y-51884132D01*
X24224398Y-51841697D01*
X24158303Y-51775602D01*
X24115868Y-51692319D01*
X24100000Y-51592129D01*
X24100000Y-45800000D01*
X31173548Y-45800000D01*
X31179340Y-45858810D01*
X31196495Y-45915361D01*
X31224352Y-45967478D01*
X31261841Y-46013159D01*
X31307522Y-46050648D01*
X31359639Y-46078505D01*
X31416190Y-46095660D01*
X31475000Y-46101452D01*
X31837500Y-46100000D01*
X31912500Y-46025000D01*
X31912500Y-45150000D01*
X32012500Y-45150000D01*
X32012500Y-46025000D01*
X32087500Y-46100000D01*
X32450000Y-46101452D01*
X32508810Y-46095660D01*
X32565361Y-46078505D01*
X32617478Y-46050648D01*
X32663159Y-46013159D01*
X32700648Y-45967478D01*
X32728505Y-45915361D01*
X32745660Y-45858810D01*
X32751452Y-45800000D01*
X32750000Y-45225000D01*
X32675000Y-45150000D01*
X32012500Y-45150000D01*
X31912500Y-45150000D01*
X31250000Y-45150000D01*
X31175000Y-45225000D01*
X31173548Y-45800000D01*
X24100000Y-45800000D01*
X24100000Y-44400000D01*
X31173548Y-44400000D01*
X31175000Y-44975000D01*
X31250000Y-45050000D01*
X31912500Y-45050000D01*
X31912500Y-44175000D01*
X32012500Y-44175000D01*
X32012500Y-45050000D01*
X32675000Y-45050000D01*
X32750000Y-44975000D01*
X32751452Y-44400000D01*
X32745660Y-44341190D01*
X32728505Y-44284639D01*
X32700648Y-44232522D01*
X32663159Y-44186841D01*
X32617478Y-44149352D01*
X32565361Y-44121495D01*
X32508810Y-44104340D01*
X32450000Y-44098548D01*
X32087500Y-44100000D01*
X32012500Y-44175000D01*
X31912500Y-44175000D01*
X31837500Y-44100000D01*
X31475000Y-44098548D01*
X31416190Y-44104340D01*
X31359639Y-44121495D01*
X31307522Y-44149352D01*
X31261841Y-44186841D01*
X31224352Y-44232522D01*
X31196495Y-44284639D01*
X31179340Y-44341190D01*
X31173548Y-44400000D01*
X24100000Y-44400000D01*
X24100000Y-44107871D01*
X24115868Y-44007681D01*
X24158303Y-43924398D01*
X24224398Y-43858303D01*
X24307681Y-43815868D01*
X24407871Y-43800000D01*
X25938063Y-43800000D01*
X25977772Y-43832588D01*
G37*
G04 #@! TD.AperFunction*
D32*
X34400000Y-41300000D02*
X33000000Y-41300000D01*
X33000000Y-39700000D01*
X34400000Y-39700000D01*
X34400000Y-41300000D01*
G04 #@! TA.AperFunction,Conductor*
D31*
G36*
X34400000Y-41300000D02*
G01*
X33000000Y-41300000D01*
X33000000Y-39700000D01*
X34400000Y-39700000D01*
X34400000Y-41300000D01*
G37*
G04 #@! TD.AperFunction*
X34270000Y-42340000D02*
X34278380Y-42345084D01*
X34287591Y-42348436D01*
X34300000Y-42350000D01*
X34888022Y-42350000D01*
X34874676Y-42366261D01*
X34860747Y-42392320D01*
X34852170Y-42420595D01*
X34849274Y-42450000D01*
X34850000Y-42700000D01*
X34887500Y-42737500D01*
X35500000Y-42737500D01*
X35500000Y-42717500D01*
X35900000Y-42717500D01*
X35900000Y-42737500D01*
X36512500Y-42737500D01*
X36550000Y-42700000D01*
X36550726Y-42450000D01*
X36547830Y-42420595D01*
X36539253Y-42392320D01*
X36525324Y-42366261D01*
X36511978Y-42350000D01*
X36750000Y-42350000D01*
X36750000Y-45950000D01*
X36357372Y-45950000D01*
X36379405Y-45947830D01*
X36407680Y-45939253D01*
X36433739Y-45925324D01*
X36456579Y-45906579D01*
X36475324Y-45883739D01*
X36489253Y-45857680D01*
X36497830Y-45829405D01*
X36500726Y-45800000D01*
X36500000Y-45337500D01*
X36462500Y-45300000D01*
X36062500Y-45300000D01*
X36062500Y-45320000D01*
X35662500Y-45320000D01*
X35662500Y-45300000D01*
X35262500Y-45300000D01*
X35225000Y-45337500D01*
X35224274Y-45800000D01*
X35227170Y-45829405D01*
X35235747Y-45857680D01*
X35249676Y-45883739D01*
X35268421Y-45906579D01*
X35291261Y-45925324D01*
X35317320Y-45939253D01*
X35345595Y-45947830D01*
X35367628Y-45950000D01*
X34332372Y-45950000D01*
X34354405Y-45947830D01*
X34382680Y-45939253D01*
X34408739Y-45925324D01*
X34431579Y-45906579D01*
X34450324Y-45883739D01*
X34464253Y-45857680D01*
X34472830Y-45829405D01*
X34475726Y-45800000D01*
X34475000Y-45337500D01*
X34437500Y-45300000D01*
X34037500Y-45300000D01*
X34037500Y-45320000D01*
X33637500Y-45320000D01*
X33637500Y-45300000D01*
X33617500Y-45300000D01*
X33617500Y-44900000D01*
X33637500Y-44900000D01*
X33637500Y-44287500D01*
X34037500Y-44287500D01*
X34037500Y-44900000D01*
X34437500Y-44900000D01*
X34475000Y-44862500D01*
X34475726Y-44400000D01*
X35224274Y-44400000D01*
X35225000Y-44862500D01*
X35262500Y-44900000D01*
X35662500Y-44900000D01*
X35662500Y-44287500D01*
X36062500Y-44287500D01*
X36062500Y-44900000D01*
X36462500Y-44900000D01*
X36500000Y-44862500D01*
X36500726Y-44400000D01*
X36497830Y-44370595D01*
X36489253Y-44342320D01*
X36475324Y-44316261D01*
X36456579Y-44293421D01*
X36433739Y-44274676D01*
X36407680Y-44260747D01*
X36379405Y-44252170D01*
X36350000Y-44249274D01*
X36100000Y-44250000D01*
X36062500Y-44287500D01*
X35662500Y-44287500D01*
X35625000Y-44250000D01*
X35375000Y-44249274D01*
X35345595Y-44252170D01*
X35317320Y-44260747D01*
X35291261Y-44274676D01*
X35268421Y-44293421D01*
X35249676Y-44316261D01*
X35235747Y-44342320D01*
X35227170Y-44370595D01*
X35224274Y-44400000D01*
X34475726Y-44400000D01*
X34472830Y-44370595D01*
X34464253Y-44342320D01*
X34450324Y-44316261D01*
X34431579Y-44293421D01*
X34408739Y-44274676D01*
X34382680Y-44260747D01*
X34354405Y-44252170D01*
X34325000Y-44249274D01*
X34075000Y-44250000D01*
X34037500Y-44287500D01*
X33637500Y-44287500D01*
X33600000Y-44250000D01*
X33350000Y-44249274D01*
X33320595Y-44252170D01*
X33292320Y-44260747D01*
X33266261Y-44274676D01*
X33250000Y-44288022D01*
X33250000Y-43500000D01*
X33249039Y-43490245D01*
X33246194Y-43480866D01*
X33241573Y-43472221D01*
X33235355Y-43464645D01*
X33195710Y-43425000D01*
X34849274Y-43425000D01*
X34852170Y-43454405D01*
X34860747Y-43482680D01*
X34874676Y-43508739D01*
X34893421Y-43531579D01*
X34916261Y-43550324D01*
X34942320Y-43564253D01*
X34970595Y-43572830D01*
X35000000Y-43575726D01*
X35462500Y-43575000D01*
X35500000Y-43537500D01*
X35500000Y-43137500D01*
X35900000Y-43137500D01*
X35900000Y-43537500D01*
X35937500Y-43575000D01*
X36400000Y-43575726D01*
X36429405Y-43572830D01*
X36457680Y-43564253D01*
X36483739Y-43550324D01*
X36506579Y-43531579D01*
X36525324Y-43508739D01*
X36539253Y-43482680D01*
X36547830Y-43454405D01*
X36550726Y-43425000D01*
X36550000Y-43175000D01*
X36512500Y-43137500D01*
X35900000Y-43137500D01*
X35500000Y-43137500D01*
X34887500Y-43137500D01*
X34850000Y-43175000D01*
X34849274Y-43425000D01*
X33195710Y-43425000D01*
X32550000Y-42779290D01*
X32550000Y-42725629D01*
X32872500Y-42725000D01*
X32910000Y-42687500D01*
X32910000Y-42450000D01*
X33310000Y-42450000D01*
X33310000Y-42687500D01*
X33347500Y-42725000D01*
X33720000Y-42725726D01*
X33749405Y-42722830D01*
X33777680Y-42714253D01*
X33803739Y-42700324D01*
X33826579Y-42681579D01*
X33845324Y-42658739D01*
X33859253Y-42632680D01*
X33867830Y-42604405D01*
X33870726Y-42575000D01*
X33870000Y-42487500D01*
X33832500Y-42450000D01*
X33310000Y-42450000D01*
X32910000Y-42450000D01*
X32890000Y-42450000D01*
X32890000Y-42050000D01*
X33883333Y-42050000D01*
X34270000Y-42340000D01*
G04 #@! TA.AperFunction,Conductor*
G36*
X34270000Y-42340000D02*
G01*
X34278380Y-42345084D01*
X34287591Y-42348436D01*
X34300000Y-42350000D01*
X34888022Y-42350000D01*
X34874676Y-42366261D01*
X34860747Y-42392320D01*
X34852170Y-42420595D01*
X34849274Y-42450000D01*
X34850000Y-42700000D01*
X34887500Y-42737500D01*
X35500000Y-42737500D01*
X35500000Y-42717500D01*
X35900000Y-42717500D01*
X35900000Y-42737500D01*
X36512500Y-42737500D01*
X36550000Y-42700000D01*
X36550726Y-42450000D01*
X36547830Y-42420595D01*
X36539253Y-42392320D01*
X36525324Y-42366261D01*
X36511978Y-42350000D01*
X36750000Y-42350000D01*
X36750000Y-45950000D01*
X36357372Y-45950000D01*
X36379405Y-45947830D01*
X36407680Y-45939253D01*
X36433739Y-45925324D01*
X36456579Y-45906579D01*
X36475324Y-45883739D01*
X36489253Y-45857680D01*
X36497830Y-45829405D01*
X36500726Y-45800000D01*
X36500000Y-45337500D01*
X36462500Y-45300000D01*
X36062500Y-45300000D01*
X36062500Y-45320000D01*
X35662500Y-45320000D01*
X35662500Y-45300000D01*
X35262500Y-45300000D01*
X35225000Y-45337500D01*
X35224274Y-45800000D01*
X35227170Y-45829405D01*
X35235747Y-45857680D01*
X35249676Y-45883739D01*
X35268421Y-45906579D01*
X35291261Y-45925324D01*
X35317320Y-45939253D01*
X35345595Y-45947830D01*
X35367628Y-45950000D01*
X34332372Y-45950000D01*
X34354405Y-45947830D01*
X34382680Y-45939253D01*
X34408739Y-45925324D01*
X34431579Y-45906579D01*
X34450324Y-45883739D01*
X34464253Y-45857680D01*
X34472830Y-45829405D01*
X34475726Y-45800000D01*
X34475000Y-45337500D01*
X34437500Y-45300000D01*
X34037500Y-45300000D01*
X34037500Y-45320000D01*
X33637500Y-45320000D01*
X33637500Y-45300000D01*
X33617500Y-45300000D01*
X33617500Y-44900000D01*
X33637500Y-44900000D01*
X33637500Y-44287500D01*
X34037500Y-44287500D01*
X34037500Y-44900000D01*
X34437500Y-44900000D01*
X34475000Y-44862500D01*
X34475726Y-44400000D01*
X35224274Y-44400000D01*
X35225000Y-44862500D01*
X35262500Y-44900000D01*
X35662500Y-44900000D01*
X35662500Y-44287500D01*
X36062500Y-44287500D01*
X36062500Y-44900000D01*
X36462500Y-44900000D01*
X36500000Y-44862500D01*
X36500726Y-44400000D01*
X36497830Y-44370595D01*
X36489253Y-44342320D01*
X36475324Y-44316261D01*
X36456579Y-44293421D01*
X36433739Y-44274676D01*
X36407680Y-44260747D01*
X36379405Y-44252170D01*
X36350000Y-44249274D01*
X36100000Y-44250000D01*
X36062500Y-44287500D01*
X35662500Y-44287500D01*
X35625000Y-44250000D01*
X35375000Y-44249274D01*
X35345595Y-44252170D01*
X35317320Y-44260747D01*
X35291261Y-44274676D01*
X35268421Y-44293421D01*
X35249676Y-44316261D01*
X35235747Y-44342320D01*
X35227170Y-44370595D01*
X35224274Y-44400000D01*
X34475726Y-44400000D01*
X34472830Y-44370595D01*
X34464253Y-44342320D01*
X34450324Y-44316261D01*
X34431579Y-44293421D01*
X34408739Y-44274676D01*
X34382680Y-44260747D01*
X34354405Y-44252170D01*
X34325000Y-44249274D01*
X34075000Y-44250000D01*
X34037500Y-44287500D01*
X33637500Y-44287500D01*
X33600000Y-44250000D01*
X33350000Y-44249274D01*
X33320595Y-44252170D01*
X33292320Y-44260747D01*
X33266261Y-44274676D01*
X33250000Y-44288022D01*
X33250000Y-43500000D01*
X33249039Y-43490245D01*
X33246194Y-43480866D01*
X33241573Y-43472221D01*
X33235355Y-43464645D01*
X33195710Y-43425000D01*
X34849274Y-43425000D01*
X34852170Y-43454405D01*
X34860747Y-43482680D01*
X34874676Y-43508739D01*
X34893421Y-43531579D01*
X34916261Y-43550324D01*
X34942320Y-43564253D01*
X34970595Y-43572830D01*
X35000000Y-43575726D01*
X35462500Y-43575000D01*
X35500000Y-43537500D01*
X35500000Y-43137500D01*
X35900000Y-43137500D01*
X35900000Y-43537500D01*
X35937500Y-43575000D01*
X36400000Y-43575726D01*
X36429405Y-43572830D01*
X36457680Y-43564253D01*
X36483739Y-43550324D01*
X36506579Y-43531579D01*
X36525324Y-43508739D01*
X36539253Y-43482680D01*
X36547830Y-43454405D01*
X36550726Y-43425000D01*
X36550000Y-43175000D01*
X36512500Y-43137500D01*
X35900000Y-43137500D01*
X35500000Y-43137500D01*
X34887500Y-43137500D01*
X34850000Y-43175000D01*
X34849274Y-43425000D01*
X33195710Y-43425000D01*
X32550000Y-42779290D01*
X32550000Y-42725629D01*
X32872500Y-42725000D01*
X32910000Y-42687500D01*
X32910000Y-42450000D01*
X33310000Y-42450000D01*
X33310000Y-42687500D01*
X33347500Y-42725000D01*
X33720000Y-42725726D01*
X33749405Y-42722830D01*
X33777680Y-42714253D01*
X33803739Y-42700324D01*
X33826579Y-42681579D01*
X33845324Y-42658739D01*
X33859253Y-42632680D01*
X33867830Y-42604405D01*
X33870726Y-42575000D01*
X33870000Y-42487500D01*
X33832500Y-42450000D01*
X33310000Y-42450000D01*
X32910000Y-42450000D01*
X32890000Y-42450000D01*
X32890000Y-42050000D01*
X33883333Y-42050000D01*
X34270000Y-42340000D01*
G37*
G04 #@! TD.AperFunction*
D32*
X26600000Y-42308500D02*
X26675000Y-42383500D01*
X27446000Y-42383500D01*
X27446000Y-42363500D01*
X27754000Y-42363500D01*
X27754000Y-42383500D01*
X28525000Y-42383500D01*
X28600000Y-42308500D01*
X28600609Y-42200000D01*
X30664000Y-42200000D01*
X30664000Y-42404000D01*
X30644000Y-42404000D01*
X30644000Y-42800000D01*
X30719000Y-42875000D01*
X30900000Y-42875690D01*
X30900000Y-43400000D01*
X26300000Y-43400000D01*
X26300000Y-43025000D01*
X26598548Y-43025000D01*
X26604340Y-43083810D01*
X26621495Y-43140361D01*
X26649352Y-43192478D01*
X26686841Y-43238159D01*
X26732522Y-43275648D01*
X26784639Y-43303505D01*
X26841190Y-43320660D01*
X26900000Y-43326452D01*
X27371000Y-43325000D01*
X27446000Y-43250000D01*
X27446000Y-42691500D01*
X27754000Y-42691500D01*
X27754000Y-43250000D01*
X27829000Y-43325000D01*
X28300000Y-43326452D01*
X28358810Y-43320660D01*
X28415361Y-43303505D01*
X28467478Y-43275648D01*
X28513159Y-43238159D01*
X28550648Y-43192478D01*
X28578505Y-43140361D01*
X28595660Y-43083810D01*
X28601452Y-43025000D01*
X28600000Y-42766500D01*
X28525000Y-42691500D01*
X27754000Y-42691500D01*
X27446000Y-42691500D01*
X26675000Y-42691500D01*
X26600000Y-42766500D01*
X26598548Y-43025000D01*
X26300000Y-43025000D01*
X26300000Y-42575000D01*
X29578548Y-42575000D01*
X29584340Y-42633810D01*
X29601495Y-42690361D01*
X29629352Y-42742478D01*
X29666841Y-42788159D01*
X29712522Y-42825648D01*
X29764639Y-42853505D01*
X29821190Y-42870660D01*
X29880000Y-42876452D01*
X30261000Y-42875000D01*
X30336000Y-42800000D01*
X30336000Y-42404000D01*
X29655000Y-42404000D01*
X29580000Y-42479000D01*
X29578548Y-42575000D01*
X26300000Y-42575000D01*
X26300000Y-42200000D01*
X26599391Y-42200000D01*
X26600000Y-42308500D01*
G04 #@! TA.AperFunction,Conductor*
D31*
G36*
X26600000Y-42308500D02*
G01*
X26675000Y-42383500D01*
X27446000Y-42383500D01*
X27446000Y-42363500D01*
X27754000Y-42363500D01*
X27754000Y-42383500D01*
X28525000Y-42383500D01*
X28600000Y-42308500D01*
X28600609Y-42200000D01*
X30664000Y-42200000D01*
X30664000Y-42404000D01*
X30644000Y-42404000D01*
X30644000Y-42800000D01*
X30719000Y-42875000D01*
X30900000Y-42875690D01*
X30900000Y-43400000D01*
X26300000Y-43400000D01*
X26300000Y-43025000D01*
X26598548Y-43025000D01*
X26604340Y-43083810D01*
X26621495Y-43140361D01*
X26649352Y-43192478D01*
X26686841Y-43238159D01*
X26732522Y-43275648D01*
X26784639Y-43303505D01*
X26841190Y-43320660D01*
X26900000Y-43326452D01*
X27371000Y-43325000D01*
X27446000Y-43250000D01*
X27446000Y-42691500D01*
X27754000Y-42691500D01*
X27754000Y-43250000D01*
X27829000Y-43325000D01*
X28300000Y-43326452D01*
X28358810Y-43320660D01*
X28415361Y-43303505D01*
X28467478Y-43275648D01*
X28513159Y-43238159D01*
X28550648Y-43192478D01*
X28578505Y-43140361D01*
X28595660Y-43083810D01*
X28601452Y-43025000D01*
X28600000Y-42766500D01*
X28525000Y-42691500D01*
X27754000Y-42691500D01*
X27446000Y-42691500D01*
X26675000Y-42691500D01*
X26600000Y-42766500D01*
X26598548Y-43025000D01*
X26300000Y-43025000D01*
X26300000Y-42575000D01*
X29578548Y-42575000D01*
X29584340Y-42633810D01*
X29601495Y-42690361D01*
X29629352Y-42742478D01*
X29666841Y-42788159D01*
X29712522Y-42825648D01*
X29764639Y-42853505D01*
X29821190Y-42870660D01*
X29880000Y-42876452D01*
X30261000Y-42875000D01*
X30336000Y-42800000D01*
X30336000Y-42404000D01*
X29655000Y-42404000D01*
X29580000Y-42479000D01*
X29578548Y-42575000D01*
X26300000Y-42575000D01*
X26300000Y-42200000D01*
X26599391Y-42200000D01*
X26600000Y-42308500D01*
G37*
G04 #@! TD.AperFunction*
D32*
X27355000Y-9046000D02*
X28036000Y-9046000D01*
X28036000Y-9026000D01*
X28200000Y-9026000D01*
X28200000Y-11176393D01*
X27188197Y-13200000D01*
X25800000Y-13200000D01*
X25800000Y-11963020D01*
X25810785Y-11942843D01*
X25811799Y-11939500D01*
X26056548Y-11939500D01*
X26062340Y-11998310D01*
X26079495Y-12054861D01*
X26107352Y-12106978D01*
X26144841Y-12152659D01*
X26190522Y-12190148D01*
X26242639Y-12218005D01*
X26299190Y-12235160D01*
X26358000Y-12240952D01*
X26616500Y-12239500D01*
X26691500Y-12164500D01*
X26691500Y-11393500D01*
X26999500Y-11393500D01*
X26999500Y-12164500D01*
X27074500Y-12239500D01*
X27333000Y-12240952D01*
X27391810Y-12235160D01*
X27448361Y-12218005D01*
X27500478Y-12190148D01*
X27546159Y-12152659D01*
X27583648Y-12106978D01*
X27611505Y-12054861D01*
X27628660Y-11998310D01*
X27634452Y-11939500D01*
X27633000Y-11468500D01*
X27558000Y-11393500D01*
X26999500Y-11393500D01*
X26691500Y-11393500D01*
X26133000Y-11393500D01*
X26058000Y-11468500D01*
X26056548Y-11939500D01*
X25811799Y-11939500D01*
X25847528Y-11821717D01*
X25859935Y-11695750D01*
X25859935Y-10783250D01*
X25847528Y-10657283D01*
X25811800Y-10539500D01*
X26056548Y-10539500D01*
X26058000Y-11010500D01*
X26133000Y-11085500D01*
X26691500Y-11085500D01*
X26691500Y-10314500D01*
X26999500Y-10314500D01*
X26999500Y-11085500D01*
X27558000Y-11085500D01*
X27633000Y-11010500D01*
X27634452Y-10539500D01*
X27628660Y-10480690D01*
X27611505Y-10424139D01*
X27583648Y-10372022D01*
X27546159Y-10326341D01*
X27500478Y-10288852D01*
X27448361Y-10260995D01*
X27391810Y-10243840D01*
X27333000Y-10238048D01*
X27074500Y-10239500D01*
X26999500Y-10314500D01*
X26691500Y-10314500D01*
X26616500Y-10239500D01*
X26358000Y-10238048D01*
X26299190Y-10243840D01*
X26242639Y-10260995D01*
X26190522Y-10288852D01*
X26144841Y-10326341D01*
X26107352Y-10372022D01*
X26079495Y-10424139D01*
X26062340Y-10480690D01*
X26056548Y-10539500D01*
X25811800Y-10539500D01*
X25810785Y-10536157D01*
X25800000Y-10515980D01*
X25800000Y-9525000D01*
X27278548Y-9525000D01*
X27284340Y-9583810D01*
X27301495Y-9640361D01*
X27329352Y-9692478D01*
X27366841Y-9738159D01*
X27412522Y-9775648D01*
X27464639Y-9803505D01*
X27521190Y-9820660D01*
X27580000Y-9826452D01*
X27961000Y-9825000D01*
X28036000Y-9750000D01*
X28036000Y-9354000D01*
X27355000Y-9354000D01*
X27280000Y-9429000D01*
X27278548Y-9525000D01*
X25800000Y-9525000D01*
X25800000Y-9000000D01*
X27309000Y-9000000D01*
X27355000Y-9046000D01*
G04 #@! TA.AperFunction,Conductor*
D31*
G36*
X27355000Y-9046000D02*
G01*
X28036000Y-9046000D01*
X28036000Y-9026000D01*
X28200000Y-9026000D01*
X28200000Y-11176393D01*
X27188197Y-13200000D01*
X25800000Y-13200000D01*
X25800000Y-11963020D01*
X25810785Y-11942843D01*
X25811799Y-11939500D01*
X26056548Y-11939500D01*
X26062340Y-11998310D01*
X26079495Y-12054861D01*
X26107352Y-12106978D01*
X26144841Y-12152659D01*
X26190522Y-12190148D01*
X26242639Y-12218005D01*
X26299190Y-12235160D01*
X26358000Y-12240952D01*
X26616500Y-12239500D01*
X26691500Y-12164500D01*
X26691500Y-11393500D01*
X26999500Y-11393500D01*
X26999500Y-12164500D01*
X27074500Y-12239500D01*
X27333000Y-12240952D01*
X27391810Y-12235160D01*
X27448361Y-12218005D01*
X27500478Y-12190148D01*
X27546159Y-12152659D01*
X27583648Y-12106978D01*
X27611505Y-12054861D01*
X27628660Y-11998310D01*
X27634452Y-11939500D01*
X27633000Y-11468500D01*
X27558000Y-11393500D01*
X26999500Y-11393500D01*
X26691500Y-11393500D01*
X26133000Y-11393500D01*
X26058000Y-11468500D01*
X26056548Y-11939500D01*
X25811799Y-11939500D01*
X25847528Y-11821717D01*
X25859935Y-11695750D01*
X25859935Y-10783250D01*
X25847528Y-10657283D01*
X25811800Y-10539500D01*
X26056548Y-10539500D01*
X26058000Y-11010500D01*
X26133000Y-11085500D01*
X26691500Y-11085500D01*
X26691500Y-10314500D01*
X26999500Y-10314500D01*
X26999500Y-11085500D01*
X27558000Y-11085500D01*
X27633000Y-11010500D01*
X27634452Y-10539500D01*
X27628660Y-10480690D01*
X27611505Y-10424139D01*
X27583648Y-10372022D01*
X27546159Y-10326341D01*
X27500478Y-10288852D01*
X27448361Y-10260995D01*
X27391810Y-10243840D01*
X27333000Y-10238048D01*
X27074500Y-10239500D01*
X26999500Y-10314500D01*
X26691500Y-10314500D01*
X26616500Y-10239500D01*
X26358000Y-10238048D01*
X26299190Y-10243840D01*
X26242639Y-10260995D01*
X26190522Y-10288852D01*
X26144841Y-10326341D01*
X26107352Y-10372022D01*
X26079495Y-10424139D01*
X26062340Y-10480690D01*
X26056548Y-10539500D01*
X25811800Y-10539500D01*
X25810785Y-10536157D01*
X25800000Y-10515980D01*
X25800000Y-9525000D01*
X27278548Y-9525000D01*
X27284340Y-9583810D01*
X27301495Y-9640361D01*
X27329352Y-9692478D01*
X27366841Y-9738159D01*
X27412522Y-9775648D01*
X27464639Y-9803505D01*
X27521190Y-9820660D01*
X27580000Y-9826452D01*
X27961000Y-9825000D01*
X28036000Y-9750000D01*
X28036000Y-9354000D01*
X27355000Y-9354000D01*
X27280000Y-9429000D01*
X27278548Y-9525000D01*
X25800000Y-9525000D01*
X25800000Y-9000000D01*
X27309000Y-9000000D01*
X27355000Y-9046000D01*
G37*
G04 #@! TD.AperFunction*
D30*
X45683871Y-16341866D02*
X45759533Y-16380418D01*
X45819582Y-16440467D01*
X45858134Y-16516129D01*
X45873000Y-16609992D01*
X45873000Y-38790008D01*
X45858134Y-38883871D01*
X45819582Y-38959533D01*
X45759533Y-39019582D01*
X45683871Y-39058134D01*
X45590008Y-39073000D01*
X41488264Y-39073000D01*
X41507343Y-39057343D01*
X41548206Y-39007550D01*
X41578570Y-38950743D01*
X41597268Y-38889103D01*
X41603582Y-38825000D01*
X41602000Y-38408750D01*
X41563550Y-38370300D01*
X43209305Y-38370300D01*
X43322543Y-38548505D01*
X43559622Y-38658602D01*
X43813626Y-38720332D01*
X44074791Y-38731322D01*
X44333081Y-38691150D01*
X44578572Y-38601360D01*
X44677457Y-38548505D01*
X44790695Y-38370300D01*
X44000000Y-37579605D01*
X43209305Y-38370300D01*
X41563550Y-38370300D01*
X41520250Y-38327000D01*
X40527000Y-38327000D01*
X40527000Y-38347000D01*
X40273000Y-38347000D01*
X40273000Y-38327000D01*
X39279750Y-38327000D01*
X39198000Y-38408750D01*
X39196418Y-38825000D01*
X39202732Y-38889103D01*
X39221430Y-38950743D01*
X39251794Y-39007550D01*
X39292657Y-39057343D01*
X39311736Y-39073000D01*
X28009992Y-39073000D01*
X27916129Y-39058134D01*
X27840467Y-39019582D01*
X27780418Y-38959533D01*
X27741866Y-38883871D01*
X27727000Y-38790008D01*
X27727000Y-38467000D01*
X27878418Y-38467000D01*
X27884732Y-38531103D01*
X27903430Y-38592743D01*
X27933794Y-38649550D01*
X27974657Y-38699343D01*
X28024450Y-38740206D01*
X28081257Y-38770570D01*
X28142897Y-38789268D01*
X28207000Y-38795582D01*
X28623250Y-38794000D01*
X28705000Y-38712250D01*
X28705000Y-37719000D01*
X28959000Y-37719000D01*
X28959000Y-38712250D01*
X29040750Y-38794000D01*
X29457000Y-38795582D01*
X29521103Y-38789268D01*
X29582743Y-38770570D01*
X29639550Y-38740206D01*
X29689343Y-38699343D01*
X29730206Y-38649550D01*
X29760570Y-38592743D01*
X29779268Y-38531103D01*
X29785582Y-38467000D01*
X29784000Y-37800750D01*
X29702250Y-37719000D01*
X28959000Y-37719000D01*
X28705000Y-37719000D01*
X27961750Y-37719000D01*
X27880000Y-37800750D01*
X27878418Y-38467000D01*
X27727000Y-38467000D01*
X27727000Y-37575000D01*
X39196418Y-37575000D01*
X39198000Y-37991250D01*
X39279750Y-38073000D01*
X40273000Y-38073000D01*
X40273000Y-37329750D01*
X40527000Y-37329750D01*
X40527000Y-38073000D01*
X41520250Y-38073000D01*
X41602000Y-37991250D01*
X41603582Y-37575000D01*
X41597268Y-37510897D01*
X41586316Y-37474791D01*
X42668678Y-37474791D01*
X42708850Y-37733081D01*
X42798640Y-37978572D01*
X42851495Y-38077457D01*
X43029700Y-38190695D01*
X43820395Y-37400000D01*
X44179605Y-37400000D01*
X44970300Y-38190695D01*
X45148505Y-38077457D01*
X45258602Y-37840378D01*
X45320332Y-37586374D01*
X45331322Y-37325209D01*
X45291150Y-37066919D01*
X45201360Y-36821428D01*
X45148505Y-36722543D01*
X44970300Y-36609305D01*
X44179605Y-37400000D01*
X43820395Y-37400000D01*
X43029700Y-36609305D01*
X42851495Y-36722543D01*
X42741398Y-36959622D01*
X42679668Y-37213626D01*
X42668678Y-37474791D01*
X41586316Y-37474791D01*
X41578570Y-37449257D01*
X41548206Y-37392450D01*
X41507343Y-37342657D01*
X41457550Y-37301794D01*
X41400743Y-37271430D01*
X41339103Y-37252732D01*
X41275000Y-37246418D01*
X40608750Y-37248000D01*
X40527000Y-37329750D01*
X40273000Y-37329750D01*
X40191250Y-37248000D01*
X39525000Y-37246418D01*
X39460897Y-37252732D01*
X39399257Y-37271430D01*
X39342450Y-37301794D01*
X39292657Y-37342657D01*
X39251794Y-37392450D01*
X39221430Y-37449257D01*
X39202732Y-37510897D01*
X39196418Y-37575000D01*
X27727000Y-37575000D01*
X27727000Y-36717000D01*
X27878418Y-36717000D01*
X27880000Y-37383250D01*
X27961750Y-37465000D01*
X28705000Y-37465000D01*
X28705000Y-36471750D01*
X28959000Y-36471750D01*
X28959000Y-37465000D01*
X29702250Y-37465000D01*
X29784000Y-37383250D01*
X29785582Y-36717000D01*
X29779268Y-36652897D01*
X29760570Y-36591257D01*
X29730206Y-36534450D01*
X29689343Y-36484657D01*
X29639550Y-36443794D01*
X29613183Y-36429700D01*
X43209305Y-36429700D01*
X44000000Y-37220395D01*
X44790695Y-36429700D01*
X44677457Y-36251495D01*
X44440378Y-36141398D01*
X44186374Y-36079668D01*
X43925209Y-36068678D01*
X43666919Y-36108850D01*
X43421428Y-36198640D01*
X43322543Y-36251495D01*
X43209305Y-36429700D01*
X29613183Y-36429700D01*
X29582743Y-36413430D01*
X29521103Y-36394732D01*
X29457000Y-36388418D01*
X29040750Y-36390000D01*
X28959000Y-36471750D01*
X28705000Y-36471750D01*
X28623250Y-36390000D01*
X28207000Y-36388418D01*
X28142897Y-36394732D01*
X28081257Y-36413430D01*
X28024450Y-36443794D01*
X27974657Y-36484657D01*
X27933794Y-36534450D01*
X27903430Y-36591257D01*
X27884732Y-36652897D01*
X27878418Y-36717000D01*
X27727000Y-36717000D01*
X27727000Y-35894936D01*
X35722170Y-35894936D01*
X35835346Y-36073088D01*
X36072339Y-36183134D01*
X36326247Y-36244830D01*
X36587312Y-36255806D01*
X36845502Y-36215640D01*
X37090895Y-36125875D01*
X37189654Y-36073088D01*
X37302830Y-35894936D01*
X36512500Y-35104605D01*
X35722170Y-35894936D01*
X27727000Y-35894936D01*
X27727000Y-34999812D01*
X35181694Y-34999812D01*
X35221860Y-35258002D01*
X35311625Y-35503395D01*
X35364412Y-35602154D01*
X35542564Y-35715330D01*
X36332895Y-34925000D01*
X36692105Y-34925000D01*
X37482436Y-35715330D01*
X37660588Y-35602154D01*
X37770634Y-35365161D01*
X37832330Y-35111253D01*
X37843306Y-34850188D01*
X37803140Y-34591998D01*
X37713375Y-34346605D01*
X37660588Y-34247846D01*
X37482436Y-34134670D01*
X36692105Y-34925000D01*
X36332895Y-34925000D01*
X35542564Y-34134670D01*
X35364412Y-34247846D01*
X35254366Y-34484839D01*
X35192670Y-34738747D01*
X35181694Y-34999812D01*
X27727000Y-34999812D01*
X27727000Y-33955064D01*
X35722170Y-33955064D01*
X36512500Y-34745395D01*
X37302830Y-33955064D01*
X37189654Y-33776912D01*
X36952661Y-33666866D01*
X36698753Y-33605170D01*
X36437688Y-33594194D01*
X36179498Y-33634360D01*
X35934105Y-33724125D01*
X35835346Y-33776912D01*
X35722170Y-33955064D01*
X27727000Y-33955064D01*
X27727000Y-29291300D01*
X30006805Y-29291300D01*
X30120043Y-29469505D01*
X30357122Y-29579602D01*
X30611126Y-29641332D01*
X30872291Y-29652322D01*
X31130581Y-29612150D01*
X31376072Y-29522360D01*
X31474957Y-29469505D01*
X31588195Y-29291300D01*
X30797500Y-28500605D01*
X30006805Y-29291300D01*
X27727000Y-29291300D01*
X27727000Y-28395791D01*
X29466178Y-28395791D01*
X29506350Y-28654081D01*
X29596140Y-28899572D01*
X29648995Y-28998457D01*
X29827200Y-29111695D01*
X30617895Y-28321000D01*
X30977105Y-28321000D01*
X31767800Y-29111695D01*
X31946005Y-28998457D01*
X32056102Y-28761378D01*
X32117832Y-28507374D01*
X32128822Y-28246209D01*
X32088650Y-27987919D01*
X31998860Y-27742428D01*
X31946005Y-27643543D01*
X31767800Y-27530305D01*
X30977105Y-28321000D01*
X30617895Y-28321000D01*
X29827200Y-27530305D01*
X29648995Y-27643543D01*
X29538898Y-27880622D01*
X29477168Y-28134626D01*
X29466178Y-28395791D01*
X27727000Y-28395791D01*
X27727000Y-27350700D01*
X30006805Y-27350700D01*
X30797500Y-28141395D01*
X31588195Y-27350700D01*
X31474957Y-27172495D01*
X31237878Y-27062398D01*
X30983874Y-27000668D01*
X30722709Y-26989678D01*
X30464419Y-27029850D01*
X30218928Y-27119640D01*
X30120043Y-27172495D01*
X30006805Y-27350700D01*
X27727000Y-27350700D01*
X27727000Y-23170300D01*
X43709305Y-23170300D01*
X43822543Y-23348505D01*
X44059622Y-23458602D01*
X44313626Y-23520332D01*
X44574791Y-23531322D01*
X44833081Y-23491150D01*
X45078572Y-23401360D01*
X45177457Y-23348505D01*
X45290695Y-23170300D01*
X44500000Y-22379605D01*
X43709305Y-23170300D01*
X27727000Y-23170300D01*
X27727000Y-22274791D01*
X43168678Y-22274791D01*
X43208850Y-22533081D01*
X43298640Y-22778572D01*
X43351495Y-22877457D01*
X43529700Y-22990695D01*
X44320395Y-22200000D01*
X44679605Y-22200000D01*
X45470300Y-22990695D01*
X45648505Y-22877457D01*
X45758602Y-22640378D01*
X45820332Y-22386374D01*
X45831322Y-22125209D01*
X45791150Y-21866919D01*
X45701360Y-21621428D01*
X45648505Y-21522543D01*
X45470300Y-21409305D01*
X44679605Y-22200000D01*
X44320395Y-22200000D01*
X43529700Y-21409305D01*
X43351495Y-21522543D01*
X43241398Y-21759622D01*
X43179668Y-22013626D01*
X43168678Y-22274791D01*
X27727000Y-22274791D01*
X27727000Y-21229700D01*
X43709305Y-21229700D01*
X44500000Y-22020395D01*
X45290695Y-21229700D01*
X45177457Y-21051495D01*
X44940378Y-20941398D01*
X44686374Y-20879668D01*
X44425209Y-20868678D01*
X44166919Y-20908850D01*
X43921428Y-20998640D01*
X43822543Y-21051495D01*
X43709305Y-21229700D01*
X27727000Y-21229700D01*
X27727000Y-20375000D01*
X27946418Y-20375000D01*
X27952732Y-20439103D01*
X27971430Y-20500743D01*
X28001794Y-20557550D01*
X28042657Y-20607343D01*
X28092450Y-20648206D01*
X28149257Y-20678570D01*
X28210897Y-20697268D01*
X28275000Y-20703582D01*
X28691250Y-20702000D01*
X28773000Y-20620250D01*
X28773000Y-19627000D01*
X29027000Y-19627000D01*
X29027000Y-20620250D01*
X29108750Y-20702000D01*
X29525000Y-20703582D01*
X29589103Y-20697268D01*
X29650743Y-20678570D01*
X29707550Y-20648206D01*
X29757343Y-20607343D01*
X29798206Y-20557550D01*
X29828570Y-20500743D01*
X29847268Y-20439103D01*
X29853582Y-20375000D01*
X29852621Y-19969936D01*
X34909670Y-19969936D01*
X35022846Y-20148088D01*
X35259839Y-20258134D01*
X35513747Y-20319830D01*
X35774812Y-20330806D01*
X36033002Y-20290640D01*
X36278395Y-20200875D01*
X36377154Y-20148088D01*
X36490330Y-19969936D01*
X35700000Y-19179605D01*
X34909670Y-19969936D01*
X29852621Y-19969936D01*
X29852000Y-19708750D01*
X29770250Y-19627000D01*
X29027000Y-19627000D01*
X28773000Y-19627000D01*
X28029750Y-19627000D01*
X27948000Y-19708750D01*
X27946418Y-20375000D01*
X27727000Y-20375000D01*
X27727000Y-18625000D01*
X27946418Y-18625000D01*
X27948000Y-19291250D01*
X28029750Y-19373000D01*
X28773000Y-19373000D01*
X28773000Y-18379750D01*
X29027000Y-18379750D01*
X29027000Y-19373000D01*
X29770250Y-19373000D01*
X29852000Y-19291250D01*
X29852513Y-19074812D01*
X34369194Y-19074812D01*
X34409360Y-19333002D01*
X34499125Y-19578395D01*
X34551912Y-19677154D01*
X34730064Y-19790330D01*
X35520395Y-19000000D01*
X35879605Y-19000000D01*
X36669936Y-19790330D01*
X36848088Y-19677154D01*
X36958134Y-19440161D01*
X37019830Y-19186253D01*
X37030806Y-18925188D01*
X36990640Y-18666998D01*
X36900875Y-18421605D01*
X36848088Y-18322846D01*
X36669936Y-18209670D01*
X35879605Y-19000000D01*
X35520395Y-19000000D01*
X34730064Y-18209670D01*
X34551912Y-18322846D01*
X34441866Y-18559839D01*
X34380170Y-18813747D01*
X34369194Y-19074812D01*
X29852513Y-19074812D01*
X29853582Y-18625000D01*
X29847268Y-18560897D01*
X29828570Y-18499257D01*
X29798206Y-18442450D01*
X29757343Y-18392657D01*
X29707550Y-18351794D01*
X29650743Y-18321430D01*
X29589103Y-18302732D01*
X29525000Y-18296418D01*
X29108750Y-18298000D01*
X29027000Y-18379750D01*
X28773000Y-18379750D01*
X28691250Y-18298000D01*
X28275000Y-18296418D01*
X28210897Y-18302732D01*
X28149257Y-18321430D01*
X28092450Y-18351794D01*
X28042657Y-18392657D01*
X28001794Y-18442450D01*
X27971430Y-18499257D01*
X27952732Y-18560897D01*
X27946418Y-18625000D01*
X27727000Y-18625000D01*
X27727000Y-18030064D01*
X34909670Y-18030064D01*
X35700000Y-18820395D01*
X36490330Y-18030064D01*
X36377154Y-17851912D01*
X36140161Y-17741866D01*
X35886253Y-17680170D01*
X35625188Y-17669194D01*
X35366998Y-17709360D01*
X35121605Y-17799125D01*
X35022846Y-17851912D01*
X34909670Y-18030064D01*
X27727000Y-18030064D01*
X27727000Y-16609992D01*
X27741866Y-16516129D01*
X27780418Y-16440467D01*
X27840467Y-16380418D01*
X27916129Y-16341866D01*
X28009992Y-16327000D01*
X45590008Y-16327000D01*
X45683871Y-16341866D01*
G04 #@! TA.AperFunction,Conductor*
D31*
G36*
X45683871Y-16341866D02*
G01*
X45759533Y-16380418D01*
X45819582Y-16440467D01*
X45858134Y-16516129D01*
X45873000Y-16609992D01*
X45873000Y-38790008D01*
X45858134Y-38883871D01*
X45819582Y-38959533D01*
X45759533Y-39019582D01*
X45683871Y-39058134D01*
X45590008Y-39073000D01*
X41488264Y-39073000D01*
X41507343Y-39057343D01*
X41548206Y-39007550D01*
X41578570Y-38950743D01*
X41597268Y-38889103D01*
X41603582Y-38825000D01*
X41602000Y-38408750D01*
X41563550Y-38370300D01*
X43209305Y-38370300D01*
X43322543Y-38548505D01*
X43559622Y-38658602D01*
X43813626Y-38720332D01*
X44074791Y-38731322D01*
X44333081Y-38691150D01*
X44578572Y-38601360D01*
X44677457Y-38548505D01*
X44790695Y-38370300D01*
X44000000Y-37579605D01*
X43209305Y-38370300D01*
X41563550Y-38370300D01*
X41520250Y-38327000D01*
X40527000Y-38327000D01*
X40527000Y-38347000D01*
X40273000Y-38347000D01*
X40273000Y-38327000D01*
X39279750Y-38327000D01*
X39198000Y-38408750D01*
X39196418Y-38825000D01*
X39202732Y-38889103D01*
X39221430Y-38950743D01*
X39251794Y-39007550D01*
X39292657Y-39057343D01*
X39311736Y-39073000D01*
X28009992Y-39073000D01*
X27916129Y-39058134D01*
X27840467Y-39019582D01*
X27780418Y-38959533D01*
X27741866Y-38883871D01*
X27727000Y-38790008D01*
X27727000Y-38467000D01*
X27878418Y-38467000D01*
X27884732Y-38531103D01*
X27903430Y-38592743D01*
X27933794Y-38649550D01*
X27974657Y-38699343D01*
X28024450Y-38740206D01*
X28081257Y-38770570D01*
X28142897Y-38789268D01*
X28207000Y-38795582D01*
X28623250Y-38794000D01*
X28705000Y-38712250D01*
X28705000Y-37719000D01*
X28959000Y-37719000D01*
X28959000Y-38712250D01*
X29040750Y-38794000D01*
X29457000Y-38795582D01*
X29521103Y-38789268D01*
X29582743Y-38770570D01*
X29639550Y-38740206D01*
X29689343Y-38699343D01*
X29730206Y-38649550D01*
X29760570Y-38592743D01*
X29779268Y-38531103D01*
X29785582Y-38467000D01*
X29784000Y-37800750D01*
X29702250Y-37719000D01*
X28959000Y-37719000D01*
X28705000Y-37719000D01*
X27961750Y-37719000D01*
X27880000Y-37800750D01*
X27878418Y-38467000D01*
X27727000Y-38467000D01*
X27727000Y-37575000D01*
X39196418Y-37575000D01*
X39198000Y-37991250D01*
X39279750Y-38073000D01*
X40273000Y-38073000D01*
X40273000Y-37329750D01*
X40527000Y-37329750D01*
X40527000Y-38073000D01*
X41520250Y-38073000D01*
X41602000Y-37991250D01*
X41603582Y-37575000D01*
X41597268Y-37510897D01*
X41586316Y-37474791D01*
X42668678Y-37474791D01*
X42708850Y-37733081D01*
X42798640Y-37978572D01*
X42851495Y-38077457D01*
X43029700Y-38190695D01*
X43820395Y-37400000D01*
X44179605Y-37400000D01*
X44970300Y-38190695D01*
X45148505Y-38077457D01*
X45258602Y-37840378D01*
X45320332Y-37586374D01*
X45331322Y-37325209D01*
X45291150Y-37066919D01*
X45201360Y-36821428D01*
X45148505Y-36722543D01*
X44970300Y-36609305D01*
X44179605Y-37400000D01*
X43820395Y-37400000D01*
X43029700Y-36609305D01*
X42851495Y-36722543D01*
X42741398Y-36959622D01*
X42679668Y-37213626D01*
X42668678Y-37474791D01*
X41586316Y-37474791D01*
X41578570Y-37449257D01*
X41548206Y-37392450D01*
X41507343Y-37342657D01*
X41457550Y-37301794D01*
X41400743Y-37271430D01*
X41339103Y-37252732D01*
X41275000Y-37246418D01*
X40608750Y-37248000D01*
X40527000Y-37329750D01*
X40273000Y-37329750D01*
X40191250Y-37248000D01*
X39525000Y-37246418D01*
X39460897Y-37252732D01*
X39399257Y-37271430D01*
X39342450Y-37301794D01*
X39292657Y-37342657D01*
X39251794Y-37392450D01*
X39221430Y-37449257D01*
X39202732Y-37510897D01*
X39196418Y-37575000D01*
X27727000Y-37575000D01*
X27727000Y-36717000D01*
X27878418Y-36717000D01*
X27880000Y-37383250D01*
X27961750Y-37465000D01*
X28705000Y-37465000D01*
X28705000Y-36471750D01*
X28959000Y-36471750D01*
X28959000Y-37465000D01*
X29702250Y-37465000D01*
X29784000Y-37383250D01*
X29785582Y-36717000D01*
X29779268Y-36652897D01*
X29760570Y-36591257D01*
X29730206Y-36534450D01*
X29689343Y-36484657D01*
X29639550Y-36443794D01*
X29613183Y-36429700D01*
X43209305Y-36429700D01*
X44000000Y-37220395D01*
X44790695Y-36429700D01*
X44677457Y-36251495D01*
X44440378Y-36141398D01*
X44186374Y-36079668D01*
X43925209Y-36068678D01*
X43666919Y-36108850D01*
X43421428Y-36198640D01*
X43322543Y-36251495D01*
X43209305Y-36429700D01*
X29613183Y-36429700D01*
X29582743Y-36413430D01*
X29521103Y-36394732D01*
X29457000Y-36388418D01*
X29040750Y-36390000D01*
X28959000Y-36471750D01*
X28705000Y-36471750D01*
X28623250Y-36390000D01*
X28207000Y-36388418D01*
X28142897Y-36394732D01*
X28081257Y-36413430D01*
X28024450Y-36443794D01*
X27974657Y-36484657D01*
X27933794Y-36534450D01*
X27903430Y-36591257D01*
X27884732Y-36652897D01*
X27878418Y-36717000D01*
X27727000Y-36717000D01*
X27727000Y-35894936D01*
X35722170Y-35894936D01*
X35835346Y-36073088D01*
X36072339Y-36183134D01*
X36326247Y-36244830D01*
X36587312Y-36255806D01*
X36845502Y-36215640D01*
X37090895Y-36125875D01*
X37189654Y-36073088D01*
X37302830Y-35894936D01*
X36512500Y-35104605D01*
X35722170Y-35894936D01*
X27727000Y-35894936D01*
X27727000Y-34999812D01*
X35181694Y-34999812D01*
X35221860Y-35258002D01*
X35311625Y-35503395D01*
X35364412Y-35602154D01*
X35542564Y-35715330D01*
X36332895Y-34925000D01*
X36692105Y-34925000D01*
X37482436Y-35715330D01*
X37660588Y-35602154D01*
X37770634Y-35365161D01*
X37832330Y-35111253D01*
X37843306Y-34850188D01*
X37803140Y-34591998D01*
X37713375Y-34346605D01*
X37660588Y-34247846D01*
X37482436Y-34134670D01*
X36692105Y-34925000D01*
X36332895Y-34925000D01*
X35542564Y-34134670D01*
X35364412Y-34247846D01*
X35254366Y-34484839D01*
X35192670Y-34738747D01*
X35181694Y-34999812D01*
X27727000Y-34999812D01*
X27727000Y-33955064D01*
X35722170Y-33955064D01*
X36512500Y-34745395D01*
X37302830Y-33955064D01*
X37189654Y-33776912D01*
X36952661Y-33666866D01*
X36698753Y-33605170D01*
X36437688Y-33594194D01*
X36179498Y-33634360D01*
X35934105Y-33724125D01*
X35835346Y-33776912D01*
X35722170Y-33955064D01*
X27727000Y-33955064D01*
X27727000Y-29291300D01*
X30006805Y-29291300D01*
X30120043Y-29469505D01*
X30357122Y-29579602D01*
X30611126Y-29641332D01*
X30872291Y-29652322D01*
X31130581Y-29612150D01*
X31376072Y-29522360D01*
X31474957Y-29469505D01*
X31588195Y-29291300D01*
X30797500Y-28500605D01*
X30006805Y-29291300D01*
X27727000Y-29291300D01*
X27727000Y-28395791D01*
X29466178Y-28395791D01*
X29506350Y-28654081D01*
X29596140Y-28899572D01*
X29648995Y-28998457D01*
X29827200Y-29111695D01*
X30617895Y-28321000D01*
X30977105Y-28321000D01*
X31767800Y-29111695D01*
X31946005Y-28998457D01*
X32056102Y-28761378D01*
X32117832Y-28507374D01*
X32128822Y-28246209D01*
X32088650Y-27987919D01*
X31998860Y-27742428D01*
X31946005Y-27643543D01*
X31767800Y-27530305D01*
X30977105Y-28321000D01*
X30617895Y-28321000D01*
X29827200Y-27530305D01*
X29648995Y-27643543D01*
X29538898Y-27880622D01*
X29477168Y-28134626D01*
X29466178Y-28395791D01*
X27727000Y-28395791D01*
X27727000Y-27350700D01*
X30006805Y-27350700D01*
X30797500Y-28141395D01*
X31588195Y-27350700D01*
X31474957Y-27172495D01*
X31237878Y-27062398D01*
X30983874Y-27000668D01*
X30722709Y-26989678D01*
X30464419Y-27029850D01*
X30218928Y-27119640D01*
X30120043Y-27172495D01*
X30006805Y-27350700D01*
X27727000Y-27350700D01*
X27727000Y-23170300D01*
X43709305Y-23170300D01*
X43822543Y-23348505D01*
X44059622Y-23458602D01*
X44313626Y-23520332D01*
X44574791Y-23531322D01*
X44833081Y-23491150D01*
X45078572Y-23401360D01*
X45177457Y-23348505D01*
X45290695Y-23170300D01*
X44500000Y-22379605D01*
X43709305Y-23170300D01*
X27727000Y-23170300D01*
X27727000Y-22274791D01*
X43168678Y-22274791D01*
X43208850Y-22533081D01*
X43298640Y-22778572D01*
X43351495Y-22877457D01*
X43529700Y-22990695D01*
X44320395Y-22200000D01*
X44679605Y-22200000D01*
X45470300Y-22990695D01*
X45648505Y-22877457D01*
X45758602Y-22640378D01*
X45820332Y-22386374D01*
X45831322Y-22125209D01*
X45791150Y-21866919D01*
X45701360Y-21621428D01*
X45648505Y-21522543D01*
X45470300Y-21409305D01*
X44679605Y-22200000D01*
X44320395Y-22200000D01*
X43529700Y-21409305D01*
X43351495Y-21522543D01*
X43241398Y-21759622D01*
X43179668Y-22013626D01*
X43168678Y-22274791D01*
X27727000Y-22274791D01*
X27727000Y-21229700D01*
X43709305Y-21229700D01*
X44500000Y-22020395D01*
X45290695Y-21229700D01*
X45177457Y-21051495D01*
X44940378Y-20941398D01*
X44686374Y-20879668D01*
X44425209Y-20868678D01*
X44166919Y-20908850D01*
X43921428Y-20998640D01*
X43822543Y-21051495D01*
X43709305Y-21229700D01*
X27727000Y-21229700D01*
X27727000Y-20375000D01*
X27946418Y-20375000D01*
X27952732Y-20439103D01*
X27971430Y-20500743D01*
X28001794Y-20557550D01*
X28042657Y-20607343D01*
X28092450Y-20648206D01*
X28149257Y-20678570D01*
X28210897Y-20697268D01*
X28275000Y-20703582D01*
X28691250Y-20702000D01*
X28773000Y-20620250D01*
X28773000Y-19627000D01*
X29027000Y-19627000D01*
X29027000Y-20620250D01*
X29108750Y-20702000D01*
X29525000Y-20703582D01*
X29589103Y-20697268D01*
X29650743Y-20678570D01*
X29707550Y-20648206D01*
X29757343Y-20607343D01*
X29798206Y-20557550D01*
X29828570Y-20500743D01*
X29847268Y-20439103D01*
X29853582Y-20375000D01*
X29852621Y-19969936D01*
X34909670Y-19969936D01*
X35022846Y-20148088D01*
X35259839Y-20258134D01*
X35513747Y-20319830D01*
X35774812Y-20330806D01*
X36033002Y-20290640D01*
X36278395Y-20200875D01*
X36377154Y-20148088D01*
X36490330Y-19969936D01*
X35700000Y-19179605D01*
X34909670Y-19969936D01*
X29852621Y-19969936D01*
X29852000Y-19708750D01*
X29770250Y-19627000D01*
X29027000Y-19627000D01*
X28773000Y-19627000D01*
X28029750Y-19627000D01*
X27948000Y-19708750D01*
X27946418Y-20375000D01*
X27727000Y-20375000D01*
X27727000Y-18625000D01*
X27946418Y-18625000D01*
X27948000Y-19291250D01*
X28029750Y-19373000D01*
X28773000Y-19373000D01*
X28773000Y-18379750D01*
X29027000Y-18379750D01*
X29027000Y-19373000D01*
X29770250Y-19373000D01*
X29852000Y-19291250D01*
X29852513Y-19074812D01*
X34369194Y-19074812D01*
X34409360Y-19333002D01*
X34499125Y-19578395D01*
X34551912Y-19677154D01*
X34730064Y-19790330D01*
X35520395Y-19000000D01*
X35879605Y-19000000D01*
X36669936Y-19790330D01*
X36848088Y-19677154D01*
X36958134Y-19440161D01*
X37019830Y-19186253D01*
X37030806Y-18925188D01*
X36990640Y-18666998D01*
X36900875Y-18421605D01*
X36848088Y-18322846D01*
X36669936Y-18209670D01*
X35879605Y-19000000D01*
X35520395Y-19000000D01*
X34730064Y-18209670D01*
X34551912Y-18322846D01*
X34441866Y-18559839D01*
X34380170Y-18813747D01*
X34369194Y-19074812D01*
X29852513Y-19074812D01*
X29853582Y-18625000D01*
X29847268Y-18560897D01*
X29828570Y-18499257D01*
X29798206Y-18442450D01*
X29757343Y-18392657D01*
X29707550Y-18351794D01*
X29650743Y-18321430D01*
X29589103Y-18302732D01*
X29525000Y-18296418D01*
X29108750Y-18298000D01*
X29027000Y-18379750D01*
X28773000Y-18379750D01*
X28691250Y-18298000D01*
X28275000Y-18296418D01*
X28210897Y-18302732D01*
X28149257Y-18321430D01*
X28092450Y-18351794D01*
X28042657Y-18392657D01*
X28001794Y-18442450D01*
X27971430Y-18499257D01*
X27952732Y-18560897D01*
X27946418Y-18625000D01*
X27727000Y-18625000D01*
X27727000Y-18030064D01*
X34909670Y-18030064D01*
X35700000Y-18820395D01*
X36490330Y-18030064D01*
X36377154Y-17851912D01*
X36140161Y-17741866D01*
X35886253Y-17680170D01*
X35625188Y-17669194D01*
X35366998Y-17709360D01*
X35121605Y-17799125D01*
X35022846Y-17851912D01*
X34909670Y-18030064D01*
X27727000Y-18030064D01*
X27727000Y-16609992D01*
X27741866Y-16516129D01*
X27780418Y-16440467D01*
X27840467Y-16380418D01*
X27916129Y-16341866D01*
X28009992Y-16327000D01*
X45590008Y-16327000D01*
X45683871Y-16341866D01*
G37*
G04 #@! TD.AperFunction*
M02*
