M48
; DRILL file {KiCad (5.1.7)-1} date 05/24/21 20:07:43
; FORMAT={-:-/ absolute / inch / decimal}
; #@! TF.CreationDate,2021-05-24T20:07:43+02:00
; #@! TF.GenerationSoftware,Kicad,Pcbnew,(5.1.7)-1
FMAT,2
INCH
T1C0.0118
T2C0.0157
T3C0.0276
T4C0.0295
T5C0.0299
T6C0.0315
T7C0.0315
T8C0.0394
T9C0.0197
T10C0.1260
%
G90
G05
T1
X1.159Y-0.325
X1.16Y-0.363
X1.161Y-0.285
X1.178Y-1.556
X1.211Y-1.556
X1.249Y-1.557
X1.2508Y-1.6052
T2
X0.216Y-0.158
X0.481Y-0.171
X0.655Y-0.174
X0.87Y-0.174
X0.989Y-2.004
X0.994Y-1.773
X1.112Y-1.321
X1.113Y-0.859
X1.114Y-0.67
X1.114Y-1.194
X1.1142Y-0.189
X1.1142Y-0.6102
X1.115Y-0.958
X1.115Y-1.08
X1.139Y-1.553
X1.157Y-0.235
X1.158Y-0.419
X1.185Y-0.6102
X1.192Y-2.005
X1.193Y-1.775
X1.252Y-0.176
X1.316Y-1.1
X1.316Y-1.286
X1.319Y-0.898
X1.723Y-0.991
X1.726Y-0.718
X1.728Y-1.154
X1.731Y-1.323
T3
X0.1388Y-1.75
X0.2175Y-1.75
X0.68Y-0.81
X0.68Y-0.91
X0.68Y-1.01
X0.68Y-1.11
X0.68Y-1.31
X0.68Y-1.41
X0.68Y-1.51
X1.0275Y-1.21
X1.0275Y-1.2887
X0.6725Y-0.2875
X0.7512Y-0.2875
X0.355Y-2.0963
X0.355Y-2.175
T4
X0.21Y-0.42
X0.21Y-0.52
X0.21Y-0.62
X0.21Y-1.32
X0.21Y-1.42
X0.21Y-1.52
X0.81Y-0.42
X0.81Y-0.52
X0.81Y-0.62
X0.81Y-1.32
X0.81Y-1.42
X0.81Y-1.52
T5
X0.55Y-1.0
X0.55Y-1.1
X0.55Y-1.2
X0.55Y-1.4
X0.55Y-1.5
T6
X0.64Y-1.7631
X0.64Y-1.96
T7
X1.4055Y-0.748
X1.4055Y-1.9449
X1.4016Y-0.4409
X1.4375Y-1.375
T8
X1.7323Y-1.4724
X1.7323Y-0.374
X1.752Y-1.9724
X1.2125Y-1.115
X1.752Y-0.874
T9
X0.06Y-1.85
X0.06Y-2.1902
X0.2096Y-1.85
X0.2096Y-2.1902
T10
X0.5748Y-2.1772
X1.6142Y-0.1378
T0
M30
