G04 #@! TF.GenerationSoftware,KiCad,Pcbnew,(5.1.7)-1*
G04 #@! TF.CreationDate,2021-05-24T20:06:32+02:00*
G04 #@! TF.ProjectId,dcdcdc,64636463-6463-42e6-9b69-6361645f7063,rev?*
G04 #@! TF.SameCoordinates,Original*
G04 #@! TF.FileFunction,Legend,Bot*
G04 #@! TF.FilePolarity,Positive*
%FSLAX46Y46*%
G04 Gerber Fmt 4.6, Leading zero omitted, Abs format (unit mm)*
G04 Created by KiCad (PCBNEW (5.1.7)-1) date 2021-05-24 20:06:32*
%MOMM*%
%LPD*%
G01*
G04 APERTURE LIST*
%ADD10C,0.150000*%
%ADD11C,0.010000*%
G04 APERTURE END LIST*
D10*
X38277271Y-1303752D02*
X38048700Y-1303752D01*
X37934414Y-1422800D01*
X37820128Y-1660895D01*
X37762985Y-2137085D01*
X37762985Y-2970419D01*
X37820128Y-3446609D01*
X37934414Y-3684704D01*
X38048700Y-3803752D01*
X38277271Y-3803752D01*
X38391557Y-3684704D01*
X38505842Y-3446609D01*
X38562985Y-2970419D01*
X38562985Y-2137085D01*
X38505842Y-1660895D01*
X38391557Y-1422800D01*
X38277271Y-1303752D01*
X37248700Y-3803752D02*
X37248700Y-1303752D01*
X37248700Y-2256133D02*
X37134414Y-2137085D01*
X36905842Y-2137085D01*
X36791557Y-2256133D01*
X36734414Y-2375180D01*
X36677271Y-2613276D01*
X36677271Y-3327561D01*
X36734414Y-3565657D01*
X36791557Y-3684704D01*
X36905842Y-3803752D01*
X37134414Y-3803752D01*
X37248700Y-3684704D01*
X36162985Y-2137085D02*
X36162985Y-4279942D01*
X36220128Y-4518038D01*
X36334414Y-4637085D01*
X36391557Y-4637085D01*
X36162985Y-1303752D02*
X36220128Y-1422800D01*
X36162985Y-1541847D01*
X36105842Y-1422800D01*
X36162985Y-1303752D01*
X36162985Y-1541847D01*
X35134414Y-3684704D02*
X35248700Y-3803752D01*
X35477271Y-3803752D01*
X35591557Y-3684704D01*
X35648700Y-3446609D01*
X35648700Y-2494228D01*
X35591557Y-2256133D01*
X35477271Y-2137085D01*
X35248700Y-2137085D01*
X35134414Y-2256133D01*
X35077271Y-2494228D01*
X35077271Y-2732323D01*
X35648700Y-2970419D01*
X34048700Y-3684704D02*
X34162985Y-3803752D01*
X34391557Y-3803752D01*
X34505842Y-3684704D01*
X34562985Y-3565657D01*
X34620128Y-3327561D01*
X34620128Y-2613276D01*
X34562985Y-2375180D01*
X34505842Y-2256133D01*
X34391557Y-2137085D01*
X34162985Y-2137085D01*
X34048700Y-2256133D01*
X33705842Y-2137085D02*
X33248699Y-2137085D01*
X33534414Y-1303752D02*
X33534414Y-3446609D01*
X33477271Y-3684704D01*
X33362985Y-3803752D01*
X33248699Y-3803752D01*
X32848699Y-3803752D02*
X32848699Y-2137085D01*
X32848699Y-1303752D02*
X32905842Y-1422800D01*
X32848699Y-1541847D01*
X32791557Y-1422800D01*
X32848699Y-1303752D01*
X32848699Y-1541847D01*
X32391557Y-2137085D02*
X32105842Y-3803752D01*
X31820128Y-2137085D01*
X30905842Y-3684704D02*
X31020128Y-3803752D01*
X31248699Y-3803752D01*
X31362985Y-3684704D01*
X31420128Y-3446609D01*
X31420128Y-2494228D01*
X31362985Y-2256133D01*
X31248699Y-2137085D01*
X31020128Y-2137085D01*
X30905842Y-2256133D01*
X30848699Y-2494228D01*
X30848699Y-2732323D01*
X31420128Y-2970419D01*
X30391557Y-1541847D02*
X30334414Y-1422800D01*
X30220128Y-1303752D01*
X29934414Y-1303752D01*
X29820128Y-1422800D01*
X29762985Y-1541847D01*
X29705842Y-1779942D01*
X29705842Y-2018038D01*
X29762985Y-2375180D01*
X30448699Y-3803752D01*
X29705842Y-3803752D01*
X28277271Y-3803752D02*
X28277271Y-1303752D01*
X28277271Y-2494228D02*
X27591557Y-2494228D01*
X27591557Y-3803752D02*
X27591557Y-1303752D01*
X27020128Y-3803752D02*
X27020128Y-1303752D01*
X26562985Y-1303752D01*
X26448699Y-1422800D01*
X26391557Y-1541847D01*
X26334414Y-1779942D01*
X26334414Y-2137085D01*
X26391557Y-2375180D01*
X26448699Y-2494228D01*
X26562985Y-2613276D01*
X27020128Y-2613276D01*
X25877271Y-3089466D02*
X25305842Y-3089466D01*
X25991557Y-3803752D02*
X25591557Y-1303752D01*
X25191557Y-3803752D01*
X23877271Y-1303752D02*
X23877271Y-3327561D01*
X23820128Y-3565657D01*
X23762985Y-3684704D01*
X23648699Y-3803752D01*
X23420128Y-3803752D01*
X23305842Y-3684704D01*
X23248699Y-3565657D01*
X23191557Y-3327561D01*
X23191557Y-1303752D01*
X22677271Y-3684704D02*
X22505842Y-3803752D01*
X22220128Y-3803752D01*
X22105842Y-3684704D01*
X22048699Y-3565657D01*
X21991557Y-3327561D01*
X21991557Y-3089466D01*
X22048699Y-2851371D01*
X22105842Y-2732323D01*
X22220128Y-2613276D01*
X22448699Y-2494228D01*
X22562985Y-2375180D01*
X22620128Y-2256133D01*
X22677271Y-2018038D01*
X22677271Y-1779942D01*
X22620128Y-1541847D01*
X22562985Y-1422800D01*
X22448699Y-1303752D01*
X22162985Y-1303752D01*
X21991557Y-1422800D01*
X21077271Y-2494228D02*
X20905842Y-2613276D01*
X20848699Y-2732323D01*
X20791557Y-2970419D01*
X20791557Y-3327561D01*
X20848699Y-3565657D01*
X20905842Y-3684704D01*
X21020128Y-3803752D01*
X21477271Y-3803752D01*
X21477271Y-1303752D01*
X21077271Y-1303752D01*
X20962985Y-1422800D01*
X20905842Y-1541847D01*
X20848699Y-1779942D01*
X20848699Y-2018038D01*
X20905842Y-2256133D01*
X20962985Y-2375180D01*
X21077271Y-2494228D01*
X21477271Y-2494228D01*
X19362985Y-3803752D02*
X19362985Y-1303752D01*
X18905842Y-1303752D01*
X18791557Y-1422800D01*
X18734414Y-1541847D01*
X18677271Y-1779942D01*
X18677271Y-2137085D01*
X18734414Y-2375180D01*
X18791557Y-2494228D01*
X18905842Y-2613276D01*
X19362985Y-2613276D01*
X18220128Y-3684704D02*
X18048699Y-3803752D01*
X17762985Y-3803752D01*
X17648699Y-3684704D01*
X17591557Y-3565657D01*
X17534414Y-3327561D01*
X17534414Y-3089466D01*
X17591557Y-2851371D01*
X17648699Y-2732323D01*
X17762985Y-2613276D01*
X17991557Y-2494228D01*
X18105842Y-2375180D01*
X18162985Y-2256133D01*
X18220128Y-2018038D01*
X18220128Y-1779942D01*
X18162985Y-1541847D01*
X18105842Y-1422800D01*
X17991557Y-1303752D01*
X17705842Y-1303752D01*
X17534414Y-1422800D01*
X17020128Y-1303752D02*
X17020128Y-3327561D01*
X16962985Y-3565657D01*
X16905842Y-3684704D01*
X16791557Y-3803752D01*
X16562985Y-3803752D01*
X16448699Y-3684704D01*
X16391557Y-3565657D01*
X16334414Y-3327561D01*
X16334414Y-1303752D01*
X33248700Y-6394228D02*
X33648700Y-6394228D01*
X33648700Y-7703752D02*
X33648700Y-5203752D01*
X33077271Y-5203752D01*
X32620128Y-7703752D02*
X32620128Y-6037085D01*
X32620128Y-5203752D02*
X32677271Y-5322800D01*
X32620128Y-5441847D01*
X32562985Y-5322800D01*
X32620128Y-5203752D01*
X32620128Y-5441847D01*
X32048700Y-7703752D02*
X32048700Y-6037085D01*
X32048700Y-6513276D02*
X31991557Y-6275180D01*
X31934414Y-6156133D01*
X31820128Y-6037085D01*
X31705842Y-6037085D01*
X31362985Y-7584704D02*
X31248700Y-7703752D01*
X31020128Y-7703752D01*
X30905842Y-7584704D01*
X30848700Y-7346609D01*
X30848700Y-7227561D01*
X30905842Y-6989466D01*
X31020128Y-6870419D01*
X31191557Y-6870419D01*
X31305842Y-6751371D01*
X31362985Y-6513276D01*
X31362985Y-6394228D01*
X31305842Y-6156133D01*
X31191557Y-6037085D01*
X31020128Y-6037085D01*
X30905842Y-6156133D01*
X30505842Y-6037085D02*
X30048700Y-6037085D01*
X30334414Y-5203752D02*
X30334414Y-7346609D01*
X30277271Y-7584704D01*
X30162985Y-7703752D01*
X30048700Y-7703752D01*
X28734414Y-6037085D02*
X28734414Y-8537085D01*
X28734414Y-6156133D02*
X28620128Y-6037085D01*
X28391557Y-6037085D01*
X28277271Y-6156133D01*
X28220128Y-6275180D01*
X28162985Y-6513276D01*
X28162985Y-7227561D01*
X28220128Y-7465657D01*
X28277271Y-7584704D01*
X28391557Y-7703752D01*
X28620128Y-7703752D01*
X28734414Y-7584704D01*
X27648700Y-7703752D02*
X27648700Y-6037085D01*
X27648700Y-6513276D02*
X27591557Y-6275180D01*
X27534414Y-6156133D01*
X27420128Y-6037085D01*
X27305842Y-6037085D01*
X26734414Y-7703752D02*
X26848700Y-7584704D01*
X26905842Y-7465657D01*
X26962985Y-7227561D01*
X26962985Y-6513276D01*
X26905842Y-6275180D01*
X26848700Y-6156133D01*
X26734414Y-6037085D01*
X26562985Y-6037085D01*
X26448700Y-6156133D01*
X26391557Y-6275180D01*
X26334414Y-6513276D01*
X26334414Y-7227561D01*
X26391557Y-7465657D01*
X26448700Y-7584704D01*
X26562985Y-7703752D01*
X26734414Y-7703752D01*
X25991557Y-6037085D02*
X25534414Y-6037085D01*
X25820128Y-5203752D02*
X25820128Y-7346609D01*
X25762985Y-7584704D01*
X25648700Y-7703752D01*
X25534414Y-7703752D01*
X24962985Y-7703752D02*
X25077271Y-7584704D01*
X25134414Y-7465657D01*
X25191557Y-7227561D01*
X25191557Y-6513276D01*
X25134414Y-6275180D01*
X25077271Y-6156133D01*
X24962985Y-6037085D01*
X24791557Y-6037085D01*
X24677271Y-6156133D01*
X24620128Y-6275180D01*
X24562985Y-6513276D01*
X24562985Y-7227561D01*
X24620128Y-7465657D01*
X24677271Y-7584704D01*
X24791557Y-7703752D01*
X24962985Y-7703752D01*
X24220128Y-6037085D02*
X23762985Y-6037085D01*
X24048700Y-5203752D02*
X24048700Y-7346609D01*
X23991557Y-7584704D01*
X23877271Y-7703752D01*
X23762985Y-7703752D01*
X23477271Y-6037085D02*
X23191557Y-7703752D01*
X22905842Y-6037085D02*
X23191557Y-7703752D01*
X23305842Y-8298990D01*
X23362985Y-8418038D01*
X23477271Y-8537085D01*
X22448700Y-6037085D02*
X22448700Y-8537085D01*
X22448700Y-6156133D02*
X22334414Y-6037085D01*
X22105842Y-6037085D01*
X21991557Y-6156133D01*
X21934414Y-6275180D01*
X21877271Y-6513276D01*
X21877271Y-7227561D01*
X21934414Y-7465657D01*
X21991557Y-7584704D01*
X22105842Y-7703752D01*
X22334414Y-7703752D01*
X22448700Y-7584704D01*
X20905842Y-7584704D02*
X21020128Y-7703752D01*
X21248700Y-7703752D01*
X21362985Y-7584704D01*
X21420128Y-7346609D01*
X21420128Y-6394228D01*
X21362985Y-6156133D01*
X21248700Y-6037085D01*
X21020128Y-6037085D01*
X20905842Y-6156133D01*
X20848700Y-6394228D01*
X20848700Y-6632323D01*
X21420128Y-6870419D01*
D11*
G36*
X43015199Y-40673450D02*
G01*
X42996555Y-40683899D01*
X43013943Y-40710189D01*
X43061184Y-40769825D01*
X43130900Y-40853732D01*
X43208881Y-40944954D01*
X43504549Y-41320582D01*
X43745334Y-41702106D01*
X43932767Y-42093488D01*
X44068376Y-42498685D01*
X44153690Y-42921657D01*
X44190238Y-43366364D01*
X44191944Y-43490445D01*
X44167363Y-43937425D01*
X44094722Y-44369744D01*
X43975671Y-44780106D01*
X43815681Y-45153696D01*
X43715841Y-45332167D01*
X43587633Y-45533401D01*
X43442768Y-45740414D01*
X43292955Y-45936224D01*
X43196478Y-46051735D01*
X43096062Y-46172371D01*
X43036172Y-46258297D01*
X43015328Y-46312505D01*
X43032047Y-46337985D01*
X43053200Y-46340889D01*
X43085534Y-46323929D01*
X43148014Y-46279103D01*
X43228115Y-46215497D01*
X43242035Y-46203929D01*
X43583965Y-45886015D01*
X43878877Y-45544801D01*
X44125351Y-45183266D01*
X44321968Y-44804386D01*
X44467307Y-44411139D01*
X44559950Y-44006503D01*
X44598478Y-43593455D01*
X44596072Y-43363445D01*
X44554377Y-42946998D01*
X44468142Y-42558096D01*
X44334138Y-42186881D01*
X44149135Y-41823497D01*
X44027367Y-41627778D01*
X43953462Y-41526274D01*
X43855973Y-41407498D01*
X43741850Y-41278410D01*
X43618044Y-41145971D01*
X43491504Y-41017143D01*
X43369180Y-40898887D01*
X43258022Y-40798164D01*
X43164980Y-40721935D01*
X43097005Y-40677161D01*
X43069351Y-40668222D01*
X43015199Y-40673450D01*
G37*
X43015199Y-40673450D02*
X42996555Y-40683899D01*
X43013943Y-40710189D01*
X43061184Y-40769825D01*
X43130900Y-40853732D01*
X43208881Y-40944954D01*
X43504549Y-41320582D01*
X43745334Y-41702106D01*
X43932767Y-42093488D01*
X44068376Y-42498685D01*
X44153690Y-42921657D01*
X44190238Y-43366364D01*
X44191944Y-43490445D01*
X44167363Y-43937425D01*
X44094722Y-44369744D01*
X43975671Y-44780106D01*
X43815681Y-45153696D01*
X43715841Y-45332167D01*
X43587633Y-45533401D01*
X43442768Y-45740414D01*
X43292955Y-45936224D01*
X43196478Y-46051735D01*
X43096062Y-46172371D01*
X43036172Y-46258297D01*
X43015328Y-46312505D01*
X43032047Y-46337985D01*
X43053200Y-46340889D01*
X43085534Y-46323929D01*
X43148014Y-46279103D01*
X43228115Y-46215497D01*
X43242035Y-46203929D01*
X43583965Y-45886015D01*
X43878877Y-45544801D01*
X44125351Y-45183266D01*
X44321968Y-44804386D01*
X44467307Y-44411139D01*
X44559950Y-44006503D01*
X44598478Y-43593455D01*
X44596072Y-43363445D01*
X44554377Y-42946998D01*
X44468142Y-42558096D01*
X44334138Y-42186881D01*
X44149135Y-41823497D01*
X44027367Y-41627778D01*
X43953462Y-41526274D01*
X43855973Y-41407498D01*
X43741850Y-41278410D01*
X43618044Y-41145971D01*
X43491504Y-41017143D01*
X43369180Y-40898887D01*
X43258022Y-40798164D01*
X43164980Y-40721935D01*
X43097005Y-40677161D01*
X43069351Y-40668222D01*
X43015199Y-40673450D01*
G36*
X41726555Y-42984332D02*
G01*
X41317333Y-42964997D01*
X41151226Y-42957436D01*
X41034351Y-42954870D01*
X40959540Y-42960098D01*
X40919625Y-42975919D01*
X40907435Y-43005133D01*
X40915802Y-43050538D01*
X40937053Y-43113491D01*
X40965996Y-43196516D01*
X41353331Y-43195313D01*
X41740666Y-43194111D01*
X41740666Y-44097222D01*
X41740508Y-44347840D01*
X41739779Y-44548533D01*
X41738103Y-44705819D01*
X41735102Y-44826218D01*
X41730398Y-44916248D01*
X41723612Y-44982428D01*
X41714368Y-45031277D01*
X41702286Y-45069314D01*
X41686990Y-45103057D01*
X41681767Y-45113222D01*
X41620904Y-45201718D01*
X41544257Y-45278874D01*
X41526545Y-45292126D01*
X41406389Y-45341771D01*
X41268456Y-45344020D01*
X41124255Y-45299730D01*
X41047411Y-45256485D01*
X40950260Y-45207659D01*
X40883012Y-45202203D01*
X40851042Y-45232653D01*
X40859724Y-45291541D01*
X40914433Y-45371402D01*
X40943389Y-45400977D01*
X41113238Y-45524893D01*
X41307270Y-45599216D01*
X41520116Y-45622445D01*
X41679886Y-45607065D01*
X41854341Y-45552440D01*
X41991391Y-45456527D01*
X42091992Y-45318250D01*
X42157102Y-45136534D01*
X42173163Y-45053131D01*
X42179274Y-44982251D01*
X42183891Y-44863822D01*
X42186914Y-44706721D01*
X42188241Y-44519825D01*
X42187768Y-44312012D01*
X42185395Y-44092160D01*
X42184711Y-44049145D01*
X42170652Y-43210846D01*
X42378993Y-43202479D01*
X42485655Y-43197158D01*
X42547855Y-43188860D01*
X42577554Y-43173074D01*
X42586715Y-43145288D01*
X42587333Y-43123894D01*
X42579276Y-43080519D01*
X42546834Y-43047527D01*
X42477604Y-43014832D01*
X42432488Y-42998013D01*
X42260999Y-42907101D01*
X42108115Y-42766538D01*
X41979217Y-42581543D01*
X41953504Y-42533209D01*
X41901927Y-42438457D01*
X41861104Y-42385613D01*
X41821280Y-42364000D01*
X41796705Y-42361556D01*
X41726555Y-42361556D01*
X41726555Y-42984332D01*
G37*
X41726555Y-42984332D02*
X41317333Y-42964997D01*
X41151226Y-42957436D01*
X41034351Y-42954870D01*
X40959540Y-42960098D01*
X40919625Y-42975919D01*
X40907435Y-43005133D01*
X40915802Y-43050538D01*
X40937053Y-43113491D01*
X40965996Y-43196516D01*
X41353331Y-43195313D01*
X41740666Y-43194111D01*
X41740666Y-44097222D01*
X41740508Y-44347840D01*
X41739779Y-44548533D01*
X41738103Y-44705819D01*
X41735102Y-44826218D01*
X41730398Y-44916248D01*
X41723612Y-44982428D01*
X41714368Y-45031277D01*
X41702286Y-45069314D01*
X41686990Y-45103057D01*
X41681767Y-45113222D01*
X41620904Y-45201718D01*
X41544257Y-45278874D01*
X41526545Y-45292126D01*
X41406389Y-45341771D01*
X41268456Y-45344020D01*
X41124255Y-45299730D01*
X41047411Y-45256485D01*
X40950260Y-45207659D01*
X40883012Y-45202203D01*
X40851042Y-45232653D01*
X40859724Y-45291541D01*
X40914433Y-45371402D01*
X40943389Y-45400977D01*
X41113238Y-45524893D01*
X41307270Y-45599216D01*
X41520116Y-45622445D01*
X41679886Y-45607065D01*
X41854341Y-45552440D01*
X41991391Y-45456527D01*
X42091992Y-45318250D01*
X42157102Y-45136534D01*
X42173163Y-45053131D01*
X42179274Y-44982251D01*
X42183891Y-44863822D01*
X42186914Y-44706721D01*
X42188241Y-44519825D01*
X42187768Y-44312012D01*
X42185395Y-44092160D01*
X42184711Y-44049145D01*
X42170652Y-43210846D01*
X42378993Y-43202479D01*
X42485655Y-43197158D01*
X42547855Y-43188860D01*
X42577554Y-43173074D01*
X42586715Y-43145288D01*
X42587333Y-43123894D01*
X42579276Y-43080519D01*
X42546834Y-43047527D01*
X42477604Y-43014832D01*
X42432488Y-42998013D01*
X42260999Y-42907101D01*
X42108115Y-42766538D01*
X41979217Y-42581543D01*
X41953504Y-42533209D01*
X41901927Y-42438457D01*
X41861104Y-42385613D01*
X41821280Y-42364000D01*
X41796705Y-42361556D01*
X41726555Y-42361556D01*
X41726555Y-42984332D01*
G36*
X38023516Y-41151891D02*
G01*
X38016101Y-41166081D01*
X38009755Y-41194309D01*
X38004397Y-41240316D01*
X37999945Y-41307846D01*
X37996316Y-41400643D01*
X37993430Y-41522449D01*
X37991204Y-41677009D01*
X37989556Y-41868065D01*
X37988406Y-42099361D01*
X37987671Y-42374640D01*
X37987269Y-42697645D01*
X37987119Y-43072120D01*
X37987111Y-43207181D01*
X37987286Y-43606485D01*
X37987531Y-43953099D01*
X37987425Y-44250776D01*
X37986546Y-44503270D01*
X37984473Y-44714333D01*
X37980785Y-44887719D01*
X37975060Y-45027180D01*
X37966877Y-45136470D01*
X37955815Y-45219340D01*
X37941453Y-45279545D01*
X37923369Y-45320836D01*
X37901142Y-45346968D01*
X37874351Y-45361693D01*
X37842574Y-45368763D01*
X37805390Y-45371933D01*
X37762378Y-45374954D01*
X37743543Y-45376949D01*
X37654076Y-45391256D01*
X37608083Y-45410245D01*
X37592621Y-45440318D01*
X37592000Y-45451889D01*
X37594416Y-45474633D01*
X37606572Y-45492826D01*
X37635831Y-45508356D01*
X37689556Y-45523108D01*
X37775111Y-45538970D01*
X37899857Y-45557830D01*
X38071158Y-45581575D01*
X38128222Y-45589322D01*
X38249508Y-45604109D01*
X38349994Y-45613282D01*
X38416504Y-45615811D01*
X38435370Y-45613351D01*
X38445590Y-45580203D01*
X38448775Y-45506617D01*
X38444285Y-45408234D01*
X38443929Y-45403919D01*
X38427563Y-45208705D01*
X38594081Y-45362871D01*
X38777356Y-45500757D01*
X38975420Y-45586574D01*
X39193350Y-45621771D01*
X39436225Y-45607797D01*
X39447070Y-45606152D01*
X39684302Y-45542492D01*
X39894116Y-45431463D01*
X40073358Y-45276660D01*
X40218874Y-45081677D01*
X40327510Y-44850108D01*
X40396112Y-44585549D01*
X40406945Y-44512260D01*
X40418134Y-44301485D01*
X39932484Y-44301485D01*
X39906180Y-44550872D01*
X39844274Y-44777849D01*
X39749513Y-44976125D01*
X39624649Y-45139410D01*
X39472429Y-45261415D01*
X39361303Y-45315160D01*
X39213344Y-45345514D01*
X39046260Y-45340465D01*
X38882740Y-45302525D01*
X38768768Y-45249584D01*
X38624833Y-45131350D01*
X38515097Y-44980471D01*
X38449009Y-44811223D01*
X38437869Y-44749728D01*
X38432164Y-44671019D01*
X38428322Y-44548769D01*
X38426521Y-44395856D01*
X38426939Y-44225159D01*
X38428806Y-44093745D01*
X38432669Y-43912703D01*
X38437030Y-43778297D01*
X38443223Y-43680727D01*
X38452584Y-43610190D01*
X38466446Y-43556886D01*
X38486143Y-43511012D01*
X38513009Y-43462768D01*
X38515199Y-43459038D01*
X38643376Y-43286193D01*
X38794726Y-43161839D01*
X38965758Y-43088198D01*
X39130111Y-43067111D01*
X39315857Y-43094184D01*
X39485182Y-43173240D01*
X39633329Y-43301035D01*
X39755539Y-43474326D01*
X39771468Y-43504296D01*
X39825753Y-43617661D01*
X39863509Y-43719188D01*
X39890342Y-43828887D01*
X39911860Y-43966768D01*
X39920434Y-44035977D01*
X39932484Y-44301485D01*
X40418134Y-44301485D01*
X40422732Y-44214882D01*
X40394867Y-43934630D01*
X40325685Y-43676852D01*
X40217524Y-43446894D01*
X40072717Y-43250102D01*
X39893602Y-43091823D01*
X39749220Y-43006883D01*
X39501080Y-42914014D01*
X39251133Y-42872638D01*
X39006213Y-42882573D01*
X38773157Y-42943636D01*
X38585853Y-43037901D01*
X38510200Y-43084536D01*
X38455651Y-43115646D01*
X38437686Y-43123556D01*
X38431899Y-43096917D01*
X38427836Y-43023274D01*
X38425395Y-42912039D01*
X38424474Y-42772624D01*
X38424969Y-42614438D01*
X38426780Y-42446893D01*
X38429802Y-42279402D01*
X38433934Y-42121374D01*
X38439074Y-41982222D01*
X38445119Y-41871356D01*
X38451966Y-41798188D01*
X38452119Y-41797111D01*
X38480529Y-41663190D01*
X38525103Y-41577287D01*
X38594256Y-41531511D01*
X38696404Y-41517971D01*
X38747857Y-41519779D01*
X38831898Y-41523201D01*
X38874074Y-41515325D01*
X38888702Y-41490260D01*
X38890222Y-41461219D01*
X38885149Y-41427158D01*
X38862917Y-41401037D01*
X38813008Y-41377057D01*
X38724904Y-41349417D01*
X38650333Y-41328932D01*
X38514441Y-41290733D01*
X38374923Y-41248836D01*
X38258732Y-41211377D01*
X38243748Y-41206213D01*
X38148419Y-41175330D01*
X38070072Y-41154219D01*
X38032082Y-41147993D01*
X38023516Y-41151891D01*
G37*
X38023516Y-41151891D02*
X38016101Y-41166081D01*
X38009755Y-41194309D01*
X38004397Y-41240316D01*
X37999945Y-41307846D01*
X37996316Y-41400643D01*
X37993430Y-41522449D01*
X37991204Y-41677009D01*
X37989556Y-41868065D01*
X37988406Y-42099361D01*
X37987671Y-42374640D01*
X37987269Y-42697645D01*
X37987119Y-43072120D01*
X37987111Y-43207181D01*
X37987286Y-43606485D01*
X37987531Y-43953099D01*
X37987425Y-44250776D01*
X37986546Y-44503270D01*
X37984473Y-44714333D01*
X37980785Y-44887719D01*
X37975060Y-45027180D01*
X37966877Y-45136470D01*
X37955815Y-45219340D01*
X37941453Y-45279545D01*
X37923369Y-45320836D01*
X37901142Y-45346968D01*
X37874351Y-45361693D01*
X37842574Y-45368763D01*
X37805390Y-45371933D01*
X37762378Y-45374954D01*
X37743543Y-45376949D01*
X37654076Y-45391256D01*
X37608083Y-45410245D01*
X37592621Y-45440318D01*
X37592000Y-45451889D01*
X37594416Y-45474633D01*
X37606572Y-45492826D01*
X37635831Y-45508356D01*
X37689556Y-45523108D01*
X37775111Y-45538970D01*
X37899857Y-45557830D01*
X38071158Y-45581575D01*
X38128222Y-45589322D01*
X38249508Y-45604109D01*
X38349994Y-45613282D01*
X38416504Y-45615811D01*
X38435370Y-45613351D01*
X38445590Y-45580203D01*
X38448775Y-45506617D01*
X38444285Y-45408234D01*
X38443929Y-45403919D01*
X38427563Y-45208705D01*
X38594081Y-45362871D01*
X38777356Y-45500757D01*
X38975420Y-45586574D01*
X39193350Y-45621771D01*
X39436225Y-45607797D01*
X39447070Y-45606152D01*
X39684302Y-45542492D01*
X39894116Y-45431463D01*
X40073358Y-45276660D01*
X40218874Y-45081677D01*
X40327510Y-44850108D01*
X40396112Y-44585549D01*
X40406945Y-44512260D01*
X40418134Y-44301485D01*
X39932484Y-44301485D01*
X39906180Y-44550872D01*
X39844274Y-44777849D01*
X39749513Y-44976125D01*
X39624649Y-45139410D01*
X39472429Y-45261415D01*
X39361303Y-45315160D01*
X39213344Y-45345514D01*
X39046260Y-45340465D01*
X38882740Y-45302525D01*
X38768768Y-45249584D01*
X38624833Y-45131350D01*
X38515097Y-44980471D01*
X38449009Y-44811223D01*
X38437869Y-44749728D01*
X38432164Y-44671019D01*
X38428322Y-44548769D01*
X38426521Y-44395856D01*
X38426939Y-44225159D01*
X38428806Y-44093745D01*
X38432669Y-43912703D01*
X38437030Y-43778297D01*
X38443223Y-43680727D01*
X38452584Y-43610190D01*
X38466446Y-43556886D01*
X38486143Y-43511012D01*
X38513009Y-43462768D01*
X38515199Y-43459038D01*
X38643376Y-43286193D01*
X38794726Y-43161839D01*
X38965758Y-43088198D01*
X39130111Y-43067111D01*
X39315857Y-43094184D01*
X39485182Y-43173240D01*
X39633329Y-43301035D01*
X39755539Y-43474326D01*
X39771468Y-43504296D01*
X39825753Y-43617661D01*
X39863509Y-43719188D01*
X39890342Y-43828887D01*
X39911860Y-43966768D01*
X39920434Y-44035977D01*
X39932484Y-44301485D01*
X40418134Y-44301485D01*
X40422732Y-44214882D01*
X40394867Y-43934630D01*
X40325685Y-43676852D01*
X40217524Y-43446894D01*
X40072717Y-43250102D01*
X39893602Y-43091823D01*
X39749220Y-43006883D01*
X39501080Y-42914014D01*
X39251133Y-42872638D01*
X39006213Y-42882573D01*
X38773157Y-42943636D01*
X38585853Y-43037901D01*
X38510200Y-43084536D01*
X38455651Y-43115646D01*
X38437686Y-43123556D01*
X38431899Y-43096917D01*
X38427836Y-43023274D01*
X38425395Y-42912039D01*
X38424474Y-42772624D01*
X38424969Y-42614438D01*
X38426780Y-42446893D01*
X38429802Y-42279402D01*
X38433934Y-42121374D01*
X38439074Y-41982222D01*
X38445119Y-41871356D01*
X38451966Y-41798188D01*
X38452119Y-41797111D01*
X38480529Y-41663190D01*
X38525103Y-41577287D01*
X38594256Y-41531511D01*
X38696404Y-41517971D01*
X38747857Y-41519779D01*
X38831898Y-41523201D01*
X38874074Y-41515325D01*
X38888702Y-41490260D01*
X38890222Y-41461219D01*
X38885149Y-41427158D01*
X38862917Y-41401037D01*
X38813008Y-41377057D01*
X38724904Y-41349417D01*
X38650333Y-41328932D01*
X38514441Y-41290733D01*
X38374923Y-41248836D01*
X38258732Y-41211377D01*
X38243748Y-41206213D01*
X38148419Y-41175330D01*
X38070072Y-41154219D01*
X38032082Y-41147993D01*
X38023516Y-41151891D01*
G36*
X35634993Y-42895546D02*
G01*
X35425406Y-42928914D01*
X35250279Y-42981816D01*
X35118209Y-43052114D01*
X35085048Y-43079221D01*
X35039203Y-43131153D01*
X35016622Y-43190551D01*
X35009800Y-43279576D01*
X35009666Y-43301847D01*
X35025760Y-43438826D01*
X35071176Y-43536997D01*
X35141614Y-43591757D01*
X35232777Y-43598506D01*
X35275375Y-43586239D01*
X35311660Y-43556565D01*
X35369468Y-43492434D01*
X35438261Y-43405844D01*
X35462232Y-43373486D01*
X35572987Y-43234734D01*
X35673204Y-43142008D01*
X35772626Y-43088659D01*
X35880994Y-43068038D01*
X35910923Y-43067217D01*
X36081057Y-43093632D01*
X36232933Y-43171124D01*
X36364190Y-43296609D01*
X36472468Y-43467005D01*
X36555408Y-43679228D01*
X36610648Y-43930197D01*
X36619087Y-43992245D01*
X36631350Y-44267563D01*
X36601080Y-44524876D01*
X36530680Y-44758273D01*
X36422552Y-44961839D01*
X36279098Y-45129664D01*
X36106501Y-45253787D01*
X36013621Y-45299509D01*
X35931976Y-45323902D01*
X35836256Y-45332600D01*
X35753092Y-45332482D01*
X35540078Y-45308431D01*
X35358669Y-45242079D01*
X35198663Y-45129047D01*
X35136558Y-45067854D01*
X35046480Y-44986465D01*
X34968651Y-44942053D01*
X34910135Y-44933257D01*
X34878001Y-44958717D01*
X34879312Y-45017071D01*
X34921134Y-45106959D01*
X34922442Y-45109084D01*
X35055046Y-45274554D01*
X35228552Y-45416914D01*
X35429245Y-45527300D01*
X35643410Y-45596846D01*
X35690897Y-45605773D01*
X35804701Y-45622852D01*
X35890544Y-45629948D01*
X35972311Y-45626930D01*
X36073887Y-45613667D01*
X36138555Y-45603319D01*
X36374160Y-45537705D01*
X36583746Y-45424922D01*
X36763996Y-45269477D01*
X36911596Y-45075879D01*
X37023229Y-44848633D01*
X37095580Y-44592249D01*
X37125333Y-44311234D01*
X37125916Y-44260985D01*
X37101463Y-43964534D01*
X37030491Y-43695106D01*
X36914827Y-43455816D01*
X36756296Y-43249779D01*
X36556724Y-43080111D01*
X36371629Y-42974019D01*
X36282734Y-42933741D01*
X36209027Y-42907618D01*
X36133665Y-42892619D01*
X36039806Y-42885715D01*
X35910607Y-42883875D01*
X35870444Y-42883851D01*
X35634993Y-42895546D01*
G37*
X35634993Y-42895546D02*
X35425406Y-42928914D01*
X35250279Y-42981816D01*
X35118209Y-43052114D01*
X35085048Y-43079221D01*
X35039203Y-43131153D01*
X35016622Y-43190551D01*
X35009800Y-43279576D01*
X35009666Y-43301847D01*
X35025760Y-43438826D01*
X35071176Y-43536997D01*
X35141614Y-43591757D01*
X35232777Y-43598506D01*
X35275375Y-43586239D01*
X35311660Y-43556565D01*
X35369468Y-43492434D01*
X35438261Y-43405844D01*
X35462232Y-43373486D01*
X35572987Y-43234734D01*
X35673204Y-43142008D01*
X35772626Y-43088659D01*
X35880994Y-43068038D01*
X35910923Y-43067217D01*
X36081057Y-43093632D01*
X36232933Y-43171124D01*
X36364190Y-43296609D01*
X36472468Y-43467005D01*
X36555408Y-43679228D01*
X36610648Y-43930197D01*
X36619087Y-43992245D01*
X36631350Y-44267563D01*
X36601080Y-44524876D01*
X36530680Y-44758273D01*
X36422552Y-44961839D01*
X36279098Y-45129664D01*
X36106501Y-45253787D01*
X36013621Y-45299509D01*
X35931976Y-45323902D01*
X35836256Y-45332600D01*
X35753092Y-45332482D01*
X35540078Y-45308431D01*
X35358669Y-45242079D01*
X35198663Y-45129047D01*
X35136558Y-45067854D01*
X35046480Y-44986465D01*
X34968651Y-44942053D01*
X34910135Y-44933257D01*
X34878001Y-44958717D01*
X34879312Y-45017071D01*
X34921134Y-45106959D01*
X34922442Y-45109084D01*
X35055046Y-45274554D01*
X35228552Y-45416914D01*
X35429245Y-45527300D01*
X35643410Y-45596846D01*
X35690897Y-45605773D01*
X35804701Y-45622852D01*
X35890544Y-45629948D01*
X35972311Y-45626930D01*
X36073887Y-45613667D01*
X36138555Y-45603319D01*
X36374160Y-45537705D01*
X36583746Y-45424922D01*
X36763996Y-45269477D01*
X36911596Y-45075879D01*
X37023229Y-44848633D01*
X37095580Y-44592249D01*
X37125333Y-44311234D01*
X37125916Y-44260985D01*
X37101463Y-43964534D01*
X37030491Y-43695106D01*
X36914827Y-43455816D01*
X36756296Y-43249779D01*
X36556724Y-43080111D01*
X36371629Y-42974019D01*
X36282734Y-42933741D01*
X36209027Y-42907618D01*
X36133665Y-42892619D01*
X36039806Y-42885715D01*
X35910607Y-42883875D01*
X35870444Y-42883851D01*
X35634993Y-42895546D01*
M02*
